<?xml version="1.0" encoding="utf-8"?>
<!-- Generator: Adobe Illustrator 25.4.1, SVG Export Plug-In . SVG Version: 6.00 Build 0)  -->
<svg version="1.1" xmlns="http://www.w3.org/2000/svg" xmlns:xlink="http://www.w3.org/1999/xlink" x="0px" y="0px"
	 viewBox="0 0 32 32" style="enable-background:new 0 0 32 32;" xml:space="preserve">
<style type="text/css">
	.st0{display:none;}
	.st1{display:inline;}
	.st2{fill:#269D3F;}
</style>
<g id="Layer_1" class="st0">
	<g id="Layer_2" class="st1">
		<g id="Layer_1-2">
			<path class="st2" d="M13,16h1.1v6.6c0,0.1,0.1,0.3,0.3,0.3h2.9c0.1,0,0.3-0.1,0.3-0.3V16h1.7c0.1,0,0.3-0.1,0.3-0.2l0.3-2.4
				c0-0.1-0.1-0.3-0.2-0.3c0,0,0,0,0,0h-1.9v-1.2c0-0.1,0-0.2,0-0.2s0.1-0.1,0.2-0.1c0,0,0.1,0,0.1,0h1.5c0.1,0,0.3-0.1,0.3-0.3V8.9
				c0-0.1-0.1-0.3-0.3-0.3l-2.1,0l0,0c-0.5,0-1.1,0.1-1.6,0.3c-0.3,0.1-0.6,0.3-0.8,0.6c-0.3,0.3-0.5,0.7-0.6,1.1
				c-0.1,0.4-0.2,0.7-0.2,1.1v1.3H13c-0.1,0-0.3,0.1-0.3,0.3v2.4C12.8,15.9,12.9,16,13,16L13,16z"/>
			<path class="st2" d="M16.2,31.7c8.8,0,16-7.1,16-16s-7.2-16-16-16s-16,7.2-16,16c0,4.3,1.7,8.3,4.7,11.3
				C7.9,30.1,12,31.7,16.2,31.7z M16.2,1.4c7.9,0,14.4,6.4,14.4,14.4c0,7.9-6.4,14.4-14.4,14.4c-7.9,0-14.4-6.4-14.4-14.4
				c0-3.8,1.5-7.5,4.2-10.2C8.8,2.9,12.4,1.4,16.2,1.4L16.2,1.4z"/>
		</g>
	</g>
</g>
<g id="圖層_2" class="st0">
	<g id="Layer_2_00000015327044650032263960000017622625921466358704_" class="st1">
		<g id="Layer_1-2_00000177470551498881616440000003581778713867821472_">
			<path class="st2" d="M16,32c8.8,0,16-7.1,16-16c0-8.8-7.2-16-16-16S0,7.2,0,16c0,4.3,1.7,8.3,4.7,11.3C7.7,30.3,11.7,32,16,32z
				 M16,1.6c7.9,0,14.4,6.4,14.4,14.4C30.4,24,24,30.4,16,30.4C8.1,30.4,1.6,24,1.6,16c0-3.8,1.5-7.5,4.2-10.2
				C8.5,3.2,12.2,1.6,16,1.6L16,1.6z"/>
			<path class="st2" d="M8.6,20.8c1.4,0.9,3,1.4,4.7,1.4c1.3,0,2.6-0.3,3.7-0.8c1.5-0.7,2.8-1.9,3.7-3.4c0.8-1.4,1.3-2.9,1.3-4.5
				c0-0.1,0-0.2,0-0.3c0.6-0.4,1-0.9,1.4-1.5c0.1-0.1,0-0.3-0.1-0.4c-0.1-0.1-0.2-0.1-0.3,0c-0.2,0.1-0.4,0.2-0.6,0.2
				c0.3-0.3,0.5-0.7,0.6-1.1c0-0.1,0-0.3-0.2-0.3c-0.1,0-0.2,0-0.2,0c-0.5,0.3-1.1,0.5-1.7,0.7c-1.3-1.2-3.3-1.2-4.6,0.1
				c-0.6,0.6-0.9,1.4-0.9,2.2c0,0.1,0,0.3,0,0.4c-2.2-0.2-4.2-1.3-5.6-3c-0.1-0.1-0.3-0.1-0.4,0c0,0,0,0-0.1,0.1
				c-0.7,1.2-0.6,2.6,0.3,3.6c-0.1,0-0.2-0.1-0.3-0.2c-0.1-0.1-0.3,0-0.4,0.1c0,0,0,0.1,0,0.1c0,0,0,0,0,0c0,1.1,0.6,2.1,1.5,2.7
				c0,0-0.1,0-0.1,0c-0.1,0-0.3,0.1-0.3,0.2c0,0,0,0.1,0,0.1c0.3,1.1,1.2,1.9,2.3,2.1c-1.1,0.7-2.4,0.9-3.6,0.8
				c-0.1,0-0.3,0.1-0.3,0.2C8.5,20.6,8.5,20.7,8.6,20.8L8.6,20.8z"/>
		</g>
	</g>
</g>
<g id="圖層_3">
	<g>
		<g>
			<g>
				<path class="st2" d="M16,31.3c-0.1,0-0.3,0-0.3-0.1c-0.3-0.1-0.4-0.4-0.4-0.6v-3.2C6.8,27.1,0,21.3,0,14.1C0,6.7,7.2,0.7,16,0.7
					s16,6,16,13.4c0,4.2-2.2,7.9-6.1,10.4l-9.6,6.7C16.3,31.3,16.1,31.3,16,31.3z M16,2.1c-8.1,0-14.6,5.4-14.6,12
					c0,6.7,6.5,12,14.6,12c0.4,0,0.7,0.3,0.7,0.7v2.5l8.5-5.8c3.5-2.4,5.4-5.7,5.4-9.3C30.6,7.5,24.1,2.1,16,2.1z"/>
			</g>
		</g>
		<g>
			<g>
				<path class="st2" d="M10.3,18.6H7.1c-0.4,0-0.7-0.3-0.7-0.7v-7.5c0-0.4,0.3-0.7,0.7-0.7c0.4,0,0.7,0.3,0.7,0.7v6.8h2.5
					c0.4,0,0.7,0.3,0.7,0.7C11,18.4,10.6,18.6,10.3,18.6z"/>
			</g>
			<g>
				<path class="st2" d="M12.9,18.6c-0.4,0-0.7-0.3-0.7-0.7v-7.5c0-0.4,0.3-0.7,0.7-0.7s0.7,0.3,0.7,0.7v7.5
					C13.6,18.4,13.4,18.6,12.9,18.6z"/>
			</g>
			<g>
				<path class="st2" d="M18.9,18.6c-0.4,0-0.7-0.3-0.7-0.7v-7.5c0-0.4,0.3-0.7,0.7-0.7s0.7,0.3,0.7,0.7v7.5
					C19.6,18.4,19.3,18.6,18.9,18.6z"/>
			</g>
			<g>
				<path class="st2" d="M15.7,18.6c-0.4,0-0.7-0.3-0.7-0.7v-7.5c0-0.4,0.3-0.7,0.7-0.7s0.7,0.3,0.7,0.7v7.5
					C16.4,18.4,16.1,18.6,15.7,18.6z"/>
			</g>
			<g>
				<path class="st2" d="M18.9,18.6c-0.3,0-0.6-0.1-0.7-0.4L15,10.7c-0.1-0.4,0-0.7,0.4-1c0.4-0.1,0.7,0,1,0.4l3.2,7.5
					c0.1,0.4,0,0.7-0.4,1C19.1,18.6,19.1,18.6,18.9,18.6z"/>
			</g>
			<g>
				<path class="st2" d="M24.9,18.6h-3.2c-0.4,0-0.7-0.3-0.7-0.7v-7.5c0-0.4,0.3-0.7,0.7-0.7h3.2c0.4,0,0.7,0.3,0.7,0.7
					c0,0.4-0.3,0.7-0.7,0.7h-2.5v6.1h2.5c0.4,0,0.7,0.3,0.7,0.7C25.6,18.4,25.3,18.6,24.9,18.6z"/>
			</g>
			<g>
				<path class="st2" d="M24.9,14.9h-3.2c-0.4,0-0.7-0.3-0.7-0.7s0.3-0.7,0.7-0.7h3.2c0.4,0,0.7,0.3,0.7,0.7S25.3,14.9,24.9,14.9z"
					/>
			</g>
		</g>
	</g>
</g>
</svg>
