<?xml version="1.0" encoding="utf-8"?>
<!-- Generator: Adobe Illustrator 25.4.1, SVG Export Plug-In . SVG Version: 6.00 Build 0)  -->
<svg version="1.1" id="圖層_1" xmlns="http://www.w3.org/2000/svg" xmlns:xlink="http://www.w3.org/1999/xlink" x="0px" y="0px"
	 viewBox="0 0 84 76" style="enable-background:new 0 0 84 76;" xml:space="preserve">
<style type="text/css">
	.st0{fill:#F16C53;}
	.st1{fill:#1C0F17;}
</style>
<g>
	<g>
		<path class="st0" d="M55.6,59.1c0,0.1,0.1,0,0.2-0.2c0.1-0.2,0.2-0.4,0.2-0.4c0-0.1,0,0-0.2,0.2C55.6,58.9,55.6,59.1,55.6,59.1
			L55.6,59.1z"/>
		<path class="st0" d="M55.7,59.6c0,0.3,0,0.3,0.2,0.1c0.1-0.1,0.1-0.2,0-0.2C55.8,59.3,55.7,59.4,55.7,59.6L55.7,59.6z"/>
		<path class="st0" d="M57.4,57.7c0.1-0.1,0.2-0.1,0.1-0.1C57.5,57.6,57.4,57.7,57.4,57.7C57.3,57.7,57.3,57.8,57.4,57.7L57.4,57.7z
			"/>
		<path class="st0" d="M58.1,57c0,0,0,0.1-0.1,0.3c-0.4,0.7-0.5,0.8-0.2,1.3c0.2,0.4,0.2,0.4,0,0.6c-0.1,0.1-0.1,0.1-0.1,0.3
			c0,0.2-0.1,0.3-0.2,0.3c0,0-0.1,0-0.2,0c0,0-0.2,0-0.2,0c-0.1,0-0.2,0-0.3,0.2c-0.4,0.6-0.4,0.6-0.6,0.5c-0.2,0-0.3,0.4-0.1,0.6
			c0,0,0.1,0.1,0.1,0.2c0,0.1,0.1,0.1,0.1,0c0-0.1,0.1-0.2,0.1-0.2c0-0.1,0.1-0.2,0.2-0.1c0,0,0.1,0,0.1,0c0.1-0.1,0.2,0,0.2,0.1
			c0,0-0.1,0.1-0.1,0.1c-0.1,0-0.1,0,0.1,0.3c0.2,0.2,0.2,0.3,0,0.4c-0.1,0.1-0.1,0.2,0,0.1c0.1,0,0.1,0,0.1,0.1
			c0,0.2-0.1,0.2-0.3,0.2c-0.2,0-0.3,0-0.3-0.1c-0.1-0.1-0.1-0.1-0.2,0c0,0.1-0.1,0.1-0.1,0.2c0,0,0,0.1,0,0.2c0,0.1,0,0.2,0,0.3
			c0,0.1,0.1,0.1,0.2,0.1c0.2,0,0.3,0.1,0.3,0.3c0,0.1,0,0.1-0.1,0.1c-0.1,0-0.1,0-0.1,0.1c0,0.1,0.1,0.1,0.1,0c0-0.1,0.1-0.1,0.1,0
			c0,0,0,0.2-0.1,0.3c-0.1,0.2-0.1,0.4-0.1,0.4c0,0.1,0,0.2,0,0.2c0,0.1,0,0.1,0.1,0.1c0.1,0,0.1,0.1,0,0.2c0,0.1,0,0.2,0,0.2
			c0,0,0,0.1,0,0.2c0,0.1,0,0.2,0,0.4c0.1,0.3,0.1,0.4,0,0.3c-0.1-0.1-0.1-0.1-0.1,0c0,0.1,0,0.2,0,0.2c0,0.1,0,0.1,0.1,0.1
			c0.1,0,0.2,0,0.2,0.1c0,0,0,0.1,0,0.2c0,0.1,0,0.2,0,0.2c0,0,0.1,0.1,0.2,0.2c0.2,0.1,0.2,0.1,0.1,0.2c-0.1,0-0.1,0.1,0,0.3
			c0,0.1,0,0.2,0,0.3c0,0,0,0.1,0,0.2c0,0.1,0.1,0.2,0,0.2c0,0.1,0.2,0.5,0.3,0.5c0.1,0,0.2,0.2,0.2,0.3c0,0,0,0.2,0.1,0.2
			c0.1,0.1,0.1,0.2,0.1,0.3c0,0.1,0.1,0.3,0.1,0.4c0.1,0.1,0.2,0.3,0.2,0.4c0,0.1,0.1,0.1,0.2,0.2c0.1,0,0.2,0.2,0.3,0.3
			c0.1,0.1,0.2,0.2,0.3,0.2c0.2,0.1,0.4,0.2,0.6,0.4c0.1,0.2,0.4,0.4,0.5,0.3c0.1,0,0.2,0.1,0.4,0.3c0.3,0.2,0.4,0.3,0.4,0.2
			c0.1,0,0.1,0,0.1,0.1c0,0.1,0.1,0.1,0.1,0.1c0.1,0,0.1,0,0.4,0.2c0.2,0.1,0.4,0.2,0.4,0.2c0,0,0.1,0,0.1,0.1c0.1,0,0.1,0,0.2,0
			c0.1-0.1,0.1,0,0.6,0.3c0.3,0.2,0.6,0.3,0.6,0.3c0,0,0.2,0,0.3,0.1c0.1,0.1,0.3,0.1,0.3,0.1c0.1,0,0.3-0.1,0.4-0.2
			c0,0,0.1,0,0.4,0.2c0.3,0.2,0.4,0.2,0.5,0.2c0.1,0,0.2,0,0.2,0.1c0,0,0.1,0.1,0.3,0.1c0.2,0,0.4,0.1,0.4,0.1
			c0.1,0.1,0.2,0.1,0.3,0c0.1-0.1,0.2-0.1,0.3,0c0.1,0.1,0.1,0.1,0.1,0c0-0.1,0.4-0.1,0.4,0c0,0,0.1,0,0.2,0c0.1,0,0.2,0,0.3,0.1
			c0.1,0.1,0.3,0.1,0.3,0.1c0.1,0,0.2,0,0.4,0.1c0.3,0,0.8,0,0.8-0.1c0-0.1,0.1,0,0.1,0.1c0,0.1,0.1,0.1,0.3,0.1c0.2,0,0.3,0,0.4,0
			c0,0,0.2,0,0.3,0c0.1,0,0.3,0,0.3,0c0.1,0,0.2-0.1,0.3-0.1c0.1,0,0.2,0,0.2-0.1c0.1-0.1,0.1-0.1,0.3,0c0,0,0.1,0,0.1-0.1
			c0-0.1,0.1-0.1,0.2,0c0.1,0.1,0.2,0.1,0.5,0.1c0.2,0,0.3-0.1,0.4,0c0.1,0.1,0.7-0.1,0.8-0.2c0.1-0.1,0.3-0.1,0.3-0.1
			c0,0.1,0.6-0.1,0.8-0.2c0.1-0.1,0.2-0.1,0.3-0.1c0.1,0,0.2,0,0.3-0.1c0.1-0.1,0.1-0.1,0.3-0.1c0.1,0,0.2,0,0.2,0
			c0,0,0.1-0.1,0.1-0.1c0.1,0,0.1,0,0.2-0.1c0,0,0.1-0.1,0.2-0.1s0.1,0,0.2-0.1c0,0,0.1-0.1,0.2-0.1c0.1,0,0.2-0.1,0.3-0.1
			c0.1-0.1,0.2-0.1,0.2-0.1c0.1,0,0.4-0.2,0.3-0.3c0-0.1,0.1-0.2,0.2-0.1c0.1,0.1,0.1,0,0.3-0.1c0.1-0.1,0.2-0.2,0.4-0.2
			c0.2,0,0.2-0.1,0.3-0.2c0.1-0.2,0.1-0.2,0.3-0.2c0.1,0,0.2-0.1,0.2-0.1c0-0.1,0.2-0.2,0.4-0.4c0.2-0.2,0.4-0.4,0.4-0.4
			c0-0.1,0.2-0.3,0.3-0.5c0.2-0.3,0.3-0.4,0.4-0.7c0.1-0.2,0.2-0.4,0.3-0.6c0.2-0.3,0.3-0.6,0.3-0.8c0,0,0-0.1,0.1-0.2
			c0.1-0.1,0.1-0.2,0.1-0.3c0-0.1,0-0.2,0.1-0.3c0.1-0.1,0.1-0.1,0.1-0.2c0-0.1,0-0.2,0-0.2c0.1-0.2,0.1-0.2,0.1-0.3
			c0,0,0-0.1,0.1-0.3c0.1-0.2,0.2-0.3,0.1-0.3c0-0.1,0-0.2,0.1-0.3c0.1-0.1,0.1-0.3,0.1-0.5c0-0.1,0-0.3,0.1-0.4
			c0.1-0.2,0.3-1.6,0.3-2.3c0-0.2,0-0.4,0-0.5c0-0.1,0-0.3,0-0.5c0-0.2,0-0.4,0-0.6c0-0.2,0-0.3,0-0.3c0,0,0-0.1,0-0.2
			c0.1-0.3-0.2-1.7-0.3-1.7c0,0-0.1-0.2-0.1-0.4c0-0.3-0.1-0.4-0.2-0.3c-0.1,0-0.2-0.1-0.1-0.2c0.1-0.1,0.1-0.1,0-0.2
			c-0.1-0.1-0.1-0.2-0.2-0.3c-0.1-0.3-0.3-0.6-0.5-0.8c-0.1-0.1-0.2-0.2-0.2-0.3c0-0.1-0.3-0.4-0.6-0.7c-0.1-0.2-0.2-0.2-0.3-0.2
			c-0.1,0-0.1-0.1-0.2-0.1c0-0.2-0.3-0.3-0.7-0.5c-0.2-0.1-0.3-0.2-0.3-0.2c0-0.1-0.2-0.2-0.3-0.2c0,0-0.1,0-0.1-0.1
			c0,0-0.1-0.1-0.2-0.2c-0.1,0-0.1-0.1-0.2-0.2c-0.1-0.1-0.1-0.1-0.2-0.1c-0.1,0-0.1,0-0.1-0.1c0-0.1-0.6-0.5-0.9-0.6
			c-0.2,0-0.2-0.1-0.3-0.2c0-0.1-0.1-0.1-0.2-0.2c-0.1,0-0.2-0.1-0.2-0.1c0-0.1-0.1-0.1-0.1-0.1c0,0-0.2-0.1-0.3-0.2
			c-0.1-0.1-0.3-0.2-0.4-0.2c-0.1,0-0.3-0.1-0.5-0.2c-0.2-0.1-0.4-0.2-0.5-0.2c-0.4-0.1-0.7-0.2-1.1-0.3c-0.2-0.1-0.4-0.1-0.6-0.1
			c-0.1,0-0.2,0-0.3-0.1c0,0-0.1,0-0.1,0c0,0-0.1,0-0.2,0C71.2,51.1,71,51,70.8,51c-0.4,0-0.8,0-0.8,0c-0.1-0.1-0.5-0.1-0.8,0
			c-0.1,0-0.3,0-0.3,0c0,0-0.1,0-0.1,0c0,0-0.1,0-0.1,0c0,0-0.3,0-0.6,0c-0.3,0-0.6,0.1-0.7,0.1c-0.2,0-1,0.1-1,0.2
			c0,0-0.1,0-0.2,0.1c-0.1,0-0.2,0.1-0.4,0.1c-0.1,0.1-0.2,0.1-0.3,0.1c-0.1,0-0.3,0.1-0.5,0.2c0,0-0.1,0-0.2,0
			c-0.1,0-0.2,0-0.3,0.1c-0.2,0.1-0.6,0.4-0.7,0.4c0,0-0.1,0-0.2,0.1c-0.1,0-0.3,0.2-0.4,0.3c-0.5,0.3-1,0.6-1.4,0.8
			c-0.2,0.1-0.4,0.3-0.4,0.3c0,0-0.2,0.1-0.3,0.3c-0.1,0.1-0.3,0.3-0.4,0.3c-0.1,0-0.5,0.3-1,0.9c-0.3,0.3-0.7,0.7-0.7,0.8
			c0,0-0.1,0.1-0.1,0.1c-0.2,0.1-0.4,0.4-0.5,0.6c-0.1,0.2-0.2,0.2-0.3,0.3C58.1,56.9,58.1,56.9,58.1,57L58.1,57z M56.4,63.9
			c0.1,0,0,0.2-0.1,0.2c0,0-0.1,0-0.1,0C56.2,64,56.4,63.9,56.4,63.9L56.4,63.9z M81.2,59.4C81.2,59.4,81.2,59.5,81.2,59.4
			C81.2,59.5,81.2,59.5,81.2,59.4C81.1,59.5,81.1,59.4,81.2,59.4L81.2,59.4z"/>
		<path class="st0" d="M55.2,63.7c0,0.1,0.1,0.1,0.2,0c0-0.1,0-0.1,0-0.2C55.2,63.5,55.1,63.6,55.2,63.7L55.2,63.7z"/>
		<path class="st0" d="M55.9,63.3C55.9,63.3,55.9,63.3,55.9,63.3c0-0.1,0-0.1,0-0.1C55.9,63.2,55.9,63.2,55.9,63.3
			C55.9,63.2,55.9,63.3,55.9,63.3L55.9,63.3z"/>
		<path class="st0" d="M80,70.1c-0.1,0.1,0,0.2,0.1,0.3c0.1,0,0.1,0,0.2-0.2c0.1-0.3,0.2-0.5,0.1-0.5c-0.1,0-0.4,0.2-0.4,0.2
			C80.1,70,80.1,70,80,70.1L80,70.1z"/>
	</g>
	<g>
		<path class="st0" d="M42.6,35.1c-0.3,0.5-0.6,1.1-0.9,2.1c-0.3,1.1-0.5,1.7-0.4,2.1c0,0.1,0,0.2,0,0.3c-0.1,0.3,0,0.8,0.1,1.5
			c0.1,0.3,0.2,0.7,0.2,0.7c0,0.1,0.1,0.2,0.1,0.3c0.1,0.1,0.1,0.3,0.2,0.4c0.1,0.2,0.2,0.3,0.2,0.5c0,0,0,0.1,0,0.1
			c0,0,0.1,0.2,0.2,0.4c0.1,0.2,0.2,0.4,0.2,0.4c0.1,0.1,0.3,0.3,0.3,0.5c0,0.1,0.1,0.3,0.2,0.4c0.1,0.1,0.2,0.3,0.2,0.3
			c0.1,0.2,0.2,0.5,0.3,0.5c0,0,0.1,0.1,0.2,0.2c0.2,0.3,0.5,0.7,0.6,0.7c0.1,0,0.1,0.1,0.2,0.2c0.1,0.2,0.4,0.5,0.6,0.7
			c0.1,0.1,0.1,0.1,0.2,0.2c0,0,0.1,0.1,0.1,0.1c0.1,0,0.1,0,0.1,0.1c0,0,0.1,0.1,0.2,0.1c0.1,0.1,0.2,0.1,0.2,0.2
			c0.1,0.3,1.8,1.2,2.2,1.2c0.2,0,0.2,0,0.4,0.3c0.1,0.1,0.1,0.1,0.2,0.1c0.1,0,0.2,0.1,0.3,0.1c0.1,0.1,0.3,0.1,0.5,0.1
			c0.2,0,0.4,0,0.4,0c0.1,0,0.2,0,0.2,0c0.1,0,0.2,0,0.3,0.1c0.1,0.1,0.2,0.1,0.2,0.1c0,0,0.1,0,0.2,0c0.1,0,0.2,0,0.2,0.1
			c0.1,0.1,0.1,0.1,0.3,0.1c0.1,0,0.3,0,0.4-0.1c0.1,0,0.2,0,0.3,0c0.1,0,0.2,0,0.3,0.1c0.1,0.1,0.2,0.1,0.3,0.1c0.1,0,0.1,0,0.2,0
			c0,0,0.1,0,0.1,0c0.1,0,0.2,0,0.3,0c0.1,0,0.2,0,0.3,0c0.1-0.1,0.3-0.1,0.4,0.1c0.1,0.1,0.1,0.1,0.2,0.1c0.1,0,0.3,0,0.4,0
			c0.1,0,0.2,0,0.3,0c0,0,0.1-0.1,0.2-0.1c0.1,0,0.2,0,0.2-0.1c0.1-0.1,0.1-0.1,0.3,0c0.2,0.1,0.2,0.1,0.2,0.2c0,0.1,0,0.1,0.2,0.1
			c0.1,0,0.2-0.1,0.2-0.1c0.1-0.1,0.6-0.3,0.7-0.3c0.1,0,0.1,0,0.2-0.1c0.1-0.1,0.1-0.2,0.3-0.2c0.1,0,0.3-0.1,0.4-0.1
			c0.1,0,0.2-0.1,0.3-0.1c0.1,0,0.2,0,0.3-0.1c0.1-0.1,0.2-0.1,0.3-0.1c0.4,0,0.8-0.1,0.9-0.3c0.1-0.1,0.1-0.1,0.2-0.1
			c0.1,0,0.3-0.1,0.4-0.2c0-0.1,0.1-0.1,0.2-0.1c0.3,0,0.8-0.3,0.9-0.5c0.1-0.1,0.1-0.2,0.2-0.1c0.1,0.1,0.6-0.1,0.6-0.2
			c0,0,0-0.1,0-0.2c-0.1-0.2,0.2-0.3,0.6-0.2c0.1,0,0.2,0,0.3-0.1c0.1-0.1,0.2-0.1,0.3-0.2c0.1,0,0.2-0.1,0.2-0.2
			c0.1-0.1,0.1-0.1,0-0.1c-0.1,0-0.2,0-0.2,0c-0.1,0-0.2,0-0.3,0c-0.2,0.1-0.2,0-0.1-0.1c0,0,0.2-0.1,0.5-0.2c0.2,0,0.5-0.1,0.6-0.2
			c0.1,0,0.3-0.1,0.4-0.1c0.2-0.1,0.5-0.4,1-1.1c0.2-0.3,0.4-0.6,0.5-0.7c0-0.1,0-0.2,0-0.3c-0.1-0.2,0-0.3,0.1-0.3
			c0.1,0,0.1,0,0.3-0.6c0-0.1,0.1-0.3,0.2-0.4c0.1-0.1,0.1-0.3,0.1-0.4c0-0.1,0-0.2,0.1-0.2c0.1-0.1,0.2-0.6,0.3-0.8
			c0-0.1,0-0.1,0.1-0.2c0.1-0.2,0.1-0.6,0-0.6c0,0-0.1-0.1,0-0.1c0,0,0.1-0.1,0.2-0.3c0.2-0.3,0.2-0.6,0.1-0.8c0-0.1,0-0.2,0.1-0.2
			c0.1-0.1,0.1-0.2,0.1-0.2c0-0.1,0-0.2,0-0.4c0-0.2,0-0.4,0-0.4c0,0,0-0.1,0-0.2c0-0.1,0.1-0.2,0.1-0.4c0-0.1,0-0.4,0.1-0.6
			c0-0.2,0-0.4,0-0.4c0-0.1,0.1-0.9,0.1-0.9c0-0.1,0-0.3,0-0.5c0-0.1,0-0.2,0-0.4c0-0.1,0.1-0.3,0.1-0.4c0-0.1-0.1-0.2-0.2-0.1
			c0,0-0.1,0-0.1,0.1c-0.2,0-0.4-0.3-0.6-0.8c-0.1-0.4-0.1-0.5,0-0.7c0.1-0.1,0.1-0.2-0.1-0.3c-0.2-0.1-0.2-0.3-0.2-0.4
			c0,0,0-0.1-0.1-0.2c-0.1-0.1-0.1-0.1-0.1,0c-0.1,0.1-0.3,0.2-0.3,0.2c0,0-0.1,0-0.1,0c-0.1,0.1-0.3,0-0.3-0.2
			c0.1-0.2,0.6-0.4,0.8-0.4c0.2,0,0.2,0,0.3-0.2c0.1-0.2,0.1-0.2,0-0.3c-0.2-0.1-0.2-0.2-0.2-0.2c0,0,0-0.1-0.1-0.2
			c-0.2-0.2-0.4-0.2-0.6-0.2c-0.2,0-0.2,0-0.4-0.2c-0.1-0.1-0.2-0.2-0.3-0.3c0-0.1-0.1-0.1-0.2-0.2c-0.2,0-0.2-0.1,0-0.2
			c0.1-0.1,0.1-0.1,0.1-0.1c0,0-0.1-0.1-0.2-0.1c-0.1,0-0.2-0.1-0.3-0.1c-0.1,0-0.2-0.1-0.3-0.1c-0.1,0-0.9-0.3-1-0.4
			c0,0-0.1-0.2-0.1-0.3c0-0.3-0.1-0.4-0.2-0.3c-0.1,0-0.6,0-0.8-0.1c-0.1,0-0.3-0.1-0.7-0.1c-0.1,0-0.2-0.1-0.3-0.1
			c0,0-0.1-0.1-0.2-0.1c-0.2,0-0.3-0.1-0.3-0.3c0-0.1,0-0.1-0.2-0.1c-0.1,0-0.3,0-0.4,0c-0.1,0-0.2,0-0.3,0c0,0-0.2,0-0.4,0
			c-0.3,0-0.3,0-0.5-0.1c-0.2-0.1-0.4-0.2-0.6-0.2c0,0-0.1,0-0.2,0c0,0-0.2,0-0.3,0c-0.1,0-0.3,0-0.3,0c0,0-0.1,0-0.3-0.1
			c-0.2,0-0.2-0.1-0.3-0.1c-0.1-0.1-0.3-0.1-0.7-0.2c-0.2,0-0.3,0-0.5-0.1c-0.1,0-0.4,0-0.6,0c-0.3,0-0.6,0-0.7,0
			c-0.1,0-0.3,0-0.3,0c0,0-0.3,0.1-0.5,0.1c-0.8,0.1-2.6,0.4-2.7,0.6c0,0-0.2,0.1-0.3,0.1c-0.5,0.1-0.6,0.2-1.2,0.5
			c-0.6,0.3-1.6,0.9-2,1.2c-0.2,0.1-1,0.8-1.2,1.1c-0.5,0.5-0.7,0.7-1,1.1C44.7,32,43.3,34,42.6,35.1L42.6,35.1z"/>
		<path class="st0" d="M66.6,44.2C66.6,44.2,66.6,44.1,66.6,44.2c0.1-0.1,0.1-0.1,0.1-0.2c0,0-0.1,0-0.1,0.1
			C66.5,44.1,66.5,44.2,66.6,44.2L66.6,44.2z"/>
	</g>
	<g>
		<path class="st0" d="M8.9,28.3c0,0-0.2,0.6-0.3,0.7c0,0.1-0.1,0.2-0.1,0.3c0,0.1-0.1,0.3-0.1,0.5c-0.2,0.7-0.2,1.2-0.2,2.6
			c0,0.6,0.4,2.2,0.8,3.9C9,36.5,9,36.8,9.1,37c0,0.2,0.1,0.4,0.1,0.5c0,0,0.1,0.1,0.1,0.1c0,0.1,0,0.1,0.1,0.1c0,0,0.1,0.1,0.1,0.2
			c0,0.1,0,0.2,0.1,0.3c0,0.1,0.1,0.1,0.1,0.1c0,0,0,0.1,0.1,0.2c0.1,0.1,0.1,0.2,0.1,0.2c0,0.1,0.2,0.4,0.3,0.5
			c0,0,0.1,0.1,0.1,0.2c0,0.1,0,0.2,0.1,0.2c0.1,0.2,0.3,0.5,0.3,0.5c0,0,0,0.1,0.1,0.1c0.1,0.1,0.1,0.1,0.1,0.2c0,0,0,0.1,0.1,0.1
			c0,0,0.1,0.1,0.2,0.3s0.2,0.3,0.3,0.4c0.1,0.1,0.3,0.3,0.4,0.4c0.2,0.3,0.2,0.3,0.5,0.4c0.3,0.1,0.3,0.1,0.3,0.3
			c0,0.1,0.1,0.2,0.2,0.3c0.3,0.2,0.6,0.5,0.6,0.5c0,0,0.1,0.1,0.3,0.2c0.1,0.1,0.4,0.3,0.5,0.4c0.2,0.2,0.3,0.2,0.3,0.2
			c0,0,0.1,0,0.1,0c0,0,0.1,0,0.2,0c0,0,0.2,0.1,0.4,0.2c0.2,0.1,0.4,0.2,0.6,0.2c0.3,0,0.4,0.1,0.3,0.3c-0.1,0.1-0.1,0.1,0,0.2
			c0,0,0.1,0.1,0.2,0.1c0.1,0,0.2,0,0.3,0.1c0.1,0,0.2,0,0.2,0c0.1,0,0.1,0,0.3,0.1c0.5,0.4,0.8,0.5,1.2,0.5c0.2,0,0.2,0,0.3,0.1
			c0.1,0.2,0.3,0.4,0.4,0.4c0,0,0.2,0.1,0.5,0.1c0.2,0.1,0.5,0.1,0.6,0.1c0.2,0,0.4,0.1,0.6,0.2c0.1,0,0.2,0.1,0.4,0.1
			c0.1,0,0.3,0,0.3,0.1c0.1,0.1,0.9,0.2,1.1,0.1c0.2-0.1,0.5,0,0.7,0.1c0.1,0,0.1,0,0.3-0.1c0.1-0.1,0.2-0.1,0.3-0.1
			c0.1,0,0.1,0,0.2-0.2c0-0.1,0.1-0.1,0.1,0c0.1,0.1,1.1-0.1,1.5-0.3c0.1-0.1,0.3-0.2,0.3-0.2c0,0,0.1-0.1,0.2-0.1
			c0.1,0,0.2,0,0.2-0.1c0.1-0.1,0.2-0.1,0.6-0.2c0.2,0,0.3-0.1,0.4-0.1c0,0,0.1-0.1,0.2-0.1c0.1,0,0.3-0.1,0.4-0.1
			c0.3-0.2,0.5-0.3,0.8-0.4c0.4-0.1,0.9-0.4,1.6-1.1c0.2-0.1,0.4-0.4,0.6-0.5c0.3-0.2,0.8-0.8,1.1-1.1c0.1-0.1,0.2-0.2,0.3-0.2
			c0.1,0,0.2-0.1,0.2-0.2c0.1-0.1,0.5-0.4,0.7-0.4c0.1,0,0.2-0.1,0.2-0.1c0,0,0.1-0.1,0.1-0.3c0.1-0.2,0.1-0.3,0.2-0.5
			c0.1-0.7,0.1-0.8,0.1-0.9c0,0,0-0.2,0.1-0.4c0.1-0.2,0.1-0.4,0.1-0.5c0.1-0.3,0.2-0.6,0.3-0.7c0.1-0.1,0.1-0.2,0.1-0.3
			c0-0.1,0-0.2,0-0.2c0,0,0-0.1,0-0.2c0-0.1,0-0.2,0.1-0.3c0.1-0.1,0.1-0.2,0.1-0.4c0-0.1,0-0.2,0-0.3c0,0,0.1-0.1,0.3-0.2
			c0.2-0.1,0.3-0.2,0.4-0.4c0.1-0.1,0.2-0.3,0.3-0.3c0.2-0.2,0.2-0.3-0.1-0.2c-0.1,0-0.2,0-0.3-0.1c0-0.1-0.1-0.1,0-0.2
			c0,0,0-0.1,0-0.1c0,0-0.1-0.1-0.1-0.2c0-0.1-0.1-0.2-0.2-0.3c-0.2-0.2-0.2-0.2-0.1-0.3c0.1-0.1,0.2-0.1,0.2-0.1
			c0.1,0,0.1,0,0.2-0.1c0.1-0.2,0.1-0.2-0.1-0.5c-0.1-0.2-0.3-0.5-0.3-0.7c-0.1-0.2-0.1-0.3-0.1-0.4c0,0,0-0.1,0-0.2
			c0-0.1,0-0.2-0.1-0.3c-0.1-0.1-0.2-0.3-0.3-0.4c-0.1-0.2-0.2-0.3-0.3-0.4c-0.3-0.3-0.5-0.6-0.6-0.9c-0.1-0.3-0.1-0.3-0.3-0.5
			c-0.2-0.1-0.2-0.1-0.3-0.4c-0.1-0.2-0.1-0.4-0.2-0.4c-0.2-0.1-0.6-0.6-0.7-0.8c-0.1-0.1-0.3-0.3-0.5-0.5c-0.2-0.2-0.4-0.4-0.5-0.5
			c-0.2-0.3-1.7-1.2-2.2-1.4c-0.2-0.1-0.3-0.1-0.4-0.2c-0.1-0.1-1.1-0.4-1.4-0.4c-0.1,0-0.3,0-0.3-0.1c0,0-0.2-0.1-0.4-0.2
			c-0.4-0.1-1.3-0.5-1.5-0.7c-0.1,0-0.2-0.1-0.2-0.1c-0.1,0-0.3-0.1-0.4-0.1c-0.2-0.1-0.5-0.2-0.8-0.3c-0.3-0.1-0.6-0.2-0.7-0.2
			c-0.1-0.1-0.3-0.1-0.4-0.1c-0.1,0-0.2,0-0.3-0.1c-0.2-0.1-1.3-0.3-2.1-0.3c-0.8,0-1.8,0-2.4,0.1c-0.2,0-0.6,0.1-0.9,0.2
			c-0.6,0.1-1.6,0.5-2,0.8c-0.1,0-0.2,0.1-0.3,0.1c-0.1,0-0.2,0.1-0.3,0.2c0,0.1-0.2,0.1-0.3,0.2c-0.1,0-0.2,0.1-0.3,0.2
			c0,0.1-0.1,0.1-0.2,0.1c-0.1,0-0.2,0.1-0.3,0.2c-0.1,0.1-0.2,0.2-0.3,0.2c-0.1,0-0.2,0.1-0.3,0.2c-0.1,0.1-0.3,0.2-0.5,0.3
			c-0.2,0.1-0.4,0.2-0.4,0.3c-0.1,0.1-0.2,0.2-0.2,0.2c0,0-0.2,0.1-0.3,0.3c-0.1,0.1-0.3,0.3-0.4,0.4C9.7,27.1,8.9,28.2,8.9,28.3
			L8.9,28.3z"/>
	</g>
	<g>
		<path class="st0" d="M29.4,52c-0.4,0.9-0.5,1.2-0.6,1.7c-0.1,0.5-0.2,1.2-0.2,1.6c0.1,0.9,0.3,2.2,0.5,2.6c0,0.1,0.1,0.2,0,0.3
			c0,0.1,0,0.4,0.1,0.7s0.2,0.7,0.2,0.8c0.1,0.4,0.1,1,0.1,1.1c0,0,0.4,1,0.5,1.2c0,0.1,0.1,0.2,0.1,0.3c0.1,0.2,0.6,1.1,0.6,1.1
			c0,0,0.1,0.1,0.1,0.2c0,0.1,0.1,0.2,0.1,0.2c0.1,0,0.1,0.1,0.1,0.2c0,0.2,0.1,0.2,0.2,0.3c0.1,0,0.4,0.5,0.4,0.5
			c0,0.1,0,0.2,0.1,0.2c0,0,0.1,0.1,0.1,0.1c0,0.1,0.1,0.2,0.2,0.2c0.1,0.1,0.2,0.2,0.3,0.2c0.1,0.1,0.1,0.1,0.2,0.1
			c0.1,0,0.1,0,0.1,0.1c0,0.1,0.2,0.2,0.3,0.3c0.3,0.2,0.3,0.3,0.5,0.2c0.2,0,0.2,0,0.2,0.1c0,0.1,0,0.1,0.1,0.2
			c0,0,0.2,0.1,0.2,0.2c0.2,0.2,0.7,0.3,0.8,0.3c0.2-0.1,0.5,0,0.9,0.1c0.3,0.2,0.4,0.2,0.4,0.3c0,0.2,0.3,0.4,0.5,0.5
			c0.1,0,0.3,0.1,0.4,0.2c0.3,0.2,0.5,0.2,0.7-0.1c0.2-0.2,0.4-0.3,0.4-0.2c0,0.1,0.1,0.1,0.3,0.1c0.1,0,0.3,0,0.3,0
			c0.1,0.1,0.6,0.1,0.7,0c0,0,0.1-0.1,0.1-0.1c0-0.1,0.1-0.1,0.3,0.1c0.3,0.2,0.4,0.2,0.4,0.1c0-0.1,0-0.1,0.3,0
			c0.3,0.2,0.4,0.2,0.3,0.1c-0.1-0.1,0-0.2,0.1-0.1c0,0,0.2,0,0.3,0c0.2-0.1,0.3-0.1,0.3,0c0,0,0.1,0,0.2,0c0.1,0,0.3,0,0.4,0.1
			c0.1,0.1,0.2,0.1,0.3,0c0.1,0,0.2-0.1,0.3-0.1c0.1,0,0.1,0,0.1-0.1c0-0.1,0-0.2,0.2-0.1c0.1,0.1,0.3,0,0.4-0.1
			c0.1-0.1,0.1-0.1,0.1-0.1c0,0,0.6-0.2,0.7-0.3c0.1,0,0.1-0.1,0.2-0.1c0.1,0,0.4-0.2,0.5-0.3c0-0.1,0.1-0.1,0.2-0.1
			c0.1,0,0.2-0.1,0.2-0.1c0,0,0.2-0.1,0.3-0.2c0.2-0.1,0.3-0.2,0.4-0.2c0-0.1,0.1-0.1,0.1-0.1c0,0,0.1-0.1,0.2-0.1
			c0.2-0.1,0.6-0.2,0.7-0.2c0,0,0.1,0,0.1,0c0,0,0.1-0.1,0.1-0.1c0.1,0,0.1-0.1,0.1-0.2c0-0.1,0.1-0.3,0.4-0.6
			c0.2-0.2,0.4-0.5,0.5-0.6c0.1-0.1,0.2-0.2,0.2-0.3c0.2-0.2,0.3-0.2,0.3-0.3c0-0.1,0.1-0.2,0.3-0.3c0.2,0,0.3-0.1,0.2-0.3
			c-0.1-0.2,0-0.3,0.2-0.2c0.2,0,0.4-0.1,0.4-0.4c0-0.1,0.1-0.2,0.2-0.4c0.1-0.1,0.2-0.3,0.2-0.3c0-0.1,0-0.1,0.1-0.2
			c0.1,0,0.1-0.1,0.1-0.2c0-0.1,0-0.2,0-0.2c0.1,0,0.2-0.1,0.2-0.5c0-0.1,0.1-0.4,0.2-0.5c0.1-0.2,0.1-0.3,0.1-0.4
			c0-0.1,0-0.3,0.1-0.5c0.1-0.2,0.1-0.4,0.1-0.5c0-0.3,0.1-0.5,0.2-0.6c0-0.1,0-0.1,0-0.2c0-0.1,0-0.6,0.2-1
			c0.1-0.4,0.1-0.6,0.1-0.8c0-0.1,0-0.3,0-0.4c0.1-0.3,0.1-0.3,0.3-0.4c0.2-0.1,0.3-0.2,0.2-0.2c0,0,0-0.1,0-0.1
			c0-0.1,0-0.2-0.1-0.3c-0.2-0.3-0.2-0.3-0.1-0.5c0-0.1,0.1-0.2,0-0.2c0,0,0-0.1,0-0.1c0-0.1,0-0.1-0.1-0.1c-0.1,0-0.1,0-0.2-0.1
			c-0.1-0.1-0.4-0.4-0.6-0.6c-0.1-0.2-0.2-0.3-0.3-0.4c0,0-0.1-0.3-0.2-0.6c-0.1-0.5-0.1-0.5-0.6-1.1c-0.3-0.3-0.5-0.6-0.5-0.7
			c0,0-0.1-0.2-0.2-0.4c-0.1-0.2-0.2-0.3-0.5-0.5c-0.2-0.1-0.4-0.3-0.6-0.4c-0.2-0.1-0.5-0.3-0.8-0.5c-0.3-0.1-0.8-0.4-1.2-0.7
			c-0.8-0.4-1.3-0.7-2.5-1.2c-0.1-0.1-0.4-0.2-0.6-0.3c-0.2-0.1-0.4-0.2-0.5-0.2c-0.1,0-0.2,0-0.2-0.1c0,0-0.1-0.1-0.3-0.1
			c-0.1,0-0.3-0.1-0.3-0.1c0,0-0.1-0.1-0.1-0.1c0,0-0.1,0-0.2-0.1c-0.1,0-0.2-0.1-0.4-0.1c-0.2,0-0.3,0-0.3-0.1
			c-0.1,0-1.2-0.2-1.5-0.2c-0.1,0-0.3,0-0.3,0c-0.1,0-0.1,0-0.2,0c-0.3-0.2-2.9,0.4-4,0.9c0,0-0.3,0.1-0.5,0.2
			c-0.6,0.3-1,0.5-1.7,1.1c-0.5,0.4-0.7,0.6-1.2,1.1C31.4,49.2,29.6,51.6,29.4,52L29.4,52z"/>
		<path class="st0" d="M43,67.8c0,0,0.2,0.1,0.2,0.1c0.1,0,0.2,0,0.3-0.1c0.1-0.1,0.2-0.1,0.1-0.2c0,0,0,0,0,0
			C43.4,67.8,43.3,67.8,43,67.8C43,67.8,43,67.8,43,67.8L43,67.8z"/>
	</g>
	<path class="st1" d="M2,2C1.9,2.5,2.3,3.5,2.8,4.2c0.1,0.2,0.3,0.5,0.4,0.7c0.4,0.7,0.9,1.3,1.2,1.4c0.1,0,0.3,0.2,0.5,0.4
		c0.6,0.6,0.6,0.7,1.3,1.2C6.5,8.1,6.9,8.4,7,8.5c0.1,0.1,0.3,0.3,0.3,0.4C7.5,9,7.7,9.2,7.9,9.5c0.2,0.3,0.5,0.5,0.8,0.8
		c0.2,0.1,0.5,0.4,0.6,0.6c0.2,0.2,0.5,0.4,0.7,0.6c0.2,0.2,0.4,0.3,0.5,0.4c0.1,0.1,0.3,0.3,0.6,0.5c0.3,0.2,0.5,0.4,0.5,0.4
		c0,0,0.2,0.2,0.4,0.3c0.2,0.2,0.5,0.4,0.6,0.5c0.1,0.1,0.6,0.5,1,0.8c0.4,0.3,0.8,0.6,0.9,0.7c0.1,0.1,0.2,0.2,0.4,0.3
		c0.2,0.1,0.4,0.3,0.4,0.4c0.1,0.1,0.4,0.4,0.7,0.6c0.3,0.3,0.7,0.6,0.8,0.7c0.1,0.1,0.5,0.4,0.8,0.6c0.3,0.2,0.6,0.5,0.8,0.6
		c0.1,0.1,0.4,0.3,0.7,0.5c1.2,0.9,2.4,1.8,2.4,1.9c0,0,0.4,0.3,0.8,0.6c0.8,0.7,1.7,1.4,1.8,1.5c0.1,0.1,0.2,0.2,0.3,0.3
		c0.1,0.1,0.4,0.3,0.7,0.5c0.2,0.2,0.6,0.5,0.8,0.6c0.2,0.1,0.5,0.3,0.7,0.5c0.3,0.3,0.6,0.5,0.7,0.5c0,0,0.2,0.2,0.4,0.3
		c0.2,0.1,0.5,0.4,0.8,0.6c0.3,0.2,0.6,0.4,0.7,0.6c0.1,0.1,0.3,0.3,0.5,0.5c0.5,0.5,0.7,0.7,0.7,0.7c0,0-0.2,0.1-0.5,0.2
		c-0.3,0.1-0.5,0.1-0.5,0.1c0,0-0.2,0-0.5,0.1c-0.6,0.1-2.1,0.4-2.2,0.4c0,0-0.1,0.1-0.2,0c-0.1,0-0.2,0-0.4,0.1
		c-0.4,0.2-0.6,0.3-0.7,0.2c0,0,0.1-0.2,0.1-0.4c0.1-0.3,0.1-0.4,0.1-0.6c0-0.2,0-0.3,0.2-0.6c0.4-0.7,0.3-1.2-0.1-1.5
		c-0.1-0.1-0.2-0.1-0.2-0.2c0,0-0.1,0-0.2,0c-0.1,0-0.1,0.1-0.2,0.3c-0.1,0.2-0.7,1.3-0.8,1.2c0,0-0.2-0.4-0.5-0.8
		c-0.5-0.8-0.5-0.8-1.1-1.2C22.1,25,22,25,21.7,25c-0.2,0-0.3,0-0.3,0c0,0-0.2,0-0.3,0.1c-0.2,0.1-0.5,0.2-0.8,0.3
		c-0.3,0.1-0.6,0.2-0.6,0.3c0,0-0.1,0.1-0.2,0.1c-0.1,0-0.3,0.1-0.4,0.1c-0.4,0.2-0.9,0.3-1.1,0.3c-0.2,0-0.3,0-0.2,0.2
		c0,0.1,0.1,0.2,0.1,0.3c0,0.2,0,0.2,0.2,0.3c0.6,0.3,0.6,0.3,0.9,0.2c0.3,0,0.4,0,0.5,0c0.2,0.2,0.3,0.1,0.7,0
		c0.2-0.1,0.5-0.2,0.7-0.2c0.2,0,0.3-0.1,0.3-0.1c0,0,0.1,0,0.3,0c0.2,0,0.3,0,0.4,0.2c0.1,0.1,0.2,0.3,0.3,0.5
		c0.1,0.2,0.2,0.3,0.3,0.3c0,0,0.1,0.2,0.2,0.3c0.1,0.3,0.3,0.7,0.4,0.9c0.1,0.1,0,0.3-0.2,0.3c-0.3,0-0.5,0.1-0.7,0.2
		c-0.1,0.1-0.1,0.1-0.2,0.1c-0.1,0-0.2,0.2-0.1,0.3c0.1,0.1,0.1,0.2,0.1,0.2c0,0.1,0.5,0.3,0.6,0.3c0,0,0.4,0.2,0.9,0.5
		c0.9,0.6,1,0.6,1.6,0.6c0.1,0,0.3,0,0.3,0.1c0.1,0,0.2,0.1,0.3,0.1c0.2,0,0.6,0,0.7,0.1c0,0,0.1,0,0.2,0c0.5-0.1,1.9,0,2.1,0.2
		c0.1,0.1,0.4,0.6,0.5,0.9c0,0.1,0.1,0.4,0.1,0.6c0,0.8,0.1,0.8,0.8-0.1c0.2-0.3,0.2-0.3,0.2-0.5c0-0.1-0.1-0.4-0.1-0.6
		c-0.2-0.9-0.3-1.1-1.1-1.6c-0.7-0.4-1.3-0.7-1.9-0.9c-0.1,0-0.3-0.1-0.3-0.1l-0.1-0.1l0.2-0.1c0.4-0.1,1.1-0.3,1.2-0.3
		c0,0,0.2,0.1,0.3,0.1c0.1,0,0.5,0.1,0.7,0.2c0.5,0.1,0.7,0.1,1.2,0.1c0.2,0,0.4,0,0.5,0c0.1,0.1,0.5,0,0.6-0.1c0,0,0.2-0.1,0.4-0.2
		c0.3-0.1,0.4-0.1,0.9,0.4c0.3,0.3,1.4,1.2,2.2,1.7c1.5,1,2.4,1.7,2.7,1.9c0.4,0.3,0.9,0.8,1.5,1.2c0.2,0.2,0.5,0.4,0.6,0.5
		c0.1,0.1,0.3,0.2,0.5,0.4c0.2,0.1,0.5,0.3,0.6,0.5c0.1,0.1,0.6,0.6,1,1c0.4,0.4,0.8,0.8,0.8,0.9c0.1,0.1,0.2,0.2,0.3,0.4
		c0.1,0.1,0.3,0.5,0.6,0.9c0.2,0.4,0.4,0.7,0.5,0.8c0,0.1,0.2,0.3,0.3,0.5c0.1,0.2,0.3,0.4,0.3,0.4c0,0,0.1,0.2,0.2,0.3
		c0.1,0.1,0.2,0.3,0.2,0.3c0,0,0.2,0.3,0.3,0.5c0.7,1.2,0.9,1.5,1.2,2c0.4,0.6,0.9,1.2,1.1,1.5c0.1,0.1,0.2,0.3,0.3,0.6
		c0.1,0.3,0.1,0.5,0.1,0.5c0,0,0,0.2,0,0.3c0,0.2,0,0.4,0,0.6c0,0.2,0,0.4-0.1,0.5c0,0.1,0,0.4-0.1,0.7c-0.1,0.6-0.2,0.8-0.8,1.4
		c-0.2,0.2-0.5,0.5-0.5,0.6c-0.1,0.1-0.2,0.2-0.2,0.2c-0.1,0-0.3,0.3-0.5,0.5c-0.6,0.6-0.8,0.8-0.8,0.8c-0.1,0-0.3-0.9-0.3-1
		c0-0.1,0-0.3,0-0.6l-0.1-0.4l0.3-0.4c0.2-0.3,0.2-0.4,0.2-0.6c0-0.1,0-0.2,0-0.3c0-0.1-0.3-1.6-0.3-1.6c-0.1-0.1-0.2-0.4-0.1-0.7
		c0-0.4-0.1-0.6-0.4-1.1c-0.4-0.5-0.6-0.6-1.1-0.6c-0.2,0-0.4,0-0.5-0.1c0,0-0.1,0-0.2,0c0,0-0.1,0.1-0.2,0.2
		c-0.2,0.1-0.2,0.2,0,0.3c0.1,0,0.1,0.1,0.2,0.2c0.1,0.1,0.1,0.2,0,0.3c-0.1,0.1-0.1,0.1-0.2,0c-0.1-0.1-0.2,0-0.1,0.2
		c0,0.1,0,0.2,0,0.2c0,0-0.1,0.3-0.1,0.7c-0.1,0.5,0,1.2,0.1,1.9c0,0.3,0,0.4-0.1,0.2c-0.2-0.1-0.9-0.4-1-0.3c0,0-0.1,0-0.2,0
		c-0.2,0-0.2,0-0.1,0.2c0.1,0.1,0.1,0.2,0.2,0.2c0,0.1,0.2,0.3,0.3,0.5c0.1,0.2,0.3,0.6,0.5,0.9c0.1,0.3,0.2,0.5,0.3,0.5
		c0,0,0.1,0.1,0.1,0.3c0.2,0.8,0.3,1.2,0.4,1.4c0,0.1,0.1,0.3,0.1,0.4c0.1,0.3,0.5,1,0.7,1.2c0.3,0.2,0.6,0.5,0.8,0.7
		c0.1,0.1,0.2,0.2,0.3,0.2c0.1,0,0.2,0.1,0.2,0.1c0,0.1,0.1,0.1,0.2,0.2c0.2,0.2,0.3,0.2,0.6,0.1c0.1-0.1,0.3-0.2,0.3-0.3l0.1-0.1
		l0.6,0.4c0.5,0.4,0.6,0.4,0.8,0.3c0.2,0,0.2,0,0.3,0.1c0,0.1,0.1,0.1,0.2,0.2c0.1,0.1,0.1,0,0.2-0.1c0.1-0.1,0.1-0.1,0.5,0
		c0.2,0.1,0.5,0.1,0.6,0.1c0.3,0,1.6,0.2,1.6,0.3c0,0,0.1,0,0.1,0.1c0.1,0,0.8,0.3,1.3,0.5c0.1,0,0.2,0.1,0.2,0.2
		c0.1,0.2,0.4,0.3,0.5,0.3c0.1-0.1,0.3,0,0.5,0.1c0.1,0.1,0.2,0.1,0.3,0.1c0.2,0,0.4-0.2,0.4-0.5c0-0.2,0-0.3-0.5-0.7
		c-0.3-0.3-0.5-0.4-1.1-0.7c-0.6-0.3-1.1-0.4-1.7-0.5c-0.2,0-0.5-0.1-0.7-0.1c-0.2,0-0.4-0.1-0.4-0.1c0,0-0.1,0-0.2-0.1
		c-0.3-0.2-0.3-0.2-1.1-0.7c-0.5-0.3-0.8-0.5-0.7-0.5c0-0.1,0.4-0.1,0.6-0.1c0.1,0,0.4,0.1,0.7,0.1c0.2,0,0.5,0.1,0.6,0.2
		c0.2,0.1,0.4,0,0.6-0.2c0.1-0.1,0.3-0.2,0.4-0.3c0.1,0,0.2-0.1,0.3-0.2c0-0.1,0.3-0.2,0.5-0.3c0.2-0.1,0.4-0.3,0.5-0.3
		c0.1-0.1,0.2-0.2,0.3-0.3c0.2-0.1,0.8-0.7,1.1-1c0.5-0.7,0.7-0.9,0.6-1.1c0-0.2,0-0.4,0.2-0.6c0.1-0.1,0.1-0.1-0.1-0.2
		c-0.2-0.1-0.3-0.3-0.3-0.5c0-0.2,0-0.4,0-0.2c-0.1,0.3-0.3,0.8-0.7,1.4l-0.4,0.7l-0.6,0.3c-0.3,0.2-0.6,0.3-0.7,0.4
		c-0.1,0-0.1,0-0.1,0c-0.1,0-0.3,0-0.7,0.2c-0.2,0.1-0.7,0.2-1.1,0.3c-0.4,0.1-1,0.3-1.3,0.4c-0.3,0.1-0.7,0.3-1,0.3
		c-0.3,0.1-0.5,0.1-0.6,0.2c-0.1,0-0.2,0-0.2,0c-0.1,0,0.1-0.4,0.3-0.6c0.1-0.1,0.2-0.1,0.2-0.2c0.1-0.1,0.2-0.2,0.6-0.3
		c0.1,0,0.3-0.1,0.5-0.2c0.1-0.1,0.3-0.2,0.4-0.2c0.1,0,0.2-0.1,0.3-0.1c0.5-0.4,0.6-0.5,0.7-0.6c0.1,0,0.2,0,0.2,0
		c0.1,0,0.4-0.1,0.6-0.4c0.1-0.1,0.2-0.2,0.2-0.2c0,0,0.2-0.1,0.3-0.3c0.2-0.2,0.2-0.3,0.2-0.6c0-0.2,0.1-0.4,0.1-0.4
		c0,0,0.1-0.2,0.1-0.3c0-0.1,0.1-0.3,0.1-0.4c0-0.1,0-0.3,0-0.5c0-0.2,0-0.5,0-0.6c0-0.3,0-0.3,0.4-0.2c0.1,0,0.3,0,0.3,0
		c0.2,0,0.8,0,1,0.1c0.1,0,0.3,0,0.3,0c0.1,0,0.4,0,0.7,0.1c0.3,0.1,0.7,0.1,0.7,0.1c0,0,0.2,0,0.4,0.1c0.2,0,0.5,0.1,0.7,0.1
		c0.2,0,0.5,0.1,0.6,0.1c0.1,0,0.3,0,0.6,0c0.3,0,0.6,0,0.8,0.1c0.2,0,0.4,0.1,0.4,0.1c0.1,0,0.2,0,0.4,0.1c0.2,0.1,0.4,0.1,0.6,0.2
		c0.2,0,0.4,0.1,0.6,0.2c0.1,0.1,0.3,0.1,0.4,0.1c0.1,0,0.1,0,0.2,0.1c0.1,0,0.2,0.1,0.3,0.1c1.1,0.3,1.7,0.6,2.9,1.2
		c0.9,0.5,1.9,1.2,2.2,1.7c0.1,0.1,0.2,0.3,0.3,0.4c0.1,0.1,0.3,0.3,0.3,0.4c0.1,0.1,0.3,0.4,0.4,0.6c0.4,0.5,0.4,0.6,0.3,0.7
		c0,0.1-0.1,0.4-0.1,0.7c0,0.3-0.1,0.6-0.1,0.6c0,0.1,0,0.1-0.1,0c-0.1-0.1-0.4-0.4-0.7-0.8c-0.3-0.4-0.7-0.8-0.8-1
		c-0.1-0.1-0.3-0.4-0.5-0.6c-0.4-0.4-0.4-0.5-0.6-0.5c-0.2,0-0.4,0.2-0.4,0.3c0,0.1,0.1,0.3,0.2,0.6c0.1,0.3,0.2,0.6,0.2,0.6
		c0,0,0.1,0.2,0.1,0.3c0.1,0.1,0.1,0.3,0.2,0.4c0,0.1,0.1,0.1,0.1,0.2c0,0,0.1,0.3,0.2,0.5c0.1,0.2,0.2,0.4,0.2,0.5
		c0,0,0,0.1,0.1,0.1c0,0.1,0.2,0.5,0.4,0.8c0.1,0.1,0.2,0.4,0.3,0.6c0.1,0.2,0.2,0.5,0.2,0.5c0,0,0.1,0.2,0.2,0.3
		c0.1,0.1,0.2,0.3,0.2,0.3c0,0,0.1,0.1,0.2,0.2c0.1,0,0.2,0.2,0.3,0.3c0.2,0.3,0.3,0.4,0.6,0.5c0.3,0.1,0.8,0.3,1,0.3
		c0.1,0,0.1,0,0.2,0c0,0,0.1,0,0.2,0c0.1,0,0.2,0,0.3,0.1c0.1,0.1,0.3,0.1,0.4,0c0.2,0,0.3,0,0.4,0.1c0.3,0.1,0.7,0.3,0.8,0.2
		c0,0,0.1-0.1,0.2-0.1c0.1-0.1,0.2-0.1,0.3-0.2c0.2-0.1,0.4-0.2,0.5-0.6c0.1-0.2,0.3-0.6,0.5-0.9c0.2-0.3,0.4-0.7,0.4-0.7
		c0-0.1,0.1-0.2,0.1-0.3c0-0.1,0.1-0.3,0.1-0.4c0-0.1,0-0.3,0-0.3c0,0,0-0.1-0.1-0.2c-0.1-0.2-0.1-0.2,0-0.4
		c0.1-0.2,0.2-0.3,0.1-0.4c0-0.2,0-0.4,0.3-0.8c0.1-0.2,0.2-0.4,0.2-0.5c0-0.1,0-0.2,0-0.2c0,0,0-0.1,0-0.3c0-0.3,0-0.4,0.1-0.6
		c0-0.1,0.1-0.3,0.1-0.5c0-0.2,0.1-0.3,0.1-0.4c0.1-0.2,0.2-0.6,0.1-0.7c-0.1-0.2-0.3-0.4-0.5-0.4c-0.3,0-1.4,1.3-1.8,2.2
		c-0.3,0.5-0.4,0.7-1,1.7c-0.3,0.5-0.8,1.1-0.9,1.1c0,0-0.1-0.2-0.1-0.5c-0.1-0.3-0.2-0.6-0.3-0.8c-0.1-0.2-0.2-0.4-0.3-0.5
		c0-0.1-0.1-0.3-0.2-0.4c-0.1-0.2-0.1-0.4-0.1-0.5c0-0.3,0.3-0.7,0.4-0.8c0.1-0.1,0.2-0.2,0.2-0.2c0-0.1,0.1-0.3,0.3-0.5
		c0.2-0.4,0.3-0.4,0.7-0.6c0.2-0.1,0.5-0.3,0.5-0.3c0,0,0.1-0.1,0.2-0.1c0.1,0,0.2-0.1,0.3-0.1c0.1,0,0.2-0.1,0.3-0.1
		c0.2-0.1,1-0.3,1-0.4c0,0,0.7-0.2,1.9-0.4c1.2-0.3,1.2-0.3,1.7-0.1l0.1,0.1L76,50c-0.1-0.3-0.1-0.3-0.3-0.5c-0.5-0.4-1.6-0.5-3-0.5
		c-0.6,0-1.3,0.2-2.1,0.4c-0.8,0.3-1,0.4-1.3,0.5c-0.1,0.1-0.2,0.2-0.4,0.3c-0.4,0.2-0.9,0.9-1.4,1.7l-0.4,0.5L67,52.3
		c-0.1-0.1-0.3-0.2-0.4-0.4c-0.2-0.2-0.5-0.4-0.6-0.6c-0.2-0.2-0.4-0.4-0.5-0.5c-0.3-0.3-1.7-1.2-2.2-1.4c-1.1-0.5-2.7-1.2-2.8-1.2
		c-0.1,0-0.7-0.3-1.2-0.5c-0.2-0.1-0.5-0.2-0.8-0.3c-0.2-0.1-0.6-0.2-0.8-0.3c-0.2-0.1-0.7-0.2-1.1-0.3c-0.4-0.1-0.9-0.2-1.2-0.2
		c-0.8-0.2-1.3-0.3-1.6-0.3c-0.1,0-0.3-0.1-0.5-0.1c-0.1,0-0.3-0.1-0.5-0.1c-0.2,0-0.3-0.1-0.4-0.1c-0.1,0-0.8-0.2-1.6-0.2
		c-0.7-0.1-0.9-0.1-0.9-0.4c0-0.1,0-0.1-0.1-0.2c0,0-0.1-0.2-0.2-0.3s-0.1-0.3-0.1-0.3c-0.1,0-0.4-0.8-0.5-1c0-0.1-0.1-0.2-0.2-0.3
		c-0.1-0.1-0.2-0.2-0.2-0.3c0-0.1-0.2-0.3-0.3-0.5c-0.3-0.4-0.6-0.8-0.7-1.2c0-0.1-0.1-0.2-0.1-0.3c0,0-0.1-0.1-0.2-0.3
		c-0.1-0.1-0.2-0.4-0.3-0.5c-0.1-0.2-0.2-0.3-0.2-0.4c0,0-0.1-0.2-0.2-0.3c-0.1-0.1-0.3-0.4-0.4-0.7c-0.1-0.2-0.3-0.5-0.4-0.6
		c-0.1-0.1-0.2-0.2-0.2-0.4c-0.1-0.3-0.3-0.7-0.5-1c-0.1-0.1-0.2-0.3-0.3-0.4c-0.1-0.1-0.2-0.2-0.2-0.3c0,0-0.4-0.4-0.8-0.8
		c-0.4-0.4-0.8-0.8-0.8-0.8c-0.1,0-0.1-0.1-0.1-0.2c0,0-0.1-0.2-0.3-0.3c-0.3-0.3-0.3-0.3-0.4-0.4c-0.1-0.1-1-0.9-1.3-1.1
		c-0.1-0.1-0.3-0.2-0.3-0.3c0-0.1-0.3-0.2-0.5-0.4c-0.2-0.2-0.5-0.4-0.6-0.5c-0.1-0.2-1.4-1.1-1.5-1.2c0,0-0.3-0.2-0.6-0.4
		c-0.9-0.7-1.5-1.1-1.9-1.3c-0.2-0.1-0.3-0.2-0.6-0.5c-0.1,0,0-0.1,0.2-0.2c0.1,0,0.5-0.1,0.8-0.1c0.3,0,0.8,0,1-0.1
		c0.2,0,0.6-0.1,0.8-0.1c0.7,0,1.4-0.1,1.5-0.2c0.1-0.1,0.2-0.1,0.2,0c0.1,0,0.2,0.1,0.2,0c0.1,0,0.3,0,0.5,0c0.2,0,0.4,0,0.5,0
		c0.1,0,0.4,0,0.7,0c0.3,0,0.6,0,0.7-0.1c0.1,0,0.2,0,0.2,0c0,0,0.4,0,0.7-0.1c0.5-0.1,0.8-0.1,1.1-0.1c0.6,0.1,0.8,0.1,1.1,0
		c0.2,0,0.3,0,0.4,0c0,0,0.1,0,0.2,0c0.3-0.1,0.6-0.1,0.7,0c0.1,0,0.1,0.1,0.2,0.1c0,0,0.1,0,0.2,0.1c0.1,0,0.3,0.1,0.4,0.1
		c0.1,0,0.3,0.1,0.4,0.1c0.3,0.1,1,0.3,1.1,0.3c0.1,0,0.2,0,0.2,0c0,0,0.1,0,0.2,0c0.1,0,0.6,0.2,1,0.4c0.1,0.1,0.2,0.1,0.3,0.1
		c0.1,0,1.2,0.7,1.3,0.9c0,0.1,0.1,0.2,0.3,0.2c0.1,0.1,0.2,0.2,0.3,0.3c0.1,0.1,0.2,0.2,0.4,0.4c0.7,0.7,0.9,0.8,1.3,1.5
		c0.2,0.4,0.4,1,0.5,1.4c0,0.3,0,0.5,0,0.4c0,0-0.1-0.2-0.2-0.3c-0.1-0.2-0.2-0.4-0.3-0.5c-0.1-0.1-0.1-0.2-0.2-0.2
		c0,0-0.3-0.3-0.5-0.5c-0.3-0.4-0.6-0.7-1.1-1.2c0-0.1-0.2-0.2-0.4-0.3c-0.2-0.1-0.4-0.3-0.5-0.4l-0.1-0.1l-0.2,0.2l-0.2,0.2
		l0.1,0.5c0.1,0.7,0.2,1,0.4,1.2c0.1,0.1,0.3,0.3,0.4,0.5c0.1,0.2,0.3,0.4,0.4,0.5c0.1,0.2,0.4,0.8,0.3,0.8c0,0.1,0.6,1.2,0.8,1.5
		c0.2,0.2,0.2,0.2,0.4,0.3c0.2,0.1,0.3,0.2,0.2,0.4c-0.1,0.1-0.1,0.1,0.5,0.4c0.3,0.1,0.3,0.1,0.4,0.3c0.1,0.1,0.2,0.3,0.4,0.4
		c0.3,0.2,0.3,0.2,0.3,0.1c0,0,0.1-0.1,0.2-0.1c0.3,0,1.2,0.2,1.4,0.3c0.2,0.1,0.5,0.2,0.7,0.2c0,0,0.1,0,0.2,0c0.1,0,0.1,0,0.1,0
		c0,0,0.1,0,0.1,0c0.1,0,0.4,0,0.4-0.1c0,0,0.1,0,0.1,0c0.1,0,0.2,0,0.3,0c0.1-0.1,0.5-0.1,1.1-0.1c0.1,0,0.3,0,0.5,0
		c0.2,0,0.4,0,0.5,0c0.1,0,0.3,0,0.4,0c0.1,0,0.4,0,0.6,0c0.2,0,0.5,0,0.5,0c0.1,0,0.2,0,0.2,0c0,0,0.1,0,0.2,0c0.1,0,0.2,0,0.4,0.1
		c0.3,0.2,0.6,0.3,0.7,0.2c0.1-0.1,0.3-0.3,0.4-0.5c0.1-0.2,0-0.2-0.1-0.4c0,0-0.1-0.2-0.2-0.3c-0.2-0.3-0.6-0.5-1.1-0.5
		c-0.2,0-0.4-0.1-0.4-0.1c-0.1-0.1-0.7-0.1-1.3-0.1c-0.3,0-0.6,0-0.7,0c-0.1,0-0.3,0-0.4,0c-0.1,0-0.2,0-0.2,0c0,0-0.2,0-0.5,0
		c-0.5,0-0.6,0-0.5-0.1c0,0,0.4-0.2,0.7-0.4c0.1,0,0.2-0.2,0.3-0.4c0.1-0.3,0.2-0.4,0.3-0.4c0,0,0.1-0.1,0.1-0.1
		c0,0,0.1-0.1,0.2-0.2c0.1-0.1,0.3-0.3,0.5-0.4c0.1-0.1,0.4-0.4,0.5-0.5c0.2-0.2,0.4-0.5,0.9-1.2c0.6-0.9,0.7-1,0.8-1.1
		c0.1,0,0.2-0.1,0.2-0.2c0-0.1,0-0.1-0.1-0.1c-0.1,0-0.2,0-0.2-0.1c0-0.1-0.1-0.1-0.4,0.1c-0.2,0.1-0.5,0.2-0.6,0.3
		c-0.1,0.1-0.3,0.2-0.5,0.3c-0.2,0.1-0.4,0.2-0.5,0.3c-0.1,0.1-0.3,0.2-0.4,0.3c-0.1,0.1-0.2,0.1-0.2,0.2c0,0-0.1,0.1-0.2,0.1
		c-0.1,0-0.3,0.2-0.6,0.3c-0.2,0.1-0.4,0.2-0.5,0.2c-0.1,0-0.2,0-0.2,0.1c0,0.1-0.2,0.1-0.5,0.3c-0.1,0-0.2,0.1-0.3,0.1
		c0,0-0.6,0.3-0.8,0.4c-0.1,0-0.2,0.1-0.2,0.1c0,0-0.2,0.1-0.3,0.2c-0.1,0.1-0.3,0.2-0.3,0.2c-0.1,0.2-0.2,0-0.2-0.4
		c0-0.2-0.1-1-0.2-1.8c-0.1-0.7-0.5-1.6-0.9-2.1c-0.7-0.9-1-1.1-1.9-1.7c-0.3-0.2-0.6-0.4-0.7-0.4c-0.1-0.1-0.3-0.1-0.4-0.2
		c-0.1,0-0.3-0.1-0.3-0.1c-0.1-0.1-0.9-0.4-1.4-0.5c-0.9-0.2-1.1-0.2-1.2-0.2c-0.1,0-0.2,0-0.2,0c0,0-0.3-0.1-0.7-0.1
		c-0.4,0-0.7-0.1-0.8-0.1c-0.1,0-0.3,0-0.4,0c-0.3,0-0.6,0-1.1,0c-0.9,0-1.3,0-1.5,0c-0.1,0-0.2,0-0.3,0c0,0-0.2,0-0.3,0
		c-0.2,0-0.3,0-0.3,0c0,0-0.2,0-0.4,0c-0.2,0-0.8,0-1.4,0c-0.6,0-1.2,0-1.4,0c-0.2,0-0.4,0-0.4,0c0,0-0.7,0-1.2,0
		c-0.2,0-0.3,0-0.3,0c0,0-0.1,0-0.2,0c-0.1,0-0.2,0-0.2,0c0,0,0,0-0.1,0c0,0-0.2,0-0.3,0c-0.1,0-0.3,0-0.3,0c0,0-0.1,0-0.2,0
		c-0.1,0-0.3,0-0.5,0c-0.2,0-0.4,0-0.4,0c0,0-0.3,0-0.5,0c-0.3,0-0.7,0-0.9,0c-0.2,0-0.5,0-0.6,0c-0.1,0-0.2,0-0.3,0
		c-0.1,0-0.3,0-0.6,0c-0.3,0-0.5,0-0.6,0c-0.1,0-0.2,0-0.2,0c-0.1,0-0.1,0-0.1,0c-0.1,0.1-0.7-0.3-1.1-0.7c-0.2-0.2-0.6-0.5-0.8-0.6
		c-0.6-0.4-1.2-0.9-1.3-1.1c-0.1-0.1-0.3-0.3-0.6-0.5c-0.3-0.2-0.5-0.3-0.6-0.5c-0.1-0.1-0.3-0.3-0.5-0.4c-0.2-0.1-0.4-0.3-0.5-0.4
		c-0.1-0.1-0.5-0.4-1-0.7c-0.9-0.6-1.8-1.3-2.2-1.6c-0.1-0.1-0.4-0.3-0.6-0.5c-0.2-0.2-0.5-0.4-0.6-0.5c-0.4-0.4-0.6-0.5-0.8-0.6
		c0,0-0.3-0.2-0.6-0.4c-0.3-0.2-0.7-0.5-0.9-0.7c-1.1-0.8-1.2-0.9-1.3-0.9c0,0-0.1-0.1-0.1-0.1c0,0-0.1,0-0.1,0c0,0-0.3-0.2-0.6-0.5
		c-0.6-0.4-1.3-1-1.8-1.4c-0.1-0.1-0.5-0.4-0.8-0.7c-0.8-0.6-0.7-0.6-0.7-0.6c0,0,0.2,0,0.4,0c0.4,0.1,1,0.1,1.5,0
		c0.5-0.1,0.9-0.2,1.2-0.2c0.2,0,0.4,0,0.4,0c0.1,0,0.2,0,0.3,0c0.1,0,0.3,0,0.4,0c0.2,0,0.4,0,0.5,0c0.1,0,0.3,0,0.5-0.1
		c0.2,0,0.5-0.1,0.7-0.1c0.2,0,0.5-0.1,0.7-0.1c0.2,0,0.4,0,0.4,0c0.1,0,0.2,0,0.2-0.1c0.1,0,0.2,0,0.3,0c0.1,0,0.3,0,0.4,0
		c0.1,0,0.2,0,0.4,0c0.1,0,0.2,0,0.3,0c0,0,0.2,0,0.4,0c0.2,0,0.4,0,0.4,0c0.1,0,0.4,0,0.9,0.1c0.5,0.1,0.9,0.4,1.3,0.7
		c0.4,0.4,0.4,0.5,0.6,1.1c0.1,0.3,0.2,0.6,0.2,0.6c0,0,0,0.1,0,0.2c0,0.1,0,0.2,0,0.3c0,0.1,0.1,0.8,0.1,0.9c0,0-0.2-0.1-0.5-0.3
		c-0.6-0.4-1.3-0.7-2.1-0.9c-0.3-0.1-0.6-0.2-0.7-0.2c0,0-0.1-0.1-0.2-0.2c-0.3-0.6-1.1-1.2-1.6-1.3c-0.1,0-0.4-0.1-0.6-0.1
		c-0.4-0.1-0.4-0.1-0.4,0c0,0,0,0.1,0,0.2c-0.1,0.1,0.3,0.5,0.4,0.6c0.1,0,0.3,0.1,0.5,0.2c0.3,0.2,0.4,0.2,0.6,0.6
		c0.2,0.2,0.5,0.6,0.7,0.8c0.5,0.5,0.8,0.7,1.3,0.9c0.4,0.1,1.2,0.6,1.4,0.8c0.1,0.1,0.3,0.3,0.4,0.4c0.3,0.2,0.3,0.3,0.2,0.4
		c-0.5,0.5-0.6,0.6-0.8,0.9c-0.1,0.2-0.2,0.4-0.2,0.4c0,0,0,0.1,0,0.1c0,0,0,0.1,0,0.2c0,0.1,0.1,0.2,0.2,0.3c0.2,0.1,0.2,0.1,0.5,0
		c0.2-0.1,0.3-0.2,0.4-0.2c0,0,0.1-0.1,0.2-0.1c0.1,0,0.2-0.1,0.4-0.2c0.1-0.1,0.4-0.2,0.5-0.2c0.3-0.1,0.5-0.3,0.8-0.8l0.2-0.2
		l0.2,0.1c0.1,0.1,0.4,0.1,0.5,0.2c0.3,0.1,0.8,0.2,1.2,0.4c0.2,0.1,0.7,0.5,1.1,0.9c0.3,0.3,1.4,0.7,1.7,0.6c0.2,0,0.3-0.1,0.6,0
		c0.9,0.1,0.9,0.1,1.2,0.1c0.2-0.1,0.3-0.1,0.2-0.3c-0.1-0.2-0.3-0.4-0.8-0.5c-0.2-0.1-0.5-0.2-0.7-0.3c-0.2-0.1-0.5-0.2-0.7-0.3
		c-0.4-0.1-0.6-0.3-1.9-1.2c-0.2-0.2-0.5-0.3-0.5-0.3c-0.1,0-0.3-0.1-0.4-0.1c-0.3-0.1-0.8-0.1-1.1-0.1c-0.1,0-0.2,0-0.2,0
		c-0.1-0.1,0.1-0.2,0.4-0.2c0.7-0.1,1-0.2,1.1-0.3c0,0,0.1-0.1,0.2-0.1c0.4,0,1.8-0.8,1.9-1c0-0.1,0.1-0.2,0.2-0.3
		c0.2-0.2,0.2-0.2,0.4-0.7c0.1-0.3,0.2-0.6,0.2-0.6c0-0.1,0-0.2,0-0.2c0,0,0-0.2,0-0.3c0-0.1,0-0.3,0-0.4c0.1-0.1,0.1-0.3,0-0.7
		c-0.1-0.8-0.1-1.4,0.2-1.9c0.2-0.4,0.5-1.1,0.6-1.4c0-0.1,0.1-0.3,0.2-0.4c0.1-0.2,0.1-0.6-0.1-0.7c-0.1,0-0.1-0.1-0.1-0.1
		c0,0-0.1-0.1-0.1-0.1c-0.1,0-0.1,0-0.2,0.1c0,0.1-0.3,0.4-0.5,0.7c-0.4,0.6-0.5,0.6-0.6,1.1c-0.1,0.3-0.2,0.5-0.3,0.6
		c-0.1,0.2-0.2,0.4-0.2,0.9c0,0.2-0.1,0.4-0.1,0.5c0,0.1-0.1,0.3,0,0.4c0,0.1,0,0.2,0,0.2c0,0,0,0.2,0,0.4c0,0.8-0.1,1.1-0.6,2
		c-0.1,0.1-0.2,0.3-0.2,0.4c0,0.1-0.1,0.2-0.3,0.3c-0.1,0.1-0.4,0.2-0.5,0.2c-0.4,0.2-0.4,0.2-0.5,0c0-0.1,0-0.2,0.1-0.3
		c0-0.1,0.1-0.2,0.1-0.3c0-0.2,0.2-1.1,0.4-1.4c0-0.1,0.1-0.3,0.1-0.4c0-0.1,0-0.2,0-0.3c0,0,0.1-0.2,0.1-0.3c0-0.1,0.1-0.3,0.1-0.4
		c0-0.1,0.1-0.2,0.1-0.4c0-0.1,0-0.3,0.1-0.4c0.1-0.1,0.1-0.2-0.1-0.4c-0.1-0.2-0.2-0.3-0.2-0.6c0-0.2-0.1-0.4-0.1-0.4
		c-0.1-0.1-0.1-0.2,0-0.6c0.1-0.5,0.1-0.6,0.3-1.1C31.8,8.5,32,8.3,32,8.2c0.1-0.1,0-0.5-0.2-0.6c-0.1-0.1-0.1-0.1-0.1,0
		c0,0-0.2,0.2-0.3,0.2c-0.3,0.1-0.4,0.3-0.7,0.6c-0.1,0.1-0.1,0.1-0.2,0.2c-0.1,0-0.8,1.2-0.8,1.3c0,0-0.1,0.2-0.1,0.3
		c-0.1,0.1-0.2,0.4-0.2,0.5c0,0.2-0.1,0.3-0.1,0.4c0,0.1-0.1,0.3-0.1,0.6c0,0.5-0.1,0.7-0.2,0.5c0-0.2-0.3-0.4-0.8-0.6
		c-0.3-0.1-0.6-0.3-0.7-0.3c-0.1-0.1-0.4-0.1-0.5-0.1c-0.2,0-0.4-0.1-0.6-0.1c-0.3-0.1-1-0.1-1.6,0c-0.2,0-0.4,0-0.6,0
		c-0.2,0-0.3,0-0.7,0c-0.1,0-0.2,0-0.2,0c0,0-0.3,0-1,0.1c-0.4,0.1-1.3,0.1-1.6,0.2c-0.2,0-0.6,0.1-1,0.1c-0.4,0.1-0.8,0.1-1,0.1
		c-0.1,0-0.5,0.1-0.8,0.1c-1,0.2-1.4,0.2-2.1,0.1c-0.1,0-0.3,0-0.4,0c-0.3,0-0.5-0.1-1.1-0.3c-0.6-0.3-0.9-0.3-1.1-0.2
		c-0.1,0.1-0.1,0.1-0.1,0c0,0-0.2-0.2-0.5-0.4c-0.2-0.2-0.5-0.4-0.6-0.5c-0.1-0.1-0.3-0.3-0.5-0.4C10.9,9.7,9.9,8.8,9.1,8
		C8.4,7.3,8,6.9,7.5,6.5C6.4,5.7,4.9,4.2,4.8,4c0-0.1-0.6-0.8-0.6-0.8c0,0-0.1-0.1-0.1-0.2c0-0.1-0.2-0.3-0.3-0.5
		C3.5,2.2,3.3,2,3.1,1.9c-0.5-0.3-1-0.4-1.1-0.3C2.1,1.7,2,1.8,2,2L2,2z M25.7,29.6c0.3,0,0.6,0.2,0.3,0.2c-0.1,0-0.3,0-0.5-0.1
		C25.3,29.6,25.4,29.6,25.7,29.6L25.7,29.6z M67.7,56.4c0,0,0.1,0.2,0.1,0.3c0,0.2,0.1,0.3,0.2,0.4c0.1,0.2,0.2,0.6,0.2,0.7
		c0,0-0.1,0-0.1,0c-0.1,0-0.4-0.7-0.4-0.8c0,0,0-0.2-0.1-0.3C67.6,56.5,67.6,56.3,67.7,56.4L67.7,56.4z"/>
</g>
</svg>
