<?xml version="1.0" encoding="utf-8"?>
<!-- Generator: Adobe Illustrator 25.4.1, SVG Export Plug-In . SVG Version: 6.00 Build 0)  -->
<svg version="1.1" id="圖層_1" xmlns="http://www.w3.org/2000/svg" xmlns:xlink="http://www.w3.org/1999/xlink" x="0px" y="0px"
	 viewBox="0 0 50 20" style="enable-background:new 0 0 50 20;" xml:space="preserve">
<style type="text/css">
	.st0{fill:#F16C53;}
	.st1{fill:#1C0F17;}
	.st2{fill:#82B3A5;}
	.st3{fill:#EEC418;}
</style>
<g>
	<g>
		<g>
			<path class="st0" d="M2.5,13.1c0,0.4,0.1,1,0.3,1.7c0.2,0.8,0.4,1.3,0.6,1.5c0,0,0.1,0.1,0.1,0.2c0.1,0.2,0.3,0.5,0.7,0.9
				c0.2,0.2,0.4,0.4,0.4,0.4c0,0,0.1,0.1,0.2,0.2C4.9,17.9,5.1,18,5.1,18c0.1,0.1,0.2,0.1,0.3,0.2c0,0,0.1,0,0.1,0
				c0,0,0.2,0.1,0.3,0.2c0.2,0.1,0.3,0.2,0.3,0.2c0.1,0,0.3,0.1,0.4,0.2C6.7,18.9,6.8,19,6.9,19c0.1,0,0.2,0.1,0.3,0.1
				c0.1,0.1,0.3,0.2,0.4,0.2c0,0,0.1,0,0.2,0.1c0.2,0.1,0.6,0.2,0.7,0.2c0,0,0.1,0,0.2,0c0.1,0.1,0.5,0.2,0.7,0.2c0.1,0,0.1,0,0.2,0
				c0,0,0.1,0,0.1,0c0,0,0.1,0,0.1,0c0,0,0.1,0,0.2,0c0.1,0,0.2,0,0.2,0c0.2,0.2,1.7,0,1.9-0.2c0.1-0.1,0.1-0.1,0.4,0
				c0.1,0,0.1,0,0.2,0c0.1,0,0.2-0.1,0.2-0.1c0.1,0,0.2-0.1,0.3-0.1c0.1-0.1,0.2-0.1,0.3-0.2c0.1,0,0.1-0.1,0.1-0.1
				c0,0,0.1-0.1,0.2-0.1c0.1,0,0.2,0,0.2,0c0,0,0.1-0.1,0.1-0.1c0.1,0,0.1-0.1,0.2,0c0.1,0,0.1,0,0.2,0c0.1-0.1,0.2-0.1,0.2-0.2
				c0.1,0,0.1-0.1,0.2-0.1c0,0,0.1-0.1,0.2-0.1c0.1,0,0.2,0,0.2-0.1c0,0,0.1-0.1,0.1-0.1c0,0,0.1,0,0.1-0.1c0,0,0.1-0.1,0.2-0.1
				c0.1,0,0.1-0.1,0.1-0.1c0-0.1,0.1-0.2,0.3-0.1c0.1,0,0.1,0,0.2,0c0.1,0,0.2-0.1,0.2-0.2c0.1,0,0.1-0.1,0.1-0.1c0,0,0-0.1,0.1-0.1
				c0.1,0,0.1-0.1,0.1-0.2c0-0.1,0-0.1,0.2-0.1c0.2,0,0.2,0,0.2,0c0,0.1,0.1,0.1,0.1,0c0.1-0.1,0.1-0.1,0.1-0.2
				c0-0.1,0.2-0.5,0.3-0.5c0,0,0.1,0,0.1-0.2c0-0.1,0-0.2,0.1-0.3c0.1-0.1,0.2-0.1,0.2-0.2c0-0.1,0.1-0.1,0.2-0.2
				c0.1,0,0.1-0.1,0.1-0.2c0-0.1,0-0.2,0.1-0.2c0.3-0.2,0.5-0.4,0.5-0.5c0-0.1,0-0.1,0.1-0.2c0.1,0,0.2-0.2,0.1-0.3
				c0,0,0-0.1,0.1-0.1c0.2-0.1,0.4-0.5,0.4-0.7c0-0.1,0-0.1,0-0.1c0.1,0,0.3-0.3,0.3-0.4c0,0,0-0.1-0.1-0.1c-0.1-0.1,0-0.3,0.3-0.4
				c0.1,0,0.1-0.1,0.2-0.2c0-0.1,0.1-0.2,0.1-0.2c0-0.1,0.1-0.2,0.1-0.2c0-0.1,0-0.1-0.1,0c0,0-0.1,0.1-0.2,0.1c0,0-0.1,0.1-0.2,0.1
				c-0.1,0.1-0.1,0.1-0.1,0c0,0,0.1-0.2,0.2-0.3c0.1-0.1,0.3-0.3,0.3-0.4c0.1-0.1,0.1-0.2,0.2-0.2c0.1-0.1,0.1-0.4,0.1-1.1
				c0-0.3,0-0.6,0-0.6c0-0.1,0-0.1-0.1-0.2C20.9,9.1,20.9,9,21,8.9c0.1-0.1,0.1-0.1-0.1-0.5c0-0.1-0.1-0.2-0.1-0.3
				c0-0.1,0-0.2-0.1-0.3c0,0,0-0.1,0-0.2c0-0.1-0.1-0.5-0.2-0.6c0,0,0-0.1,0-0.2c0-0.1-0.2-0.4-0.2-0.4c0,0-0.1,0-0.1,0
				c0,0,0-0.1,0-0.3c0-0.2-0.1-0.4-0.2-0.5c0,0-0.1-0.1-0.1-0.2c0-0.1,0-0.1-0.1-0.2c0,0-0.1-0.2-0.2-0.3c-0.1-0.1-0.1-0.2-0.2-0.3
				c0,0-0.1-0.1-0.1-0.1c0,0,0-0.2-0.1-0.3c-0.1-0.1-0.2-0.3-0.2-0.4C19.1,3.7,19,3.6,19,3.6c0,0-0.3-0.6-0.3-0.6
				c0-0.1-0.1-0.2-0.2-0.3c0,0-0.1-0.1-0.1-0.2c0-0.1-0.1-0.2-0.1-0.3c-0.1-0.1-0.2-0.1-0.2,0c0,0,0,0.1-0.1,0.1
				c-0.1,0.1-0.4,0-0.7-0.3C17.1,1.8,17,1.7,17,1.5c0-0.1,0-0.1-0.2-0.2c-0.2,0-0.3-0.1-0.3-0.2c0,0-0.1-0.1-0.1-0.1
				c-0.1,0-0.1,0-0.1,0.1c0,0.1-0.1,0.2-0.2,0.2c0,0-0.1,0-0.1,0.1c-0.1,0.1-0.2,0.1-0.2,0c0-0.1,0.2-0.5,0.3-0.6
				c0.1-0.1,0.1-0.1,0.1-0.3c0-0.2,0-0.2-0.1-0.2c-0.2,0-0.2,0-0.2-0.1c0,0,0-0.1-0.1-0.1c-0.2,0-0.3,0-0.4,0.1
				c-0.1,0.1-0.1,0.1-0.3,0.1c-0.1,0-0.2-0.1-0.3-0.1c-0.1,0-0.1,0-0.2,0c-0.2,0.1-0.2,0-0.1-0.1c0.1-0.1,0.1-0.1,0-0.1
				c0,0-0.1,0-0.1,0c-0.1,0-0.2,0-0.2,0c-0.1,0-0.2,0-0.2,0.1c-0.1,0.1-0.7,0.2-0.8,0.2c0,0-0.1-0.1-0.2-0.2C12.9,0,12.8,0,12.8,0.1
				c0,0.1-0.4,0.3-0.5,0.3c-0.1,0-0.2,0.1-0.5,0.2c-0.1,0-0.2,0.1-0.2,0c0,0-0.1,0-0.2,0c-0.1,0.1-0.3,0-0.3-0.1c0-0.1,0-0.1-0.2,0
				c-0.1,0-0.2,0.1-0.3,0.2c-0.1,0-0.2,0.1-0.2,0.1c0,0-0.1,0.1-0.2,0.2C10,1.2,9.9,1.2,9.8,1.2c-0.2,0-0.4,0-0.5,0.1
				c0,0-0.1,0-0.1,0.1c0,0-0.1,0.1-0.2,0.2C8.9,1.6,8.8,1.6,8.7,1.6c0,0-0.1,0-0.2,0.1c-0.1,0.1-0.2,0.1-0.2,0c-0.1,0-0.2,0-0.5,0.2
				C7.6,2.1,7.6,2.1,7.4,2.1C7.3,2.2,7.2,2.3,7,2.4C6.9,2.5,6.7,2.7,6.6,2.7c-0.1,0-0.2,0.1-0.2,0.1S6.2,3,6.1,3.1
				C5.6,3.4,4.6,4.5,4.6,4.6c0,0-0.1,0.1-0.2,0.2C4.2,5.1,4.2,5.2,3.9,5.6C3.6,6.1,3.2,6.9,3.1,7.2C3.1,7.3,2.9,8.1,2.8,8.4
				C2.7,9,2.6,9.1,2.6,9.5C2.5,10.3,2.4,12.2,2.5,13.1L2.5,13.1z"/>
			<path class="st0" d="M21.5,8.8C21.5,8.8,21.5,8.8,21.5,8.8c0-0.1,0-0.1,0-0.2C21.4,8.7,21.4,8.7,21.5,8.8
				C21.4,8.8,21.4,8.9,21.5,8.8L21.5,8.8z"/>
		</g>
		<path class="st1" d="M12.2,0.3c0,0,0,0.1,0,0.3c0,0.2,0,0.3,0,0.3c0,0.1,0,0.1,0.1,0.1c0.1,0.1,0.1,0.3,0.1,0.6l0,0.4l-0.1,0.2
			c-0.1,0.4-0.2,0.6-0.2,1.3c0,0.1,0,0.3,0,0.5c0,0.4,0,1.2,0,1.4c0.1,0.3,0.1,0.4,0,0.3c0,0-0.1,0-0.3,0c-0.1,0-0.2,0-0.2,0
			c0,0-0.1,0-0.2,0c-0.1,0-0.5-0.1-0.7-0.2c0,0-0.1,0-0.2-0.1c-0.1,0-0.2,0-0.2-0.1c0,0-0.1,0-0.3,0c-0.3,0-0.6-0.1-0.9-0.1
			C8.6,5.2,7.6,5.1,7.4,5.1c-0.2,0-0.2,0-0.6,0.1c-0.2,0-0.4,0-0.5,0c-0.1,0-0.2,0-0.2,0C6,5.3,6,5.3,6,5.3c0,0,0,0,0,0.1
			c0,0-0.1,0-0.1,0c0,0-0.1,0-0.1,0l-0.1,0l0.1,0.1C6,5.6,6.1,5.7,6.1,5.7c0,0.1,0.1,0.1,0.3,0.2C6.4,5.9,6.6,6,6.6,6
			c0.1,0,0.2,0.1,0.2,0.1c0.1,0,0.1,0,0.2,0c0,0,0.1,0,0.2,0.1c0.1,0,0.3,0.1,0.4,0.2C8,6.6,8.4,6.8,8.7,6.9C8.9,6.9,9,6.9,9.2,7
			c0.1,0,0.2,0,0.4,0C9.8,7,9.9,7,10,7c0.1,0,0.1,0,0.2,0c0.1,0,0.2,0,0.3-0.1c0.1,0,0.2,0,0.3-0.1c0.1-0.1,0.2-0.1,0.3-0.2
			c0.1,0,0.2-0.1,0.3-0.1c0,0,0.1,0,0.1,0c0.1,0,0.1,0,0,0c0,0-0.1,0.2-0.1,0.3c0,0,0,0,0,0.1c0,0,0,0,0,0.1c0,0,0,0.1,0,0.1
			c0,0,0,0.1-0.1,0.2c0,0.2,0,0.3-0.1,0.6c0,0.4,0,0.6,0,0.8c0,0,0,0.1,0,0.1c0,0,0,0,0,0.1c0,0,0,0.1,0,0.1c0,0,0,0.1,0,0.1
			c-0.1,0.2-0.2,0.9-0.2,1c0,0,0,0.1,0,0.1c0,0,0,0.1-0.1,0.3s-0.1,0.3-0.1,0.3c-0.1,0.1-0.2,0.4-0.2,0.5c0,0,0,0.1,0,0.1
			s0,0.1,0,0.1c0,0,0,0,0,0.1c0,0-0.1,0.1-0.1,0.2c0,0.1-0.1,0.2-0.1,0.2c0,0-0.1,0.1,0,0.1c0,0,0.2,0,0.3,0c0,0,0.1,0,0.1,0
			c0.1,0,0.3-0.1,0.5-0.4c0-0.1,0.1-0.1,0.1-0.1c0,0,0.1-0.1,0.2-0.3c0.1-0.2,0.4-0.7,0.4-0.8c0-0.1,0-0.1,0.1-0.1
			c0-0.1,0.2-0.4,0.2-0.5c0-0.1,0.2-0.5,0.3-0.5c0,0,0.1-0.2,0.1-0.2c0,0,0,0,0,0c0,0,0.1,0,0.1-0.1c0-0.1,0.1-0.1,0.1-0.2
			c0,0,0.1-0.1,0.1-0.2c0-0.1,0.1-0.1,0.1-0.1c0,0,0.1-0.1,0.1-0.1c0,0,0-0.1,0.1-0.1c0.1,0,0.1,0,0.1-0.1c0.1-0.1,0.1-0.2,0.1-0.3
			c0-0.1,0-0.1,0.1-0.1c0,0,0.1,0,0.1,0c0,0,0,0.1,0,0.1c0,0,0,0,0,0.1c0,0,0,0,0,0.1c0,0,0.1,0.1,0.1,0.1c0,0,0.1,0.1,0.1,0.2
			c0.1,0.1,0.1,0.2,0.1,0.3c0,0.1,0,0.2,0,0.2c0,0,0,0.1,0,0.2c0,0.1,0.1,0.5,0.2,0.6c0,0,0,0.1,0.1,0.2c0.1,0.2,0.2,0.4,0.4,0.6
			c0.2,0.2,0.4,0.3,0.7,0.5c0.4,0.2,0.6,0.3,0.7,0.3c0.1,0,0.1,0,0.2,0c0,0,0.2,0,0.3,0.1c0.2,0,0.3,0,0.4,0c0.1,0,0.2,0,0.2,0
			c0,0,0.1,0,0.1,0c0,0,0.1,0,0.1-0.1c0.1,0,0.2-0.1,0.2-0.1c0,0-0.1,0-0.1,0c-0.4,0-0.8-0.2-0.9-0.2c-0.1-0.1-0.3-0.3-0.3-0.3
			c0,0-0.1-0.3-0.2-0.5c0-0.1-0.1-0.2-0.1-0.2c0-0.1-0.1-0.4-0.2-0.4c0,0,0,0,0-0.1c0,0-0.2-0.3-0.3-0.4c0,0-0.1-0.1-0.1-0.1
			c0,0,0-0.1-0.1-0.1c0-0.1-0.1-0.1-0.1-0.2c0,0-0.1-0.1-0.1-0.1c0,0,0-0.1-0.1-0.1c0-0.1-0.1-0.1-0.1-0.1c0,0,0,0,0-0.1
			c0-0.1-0.1-0.1-0.1-0.2c0,0-0.1-0.1-0.2-0.2c0-0.1-0.1-0.2-0.2-0.2c-0.1-0.1-0.1-0.1-0.1-0.1s0,0-0.1-0.1c0,0-0.1-0.1-0.1-0.1
			c0,0-0.1-0.1-0.1-0.1c0,0,0,0,0-0.1c0,0,0.1,0,0.3,0c0.2,0,0.3,0,0.2-0.1c-0.1,0-0.1,0,0-0.1c0,0,0.1,0,0.1,0c0,0,0.1,0,0.1,0
			c0,0,0.1,0,0.1-0.1c0,0,0.1-0.1,0.1-0.1c0.1,0,0.2-0.1,0.2-0.1c0,0,0.1,0,0.1,0c0,0,0.1,0,0.1,0c0,0,0.1,0,0.1,0
			c0,0,0.1,0,0.2-0.1c0,0,0.1-0.1,0.2-0.1c0.1,0,0.2-0.1,0.2-0.1c0,0,0.1,0,0.1,0c0,0,0.4-0.4,0.5-0.5c0,0,0.1-0.1,0.1-0.1
			c0,0,0.3-0.2,0.3-0.2c0,0,0.4-0.3,0.4-0.3c0.3-0.1,0.5-0.3,0.5-0.4c0,0,0-0.1,0.1-0.1c0.1-0.1,0.2-0.2,0.2-0.3c0,0,0-0.1,0.1-0.1
			c0,0,0.1-0.1,0.2-0.1C18.5,4,18.6,4,18.6,4c0,0,0,0,0-0.1c0,0,0-0.1,0-0.1c0-0.1,0-0.1-0.1,0c0,0-0.1,0-0.1,0c0,0-0.1,0-0.2,0.1
			C18.1,4,18,4,17.9,4c-0.1,0.1-0.5,0.5-0.5,0.5c0,0,0,0,0,0c0,0-0.1,0-0.1,0.1c-0.1,0-0.1,0.1-0.1,0.1c0,0-0.3,0.1-0.4,0.2
			c0,0-0.1,0-0.1,0c0,0-0.1,0.1-0.2,0.1c-0.2,0.1-0.2,0.2-0.2,0.2c0,0-0.1,0.1-0.1,0.1c-0.1,0-0.2,0.1-0.2,0.1c0,0-0.1,0.1-0.2,0.2
			c-0.1,0.1-0.1,0.1-0.2,0.1c0,0-0.1,0-0.1,0.1c0,0-0.1,0.1-0.2,0.1C15,6,14.9,6.1,14.9,6.1c0,0-0.1,0-0.1,0.1c-0.1,0-0.1,0-0.2,0.1
			c-0.1,0.1-0.5,0.1-0.5,0.1c0,0,0.1-0.1,0.1-0.2c0.1-0.1,0.2-0.3,0.3-0.4c0.1-0.1,0.2-0.3,0.2-0.4c0.1-0.1,0.1-0.2,0.1-0.2
			c0,0,0-0.1,0.1-0.2C15,4.9,15,4.8,15.1,4.7c0-0.1,0.1-0.2,0.2-0.3c0.1-0.2,0.4-0.5,0.5-0.6c0.3-0.3,0.3-0.4,0.5-0.7
			c0.1-0.1,0.1-0.2,0.2-0.2c0,0,0,0,0,0c0,0,0.2-0.2,0.2-0.2c0,0,0,0,0,0c0,0,0.1-0.1,0.2-0.1c0.1,0,0.2-0.1,0.2-0.1
			c0.1,0,0.1-0.1,0.1-0.1c0,0,0.2-0.2,0.2-0.2c0,0,0-0.1,0.1-0.1c0,0,0.1-0.1,0.1-0.1c0-0.1-0.1-0.3-0.2-0.3c0,0-0.1,0-0.1-0.1
			c-0.1-0.1-0.1-0.1-0.2-0.1c-0.1,0-0.2,0-0.2,0c0,0-0.1,0-0.1,0c0,0-0.1,0-0.1,0.1c-0.1,0.1-0.1,0.1-0.2,0c0,0-0.1-0.1-0.1,0
			c0,0-0.1,0-0.2,0c-0.1,0-0.1,0-0.1,0c-0.1,0-0.3,0.2-0.3,0.2c0,0-0.1,0.1-0.1,0.1c-0.1,0-0.1,0.1-0.1,0.1c0,0-0.1,0.1-0.2,0.3
			c-0.1,0.1-0.3,0.3-0.4,0.4c-0.1,0.1-0.2,0.2-0.2,0.3c0,0.1-0.1,0.1-0.2,0.2c-0.1,0.1-0.5,0.8-0.5,0.9c0,0,0,0,0,0.1
			C14.1,4.1,14,4.3,14,4.4c0,0,0,0.1,0,0.1c0,0-0.1,0.1-0.1,0.2c0,0.1-0.1,0.1-0.1,0.2c0,0,0-0.4,0-0.4c0-0.1,0-0.6-0.1-0.8
			c0-0.1-0.1-0.3-0.1-0.5c0-0.3,0-0.6-0.1-0.7c0-0.1,0-0.2-0.1-0.3c0-0.1,0-0.2-0.1-0.2c0,0,0-0.1,0-0.1c0-0.1-0.2-0.4-0.2-0.4
			c0,0-0.1-0.1-0.1-0.1c0,0-0.1-0.1-0.1-0.1c0,0-0.1-0.1-0.1-0.1c0,0-0.1-0.1-0.2-0.2c-0.1-0.1-0.1-0.2-0.2-0.2
			c-0.1-0.1-0.1-0.2-0.2-0.1c0,0-0.1,0-0.1,0C12.2,0.4,12.2,0.4,12.2,0.3C12.2,0.3,12.2,0.3,12.2,0.3L12.2,0.3z"/>
	</g>
	<g>
		<path class="st2" d="M44.9,16.3c0.2,0.1,0.5,0.2,0.7,0.1c0.1,0,0.4-0.2,0.5-0.3c0,0,0.1-0.1,0.2-0.1c0.1,0,0.2-0.1,0.2-0.1
			c0.1,0,0.2-0.1,0.2-0.1c0.2-0.1,0.6-0.4,0.6-0.5c0,0,0-0.1,0-0.1c0,0,0-0.1,0-0.1c0,0,0-0.1,0-0.2c0-0.1,0-0.3-0.1-0.4
			c0,0-0.2-0.3-0.2-0.3c0,0,0-0.1,0-0.1c0,0,0-0.1,0-0.1c0,0,0-0.1,0-0.1c0,0-0.1-0.1-0.2-0.1c-0.1-0.1-0.1-0.1-0.1-0.1
			c0,0,0-0.1-0.1-0.1c0,0-0.1,0-0.1,0c0,0-0.1,0-0.1,0c0,0-0.1,0-0.1,0c0,0-0.1,0-0.1,0c0,0-0.1,0-0.1,0c0,0-0.2,0-0.2,0.1
			c0,0,0,0-0.1,0c0,0-0.1,0-0.1,0c0,0-0.1,0.1-0.1,0c0,0-0.1,0-0.1,0c0,0-0.1,0.1-0.1,0.1c0,0-0.1,0.1-0.2,0.1
			c-0.1,0.1-0.2,0.1-0.3,0.2c-0.1,0-0.2,0.1-0.2,0.1c0,0-0.1,0.1-0.1,0.1c0,0-0.1,0-0.1,0.1c0,0.1-0.1,0.3-0.3,0.4
			c-0.1,0.1-0.2,0.2-0.1,0.2c0,0,0,0.1,0,0.1c0,0.1,0,0.1,0,0.2c0,0,0,0.1,0,0.1c0,0,0,0.1,0,0.1c0,0,0.1,0.1,0.1,0.1
			C44.5,16,44.6,16.2,44.9,16.3L44.9,16.3z"/>
		<path class="st0" d="M34.8,11.7c0,0,0.1,0,0.1,0.1c0.1,0,0.1,0.1,0.2,0.1c0,0,0.1,0,0.3,0c0.3-0.1,0.4-0.1,0.6-0.2
			c0.1,0,0.1-0.1,0.1-0.1c0,0,0,0,0,0c0,0,0,0,0,0c0.1,0,0.2-0.2,0.3-0.4c0-0.1,0.1-0.2,0.1-0.2c0-0.1,0-0.2,0-0.2c0,0,0-0.1,0-0.1
			c0,0,0-0.1,0-0.2c0-0.1,0-0.3,0-0.4c-0.1-0.4-0.1-0.7-0.1-0.7c0-0.1,0-0.4-0.1-0.5c-0.1-0.2-0.4-0.5-0.6-0.6C35.6,8,35.6,8,35.5,8
			c0,0-0.1,0-0.1,0c0,0-0.3-0.1-0.3,0c-0.1,0-0.4,0.1-0.4,0.1c0,0,0,0-0.1,0c0,0-0.1,0.1-0.1,0.1c0,0-0.1,0-0.2,0.2
			c-0.1,0.1-0.2,0.2-0.2,0.2c-0.1,0-0.2,0.2-0.2,0.3c0,0.1,0,0.1-0.1,0.2c-0.1,0.1-0.1,0.1-0.1,0.2c0,0.1-0.1,0.2-0.1,0.3
			c-0.1,0.1-0.1,0.3-0.1,0.3c0,0,0.1,0.1,0.1,0.2c0.4,0.7,0.3,0.7,0.5,0.9c0.1,0.1,0.1,0.2,0.1,0.2c0,0.1,0.2,0.3,0.4,0.4
			C34.7,11.7,34.8,11.7,34.8,11.7L34.8,11.7z"/>
		<path class="st3" d="M45.2,12.1C45.2,12.1,45.2,12.1,45.2,12.1c0.1,0,0.4,0.1,0.5,0.1c0.1,0.1,0.4,0.1,0.7,0c0,0,0.1,0,0.2,0
			c0.1,0,0.1,0,0.2-0.1c0.1-0.1,0.4-0.4,0.5-0.5c0-0.1,0.1-0.2,0.2-0.3c0.1-0.1,0.1-0.2,0.1-0.3c0,0,0-0.1,0-0.2c0,0,0-0.1,0-0.1
			c0,0,0-0.1,0-0.1c0,0,0,0,0-0.1c0,0,0-0.1,0-0.2c0-0.1-0.1-0.4-0.2-0.5c0,0-0.1-0.1-0.1-0.1c-0.1-0.2-0.3-0.3-0.4-0.4
			c0,0-0.1-0.1-0.2-0.2C46.5,9,46.4,9,46.4,9c0,0-0.1,0-0.1-0.1c0,0-0.1-0.1-0.2-0.1c-0.1,0-0.1,0-0.2-0.1c0,0-0.1,0-0.1,0
			c0,0-0.1,0-0.1,0c0,0-0.2,0-0.3,0c-0.1,0-0.2,0-0.2,0c0,0-0.1,0-0.1,0c-0.1,0-0.1,0-0.1,0c0,0-0.1,0-0.1,0c-0.1,0-0.1,0-0.2,0.2
			c-0.3,0.4-0.4,0.7-0.4,0.8c0,0,0,0.1,0,0.1c-0.1,0.1-0.2,0.7-0.1,0.7c0,0,0,0.1,0,0.1c0,0,0,0.1,0,0.1c0,0,0.1,0.1,0.1,0.2
			c0,0.1,0,0.1,0.2,0.2c0.1,0.1,0.2,0.1,0.2,0.2C44.6,11.7,45,12,45.2,12.1L45.2,12.1z"/>
		<path class="st3" d="M39.1,14.1c0.1,0,0.2,0,0.3,0c0.1,0,0.2,0,0.2,0c0,0,0.1,0,0.1-0.1c0.1-0.1,0.1-0.1,0.2-0.2
			c0.2-0.1,0.3-0.1,0.3-0.2c0,0,0-0.1,0-0.1c0.1-0.1,0.1-0.2,0-0.5l-0.1-0.3l-0.2-0.1c-0.3-0.2-0.4-0.3-0.6-0.4c-0.2,0-0.3,0-0.3,0
			c0,0-0.1,0-0.2,0c-0.1,0-0.4,0-0.4,0.1c-0.1,0.1-0.2,0.4-0.2,0.5c0,0.1,0,0.2,0,0.3c-0.1,0.2,0,0.6,0.1,0.7c0,0,0.1,0.1,0.1,0.1
			c0,0,0.1,0.1,0.2,0.2C38.9,14,39,14.1,39.1,14.1L39.1,14.1z"/>
		<path class="st3" d="M37.2,7.5c0.2,0.1,0.3,0.1,0.5,0.2c0.3,0,0.3,0,0.6-0.4c0.1-0.2,0.2-0.3,0.3-0.4c0.1-0.1,0.1-0.1,0.1-0.2
			c0,0,0-0.1,0-0.1c0,0,0-0.2,0-0.4c0,0,0-0.1,0-0.1c0-0.1-0.1-0.5-0.2-0.5c0,0-0.1-0.2-0.1-0.3c-0.1-0.3-0.1-0.3-0.3-0.5
			C38,4.7,38,4.7,38,4.7c0,0-0.1,0-0.1,0c-0.1,0-0.2,0-0.3,0.1c-0.1,0-0.3,0.1-0.3,0.1C37.1,4.9,37,5,37,5c0,0-0.1,0.1-0.2,0.1
			c-0.1,0-0.2,0-0.2,0.1c0,0-0.1,0.1-0.1,0.1c-0.1,0-0.2,0.4-0.2,0.4c0,0.1-0.1,0.3-0.1,0.3c-0.1,0.1-0.1,0.3,0.1,0.6
			c0.2,0.3,0.2,0.4,0.4,0.5C37,7.3,37,7.3,37.2,7.5L37.2,7.5z"/>
	</g>
</g>
</svg>
