<?xml version="1.0" encoding="utf-8"?>
<!-- Generator: Adobe Illustrator 25.4.1, SVG Export Plug-In . SVG Version: 6.00 Build 0)  -->
<svg version="1.1" xmlns="http://www.w3.org/2000/svg" xmlns:xlink="http://www.w3.org/1999/xlink" x="0px" y="0px"
	 viewBox="0 0 84 76" style="enable-background:new 0 0 84 76;" xml:space="preserve">
<style type="text/css">
	.st0{fill:#FFFFFF;}
	.st1{display:none;}
	.st2{display:inline;}
</style>
<g id="圖層_1">
	<g>
		<g>
			<path class="st0" d="M82.3,61.7h-81c-0.7,0-1.3-0.6-1.3-1.3V3.1c0-0.7,0.6-1.3,1.3-1.3c0.7,0,1.3,0.6,1.3,1.3V59h79.6
				c0.7,0,1.3,0.6,1.3,1.3C83.6,61.1,83,61.7,82.3,61.7z"/>
			<g>
				<path class="st0" d="M11.5,38.4c-2.6,0-4.7-2.1-4.7-4.7c0-2.6,2.1-4.7,4.7-4.7c2.6,0,4.7,2.1,4.7,4.7
					C16.1,36.3,14,38.4,11.5,38.4z M11.5,31.7c-1.1,0-2,0.9-2,2c0,1.1,0.9,2,2,2c1.1,0,2-0.9,2-2C13.5,32.6,12.6,31.7,11.5,31.7z"/>
				<path class="st0" d="M31.9,23.5c-2.6,0-4.7-2.1-4.7-4.7c0-2.6,2.1-4.7,4.7-4.7c2.6,0,4.7,2.1,4.7,4.7
					C36.5,21.4,34.4,23.5,31.9,23.5z M31.9,16.9c-1.1,0-2,0.9-2,2c0,1.1,0.9,2,2,2c1.1,0,2-0.9,2-2C33.9,17.8,33,16.9,31.9,16.9z"/>
				<path class="st0" d="M52.3,33.7c-2.6,0-4.7-2.1-4.7-4.7s2.1-4.7,4.7-4.7c2.6,0,4.7,2.1,4.7,4.7S54.8,33.7,52.3,33.7z M52.3,27.1
					c-1.1,0-2,0.9-2,2c0,1.1,0.9,2,2,2c1.1,0,2-0.9,2-2C54.3,28,53.4,27.1,52.3,27.1z"/>
				<path class="st0" d="M72.7,15.8c-2.6,0-4.7-2.1-4.7-4.7c0-2.6,2.1-4.7,4.7-4.7c2.6,0,4.7,2.1,4.7,4.7
					C77.3,13.7,75.2,15.8,72.7,15.8z M72.7,9.1c-1.1,0-2,0.9-2,2c0,1.1,0.9,2,2,2c1.1,0,2-0.9,2-2C74.7,10,73.8,9.1,72.7,9.1z"/>
				<path class="st0" d="M54.8,28.3c-0.4,0-0.7-0.2-1-0.5c-0.5-0.6-0.4-1.4,0.2-1.9l15.6-13.3c0.6-0.5,1.4-0.4,1.9,0.1
					c0.5,0.6,0.4,1.4-0.2,1.9L55.7,27.9C55.4,28.2,55.1,28.3,54.8,28.3z"/>
				<path class="st0" d="M49.3,28.9c-0.2,0-0.4,0-0.6-0.1l-14.4-7.2c-0.7-0.3-0.9-1.1-0.6-1.8c0.3-0.7,1.1-0.9,1.8-0.6l14.4,7.2
					c0.7,0.3,0.9,1.1,0.6,1.8C50.2,28.7,49.8,28.9,49.3,28.9z"/>
				<path class="st0" d="M14.2,33.1c-0.4,0-0.8-0.2-1.1-0.5c-0.4-0.6-0.3-1.4,0.3-1.9l15-11c0.6-0.4,1.4-0.3,1.9,0.3
					c0.4,0.6,0.3,1.4-0.3,1.9l-15,11C14.7,33,14.4,33.1,14.2,33.1z"/>
				<path class="st0" d="M11.5,54.9c-0.7,0-1.3-0.6-1.3-1.3V40.9c0-0.7,0.6-1.3,1.3-1.3c0.7,0,1.3,0.6,1.3,1.3v12.6
					C12.8,54.3,12.2,54.9,11.5,54.9z"/>
				<path class="st0" d="M31.8,54.9c-0.7,0-1.3-0.6-1.3-1.3V26.9c0-0.7,0.6-1.3,1.3-1.3c0.7,0,1.3,0.6,1.3,1.3v26.6
					C33.2,54.3,32.6,54.9,31.8,54.9z"/>
				<path class="st0" d="M52.2,54.9c-0.7,0-1.3-0.6-1.3-1.3V37.1c0-0.7,0.6-1.3,1.3-1.3s1.3,0.6,1.3,1.3v16.5
					C53.5,54.3,52.9,54.9,52.2,54.9z"/>
				<path class="st0" d="M72.6,54.9c-0.7,0-1.3-0.6-1.3-1.3v-34c0-0.7,0.6-1.3,1.3-1.3s1.3,0.6,1.3,1.3v34
					C73.9,54.3,73.3,54.9,72.6,54.9z"/>
				<path class="st0" d="M65.8,54.9c-0.7,0-1.3-0.6-1.3-1.3V25.4c0-0.7,0.6-1.3,1.3-1.3s1.3,0.6,1.3,1.3v28.2
					C67.1,54.3,66.5,54.9,65.8,54.9z"/>
				<path class="st0" d="M59,54.9c-0.7,0-1.3-0.6-1.3-1.3V33.7c0-0.7,0.6-1.3,1.3-1.3c0.7,0,1.3,0.6,1.3,1.3v19.8
					C60.3,54.3,59.7,54.9,59,54.9z"/>
				<path class="st0" d="M45.4,54.9c-0.7,0-1.3-0.6-1.3-1.3V33.7c0-0.7,0.6-1.3,1.3-1.3c0.7,0,1.3,0.6,1.3,1.3v19.8
					C46.8,54.3,46.2,54.9,45.4,54.9z"/>
				<path class="st0" d="M38.6,54.9c-0.7,0-1.3-0.6-1.3-1.3V29.1c0-0.7,0.6-1.3,1.3-1.3s1.3,0.6,1.3,1.3v24.5
					C40,54.3,39.4,54.9,38.6,54.9z"/>
				<path class="st0" d="M25.1,54.9c-0.7,0-1.3-0.6-1.3-1.3V30.9c0-0.7,0.6-1.3,1.3-1.3c0.7,0,1.3,0.6,1.3,1.3v22.6
					C26.4,54.3,25.8,54.9,25.1,54.9z"/>
				<path class="st0" d="M18.3,54.9c-0.7,0-1.3-0.6-1.3-1.3V38.7c0-0.7,0.6-1.3,1.3-1.3s1.3,0.6,1.3,1.3v14.9
					C19.6,54.3,19,54.9,18.3,54.9z"/>
			</g>
		</g>
		<path class="st0" d="M4.1,74.2c-2,0-3.7-1.6-3.7-3.7c0-2,1.6-3.7,3.7-3.7c2,0,3.7,1.6,3.7,3.7C7.7,72.5,6.1,74.2,4.1,74.2z
			 M4.1,69.5c-0.6,0-1,0.5-1,1s0.5,1,1,1c0.6,0,1-0.5,1-1S4.6,69.5,4.1,69.5z"/>
		<path class="st0" d="M21.8,69.5H10.9c-0.7,0-1.3-0.6-1.3-1.3c0-0.7,0.6-1.3,1.3-1.3h10.9c0.7,0,1.3,0.6,1.3,1.3
			C23.1,68.9,22.5,69.5,21.8,69.5z"/>
		<path class="st0" d="M34.5,74.2c-2,0-3.7-1.6-3.7-3.7c0-2,1.6-3.7,3.7-3.7c2,0,3.7,1.6,3.7,3.7C38.2,72.5,36.6,74.2,34.5,74.2z
			 M34.5,69.5c-0.6,0-1,0.5-1,1s0.5,1,1,1c0.6,0,1-0.5,1-1S35.1,69.5,34.5,69.5z"/>
		<path class="st0" d="M52.2,69.5H41.4c-0.7,0-1.3-0.6-1.3-1.3c0-0.7,0.6-1.3,1.3-1.3h10.9c0.7,0,1.3,0.6,1.3,1.3
			C53.5,68.9,52.9,69.5,52.2,69.5z"/>
		<path class="st0" d="M65,74.2c-2,0-3.7-1.6-3.7-3.7c0-2,1.6-3.7,3.7-3.7s3.7,1.6,3.7,3.7C68.7,72.5,67,74.2,65,74.2z M65,69.5
			c-0.6,0-1,0.5-1,1s0.5,1,1,1c0.6,0,1-0.5,1-1S65.6,69.5,65,69.5z"/>
		<path class="st0" d="M82.7,69.5H71.8c-0.7,0-1.3-0.6-1.3-1.3c0-0.7,0.6-1.3,1.3-1.3h10.9c0.7,0,1.3,0.6,1.3,1.3
			C84,68.9,83.4,69.5,82.7,69.5z"/>
		<path class="st0" d="M15,74.2h-4.1c-0.7,0-1.3-0.6-1.3-1.3c0-0.7,0.6-1.3,1.3-1.3H15c0.7,0,1.3,0.6,1.3,1.3
			C16.3,73.6,15.7,74.2,15,74.2z"/>
		<path class="st0" d="M45.4,74.2h-4.1c-0.7,0-1.3-0.6-1.3-1.3c0-0.7,0.6-1.3,1.3-1.3h4.1c0.7,0,1.3,0.6,1.3,1.3
			C46.8,73.6,46.2,74.2,45.4,74.2z"/>
		<path class="st0" d="M75.9,74.2h-4.1c-0.7,0-1.3-0.6-1.3-1.3c0-0.7,0.6-1.3,1.3-1.3h4.1c0.7,0,1.3,0.6,1.3,1.3
			C77.2,73.6,76.6,74.2,75.9,74.2z"/>
	</g>
</g>
<g id="圖層_2" class="st1">
	<g class="st2">
		<g>
			<path class="st0" d="M42,62.7c-0.4,0-0.7-0.2-0.9-0.4c-0.7-0.8-17.6-20.6-17.6-30.4c0-10.2,8.3-18.5,18.5-18.5
				c10.2,0,18.5,8.3,18.5,18.5c0,9.9-16.9,29.6-17.6,30.4C42.7,62.5,42.3,62.7,42,62.7z M42,15.8c-8.9,0-16.1,7.2-16.1,16.1
				c0,7.8,12.5,23.5,16.1,27.8c3.5-4.3,16.1-20,16.1-27.8C58.1,23,50.9,15.8,42,15.8z"/>
		</g>
		<g>
			<path class="st0" d="M40.4,76c-1.5-0.1-2.9-0.2-4.4-0.4l0.4-2.4c1.3,0.2,2.7,0.3,4.1,0.4L40.4,76z M44.8,75.9l-0.2-2.4
				c1.4-0.1,2.7-0.3,4.1-0.5l0.5,2.4C47.7,75.6,46.3,75.8,44.8,75.9z M31.8,74.7c-1.4-0.4-2.8-0.9-4.1-1.4l0.9-2.2
				c1.3,0.5,2.6,1,3.9,1.3L31.8,74.7z M53.4,74.3L52.7,72c1.3-0.4,2.6-0.9,3.8-1.5l1,2.2C56.2,73.3,54.8,73.9,53.4,74.3z M23.7,71.4
				c-1.3-0.7-2.5-1.5-3.7-2.3l1.4-2c1.1,0.8,2.3,1.5,3.5,2.2L23.7,71.4z M61.4,70.7l-1.2-2.1c1.2-0.7,2.3-1.5,3.4-2.3l1.5,1.9
				C63.8,69.2,62.6,70,61.4,70.7z M16.6,66.3c-1.1-1-2.1-2-3.1-3.1l1.8-1.6c0.9,1,1.9,2,2.9,2.9L16.6,66.3z M68.3,65.4l-1.7-1.7
				c1-0.9,1.9-2,2.8-3l1.9,1.5C70.4,63.4,69.4,64.4,68.3,65.4z M10.8,59.8C10,58.6,9.2,57.3,8.5,56l2.1-1.2c0.6,1.2,1.4,2.4,2.1,3.5
				L10.8,59.8z M73.9,58.7l-2-1.3c0.7-1.1,1.4-2.3,2-3.6l2.2,1.1C75.4,56.2,74.7,57.5,73.9,58.7z M6.7,52.1c-0.5-1.4-1-2.7-1.4-4.2
				l2.3-0.6c0.4,1.3,0.8,2.6,1.3,3.9L6.7,52.1z M77.8,50.9l-2.3-0.8c0.5-1.3,0.9-2.6,1.2-3.9l2.4,0.6C78.7,48.1,78.3,49.5,77.8,50.9
				z M4.4,43.6C4.2,42.2,4,40.7,4,39.3l2.4-0.1c0,1.4,0.2,2.7,0.4,4.1L4.4,43.6z M79.8,42.4l-2.4-0.3c0.2-1.3,0.2-2.7,0.2-4.1
				c0-0.8,0-1.6-0.1-2.4l2.4-0.2C80,36.3,80,37.2,80,38C80,39.5,79.9,40.9,79.8,42.4z M6.5,35.1l-2.4-0.2c0.1-1.5,0.3-2.9,0.6-4.3
				l2.4,0.5C6.8,32.4,6.6,33.7,6.5,35.1z M77,31.6c-0.2-1.3-0.6-2.7-1-4l2.3-0.7c0.4,1.4,0.8,2.8,1,4.3L77,31.6z M8.1,27.1l-2.3-0.7
				c0.4-1.4,1-2.8,1.6-4.1l2.2,1C9,24.5,8.5,25.8,8.1,27.1z M74.6,23.8c-0.5-1.2-1.2-2.5-1.9-3.6l2.1-1.2c0.7,1.3,1.4,2.6,2,3.9
				L74.6,23.8z M11.5,19.6l-2.1-1.3c0.8-1.2,1.6-2.5,2.5-3.6l1.9,1.5C13,17.3,12.2,18.5,11.5,19.6z M70.5,16.7
				c-0.8-1.1-1.7-2.1-2.6-3.1l1.8-1.7c1,1.1,1.9,2.2,2.8,3.3L70.5,16.7z M16.5,13.2l-1.7-1.7c1-1,2.1-2,3.2-3l1.5,1.9
				C18.5,11.3,17.5,12.2,16.5,13.2z M64.9,10.8c-1-0.9-2.1-1.7-3.3-2.5l1.3-2c1.2,0.8,2.4,1.7,3.5,2.6L64.9,10.8z M22.8,8l-1.3-2
				c1.2-0.8,2.5-1.5,3.8-2.1L26.4,6C25.2,6.6,24,7.3,22.8,8z M58,6.2c-1.2-0.6-2.5-1.2-3.8-1.6l0.8-2.3c1.4,0.5,2.7,1.1,4,1.7
				L58,6.2z M30.2,4.4l-0.8-2.3c1.4-0.5,2.8-0.9,4.2-1.2l0.5,2.4C32.8,3.6,31.5,4,30.2,4.4z M50.4,3.4c-1.3-0.3-2.7-0.6-4-0.7
				l0.3-2.4c1.4,0.2,2.9,0.4,4.3,0.8L50.4,3.4z M38.2,2.6l-0.3-2.4C39.3,0.1,40.6,0,42,0l0.3,0l0,2.4l-0.3,0
				C40.7,2.4,39.4,2.5,38.2,2.6z"/>
		</g>
		<g>
			<path class="st0" d="M42,39.2c-3.7,0-6.6-3-6.6-6.6s3-6.6,6.6-6.6s6.6,3,6.6,6.6S45.6,39.2,42,39.2z M42,28.4
				c-2.3,0-4.2,1.9-4.2,4.2s1.9,4.2,4.2,4.2s4.2-1.9,4.2-4.2S44.3,28.4,42,28.4z"/>
		</g>
	</g>
</g>
</svg>
