<?xml version="1.0" encoding="utf-8"?>
<!-- Generator: Adobe Illustrator 25.2.1, SVG Export Plug-In . SVG Version: 6.00 Build 0)  -->
<svg version="1.1" id="Layer_1" xmlns="http://www.w3.org/2000/svg" xmlns:xlink="http://www.w3.org/1999/xlink" x="0px" y="0px"
	 viewBox="0 0 56.7 56.7" style="enable-background:new 0 0 56.7 56.7;" xml:space="preserve">
<style type="text/css">
	.st0{fill:#FFFFFF;}
</style>
<circle cx="42.1" cy="35.6" r="13.4"/>
<polygon class="st0" points="38.2,28.2 34.9,31.5 38.9,35.5 35,39.4 38.3,42.7 42.2,38.8 46.2,42.8 49.5,39.5 45.5,35.5 49.6,31.4 
	46.4,28.1 42.2,32.2 "/>
<path d="M52.3,25.3c-2.4-2.4-5.4-3.8-8.7-4.2v-4.6v-2.6l-1.1-1.1L30.8,1.1L29.8,0h-2.6H0.1v46.4v10.3h43.6V50
	c3.3-0.4,6.3-1.8,8.7-4.2C58,40.2,58,30.9,52.3,25.3z M30.8,6.3l6.6,6.6h-6.6V6.3z M40,53H3.8v-6.6V3.7h23.4v12.8H40v4.7
	c-3.1,0.4-6,1.8-8.2,4.1c-5.7,5.7-5.7,14.9,0,20.6c2.3,2.3,5.1,3.7,8.2,4.1V53z M49.7,43.2c-1.7,1.7-3.8,2.7-6.1,3.1
	c-0.5,0.1-1.1,0.1-1.6,0.1c-0.7,0-1.4-0.1-2-0.2c-2.1-0.4-4.1-1.4-5.6-3c-2.1-2.1-3.2-4.8-3.2-7.7s1.1-5.6,3.2-7.7
	c1.6-1.6,3.5-2.6,5.6-3c0.7-0.1,1.4-0.2,2-0.2c0.5,0,1.1,0.1,1.6,0.1c2.3,0.3,4.4,1.4,6.1,3.1C54,32.1,54,39,49.7,43.2z"/>
</svg>
