<?xml version="1.0" encoding="utf-8"?>
<!-- Generator: Adobe Illustrator 25.2.1, SVG Export Plug-In . SVG Version: 6.00 Build 0)  -->
<svg version="1.1" id="Layer_1" xmlns="http://www.w3.org/2000/svg" xmlns:xlink="http://www.w3.org/1999/xlink" x="0px" y="0px"
	 viewBox="0 0 56.7 56.7" style="enable-background:new 0 0 56.7 56.7;" xml:space="preserve">
<g transform="translate(0,-952.36218)">
	<path d="M28.2,952.4c-1.1,0-2.1,0.6-2.6,1.5L0.4,996.4c-0.9,1.5-0.3,3.3,1.2,4.2c0.5,0.3,1,0.4,1.6,0.4h50.4c1.7,0,3.2-1.4,3.2-3.1
		c0-0.5-0.1-1.1-0.4-1.5l-25.2-42.5C30.5,952.9,29.4,952.3,28.2,952.4z M28.4,963.2c2.2,0,4,1.8,4,4l-0.7,13.5
		c0,1.9-1.5,3.4-3.4,3.4s-3.4-1.5-3.4-3.4l-0.7-13.5C24.3,965,26.1,963.2,28.4,963.2z M28.4,986.1c2.6,0,4.7,2.1,4.7,4.7
		c0,2.6-2.1,4.7-4.7,4.7s-4.7-2.1-4.7-4.7C23.6,988.2,25.7,986.1,28.4,986.1L28.4,986.1z"/>
</g>
</svg>
