<?xml version="1.0" encoding="utf-8"?>
<!-- Generator: Adobe Illustrator 25.2.0, SVG Export Plug-In . SVG Version: 6.00 Build 0)  -->
<svg version="1.1" id="Layer_1" xmlns="http://www.w3.org/2000/svg" xmlns:xlink="http://www.w3.org/1999/xlink" x="0px" y="0px"
	 viewBox="0 0 56.7 56.7" style="enable-background:new 0 0 56.7 56.7;" xml:space="preserve">
<style type="text/css">
	.st0{fill:#FFFFFF;}
</style>
<g>
	<path class="st0" d="M45.4,27.2v20.8c0,1.7-1.5,3.2-3.2,3.2H8.8c-1.7,0-3.2-1.5-3.2-3.2V16c0-1.7,1.5-3.2,3.2-3.2h20.8V7.2H8.8
		C4,7.2,0,11.2,0,16v31.9c0,4.8,4,8.8,8.8,8.8h33.3c4.8,0,8.8-4,8.8-8.8V27.2H45.4z"/>
	<polygon class="st0" points="32.7,0 41.9,9.1 18,33 23.7,38.7 47.5,14.8 56.7,24 56.7,0 	"/>
</g>
</svg>
