<?xml version="1.0" encoding="utf-8"?>
<!-- Generator: Adobe Illustrator 27.7.0, SVG Export Plug-In . SVG Version: 6.00 Build 0)  -->
<svg version="1.1" id="clock" xmlns="http://www.w3.org/2000/svg" xmlns:xlink="http://www.w3.org/1999/xlink" x="0px" y="0px"
	 viewBox="0 0 32 32" style="enable-background:new 0 0 32 32;" xml:space="preserve">
<style type="text/css">
	.st0{fill:#FFFFFF;}
</style>
<g>
	<path class="st0" d="M16.8,4.2v-2h2V0h-5.6v2.2h2v2C7.9,4.6,2.1,10.7,2.1,18.1C2.1,25.8,8.3,32,16,32c7.7,0,13.9-6.2,13.9-13.9
		C29.9,10.7,24.1,4.6,16.8,4.2z M16,28.5c-5.8,0-10.5-4.7-10.5-10.5S10.2,7.6,16,7.6s10.5,4.7,10.5,10.5S21.8,28.5,16,28.5z"/>
	<path class="st0" d="M16,8.8c-5.1,0-9.3,4.2-9.3,9.3s4.2,9.3,9.3,9.3s9.3-4.2,9.3-9.3S21.1,8.8,16,8.8z M19.1,17.3l-2.8,1.6
		C16.1,18.9,16,19,15.9,19c-0.1,0-0.2,0-0.3-0.1c-0.2-0.1-0.3-0.3-0.3-0.5v-4.8c0-0.3,0.3-0.6,0.6-0.6s0.6,0.3,0.6,0.6v3.8l2-1.1
		c0.3-0.2,0.6-0.1,0.8,0.2C19.5,16.8,19.4,17.1,19.1,17.3z"/>
</g>
</svg>
