<?xml version="1.0" encoding="utf-8"?>
<!-- Generator: Adobe Illustrator 25.2.1, SVG Export Plug-In . SVG Version: 6.00 Build 0)  -->
<svg version="1.1" id="lock" xmlns="http://www.w3.org/2000/svg" xmlns:xlink="http://www.w3.org/1999/xlink" x="0px" y="0px"
	 viewBox="0 0 56.7 56.7" style="enable-background:new 0 0 56.7 56.7;" xml:space="preserve">
<g>
	<path d="M4.4,11.3c3.8,5.4,2.4,11.2,5.1,17.1c2.3,5.1,7.1,6.4,11.9,5.4c0.7,1.3,1.4,2.6,1.9,4c0.7,1.7,1,3.6,1,5.5v3.6
		c-10.5,0.2-18.7,2.3-18.7,4.9c0,2.7,9.3,4.9,20.8,4.9s20.8-2.2,20.8-4.9c0-2.6-8.2-4.7-18.7-4.9V41c0-0.3,0.3-0.6,0.6-0.6
		c0.1,0,0.1,0,0.2,0c5.6,1.8,10.4-0.7,13.8-6.7c3.9-6.8,4-12.1,9.2-18.2c0,0-28.7,2-26,20.8c3.5-5.6,9.3-10.6,13.9-12.5
		c-4.6,3.5-9.3,9.6-13.1,15.2h-0.1c-2.4-6.1-8.1-15.4-13.1-20c3.7,2,8.1,6.6,10.6,11.5C28.3,15.1,4.4,11.3,4.4,11.3z"/>
	<path d="M28.3,0c-5,5.3-9.3,13.6-3.7,20.3c-0.2-4.8,0.4-9.6,2.1-13.9c-1,4.2-1.5,12.6,0.1,18.6c0.2-0.3,0.4-0.6,0.7-0.9
		c0.2-0.3,0.5-0.6,0.7-0.9c-0.1-0.4-0.1-0.9-0.2-1.5C37.3,15.5,29.6,8.1,28.3,0z"/>
</g>
</svg>
