<?xml version="1.0" encoding="utf-8"?>
<!-- Generator: Adobe Illustrator 25.1.0, SVG Export Plug-In . SVG Version: 6.00 Build 0)  -->
<svg version="1.1" id="圖層_1" xmlns="http://www.w3.org/2000/svg" xmlns:xlink="http://www.w3.org/1999/xlink" x="0px" y="0px"
	 viewBox="0 0 48 48" style="enable-background:new 0 0 48 48;" xml:space="preserve">
<style type="text/css">
	.st0{fill:none;}
	.st1{fill:#FFFFFF;}
</style>
<path class="st0" d="M0,0h48v48H0V0z"/>
<path class="st1" d="M24,1.3C11.5,1.3,1.3,11.5,1.3,24S11.5,46.7,24,46.7S46.7,36.5,46.7,24S36.5,1.3,24,1.3z M24,36.6
	c-1.5,0-2.7-1.2-2.7-2.7c0-1.5,1.2-2.7,2.7-2.7l0,0c1.5,0,2.7,1.2,2.7,2.7C26.7,35.4,25.5,36.6,24,36.6z M30.1,21.3
	c-0.3,0.4-0.7,0.8-1,1.2c-0.3,0.3-0.6,0.5-0.9,0.9c-0.4,0.4-0.7,0.7-1,1c-0.3,0.3-0.5,0.5-0.7,0.7c-0.5,0.6-0.7,1.4-0.6,2.2v1.6
	h-3.9v-2.1c-0.1-0.7,0.1-1.4,0.4-2.1c0.4-0.7,0.9-1.3,1.5-1.8l2.5-2.5c0.6-0.6,0.8-1.4,0.8-2.2c0-0.8-0.3-1.6-0.9-2.1
	C25.8,15.3,25,15,24.2,15c-0.8-0.1-1.6,0.3-2.2,0.8c-0.6,0.6-1,1.4-1,2.2h-4.2c0.2-1.9,1-3.6,2.4-4.8c1.5-1.2,3.3-1.8,5.2-1.8
	c1.8-0.1,3.6,0.5,5,1.7c1.3,1.1,2,2.7,2,4.7C31.3,19.1,30.9,20.3,30.1,21.3z"/>
</svg>
