<?xml version="1.0" encoding="utf-8"?>
<!-- Generator: Adobe Illustrator 25.2.1, SVG Export Plug-In . SVG Version: 6.00 Build 0)  -->
<svg version="1.1" id="lock" xmlns="http://www.w3.org/2000/svg" xmlns:xlink="http://www.w3.org/1999/xlink" x="0px" y="0px"
	 viewBox="0 0 56.7 56.7" style="enable-background:new 0 0 56.7 56.7;" xml:space="preserve">
<g>
	<path d="M28.3,0C17.2,0,8.1,9.1,8.1,20.2c0,11.2,20.2,36.4,20.2,36.4s20.3-25.3,20.3-36.4C48.6,9.1,39.5,0,28.3,0z M28.3,30.1
		c-5.9,0-10.6-4.8-10.6-10.6S22.5,8.9,28.3,8.9S39,13.6,39,19.5S34.2,30.1,28.3,30.1z"/>
	<polygon points="30.5,16.2 28.3,11.7 26.1,16.2 21.3,16.9 24.8,20.3 24,25.2 28.3,22.9 32.7,25.2 31.9,20.3 35.4,16.9 	"/>
</g>
</svg>
