<?xml version="1.0" encoding="utf-8"?>
<!-- Generator: Adobe Illustrator 25.2.0, SVG Export Plug-In . SVG Version: 6.00 Build 0)  -->
<svg version="1.1" id="圖層_1" xmlns="http://www.w3.org/2000/svg" xmlns:xlink="http://www.w3.org/1999/xlink" x="0px" y="0px"
	 viewBox="0 0 51 51" style="enable-background:new 0 0 51 51;" xml:space="preserve">
<style type="text/css">
	.st0{fill:none;}
</style>
<path class="st0" d="M1.5,1h48v48h-48V1z"/>
<path d="M25.5,0C11.4,0,0,11.4,0,25.5S11.4,51,25.5,51S51,39.6,51,25.5S39.6,0,25.5,0z M37.4,23.7l-9.8,9.8
	c-0.6,0.6-1.3,0.8-2.1,0.8c-0.8,0-1.5-0.3-2.1-0.8l-9.8-9.8c-1.1-1.1-1.1-3,0-4.2c0.6-0.6,1.3-0.9,2.1-0.9c0.9,0,1.6,0.3,2.1,0.9
	l7.7,7.6l7.7-7.7c1.1-1.1,3-1.1,4.2,0C38.5,20.7,38.5,22.6,37.4,23.7z"/>
</svg>
