<?xml version="1.0" encoding="utf-8"?>
<!-- Generator: Adobe Illustrator 25.2.1, SVG Export Plug-In . SVG Version: 6.00 Build 0)  -->
<svg version="1.1" id="圖層_1" xmlns="http://www.w3.org/2000/svg" xmlns:xlink="http://www.w3.org/1999/xlink" x="0px" y="0px"
	 viewBox="0 0 32 32" style="enable-background:new 0 0 32 32;" xml:space="preserve">
<style type="text/css">
	.st0{fill-rule:evenodd;clip-rule:evenodd;}
</style>
<g>
	<path class="st0" d="M22.5,22.4l6.5,5c0.3,0.2,0.4,0.7,0.1,1c-0.8,0.8-1.6,1.5-2.4,2.2c-2,1.5-4.7,1.9-6.9,0.6
		c-7.4-4.3-14.6-11.6-19-19c-1.3-2.2-1-4.9,0.6-6.9c0.7-0.9,1.4-1.7,2.2-2.4c0.3-0.3,0.8-0.2,1,0.1l5,6.5C9.7,9.6,9.8,9.8,9.8,10
		l-0.6,3.7c-0.1,0.9,0.2,1.7,0.9,2.3l5.9,5.9c0.6,0.6,1.4,0.9,2.3,0.9l3.7-0.6C22.2,22.2,22.4,22.3,22.5,22.4L22.5,22.4z"/>
	<path d="M30.2,15.5c0,0.5,0.4,0.9,0.9,0.9c0.5,0,0.9-0.4,0.9-0.9C32,7,25,0,16.5,0c-0.5,0-0.9,0.4-0.9,0.9c0,0.5,0.4,0.9,0.9,0.9
		C24.1,1.8,30.2,7.9,30.2,15.5z"/>
	<path d="M25.9,15.5c0,0.5,0.4,0.9,0.9,0.9c0.5,0,0.9-0.4,0.9-0.9c0-6.1-5-11.1-11.1-11.1c-0.5,0-0.9,0.4-0.9,0.9
		c0,0.5,0.4,0.9,0.9,0.9C21.7,6.1,25.9,10.3,25.9,15.5L25.9,15.5z"/>
	<path d="M21.6,15.5c0,0.5,0.4,0.9,0.9,0.9c0.5,0,0.9-0.4,0.9-0.9c0-3.8-3.1-6.8-6.8-6.8c-0.5,0-0.9,0.4-0.9,0.9
		c0,0.5,0.4,0.9,0.9,0.9C19.3,10.4,21.6,12.7,21.6,15.5z"/>
</g>
</svg>
