<?xml version="1.0" encoding="utf-8"?>
<!-- Generator: Adobe Illustrator 25.1.0, SVG Export Plug-In . SVG Version: 6.00 Build 0)  -->
<svg version="1.1" id="圖層_1" xmlns="http://www.w3.org/2000/svg" xmlns:xlink="http://www.w3.org/1999/xlink" x="0px" y="0px"
	 viewBox="0 0 48 48" style="enable-background:new 0 0 48 48;" xml:space="preserve">
<style type="text/css">
	.st0{fill:#FFFFFF;}
</style>
<g id="Layer_42">
	<path class="st0" d="M4.8,41.9c-0.8,0-1.4-0.6-1.4-1.4c0-0.1,0-0.1,0-0.2l1.1-9.6c0-0.3,0.2-0.6,0.4-0.8L27.3,7.4
		c1.7-1.7,4.5-1.7,6.2,0c0,0,0,0,0,0l4.3,4.3c1.7,1.7,1.7,4.5,0,6.2c0,0,0,0,0,0L15.4,40.4c-0.2,0.2-0.5,0.4-0.8,0.4l-9.6,1.1
		L4.8,41.9z M14.4,39.4L14.4,39.4z M7.1,31.5l-0.8,7.4l7.4-0.8L35.9,16c0.6-0.6,0.6-1.7,0-2.3c0,0,0,0,0,0l-4.3-4.3
		c-0.6-0.6-1.7-0.6-2.3,0c0,0,0,0,0,0L7.1,31.5z"/>
	<path class="st0" d="M33.6,21.5c-0.4,0-0.7-0.1-1-0.4l-8.5-8.6c-0.5-0.5-0.5-1.4,0-2c0.5-0.5,1.4-0.5,2,0l8.6,8.6
		c0.5,0.5,0.5,1.4,0,1.9c0,0,0,0,0,0C34.4,21.4,34,21.6,33.6,21.5z"/>
	
		<rect x="12.2" y="24.1" transform="matrix(0.7071 -0.7071 0.7071 0.7071 -12.2589 21.4352)" class="st0" width="15.1" height="2.7"/>
	<path class="st0" d="M43.2,41.9h-22c-0.8,0-1.4-0.6-1.4-1.4s0.6-1.4,1.4-1.4h22c0.8,0,1.4,0.6,1.4,1.4S44,41.9,43.2,41.9z"/>
</g>
</svg>
