<?xml version="1.0" encoding="utf-8"?>
<!-- Generator: Adobe Illustrator 25.4.1, SVG Export Plug-In . SVG Version: 6.00 Build 0)  -->
<svg version="1.1" id="圖層_1" xmlns="http://www.w3.org/2000/svg" xmlns:xlink="http://www.w3.org/1999/xlink" x="0px" y="0px"
	 viewBox="0 0 90 60" style="enable-background:new 0 0 90 60;" xml:space="preserve">
<style type="text/css">
	.st0{fill:#FFFFFF;}
</style>
<g>
	<g>
		<path class="st0" d="M49.1,12.4c0.4,0.3,0.9,0.1,1.2-0.3c1.8-2.8,5.6-3.6,8.4-1.8c1.4,0.9,2.4,2.3,2.7,4c0.1,0.4,0.4,0.7,0.9,0.7
			c0.1,0,0.1,0,0.2,0c0.5-0.1,0.8-0.5,0.7-1c-0.8-4.2-4.9-7-9.1-6.2c-2.1,0.4-4,1.6-5.1,3.4C48.6,11.6,48.7,12.1,49.1,12.4z"/>
		<path class="st0" d="M69.5,29.4L60.9,38l-0.6-0.6l0,0L56,33.1l3.7-3.7c0.3-0.3,0.3-0.9,0-1.2c-0.3-0.3-0.9-0.3-1.2,0l-3.7,3.7
			l-2.5-2.5l18.4-18.6c0.4-0.3,0.4-0.9,0.1-1.2c-0.3-0.4-0.9-0.4-1.2-0.1c0,0-0.1,0.1-0.1,0.1L55.9,23.3l-1.4-1.4v-0.6
			c2.3,0.5,4.6-1,5.1-3.4c0.1-0.3,0.1-0.6,0.1-0.9v-2.6c0-0.5-0.4-0.9-0.9-0.9c-0.9,0-1.7-0.3-2.3-1L56,12.2c-0.3-0.3-0.9-0.3-1.2,0
			l-0.5,0.5c-0.6,0.6-1.5,1-2.3,1c-0.5,0-0.9,0.4-0.9,0.9v2.6c0,1,0.3,1.9,0.9,2.7c-1,0.1-2,0.6-2.9,1.2c0.1-0.4,0.2-0.8,0.2-1.2
			v-3.5c0-2.4-1.9-4.3-4.3-4.3h-3.5c-0.5,0-0.9,0.4-0.9,0.9c0-0.5-0.4-0.9-0.9-0.9h-1.5c-1.1,0-2.3-0.3-3.3-0.8
			c-0.2-0.1-0.5-0.1-0.8,0L32.5,12c-0.2,0.1-0.3,0.3-0.4,0.5c0-0.2-0.1-0.4-0.1-0.5c0-1.4,1.2-2.6,2.6-2.6h3.5
			c0.7,0,1.4,0.3,1.9,0.9c0.3,0.4,0.9,0.4,1.2,0.1c0.4-0.3,0.4-0.9,0.1-1.2c0,0,0,0,0,0c-0.8-0.9-2-1.4-3.2-1.4h-3.5
			c-2.4,0-4.3,1.9-4.3,4.3c0,1.4,0.6,2.7,1.7,3.5v0c0,1.4,0.6,2.6,1.7,3.4v1.7c0,0.2,0.1,0.4,0.2,0.6l1.7,1.7
			c0.2,0.2,0.4,0.3,0.6,0.3h0c0.2,0,0.4-0.1,0.6-0.2l1.8-1.7c0.2-0.2,0.3-0.4,0.3-0.6v-0.8c0.6,0,1.2,0.1,1.8,0.4
			c0.1,0.8,0.4,1.6,0.9,2.3c-0.8,0.1-1.6,0.4-2.3,0.8c-0.4,0.2-0.6,0.8-0.3,1.2c0.2,0.4,0.8,0.6,1.2,0.3c0,0,0,0,0,0
			c0.7-0.4,1.4-0.6,2.2-0.6v0.8c0,0.2,0.1,0.4,0.2,0.6l0.9,1c-0.2,0.3-0.4,0.6-0.4,0.9l-0.5,2.8c-0.9-0.3-2-0.3-2.9,0.1l-1.5-1.5
			l0.6-0.6c0.3-0.3,0.3-0.9,0-1.2c0,0,0,0,0,0l-3.2-3.2c-0.3-0.3-0.9-0.3-1.2,0c-0.3,0.3-0.3,0.9,0,1.2l2.6,2.6l-4.9,4.9l-3.1-3.1
			c-0.3-0.3-0.9-0.3-1.2,0s-0.3,0.9,0,1.2l0,0l3.1,3.1l-2.5,2.5l-8-8c-0.3-0.3-0.9-0.3-1.2,0c-0.3,0.3-0.3,0.9,0,1.2l0,0l8.6,8.6
			c0.3,0.3,0.9,0.3,1.2,0l1.2-1.2l1.2,1.2c-1.7,1.7-1.7,4.4,0,6.1l1.3,1.3c0.3,0.3,0.9,0.4,1.2,0s0.4-0.9,0-1.2c0,0,0,0,0,0
			l-1.3-1.3c-1-1-1-2.7,0-3.7c0,0,0,0,0,0l0.6-0.6l6.1-6.1c1-1,2.6-1,3.7,0l5.5,5.5c0.3,0.3,0.3,0.9,0,1.2c-0.3,0.3-0.9,0.3-1.2,0
			l-4-4c-0.3-0.3-0.9-0.3-1.2,0c-0.3,0.3-0.3,0.9,0,1.2l4,4c1,1,2.7,1,3.7,0c1-1,1-2.7,0-3.7l-3.6-3.6c1-0.5,2.2-0.3,3,0.5l7.4,7.4
			c1,1,1,2.7,0,3.7l-2.5,2.5L45,56.4c-0.3,0.3-0.9,0.3-1.2,0c-0.3-0.3-0.3-0.9,0-1.2c0,0,0,0,0,0l5.5-5.5c0.3-0.3,0.3-0.9,0-1.2
			s-0.9-0.3-1.2,0l-5.5,5.5c-0.3,0.3-0.9,0.3-1.2,0c-0.3-0.3-0.3-0.9,0-1.2l0,0l5.5-5.5c0.3-0.3,0.3-0.9,0-1.2
			c-0.3-0.3-0.9-0.3-1.2,0l-5.5,5.5c-0.3,0.3-0.9,0.3-1.2,0c-0.3-0.3-0.3-0.9,0-1.2l5.5-5.5c0.3-0.3,0.4-0.9,0-1.2s-0.9-0.4-1.2,0
			c0,0,0,0,0,0L37.6,49c-0.3,0.3-0.9,0.3-1.2,0c-0.3-0.3-0.3-0.9,0-1.2l7.1-7.1c0.3-0.3,0.3-0.9,0-1.2c-0.3-0.3-0.9-0.3-1.2,0
			l-7.1,7.1c-1,1-1,2.6,0,3.7c0.5,0.5,1.1,0.7,1.7,0.8c0.1,1.3,1.1,2.4,2.4,2.4c0.1,1.3,1.1,2.4,2.5,2.5c0.1,1.4,1.3,2.5,2.7,2.5
			c0.4,0,0.7-0.1,1-0.3l0.7,0.7c1,1,2.6,1,3.7,0c0.5-0.5,0.7-1.1,0.8-1.7c1.3-0.1,2.4-1.1,2.4-2.4c1.3-0.1,2.4-1.1,2.5-2.5
			c1.4-0.1,2.5-1.3,2.5-2.7c0-0.6-0.3-1.2-0.8-1.7l-0.6-0.6l1.2-1.2c1.5-1.5,1.7-3.7,0.6-5.5l1.3-1.3l0.6,0.6c0.3,0.3,0.9,0.3,1.2,0
			l9.2-9.2c0.3-0.3,0.3-0.9,0-1.2C70.4,29.1,69.8,29.1,69.5,29.4L69.5,29.4z M37,30l1.2,1.2l-5.5,5.5l-1.2-1.2L37,30z M48.7,57.6
			c-0.3,0.3-0.9,0.3-1.2,0c0,0,0,0,0,0L46.8,57l1.2-1.2l0.6,0.6C49,56.7,49,57.3,48.7,57.6z M51.1,55.1c-0.3,0.3-0.9,0.3-1.2,0
			l-0.6-0.6l1.2-1.2l0.6,0.6C51.5,54.3,51.5,54.8,51.1,55.1z M53.6,52.7c-0.3,0.3-0.9,0.3-1.2,0l0,0l-0.6-0.6l1.2-1.2l0.6,0.6
			C53.9,51.8,53.9,52.4,53.6,52.7z M56,50.2c-0.3,0.3-0.9,0.3-1.2,0c0,0,0,0,0,0l-0.6-0.6l1.2-1.2L56,49
			C56.4,49.4,56.4,49.9,56,50.2L56,50.2z M50.5,32.5c-0.8-0.8-1.9-1.3-3-1.3l-0.6-3.8c-0.1-0.4-0.2-0.7-0.5-1l0.9-0.9
			c0.2-0.2,0.3-0.4,0.3-0.6v-0.8c2,0,3.8,1.4,4.2,3.4l-1.3,1.3c-0.3,0.3-0.3,0.9,0,1.2l1.2,1.2L50.5,32.5L50.5,32.5z M42.4,17.1h5.2
			v2.6c0,1.4-1.2,2.6-2.6,2.6s-2.6-1.2-2.6-2.6V17.1z M44.1,24c0.6,0.1,1.2,0.1,1.7,0v0.5L45,25.4l-0.8-0.9V24z M54.7,24.6l-1.5,1.5
			c-0.6-1.5-1.9-2.8-3.5-3.4c0.8-0.8,1.9-1.3,3-1.3v0.8c0,0.2,0.1,0.4,0.2,0.6L54.7,24.6z M52.8,15.3c1-0.2,1.9-0.6,2.6-1.3
			c0.7,0.7,1.6,1.1,2.6,1.3v1.8c0,1.4-1.2,2.6-2.6,2.6s-2.6-1.2-2.6-2.6V15.3z M42.4,13.7H45c1.1,0,2.1,0.7,2.5,1.7h-5.1V13.7z
			 M40.7,15.4v2.9c-0.3-0.1-0.6-0.2-0.9-0.2C40.3,17.3,40.7,16.3,40.7,15.4z M33.7,13.3l0.9-0.4c1.2,0.5,2.4,0.8,3.7,0.8h0.7v1.7
			c0,1.4-1.2,2.6-2.6,2.6c-1.4,0-2.6-1.2-2.6-2.6V13.3z M36.3,21l-0.8-0.9v-0.5c0.6,0.1,1.2,0.1,1.7,0v0.5L36.3,21z M44.4,31.2
			c0,0-0.1-0.1-0.1-0.1l0.6-3.5c0-0.1,0.1-0.1,0.2-0.1c0.1,0,0.1,0.1,0.1,0.1l0.6,3.9c-0.3,0.1-0.5,0.2-0.7,0.4L44.4,31.2z
			 M57.2,39.2l-5.5-5.5l1.2-1.2l1.2,1.2l0,0l4.3,4.3L57.2,39.2z"/>
		<path class="st0" d="M31.9,22.5c0.3,0.3,0.9,0.3,1.2,0c0.3-0.3,0.3-0.9,0-1.2L20.5,8.7c-0.3-0.4-0.9-0.4-1.2-0.1s-0.4,0.9-0.1,1.2
			c0,0,0,0,0.1,0.1L31.9,22.5z"/>
	</g>
</g>
</svg>
