<?xml version="1.0" encoding="utf-8"?>
<!-- Generator: Adobe Illustrator 25.4.1, SVG Export Plug-In . SVG Version: 6.00 Build 0)  -->
<svg version="1.1" id="圖層_1" xmlns="http://www.w3.org/2000/svg" xmlns:xlink="http://www.w3.org/1999/xlink" x="0px" y="0px"
	 viewBox="0 0 90 60" style="enable-background:new 0 0 90 60;" xml:space="preserve">
<style type="text/css">
	.st0{fill:#FFFFFF;}
</style>
<g>
	<g>
		<rect x="9.4" y="53.6" class="st0" width="17" height="1.4"/>
	</g>
	<g>
		<rect x="48.1" y="53.6" class="st0" width="15.4" height="1.4"/>
	</g>
	<g>
		<rect x="65.2" y="53.6" class="st0" width="15.4" height="1.4"/>
	</g>
	<g>
		<g>
			<path class="st0" d="M45.8,46.8h-3.1c-0.4,0-0.8,0.3-0.8,0.8s0.3,0.8,0.8,0.8h3.1c0.4,0,0.8-0.3,0.8-0.8S46.2,46.8,45.8,46.8z"/>
			<path class="st0" d="M39.5,29.8h1.6c0.4,0,0.8-0.3,0.8-0.8s-0.3-0.8-0.8-0.8h-1.6c-0.4,0-0.8,0.3-0.8,0.8S39.1,29.8,39.5,29.8z"
				/>
			<circle class="st0" cx="38" cy="20.5" r="0.8"/>
			<circle class="st0" cx="42.6" cy="20.5" r="0.8"/>
			<circle class="st0" cx="34.1" cy="9.6" r="0.8"/>
			<path class="st0" d="M64.4,14.2c-0.5,0-1.1,0.1-1.6,0.3c-0.4,0.2-0.6,0.6-0.4,1c0.2,0.4,0.6,0.6,1,0.4c0.3-0.1,0.6-0.2,1-0.2
				c2.8,0,5.4,5.3,5.4,8.5v7.8c0,1.3-1,2.3-2.3,2.3h-0.8V34c0-2.4-0.6-4.8-1.6-6.9c-0.2-0.4-0.7-0.5-1.1-0.3
				c-0.1,0.1-0.2,0.2-0.3,0.3c-1.1,2.1-1.6,4.5-1.6,6.9v0.4h-0.8c-1.3,0-2.3-1-2.3-2.3v-7.8c0-1.2,0.3-2.4,0.7-3.5
				c0.1-0.4-0.1-0.8-0.5-1c-0.4-0.1-0.8,0.1-1,0.4c-0.5,1.3-0.8,2.7-0.8,4.1v7.8c0,2.1,1.7,3.9,3.9,3.9H62v9.3h-5.4
				c-0.4,0-0.8-0.3-0.8-0.8V43c0-4.3-2.4-8.3-6.3-10.3c0-0.1-0.1-0.2-0.2-0.3l-0.9-0.9c0.6-0.6,1-1.5,1.1-2.4c0-1.3-0.6-2.6-1.6-3.5
				V22c1.3,0,2.3-1,2.3-2.3v-1.6h1.9c1.1,0,1.9-0.9,1.9-1.9c0-1.1-0.9-1.9-1.9-1.9h-4.3v-2.3c0-2.1-1.7-3.9-3.9-3.9h-7
				c-0.4,0-0.8,0.3-0.8,0.8c0,0.4,0.3,0.8,0.8,0.8h7c1.3,0,2.3,1,2.3,2.3v2.3H34.1v-1.6c0-0.4-0.3-0.8-0.8-0.8s-0.8,0.3-0.8,0.8v1.6
				h-4.3c-1.1,0-1.9,0.9-1.9,1.9c0,1.1,0.9,1.9,1.9,1.9h1.9v1.6c0,1.3,1,2.3,2.3,2.3v3.6c-1,0.9-1.6,2.1-1.6,3.5
				c0.1,0.9,0.5,1.7,1.1,2.4l-0.9,0.9c-0.1,0.1-0.1,0.2-0.2,0.3c-3.8,2-6.2,6-6.3,10.3v10.9c0,0.4,0.3,0.8,0.8,0.8s0.8-0.3,0.8-0.8
				V53h1.6v0.8c0,0.4,0.3,0.8,0.8,0.8s0.8-0.3,0.8-0.8V53H31v0.8c0,0.4,0.3,0.8,0.8,0.8c0.4,0,0.8-0.3,0.8-0.8V43.7h1.6
				c0.4,0,0.8-0.3,0.8-0.8v-4.4l0.1,0.2c0.2,0.3,0.7,0.4,1.1,0.2c0,0,0.1-0.1,0.1-0.1l0.2-0.2V43c0,0.4,0.3,0.8,0.8,0.8h6.2
				c0.4,0,0.8-0.3,0.8-0.8v-4.3l0.2,0.2c0.3,0.3,0.8,0.3,1.1,0c0,0,0.1-0.1,0.1-0.1l0.1-0.2V43c0,0.4,0.3,0.8,0.8,0.8h1.6v10.1
				c0,0.4,0.3,0.8,0.8,0.8s0.8-0.3,0.8-0.8v-4.4c1.6,2.3,4.2,3.6,7,3.6H62v0.8c0,0.4,0.3,0.8,0.8,0.8s0.8-0.3,0.8-0.8V53h1.6v0.8
				c0,0.4,0.3,0.8,0.8,0.8s0.8-0.3,0.8-0.8v-0.9c0.9-0.3,1.5-1.2,1.6-2.2v-3.1c0-1-0.6-1.9-1.6-2.2V36h0.8c2.1,0,3.9-1.7,3.9-3.9
				v-7.8C71.4,20.8,68.5,14.2,64.4,14.2z M63.6,34c0-1.6,0.3-3.1,0.8-4.6c0.5,1.5,0.8,3,0.8,4.6v3.5h-1.6V34z M63.6,39.1h1.6v6.2
				h-1.6V39.1z M60.6,49.8c0.1,0.6,0.4,1.2,0.7,1.7h-2l0.3-1.8L60.6,49.8z M60.6,48.2l-0.9-0.1l0.2-1.3h1.3
				C61,47.3,60.8,47.7,60.6,48.2z M49.6,44.5v-0.8h1.6v0.3c0,0.7,0.1,1.4,0.4,2l-1.6,0.4C49.7,45.9,49.6,45.2,49.6,44.5z M54.3,42.2
				h-1.6c-0.1-1.1-0.3-2.1-0.6-3.1h1.4C53.9,40.1,54.2,41.1,54.3,42.2z M52.7,44.1v-0.3h1.6v0.8c0,0.3,0.1,0.5,0.1,0.8l-1.3,0.4
				C52.9,45.2,52.7,44.6,52.7,44.1z M55.6,46.6c0.2,0.1,0.5,0.2,0.7,0.2l-0.9,0.9c-0.5-0.2-0.9-0.4-1.3-0.7L55.6,46.6z M58.4,47
				l-0.2,1.1L57.3,48L58.4,47z M52.7,37.5h-1.3c-0.7-1.2-1.5-2.3-2.6-3.3l0.1-0.2C50.5,34.9,51.8,36.1,52.7,37.5z M47.3,36.4
				l0.6-0.8c0.6,0.6,1.2,1.3,1.7,2h-2.3V36.4z M40.3,22c-0.4,0-0.8,0.3-0.8,0.8v2.3h-5.4v-7h12.4v7h-5.4v-2.3
				C41.1,22.4,40.7,22,40.3,22z M48.9,19.7c0,0.4-0.3,0.8-0.8,0.8v-2.3h0.8V19.7z M27.9,16.2c0-0.2,0.2-0.4,0.4-0.4h24.1
				c0.2,0,0.4,0.2,0.4,0.4c0,0.2-0.2,0.4-0.4,0.4H28.3C28.1,16.6,27.9,16.4,27.9,16.2z M31.8,19.7v-1.6h0.8v2.3
				C32.1,20.5,31.8,20.1,31.8,19.7z M33.7,26.7H47c0.7,0.6,1.1,1.4,1.1,2.3c-0.2,2.2-4.4,3.9-7.8,3.9s-7.6-1.8-7.8-3.9
				C32.6,28.1,33,27.2,33.7,26.7z M38.6,36.5l0.4,0.8c-0.3-0.1-0.6-0.2-0.8-0.4L38.6,36.5z M42.1,36.5l0.4,0.4
				c-0.3,0.1-0.6,0.3-0.8,0.4L42.1,36.5z M40.3,36.6L39,34.3c0.9,0.1,1.7,0.1,2.6,0L40.3,36.6z M32.7,35.5l0.6,0.8v1.1H31
				C31.5,36.8,32.1,36.1,32.7,35.5z M31.7,34.1l0.1,0.2c-1,0.9-1.9,2-2.6,3.3h-1.3C28.9,36.1,30.2,34.9,31.7,34.1L31.7,34.1z
				 M26.3,43.7h1.6v3.1h-1.6V43.7z M26.4,42.2c0.1-1.1,0.3-2.1,0.8-3.1h1.4c-0.3,1-0.6,2-0.6,3.1H26.4z M26.3,51.5v-3.1h1.6v3.1
				H26.3z M29.5,51.5v-3.1H31v3.1H29.5z M31,46.8h-1.6v-3.1H31V46.8z M31.8,40.6c-0.4,0-0.8,0.3-0.8,0.8v0.8h-1.5
				c0.1-1.1,0.3-2.1,0.7-3.1h3.1v3.1h-0.8v-0.8C32.6,41,32.2,40.6,31.8,40.6z M32.8,33l0.5-0.5c0.9,0.6,1.9,1,2.9,1.3l1.4,1.4
				l-1.9,1.9L32.8,33z M38,42.2v-3.6c0.7,0.3,1.5,0.5,2.3,0.5l0,0c0.8,0,1.6-0.2,2.3-0.5v3.6H38z M44.9,37.1L43,35.2l1.4-1.4
				c1-0.3,2-0.8,2.9-1.3l0.5,0.5L44.9,37.1z M47.3,42.2v-3.1h3.1c0.4,1,0.7,2,0.7,3.1h-1.5v-0.8c0-0.4-0.3-0.8-0.8-0.8
				s-0.8,0.3-0.8,0.8v0.8H47.3z M50.5,48l1.8-0.5c0.5,0.6,1.1,1.1,1.8,1.5l-1.4,1.4C51.9,49.7,51.1,48.9,50.5,48z M54.3,51.1
				l1.6-1.6c0.1,0,0.2,0,0.3,0l1.8,0.1l-0.3,1.9h-1.1C55.8,51.5,55,51.4,54.3,51.1z M66.7,50.7c0,0.4-0.3,0.8-0.8,0.8h-1.6
				c-1.3,0-2.3-1-2.3-2.3s1-2.3,2.3-2.3h1.6c0.4,0,0.8,0.3,0.8,0.8V50.7z"/>
			<circle class="st0" cx="60.5" cy="17.3" r="0.8"/>
		</g>
	</g>
</g>
</svg>
