<?xml version="1.0" encoding="utf-8"?>
<!-- Generator: Adobe Illustrator 25.4.1, SVG Export Plug-In . SVG Version: 6.00 Build 0)  -->
<svg version="1.1" id="圖層_1" xmlns="http://www.w3.org/2000/svg" xmlns:xlink="http://www.w3.org/1999/xlink" x="0px" y="0px"
	 viewBox="0 0 90 60" style="enable-background:new 0 0 90 60;" xml:space="preserve">
<style type="text/css">
	.st0{fill:#FFFFFF;}
</style>
<g>
	<path class="st0" d="M16.8,38.5h1.6v-2c2.1-0.7,2.1-4.2,2.1-5.5c0-2.8-0.6-7.6-2.9-7.6s-2.9,4.8-2.9,7.6c0,1.3,0,4.8,2.1,5.5
		C16.8,36.5,16.8,38.5,16.8,38.5z M17.6,35c-1.1,0-1.3-2.5-1.3-4c0-3.7,0.9-5.7,1.3-6c0.4,0.3,1.3,2.3,1.3,6
		C18.9,32.5,18.7,35,17.6,35z"/>
	<path class="st0" d="M10.4,38.4H12v-1.6c1.1-0.5,1.6-1.9,1.6-4.3c0-2.7-0.6-5.9-2.4-5.9s-2.4,3.2-2.4,5.9c0,2.4,0.6,3.9,1.6,4.3
		C10.4,36.8,10.4,38.4,10.4,38.4z M10.4,32.5c0-2.3,0.5-3.7,0.8-4.2c0.3,0.4,0.8,1.9,0.8,4.2c0,1.8-0.3,2.9-0.8,2.9
		S10.4,34.3,10.4,32.5z"/>
	<path class="st0" d="M75.7,38.4h1.6v-1.6c1.1-0.5,1.6-1.9,1.6-4.3c0-2.7-0.6-5.9-2.4-5.9s-2.4,3.2-2.4,5.9c0,2.4,0.6,3.9,1.6,4.3
		C75.7,36.8,75.7,38.4,75.7,38.4z M75.7,32.5c0-2.3,0.5-3.7,0.8-4.2c0.3,0.4,0.8,1.9,0.8,4.2c0,1.8-0.3,2.9-0.8,2.9
		S75.7,34.3,75.7,32.5z"/>
	<path class="st0" d="M40.5,46.6c6.5,1.5,11.6,6.6,13.3,13.2l1.7-0.5c-1.9-7.2-7.4-12.7-14.6-14.4L40.5,46.6z"/>
	<path class="st0" d="M12.7,44.4l0,1.8h23.6c0.6,0,1.1,0,1.7,0.1l0.2-1.8c-0.6-0.1-1.2-0.1-1.8-0.1H12.7z"/>
	<path class="st0" d="M48.9,55.5l-1.4,1.1c0.7,1,1.3,2.2,1.7,3.4l1.6-0.6C50.4,57.9,49.7,56.6,48.9,55.5z"/>
	<path class="st0" d="M24.9,48.8l0,1.8h11.4c3.7,0,7.3,1.5,9.9,4.2l1.3-1.3c-2.9-3-6.9-4.7-11.1-4.7H24.9z"/>
	<path class="st0" d="M36.2,53.3h-1.8l0,1.8h1.8c3.4,0,6.6,1.9,8.3,4.9l1.5-0.9C44,55.5,40.3,53.3,36.2,53.3z"/>
	<polygon class="st0" points="21.3,53.3 32.7,53.3 32.7,55.1 21.3,55.1 	"/>
	<polygon class="st0" points="56.3,53.3 66.9,53.3 66.8,55.1 56.3,55.1 	"/>
	<polygon class="st0" points="68.6,53.3 70.4,53.3 70.3,55.1 68.6,55.1 	"/>
	<polygon class="st0" points="52.9,48.8 61.7,48.8 61.6,50.6 52.9,50.6 	"/>
	<polygon class="st0" points="63.4,48.8 73.4,48.8 73.4,50.6 63.4,50.6 	"/>
	<polygon class="st0" points="47.7,44.4 58.3,44.4 58.2,46.2 47.7,46.2 	"/>
	<polygon class="st0" points="60,44.4 77,44.4 77,46.2 60,46.2 	"/>
	<path class="st0" d="M33.1,29.2h3.5c0.5,0,0.9-0.4,0.9-0.9l0.1-3.6c0-0.5-0.4-0.9-0.9-0.9h-3.5c-0.5,0-0.9,0.4-0.9,0.9l-0.1,3.6
		C32.2,28.8,32.6,29.2,33.1,29.2z M34.1,25.6h1.8l0,1.8H34L34.1,25.6z"/>
	<polygon class="st0" points="47,36.3 48.8,36.3 48.7,38.1 47,38.1 	"/>
	<polygon class="st0" points="50.5,36.3 52.3,36.3 52.2,38.1 50.5,38.1 	"/>
	<polygon class="st0" points="54,36.3 55.8,36.3 55.7,38.1 54,38.1 	"/>
	<polygon class="st0" points="57.5,36.3 59.3,36.3 59.2,38.1 57.5,38.1 	"/>
	<path class="st0" d="M69.2,16.7c0-0.3-0.1-0.6-0.4-0.7l-3.8-2.7c-0.1-0.1-0.3-0.2-0.5-0.2h-5.4c-0.2,0-0.3,0.1-0.5,0.2l-3.9,2.7
		c-0.2,0.2-0.4,0.4-0.4,0.7l0,1.8h1.8l0-1.3l3.3-2.3h4.9l3.2,2.3l0,1.3h-9.6l0,1.8h9.6l-0.1,5.4H63l0,1.8h4.4l-0.1,5.4h-2.6l0,1.8
		h2.6l-0.1,5.4h-4.4l0.1-8.6l1.5,0.5l0.6-1.7l-2.3-0.8l-3.2-6.8c-0.1-0.2-0.2-0.3-0.3-0.4L53,18.6c-0.1-0.1-0.3-0.1-0.4-0.1H35
		c-0.2,0-0.3,0-0.4,0.1l-6.2,3.6c-0.2,0.1-0.3,0.2-0.4,0.4l-3.5,6.8l-2.3,0.8l0.5,1.7l1.5-0.5l-0.1,8.6H8.1l0,1.8h73.9l0-1.8H68.8
		L69.2,16.7z M55.3,22H44.6l0,1.8h13.5l2.5,5.4H48.9l0,1.8h12.3L61,39.9H45.2l0.1-8.6l1.5,0.5l0.6-1.7l-2.3-0.8l-3.2-6.8
		c-0.1-0.2-0.2-0.3-0.3-0.4l-3.2-1.9h14L55.3,22z M26.1,30.3l3.4-6.7l5.5-3.2l5.4,3.2l3.2,6.7l-0.2,9.6h-4.4l0.1-4.5h1.8l0-1.8H28.7
		l0,1.8h1.8l-0.1,4.5h-4.4L26.1,30.3z M33.9,35.4l-0.1,4.5h-1.8l0.1-4.5H33.9z M35.6,35.4h1.8l-0.1,4.5h-1.8L35.6,35.4z"/>
	<path class="st0" d="M25.4,23.2c-2.5-2.9-2.2-7.5,0.7-10.1s7.4-2.4,9.9,0.6c0.8,0.9,1.3,2,1.6,3.2l1.7-0.4c-1-4.8-5.6-7.8-10.4-6.7
		s-7.8,5.9-6.8,10.7c0.3,1.5,1,2.9,1.9,4L25.4,23.2z"/>
	<polygon class="st0" points="17.4,48.8 23.1,48.8 23.1,50.6 17.4,50.6 	"/>
</g>
</svg>
