<?xml version="1.0" encoding="utf-8"?>
<!-- Generator: Adobe Illustrator 25.4.1, SVG Export Plug-In . SVG Version: 6.00 Build 0)  -->
<svg version="1.1" id="圖層_1" xmlns="http://www.w3.org/2000/svg" xmlns:xlink="http://www.w3.org/1999/xlink" x="0px" y="0px"
	 viewBox="0 0 90 60" style="enable-background:new 0 0 90 60;" xml:space="preserve">
<style type="text/css">
	.st0{fill:#FFFFFF;}
</style>
<g>
	<g>
		<g>
			<path class="st0" d="M55,42.9c0.3,0.3,0.8,0.3,1.1-0.1c0,0,0,0,0,0l12-13.6c0.3-0.3,0.3-0.8,0-1.1s-0.8-0.3-1.1,0c0,0,0,0,0,0
				L55,41.8C54.7,42.1,54.7,42.6,55,42.9z"/>
			<path class="st0" d="M32.6,42.9c0.3,0.3,0.8,0.4,1.1,0.1c0.3-0.3,0.4-0.8,0.1-1.1c0,0,0,0,0,0l-12-13.6c-0.3-0.3-0.8-0.4-1.1-0.1
				s-0.4,0.8-0.1,1.1c0,0,0,0,0,0L32.6,42.9z"/>
			<path class="st0" d="M63,38.6l-4,4c-0.3,0.3-0.3,0.8,0,1.1s0.8,0.3,1.1,0c0,0,0,0,0,0l4-4c0.3-0.3,0.3-0.8,0-1.1
				C63.8,38.3,63.3,38.3,63,38.6z"/>
			<path class="st0" d="M24.6,38.6c-0.3,0.3-0.3,0.8,0,1.1l4,4c0.3,0.3,0.8,0.3,1.1,0c0.3-0.3,0.3-0.8,0-1.1l-4-4
				C25.4,38.3,24.9,38.3,24.6,38.6z"/>
			<path class="st0" d="M32.4,29.5c3.1,0,5.6-2.5,5.6-5.6v-1.6c0-0.4-0.4-0.8-0.8-0.8h-0.4l-3-4.8H42v15.2h-1.6
				C39,31.9,38,33,38,34.3v0.8c-1.3,0-2.4,1.1-2.4,2.4v3.2c0,0.4,0.4,0.8,0.8,0.8h3.2c0.4,0,0.8-0.4,0.8-0.8c0-0.4-0.4-0.8-0.8-0.8
				h-2.4v-2.4c0-0.4,0.4-0.8,0.8-0.8h12c0.9,0,1.6,0.7,1.6,1.6v1.6h-8.8c-0.4,0-0.8,0.4-0.8,0.8c0,0.4,0.4,0.8,0.8,0.8h9.6
				c0.4,0,0.8-0.4,0.8-0.8v-2.4c0-1.5-1-2.7-2.4-3.1v-0.9c0-1.3-1.1-2.4-2.4-2.4h-1.6V13.5h10.4c0.4,0,0.8,0.4,0.8,0.8
				c0,0.4-0.4,0.8-0.8,0.8h-8c-0.4,0-0.8,0.4-0.8,0.8c0,0.4,0.4,0.8,0.8,0.8h5.8l-3,4.8h-0.4c-0.4,0-0.8,0.4-0.8,0.8v1.6
				c0,3.1,2.5,5.6,5.6,5.6c3.1,0,5.6-2.5,5.6-5.6v-1.6c0-0.4-0.4-0.8-0.8-0.8h-0.4l-3.1-4.9c1.3-0.3,2.1-1.6,1.7-2.9
				c-0.3-1.1-1.2-1.8-2.3-1.8H46.8v-0.8c0-1.3-1.1-2.4-2.4-2.4C43,8.7,42,9.8,42,11.1v0.8H31.6c-1.3,0-2.4,1.1-2.4,2.4
				c0,1.1,0.7,2.1,1.8,2.3l-3.1,4.9h-0.4c-0.4,0-0.8,0.4-0.8,0.8v1.6C26.8,27,29.3,29.5,32.4,29.5z M60.4,23.9c0,2.2-1.8,4-4,4
				c-2.2,0-4-1.8-4-4v-0.8h8V23.9z M53.8,21.5l2.6-4.1l2.6,4.1H53.8z M49.2,34.3v0.8h-9.6v-0.8c0-0.4,0.4-0.8,0.8-0.8h8
				C48.8,33.5,49.2,33.9,49.2,34.3z M43.6,11.1c0-0.4,0.4-0.8,0.8-0.8c0.4,0,0.8,0.4,0.8,0.8v20.8h-1.6V11.1z M31.6,13.5H42v1.6
				H31.6c-0.4,0-0.8-0.4-0.8-0.8C30.8,13.9,31.1,13.5,31.6,13.5z M32.4,17.4l2.6,4.1h-5.1L32.4,17.4z M28.4,23.1h8v0.8
				c0,2.2-1.8,4-4,4s-4-1.8-4-4V23.1z"/>
			<path class="st0" d="M55.6,37.5c0.3,0,0.5-0.1,0.7-0.4l2.4-4c0.2-0.4,0.1-0.9-0.3-1.1c-0.4-0.2-0.8-0.1-1.1,0.3l-2.4,4
				c-0.2,0.4-0.1,0.9,0.3,1.1C55.3,37.5,55.4,37.5,55.6,37.5z"/>
			<path class="st0" d="M30.4,32.1c-0.4,0.2-0.5,0.7-0.3,1.1l2.4,4c0.2,0.4,0.7,0.5,1.1,0.3s0.5-0.7,0.3-1.1c0,0,0,0,0,0l-2.4-4
				C31.2,31.9,30.7,31.8,30.4,32.1z"/>
			<path class="st0" d="M67.7,52l-22.6-4.7c0-1.3,1.1-2.4,2.4-2.4c0.2,0,0.4,0,0.6,0.1l15,4c0.1,0,0.1,0,0.2,0
				c0.4,0,0.8-0.4,0.8-0.8c0-0.4-0.2-0.7-0.6-0.8l-15-4c-1.2-0.3-2.5-0.1-3.5,0.7c-0.3,0.2-0.5,0.5-0.8,0.8
				c-0.2-0.3-0.5-0.6-0.8-0.8c-1-0.8-2.3-1-3.5-0.7l-15,4c-1.4,0.4-2.4,1.6-2.4,3.1v1L21,52c-0.4,0.1-0.6,0.4-0.6,0.8v3.2
				c0,0.4,0.4,0.8,0.8,0.8c0,0,0.1,0,0.1,0l10.5-1.1c0.4,0,0.8-0.4,0.7-0.9c0-0.4-0.4-0.8-0.9-0.7l0,0L22,55v-1.7l21.6-4.5v3
				c0,0.4,0.4,0.8,0.8,0.8c0.4,0,0.8-0.4,0.8-0.8v-3l21.6,4.5V55l-19.1-2c-0.2,0-0.4,0.1-0.6,0.2c-0.2,0.2-0.3,0.4-0.3,0.6v0.5
				c0,0.4-0.4,0.8-0.8,0.8h-3.2c-0.4,0-0.8-0.4-0.8-0.8v-0.5c0-0.2-0.1-0.4-0.3-0.6c-0.2-0.2-0.4-0.2-0.6-0.2l-6.4,0.7
				c-0.4,0-0.8,0.4-0.7,0.9c0,0.4,0.4,0.8,0.9,0.7l5.5-0.6c0.2,1.1,1.2,2,2.4,2H46c1.2,0,2.2-0.8,2.4-2l19.2,2c0,0,0.1,0,0.1,0
				c0.4,0,0.8-0.4,0.8-0.8v-3.2C68.4,52.4,68.1,52,67.7,52z M24.4,50.6c0-0.7,0.5-1.4,1.2-1.5l15-4c1.3-0.3,2.6,0.4,2.9,1.7
				c0.1,0.2,0.1,0.4,0.1,0.6l-19.2,4V50.6z"/>
		</g>
	</g>
	<g>
		<rect x="9.7" y="51.4" class="st0" width="14.8" height="1.2"/>
	</g>
	<g>
		<rect x="65.5" y="51.4" class="st0" width="14.8" height="1.2"/>
	</g>
</g>
</svg>
