<?xml version="1.0" encoding="utf-8"?>
<!-- Generator: Adobe Illustrator 25.4.1, SVG Export Plug-In . SVG Version: 6.00 Build 0)  -->
<svg version="1.1" id="圖層_1" xmlns="http://www.w3.org/2000/svg" xmlns:xlink="http://www.w3.org/1999/xlink" x="0px" y="0px"
	 viewBox="0 0 90 60" style="enable-background:new 0 0 90 60;" xml:space="preserve">
<style type="text/css">
	.st0{fill:#FFFFFF;}
</style>
<g>
	<g>
		<g>
			<rect x="35.7" y="23.4" class="st0" width="2.7" height="2.7"/>
			<rect x="39.7" y="23.4" class="st0" width="2.7" height="2.7"/>
			<rect x="43.7" y="23.4" class="st0" width="2.7" height="2.7"/>
			<g>
				<rect x="54" y="28.3" class="st0" width="2.9" height="1.9"/>
				<path class="st0" d="M40.7,44.7H30v-4.3l0,0v-6.7v-1h0.1c0.5,0,0.8-0.3,0.8-0.8v-2.2h21c0.5,0,0.8-0.3,0.8-0.8v-2.2h5.4v3.8h1.6
					V29c1.6-0.6,3.1-1.7,4.1-3.1c0.1-0.1,0.1-0.2,0.2-0.3v4.8h1.6v-9.9v-8.3l0,0c0-0.5-0.3-0.8-0.8-0.8h-7l0,0h-4.9h-2.2V8.1
					c0-0.5-0.3-0.8-0.8-0.8H33.2c-0.5,0-0.8,0.3-0.8,0.8s0.3,0.8,0.8,0.8h16v2.4h-0.8H32.2h-3h-4.9h-7c-0.5,0-0.8,0.3-0.8,0.8v0.2
					v8.2v25.1c0,0.5,0.3,0.8,0.8,0.8h5.3c0.5,0,0.8-0.3,0.8-0.8s-0.3-0.8-0.8-0.8h-4.5V25.5c1,1.5,2.5,2.7,4.3,3.4v2.7
					c0,0.5,0.3,0.8,0.8,0.8l0,0h0.2V34v11.4c0,0.5,0.3,0.8,0.8,0.8h4.9c0.1,0,0.1,0,0.2,0s0.1,0,0.2,0h11.2v-1.6H40.7z M58.6,12.7
					H64v7.5c0,3-1.7,5.6-4.3,6.9v-1.4l0,0l0,0v-2.2l0,0v-0.8c0-0.2-0.1-0.5-0.2-0.6l0,0l0,0C59.3,22,59.3,22,59.2,22
					c-0.1,0-0.2-0.1-0.3-0.1h-0.2V12.7z M53.7,12.9v-0.2H57v9.2h-3.3V12.9z M52.7,23.5h0.2h4.9l0,0l0,0h0.2v1.4h-5.4V23.5z
					 M23.4,21.9h-0.1l0,0c-0.5,0-0.8,0.3-0.8,0.8v4.3c-2.6-1.3-4.3-4-4.3-6.9v-7.5h5.4v4l0,0v4.6v0.7H23.4z M28.4,12.7v4.7V22h-3.3
					v-2.5v-2.7l0,0v-4h3.3V12.7z M25,44.7v-11v-1.3h3.3v12.2C28.3,44.7,25,44.7,25,44.7z M29.3,28.7v2.2h-0.2h-1.1v-2.5h-2.7v2.5H24
					h-0.2v-2.5v-1.8h5.4v2.2H29.3z M29.3,24.9h-5.4v-1.4h0.2h4.9l0,0h0.2V24.9z M30,12.7h2.2h16.2H50h2.2v0.1v9.1h-0.2
					c-0.2,0-0.5,0.1-0.6,0.2s-0.2,0.3-0.2,0.6v0.8v4.2H30.9v-5.1c0-0.5-0.3-0.8-0.8-0.8h-0.2v-8.7v-0.5H30z"/>
			</g>
		</g>
		<g transform="translate(0,-952.36218)">
			<path class="st0" d="M43.9,984.8c-0.3,0-0.7,0.3-0.7,0.7v21.5c0,0.3,0.3,0.7,0.7,0.7h28.9c0.3,0,0.7-0.3,0.7-0.7v-21.5
				c0-0.3-0.3-0.7-0.7-0.7H43.9z M44.6,986.2h27.5v20.1H44.6V986.2z M47.2,987.8c-0.3,0-0.7,0.3-0.7,0.7s0.3,0.7,0.7,0.7h22.2
				c0.3,0,0.7-0.3,0.7-0.7s-0.3-0.7-0.7-0.7H47.2z M47.2,990.9c-0.3,0-0.7,0.3-0.7,0.7s0.3,0.7,0.7,0.7h22.2c0.3,0,0.7-0.3,0.7-0.7
				s-0.3-0.7-0.7-0.7H47.2z M58.3,993.9c-2.2,0-4,1.8-4,4c0,0.1,0,0.2,0,0.3l-2.5,3c-0.3,0.3-0.1,1,0.3,1.1l1.6,0.2l0.2,1.5
				c0,0.2,0.2,0.5,0.5,0.6c0.2,0.1,0.6,0,0.7-0.2l2.3-2.5c0.3,0.1,0.6,0.1,0.9,0.1s0.6,0,0.9-0.1l2.3,2.5c0.1,0.2,0.5,0.2,0.7,0.2
				c0.2-0.1,0.5-0.3,0.5-0.6l0.2-1.5l1.6-0.2c0.5-0.1,0.7-0.8,0.3-1.1l-2.5-2.9c0-0.1,0-0.2,0-0.3C62.4,995.7,60.6,993.9,58.3,993.9
				L58.3,993.9z M58.3,995.2c1.5,0,2.7,1.1,2.7,2.7c0,1.5-1.1,2.7-2.7,2.7s-2.7-1.1-2.7-2.7C55.7,996.4,56.8,995.2,58.3,995.2z
				 M61.8,999.8l1.1,1.4l-0.8,0.1c-0.2,0-0.5,0.2-0.6,0.6l-0.1,0.7l-1-1.1C61.2,1000.9,61.6,1000.4,61.8,999.8z M54.8,999.8
				c0.3,0.6,0.8,1.1,1.4,1.5l-1,1.1l-0.1-0.7c0-0.2-0.2-0.5-0.6-0.6l-0.8-0.1L54.8,999.8z"/>
		</g>
	</g>
</g>
</svg>
