<?xml version="1.0" encoding="utf-8"?>
<!-- Generator: Adobe Illustrator 25.4.1, SVG Export Plug-In . SVG Version: 6.00 Build 0)  -->
<svg version="1.1" id="圖層_1" xmlns="http://www.w3.org/2000/svg" xmlns:xlink="http://www.w3.org/1999/xlink" x="0px" y="0px"
	 viewBox="0 0 90 60" style="enable-background:new 0 0 90 60;" xml:space="preserve">
<style type="text/css">
	.st0{fill:#FFFFFF;}
</style>
<g>
	<g>
		<rect x="10.1" y="53" class="st0" width="13.9" height="1.2"/>
	</g>
	<g>
		<rect x="66" y="53" class="st0" width="13.9" height="1.2"/>
	</g>
	<g>
		<path class="st0" d="M38.3,25.2c-0.4,0-0.7,0.3-0.7,0.6v1.9c0,0.4,0.3,0.6,0.7,0.6s0.6-0.3,0.6-0.6v-1.9
			C39,25.4,38.7,25.2,38.3,25.2z"/>
		<path class="st0" d="M41.5,25.2c-0.4,0-0.7,0.3-0.7,0.6v1.9c0,0.4,0.3,0.6,0.7,0.6s0.6-0.3,0.6-0.6v-1.9
			C42.2,25.4,41.9,25.2,41.5,25.2z"/>
		<path class="st0" d="M44.8,25.2c-0.4,0-0.6,0.3-0.6,0.6v1.9c0,0.4,0.3,0.6,0.6,0.6c0.4,0,0.7-0.3,0.7-0.6v-1.9
			C45.4,25.4,45.1,25.2,44.8,25.2z"/>
		<path class="st0" d="M48,25.2c-0.4,0-0.6,0.3-0.6,0.6v1.9c0,0.4,0.3,0.6,0.6,0.6c0.4,0,0.7-0.3,0.7-0.6v-1.9
			C48.6,25.4,48.4,25.2,48,25.2z"/>
		<path class="st0" d="M51.2,25.2c-0.4,0-0.7,0.3-0.7,0.6v1.9c0,0.4,0.3,0.6,0.7,0.6s0.7-0.3,0.7-0.6v-1.9
			C51.9,25.4,51.6,25.2,51.2,25.2z"/>
		<path class="st0" d="M44.1,4.7v2.6c0,0.4,0.3,0.7,0.6,0.7c0.4,0,0.7-0.3,0.7-0.7V4.7c0-0.4-0.3-0.7-0.7-0.7
			C44.4,4,44.1,4.3,44.1,4.7z"/>
		<path class="st0" d="M35.7,5.6c-0.3,0.1-0.5,0.5-0.4,0.8l0.9,2.4c0.1,0.3,0.3,0.4,0.6,0.4c0.1,0,0.1,0,0.2,0
			c0.3-0.1,0.5-0.5,0.4-0.8L36.6,6C36.4,5.6,36.1,5.5,35.7,5.6z"/>
		<path class="st0" d="M27.8,10.2c-0.3,0.2-0.3,0.6-0.1,0.9l1.7,2c0.1,0.2,0.3,0.2,0.5,0.2c0.1,0,0.3-0.1,0.4-0.2
			c0.3-0.2,0.3-0.6,0.1-0.9l-1.7-2C28.5,10,28.1,10,27.8,10.2z"/>
		<path class="st0" d="M22.1,18.1l2.3,1.3c0.1,0.1,0.2,0.1,0.3,0.1c0.2,0,0.4-0.1,0.6-0.3c0.2-0.3,0.1-0.7-0.2-0.9L22.8,17
			c-0.3-0.2-0.7-0.1-0.9,0.2C21.7,17.5,21.8,17.9,22.1,18.1z"/>
		<path class="st0" d="M19.3,26.6l2.6,0.5H22c0.3,0,0.6-0.2,0.6-0.5c0.1-0.4-0.2-0.7-0.5-0.8l-2.6-0.5c-0.4-0.1-0.7,0.2-0.8,0.5
			C18.7,26.2,18.9,26.5,19.3,26.6z"/>
		<path class="st0" d="M70.8,25.8c-0.1-0.4-0.4-0.6-0.8-0.5l-2.6,0.5c-0.4,0.1-0.6,0.4-0.5,0.8c0.1,0.3,0.3,0.5,0.6,0.5h0.1l2.6-0.5
			C70.6,26.5,70.8,26.2,70.8,25.8z"/>
		<path class="st0" d="M64.8,19.5c0.1,0,0.2,0,0.3-0.1l2.3-1.3c0.3-0.2,0.4-0.6,0.2-0.9c-0.2-0.3-0.6-0.4-0.9-0.2l-2.3,1.3
			c-0.3,0.2-0.4,0.6-0.2,0.9C64.4,19.4,64.6,19.5,64.8,19.5z"/>
		<path class="st0" d="M60.8,10.3l-1.7,2c-0.2,0.3-0.2,0.7,0.1,0.9c0.1,0.1,0.3,0.2,0.4,0.2c0.2,0,0.4-0.1,0.5-0.2l1.7-2
			c0.2-0.3,0.2-0.7-0.1-0.9C61.5,10,61.1,10,60.8,10.3z"/>
		<path class="st0" d="M53,6l-0.9,2.4c-0.1,0.3,0.1,0.7,0.4,0.8c0.1,0,0.1,0,0.2,0c0.3,0,0.5-0.2,0.6-0.4l0.9-2.4
			c0.1-0.3-0.1-0.7-0.4-0.8C53.5,5.5,53.1,5.6,53,6z"/>
		<path class="st0" d="M23.8,56h41.9c0.4,0,0.7-0.3,0.7-0.7v-4.5c0-0.4-0.3-0.7-0.7-0.7H65V37.9h0.7c0.4,0,0.7-0.3,0.7-0.6v-3.6
			c0-0.3-0.2-0.5-0.4-0.6l-8.3-3.3c-0.1,0-0.2,0-0.2,0h-2.1v-6.2h0.3c0.4,0,0.7-0.3,0.7-0.6c0-5.9-4.8-10.7-10.7-10.7h-0.2v-1.4
			c0-0.4-0.3-0.6-0.7-0.6s-0.6,0.3-0.6,0.6v1.4H44c-5.9,0-10.7,4.8-10.7,10.7c0,0.4,0.3,0.6,0.7,0.6h0.3v6.2h-2.1
			c-0.1,0-0.2,0-0.2,0l-8.3,3.3c-0.2,0.1-0.4,0.3-0.4,0.6v3.6c0,0.4,0.3,0.6,0.6,0.6h0.9v12.3h-0.9c-0.4,0-0.6,0.3-0.6,0.7v4.5
			C23.2,55.7,23.4,56,23.8,56z M63.7,50.2h-8V39.4h0.9c0.4,0,0.6-0.3,0.6-0.7v-0.8h6.4L63.7,50.2L63.7,50.2z M33.5,38.1v-1.8
			L44.8,34L56,36.2V38L33.5,38.1L33.5,38.1z M40.8,39.4v10.8h-5.5V39.4H40.8z M42.1,39.4h5.5v10.8h-5.5V39.4z M48.9,39.4h5.5v10.8
			h-5.5V39.4z M44,13.5h1.6c5,0,9.1,3.9,9.4,8.8H34.6C34.9,17.4,39,13.5,44,13.5z M35.5,23.6H54v6.2H35.5V23.6z M24.5,34.1l7.8-3.1
			h25l7.8,3.1v2.5h-7.8v-0.9c0-0.3-0.2-0.6-0.5-0.6l-11.9-2.4c-0.1,0-0.2,0-0.3,0L32.8,35c-0.3,0.1-0.5,0.3-0.5,0.6v0.9h-7.8V34.1z
			 M26,37.9h6.2v0.8c0,0.4,0.3,0.7,0.7,0.7H34v10.8h-8V37.9z M24.5,51.5h40.6v3.2H24.5V51.5z"/>
	</g>
</g>
</svg>
