<?xml version="1.0" encoding="utf-8"?>
<!-- Generator: Adobe Illustrator 25.4.1, SVG Export Plug-In . SVG Version: 6.00 Build 0)  -->
<svg version="1.1" id="圖層_1" xmlns="http://www.w3.org/2000/svg" xmlns:xlink="http://www.w3.org/1999/xlink" x="0px" y="0px"
	 viewBox="0 0 90 60" style="enable-background:new 0 0 90 60;" xml:space="preserve">
<style type="text/css">
	.st0{fill:#FFFDFD;}
</style>
<g>
	<g>
		<path class="st0" d="M48.9,29.8c0,4.7,3.8,8.5,8.5,8.5s8.5-3.8,8.5-8.5s-3.8-8.5-8.5-8.5S48.9,25.1,48.9,29.8z M64.4,29.8
			c0,3.8-3.1,7-7,7s-7-3.1-7-7s3.1-7,7-7S64.4,26,64.4,29.8z"/>
		<path class="st0" d="M63.4,40.4c-0.2-0.1-0.5-0.2-0.7-0.3c3.8-1.9,6.4-5.8,6.4-10.3c0-4.4-2.5-8.3-6.2-10.3v-5.2
			c0-1.3-1-2.3-2.3-2.3H23.3C22,12,21,13,21,14.3v34.1c0,1.3,1,2.3,2.3,2.3h27.2c-0.1,0.2-0.1,0.5-0.1,0.8c0,1.3,1,2.3,2.3,2.3h0.8
			v2.3c0,2.1,1.7,3.9,3.9,3.9s3.9-1.7,3.9-3.9v-2.3c0.7,0,1.4-0.2,2.1-0.6l2-1H69V41.4h-3.7L63.4,40.4z M67.5,29.8
			c0,5.5-4.5,10.1-10.1,10.1s-10.1-4.5-10.1-10.1s4.5-10.1,10.1-10.1S67.5,24.3,67.5,29.8z M56.6,48.3c0,0,0,0.1,0,0.1
			c0,0.4-0.3,0.8-0.8,0.8h-3.1c-0.4,0-0.8-0.3-0.8-0.8s0.3-0.8,0.8-0.8h1.4c0.4,0.5,1,0.8,1.7,0.8C56.1,48.4,56.3,48.3,56.6,48.3z
			 M53.5,46.1h-0.8c-0.4,0-0.8-0.3-0.8-0.8c0-0.4,0.3-0.8,0.8-0.8h0.8V46.1z M53.5,42.2V43h-0.8c-0.4,0-0.8-0.3-0.8-0.8
			c0-0.4,0.3-0.8,0.8-0.8h0.9C53.6,41.7,53.5,41.9,53.5,42.2z M23.3,13.5h37.2c0.4,0,0.8,0.3,0.8,0.8v4.5c-1.2-0.4-2.5-0.7-3.9-0.7
			H22.5v-3.9C22.5,13.9,22.9,13.5,23.3,13.5z M22.5,48.4V19.7h29.1c-3.5,2-5.8,5.8-5.8,10.1c0,4.4,2.5,8.3,6.1,10.2
			c-0.9,0.3-1.5,1.2-1.5,2.2c0,0.6,0.2,1.1,0.6,1.5c-0.4,0.4-0.6,1-0.6,1.5c0,0.6,0.2,1.1,0.6,1.5c-0.4,0.4-0.6,1-0.6,1.5
			c0,0.3,0.1,0.5,0.1,0.8H23.3C22.9,49.2,22.5,48.8,22.5,48.4z M52,51.5c0-0.4,0.3-0.8,0.8-0.8h3.1c0.4,0,0.8,0.3,0.8,0.8
			s-0.3,0.8-0.8,0.8h-3.1C52.3,52.3,52,51.9,52,51.5z M57.4,58.5c-1.3,0-2.3-1-2.3-2.3v-2.3h0.8c1.3,0,2.3-1,2.3-2.3
			c0-0.6-0.2-1.1-0.6-1.5c0.4-0.4,0.6-1,0.6-1.5c0-0.4-0.1-0.8-0.3-1.2c0.2-0.3,0.3-0.7,0.3-1.2v-1.5h1.5v11.6
			C59.7,57.4,58.7,58.5,57.4,58.5z M67.5,50.7h-2.5l-2.3,1.1c-0.4,0.2-0.9,0.3-1.4,0.4v-6.6c0.5,0.3,1.1,0.4,1.7,0.4h1.4v-1.5H63
			c-0.8,0-1.5-0.4-1.8-1.1L61,43h-4.3v3.1c0,0.4-0.3,0.8-0.8,0.8c-0.4,0-0.8-0.3-0.8-0.8v-3.9c0-0.4,0.3-0.8,0.8-0.8h5.1
			c0.6,0,1.2,0.1,1.7,0.4l2.3,1.1h2.5V50.7z"/>
		<polygon class="st0" points="54.1,30.8 53,31.9 55.1,34 61.8,27.3 60.7,26.2 55.1,31.8 		"/>
		<rect x="24.1" y="15.1" class="st0" width="1.5" height="1.5"/>
		<rect x="30.3" y="15.1" class="st0" width="1.5" height="1.5"/>
		<rect x="27.2" y="15.1" class="st0" width="1.5" height="1.5"/>
		<path class="st0" d="M24.1,29h7.7v-7.7h-7.7V29z M25.6,22.8h4.6v4.6h-4.6V22.8z"/>
		<rect x="33.4" y="21.3" class="st0" width="10.8" height="1.5"/>
		<rect x="33.4" y="24.4" class="st0" width="7.7" height="1.5"/>
		<rect x="42.7" y="24.4" class="st0" width="1.5" height="1.5"/>
		<rect x="33.4" y="27.5" class="st0" width="10.8" height="1.5"/>
		<path class="st0" d="M24.1,38.3h7.7v-7.7h-7.7V38.3z M25.6,32.1h4.6v4.6h-4.6V32.1z"/>
		<rect x="33.4" y="30.6" class="st0" width="10.8" height="1.5"/>
		<rect x="33.4" y="33.7" class="st0" width="7.7" height="1.5"/>
		<rect x="42.7" y="33.7" class="st0" width="1.5" height="1.5"/>
		<rect x="33.4" y="36.8" class="st0" width="10.8" height="1.5"/>
		<path class="st0" d="M24.1,47.6h7.7v-7.7h-7.7V47.6z M25.6,41.4h4.6v4.6h-4.6V41.4z"/>
		<rect x="36.5" y="39.9" class="st0" width="7.7" height="1.5"/>
		<rect x="33.4" y="39.9" class="st0" width="1.5" height="1.5"/>
		<rect x="36.5" y="43" class="st0" width="7.7" height="1.5"/>
		<rect x="33.4" y="43" class="st0" width="1.5" height="1.5"/>
		<rect x="36.5" y="46.1" class="st0" width="7.7" height="1.5"/>
		<rect x="33.4" y="46.1" class="st0" width="1.5" height="1.5"/>
	</g>
</g>
</svg>
