<?xml version="1.0" encoding="utf-8"?>
<!-- Generator: Adobe Illustrator 25.2.3, SVG Export Plug-In . SVG Version: 6.00 Build 0)  -->
<svg version="1.1" id="圖層_1" xmlns="http://www.w3.org/2000/svg" xmlns:xlink="http://www.w3.org/1999/xlink" x="0px" y="0px"
	 viewBox="0 0 60 60" style="enable-background:new 0 0 60 60;" xml:space="preserve">
<style type="text/css">
	.st0{fill-rule:evenodd;clip-rule:evenodd;fill:#25AF8F;}
</style>
<g>
	<path class="st0" d="M19,17.3l-3.5,2v4l3.5,2.1l3.5-2.1v-4C21.4,18.6,20.2,17.9,19,17.3z M34.3,55.9c-1.1-1.4,2.3-1.9,3.3-6.2
		C37.9,52.5,36.2,58.2,34.3,55.9z M17.9,42.3c2.3,8.8,11.9,1.2,11.9,10.8c0,12.7,11.4,5.4,10.7-2.1c-1-9.9,5.1-1.7,8.3-10.4l1.8-1
		v-6.1l-4.4-2.5v-4.1l4.4-2.5v-6.1l-4.4-2.5v-5.1l-4.4-2.6v-5C40,2.1,38.3,1,36.6,0l-5.3,3.1v5.1l-3.5,2l-3.5-2V3.1
		C22.5,2.1,20.8,1,19,0l-5.3,3.1v5.1l-4.3,2.5v6.1l4.3,2.5v4.1l-4.3,2.5V32C15.6,35.5,16.7,37.3,17.9,42.3z M41,32.9l3.5-2v-4.1
		c-1.2-0.7-2.3-1.3-3.5-2l-3.5,2v4.1L41,32.9z M35.7,26.9l-3.5-2.1l-3.5,2.1v4l3.5,2c1.2-0.7,2.4-1.3,3.5-2V26.9z M31.3,23.4v-4.1
		l-3.5-2l-3.5,2v4l3.5,2.1L31.3,23.4z M35.7,15.7v-4l-3.5-2.1l-3.5,2.1v4l3.5,2.1C33.3,17.1,34.5,16.4,35.7,15.7z M45.3,25.4
		l3.5-2.1v-4l-3.5-2.1l-3.5,2.1v4L45.3,25.4z M41.9,34.5v4l3.5,2.1c1.2-0.7,2.4-1.4,3.5-2.1v-4l-3.5-2.1
		C44.2,33.1,43,33.8,41.9,34.5z M40.1,34.5l-3.5-2.1l-3.5,2.1v4l3.5,2.1c1.2-0.7,2.4-1.4,3.5-2.1V34.5z M40.9,17.8l3.5-2.1v-4
		l-3.5-2.1l-3.5,2.1v4C38.6,16.4,39.7,17.1,40.9,17.8z M40.1,19.3l-3.5-2l-3.5,2v4l3.5,2.1c1.2-0.7,2.4-1.3,3.5-2.1V19.3z M33.1,8.2
		l3.5,2l3.5-2V4c-1.2-0.7-2.3-1.3-3.5-2l-3.5,2V8.2z M23.4,17.8l3.5-2.1v-4c-1.2-0.7-2.3-1.4-3.5-2.1l-3.5,2.1v4
		C21.1,16.4,22.2,17.1,23.4,17.8z M23.4,24.8l-3.5,2v4.1l3.5,2c1.2-0.7,2.4-1.3,3.5-2v-4C25.8,26.2,24.6,25.5,23.4,24.8z M18.1,26.9
		l-3.5-2.1l-3.5,2.1v4l3.5,2c1.1-0.7,2.3-1.3,3.5-2V26.9z M15.5,8.2l3.5,2l3.5-2V4c-1.2-0.7-2.4-1.3-3.5-2l-3.5,2V8.2z M18.1,11.7
		l-3.5-2.1l-3.5,2.1v4l3.5,2.1c1.2-0.7,2.4-1.4,3.5-2.1V11.7z"/>
</g>
</svg>
