<?xml version="1.0" encoding="utf-8"?>
<!-- Generator: Adobe Illustrator 25.2.3, SVG Export Plug-In . SVG Version: 6.00 Build 0)  -->
<svg version="1.1" id="圖層_1" xmlns="http://www.w3.org/2000/svg" xmlns:xlink="http://www.w3.org/1999/xlink" x="0px" y="0px"
	 viewBox="0 0 60 60" style="enable-background:new 0 0 60 60;" xml:space="preserve">
<style type="text/css">
	.st0{fill:#25AF8F;}
</style>
<g>
	<path class="st0" d="M55.3,22.4h-5.1V1.6H20.8L9.9,11.1v11.3H4.7c-2.6,0-4.7,2.1-4.7,4.7v12v6.3c0,2.6,2.1,4.7,4.7,4.7h5.1v8.3
		h40.3v-8.3h5.1c2.6,0,4.7-2.1,4.7-4.7v-6.3v-12C60,24.5,57.9,22.4,55.3,22.4z M54.1,27.1c1.2,0,2.2,1,2.2,2.2c0,1.2-1,2.2-2.2,2.2
		c-1.2,0-2.2-1-2.2-2.2C51.9,28.1,52.9,27.1,54.1,27.1z M54.1,32.2c1.2,0,2.2,1,2.2,2.2c0,1.2-1,2.2-2.2,2.2c-1.2,0-2.2-1-2.2-2.2
		C51.9,33.2,52.9,32.2,54.1,32.2z M20.3,4v6.7h-7.6L20.3,4z M11.4,12.2h10.4V3.1h26.8v32.2H11.4V12.2z M5.9,27.1
		c1.2,0,2.2,1,2.2,2.2c0,1.2-1,2.2-2.2,2.2c-1.2,0-2.2-1-2.2-2.2C3.7,28.1,4.7,27.1,5.9,27.1z M5.9,32.2c1.2,0,2.2,1,2.2,2.2
		c0,1.2-1,2.2-2.2,2.2c-1.2,0-2.2-1-2.2-2.2C3.7,33.2,4.7,32.2,5.9,32.2z M48.6,56.9H11.4v-9.6h37.2V56.9z M58.5,45.4
		c0,1.8-1.4,3.2-3.2,3.2h-5.1v-2.8H9.9v2.8H4.7c-1.8,0-3.2-1.4-3.2-3.2v-2.8c0.8,0.8,2,1.3,3.2,1.3h50.6c1.2,0,2.4-0.5,3.2-1.3V45.4
		z"/>
	<circle class="st0" cx="54.1" cy="29.3" r="0.7"/>
	<circle class="st0" cx="54.1" cy="34.4" r="0.7"/>
	<circle class="st0" cx="5.9" cy="34.4" r="0.7"/>
	<circle class="st0" cx="5.9" cy="29.3" r="0.7"/>
	<rect x="19.3" y="28.9" class="st0" width="21.4" height="1.5"/>
	<rect x="19.3" y="22.9" class="st0" width="21.4" height="1.5"/>
	<rect x="19.3" y="17" class="st0" width="21.4" height="1.5"/>
	<rect x="26" y="11.1" class="st0" width="14.7" height="1.5"/>
</g>
</svg>
