<?xml version="1.0" encoding="utf-8"?>
<!-- Generator: Adobe Illustrator 25.2.1, SVG Export Plug-In . SVG Version: 6.00 Build 0)  -->
<svg version="1.1" id="圖層_1" xmlns="http://www.w3.org/2000/svg" xmlns:xlink="http://www.w3.org/1999/xlink" x="0px" y="0px"
	 viewBox="0 0 60 60" style="enable-background:new 0 0 60 60;" xml:space="preserve">
<style type="text/css">
	.st0{fill:#25AF8F;}
</style>
<g>
	<path class="st0" d="M10.4,26c2.6-0.3,4.6-2.5,4.6-5.2c0-1.1-0.4-2.2-1-3l4.6-4.6c0.8,0.6,1.8,0.9,2.9,0.9c2.6,0,4.7-1.8,5.2-4.2
		h4.5c0.4,2.1,2,3.8,4.2,4.2v7.9h-3.3v1.8h8.5v-1.8h-3.3v-7.9c2.4-0.5,4.3-2.6,4.3-5.2c0-2.9-2.3-5.2-5.2-5.2
		c-2.6,0-4.7,1.8-5.2,4.3h-4.5c-0.5-2.4-2.6-4.3-5.2-4.3c-2.9,0-5.2,2.3-5.2,5.2c0,1.1,0.4,2.1,1,3l-4.6,4.6
		c-0.8-0.6-1.8-0.9-2.9-0.9c-2.9,0-5.2,2.3-5.2,5.2c0,2.4,1.7,4.5,4,5.1v32.1H3.3V60h12.1v-1.8h-5.2L10.4,26L10.4,26z"/>
	<path class="st0" d="M9.7,13.8V12c-4.9,0-8.9,4-8.9,8.9h1.8C2.7,16.9,5.8,13.8,9.7,13.8z"/>
	<path class="st0" d="M28.1,6.5l1.7-0.6C28.6,2.4,25.3,0,21.5,0v1.8C24.4,1.8,27.1,3.7,28.1,6.5z"/>
	<path class="st0" d="M53.6,50.5c1.7-1.7,2.7-4,2.7-6.3c0-0.6-0.4-0.9-0.9-0.9c-2.9,0-5.5,1.4-7.2,3.5v-2c1.6-1.7,2.4-3.8,2.4-6.1
		c0-2.4-0.9-4.7-2.7-6.3c-0.4-0.4-0.9-0.4-1.3,0c-3.4,3.4-3.5,8.9-0.3,12.4v2c-0.3-0.4-0.5-0.6-0.8-0.9c-1.7-1.7-4-2.7-6.3-2.7
		c-0.5,0-0.9,0.4-0.9,0.9c0,4.6,3.6,8.5,8.1,8.9v4.9H27.9V53c2-0.2,4-1.1,5.4-2.6c1.7-1.7,2.7-4,2.7-6.3c0-0.6-0.4-0.9-0.9-0.9
		c-2.9,0-5.5,1.4-7.2,3.5v-2c1.6-1.7,2.4-3.8,2.4-6.1c0-2.4-0.9-4.7-2.7-6.3c-0.4-0.4-0.9-0.4-1.3,0c-3.4,3.4-3.5,8.9-0.3,12.4v2
		c-0.3-0.4-0.5-0.6-0.8-0.9c-1.7-1.7-4-2.7-6.3-2.7c-0.5,0-0.9,0.4-0.9,0.9c0,4.6,3.6,8.5,8.1,8.9v4.9h-7.3v1.8h33.9v-1.8h-4.5v-4.9
		C50.2,52.9,52.1,52,53.6,50.5z"/>
	<rect x="35.3" y="26" class="st0" width="1.8" height="2.9"/>
	<rect x="32.2" y="29.8" class="st0" width="1.8" height="2.9"/>
	<rect x="35.3" y="32.9" class="st0" width="1.8" height="2.9"/>
	<rect x="50.3" y="8.7" class="st0" width="1.8" height="2.8"/>
	<rect x="50.3" y="15.9" class="st0" width="1.8" height="2.8"/>
	<rect x="53.4" y="12.8" class="st0" width="2.8" height="1.8"/>
	<rect x="46.2" y="12.8" class="st0" width="2.8" height="1.8"/>
	<rect x="54.8" y="58" class="st0" width="4.4" height="1.8"/>
</g>
</svg>
