<?xml version="1.0" encoding="utf-8"?>
<!-- Generator: Adobe Illustrator 25.2.3, SVG Export Plug-In . SVG Version: 6.00 Build 0)  -->
<svg version="1.1" id="圖層_1" xmlns="http://www.w3.org/2000/svg" xmlns:xlink="http://www.w3.org/1999/xlink" x="0px" y="0px"
	 viewBox="0 0 60 60" style="enable-background:new 0 0 60 60;" xml:space="preserve">
<style type="text/css">
	.st0{fill:#25AF8F;}
</style>
<g>
	<path class="st0" d="M59.5,12.3c-1-2.1-3.3-3.3-5.6-2.9c-6,1-11.7,3.6-16.4,7.5L37,17.3c0-0.1,0-0.3,0-0.4c0-1.3-0.4-2.6-1-3.7
		c-0.2-1.7-1.1-3.3-2.6-4.3c0.8-1.5,2.2-2.6,3.9-2.9l1-0.2c0.5-0.1,0.9-0.6,0.8-1.2c-0.1-0.5-0.6-0.9-1.2-0.8l-1,0.2
		c-2.3,0.5-4.2,2-5.3,4c-1.1-0.3-2.2-0.3-3.2,0c-1-2.1-3-3.6-5.3-4l-1-0.2C21.6,3.7,21,4,20.9,4.6c-0.1,0.5,0.2,1.1,0.8,1.2l1,0.2
		c1.7,0.3,3.1,1.4,3.9,2.9c-1.4,1-2.4,2.6-2.6,4.3c-0.7,1.1-1,2.4-1,3.7c0,0.1,0,0.3,0,0.4l-0.5-0.4C17.8,13,12.1,10.4,6.1,9.4
		c-2.9-0.5-5.6,1.5-6,4.3C0,14.4,0,15.1,0.2,15.8c0.9,3.4,3.6,6,7,6.8l0.6,0.8c2.3,2.7,5.7,4.3,9.2,4.3c0.9,0,1.8-0.1,2.6-0.3
		c0.5-0.1,1-0.3,1.5-0.4c0.4,1.8,1.4,3.4,2.7,4.6c-3.8,3-4.8,8.5-2.2,12.6l1.2,2c1,1.6,2.6,2.9,4.4,3.5l1.6,5.7
		c0.2,0.5,0.7,0.8,1.2,0.7c0.3-0.1,0.6-0.4,0.7-0.7l1.6-5.7c1.8-0.6,3.4-1.8,4.4-3.5l1.2-2c2.6-4.1,1.7-9.6-2.2-12.6
		c0,0,0,0,0.1-0.1c1.3-1.2,2.2-2.8,2.7-4.6c0.5,0.2,1,0.3,1.5,0.4c0.9,0.2,1.7,0.3,2.6,0.3c3.6,0,7-1.6,9.2-4.3l0.6-0.8
		c3.4-0.8,6.1-3.4,7-6.8C60.1,14.7,60,13.4,59.5,12.3z M57.6,13.1C57.7,13.1,57.7,13.1,57.6,13.1c0.3,0.7,0.4,1.5,0.3,2.2l-7.5,2.5
		l-1.1-1.1l0.5-1L57.6,13.1z M54.2,11.4c0.6-0.1,1.2,0,1.7,0.2L48.8,14c-0.3,0.1-0.5,0.3-0.6,0.5l-0.8,1.6l-9.7,3.2l1-0.9
		C43.2,14.7,48.6,12.3,54.2,11.4z M33.6,12.1c-1,0.3-1.6,1.4-1.3,2.4c0.3,1,1.4,1.6,2.4,1.3c0.1,0,0.1,0,0.2-0.1
		C35,16,35,16.5,35,16.9c0,0.2,0,0.3,0,0.5c-3-2-7-2-10,0c0-0.2,0-0.3,0-0.5c0-0.5,0.1-0.9,0.2-1.4c0.9,0.5,2.1,0.2,2.6-0.7
		s0.2-2.1-0.7-2.6c-0.2-0.1-0.4-0.2-0.6-0.2c1-2,3.5-2.7,5.4-1.7C32.6,10.7,33.2,11.3,33.6,12.1L33.6,12.1z M5.2,11.3
		c0.2,0,0.4,0,0.5,0c5.7,0.9,11,3.4,15.4,7.1l1,0.9l-9.7-3.2l-0.8-1.6c-0.1-0.2-0.3-0.4-0.6-0.5l-7-2.5C4.4,11.4,4.8,11.3,5.2,11.3z
		 M2.1,15.3c-0.2-0.7-0.1-1.4,0.2-2.1c0,0,0,0,0-0.1l7.8,2.6l0.5,1l-1.1,1.1L2.1,15.3z M3.2,17.8l6.3,2.1c0.4,0.1,0.8,0,1-0.2
		l1.6-1.6l8.6,2.9H9.3C6.9,20.9,4.6,19.7,3.2,17.8z M10,22.9h5.8L14,25.3C12.6,24.9,11.2,24.1,10,22.9L10,22.9z M19.2,25.5
		c-1,0.2-1.9,0.3-2.9,0.2l2.1-2.8h5.7l-0.8,0.6C22.1,24.5,20.7,25.2,19.2,25.5L19.2,25.5z M37.6,38.1c0.1,0.6,0.1,1.3,0,2H22.3
		c-0.1-0.6-0.1-1.3,0-2c0,0,0,0,0-0.1L37.6,38.1L37.6,38.1z M36.6,43.2L36,44.1H24l-0.6-0.9c-0.2-0.4-0.4-0.7-0.6-1.1h14.3
		C37,42.5,36.8,42.9,36.6,43.2z M30,51.5l-0.4-1.4c0.1,0,0.3,0,0.4,0s0.3,0,0.4,0L30,51.5z M30,48.1c-0.5,0-1-0.1-1.5-0.2
		c0,0,0,0-0.1,0c-1.2-0.3-2.2-0.9-3-1.8h9.2C33.4,47.4,31.8,48.2,30,48.1z M37,36H23c0.6-1.3,1.5-2.4,2.7-3.1c2.7,1.5,6,1.5,8.7,0
		C35.5,33.7,36.4,34.8,37,36z M30,32c-3.4,0-6.4-2.5-7-5.8c0.5-0.3,1-0.6,1.5-1l3-2.4c0.4-0.3,0.5-1,0.2-1.4c0-0.1-0.1-0.1-0.1-0.1
		l-2-1.7c2.6-2.1,6.3-2.1,8.8,0l-2,1.7c-0.1,0-0.1,0.1-0.1,0.1c-0.3,0.4-0.3,1.1,0.2,1.4l0,0l3,2.4c0.5,0.4,1,0.7,1.5,1
		C36.3,29.5,33.4,32,30,32z M40.8,25.5c-1.5-0.3-2.9-1-4.1-2l-0.8-0.6h5.7l2.1,2.8C42.7,25.8,41.7,25.8,40.8,25.5z M45.9,25.3
		l-1.8-2.4H50C48.8,24.1,47.4,24.9,45.9,25.3L45.9,25.3z M50.7,20.9H39.2l8.6-2.9l1.6,1.6c0.3,0.3,0.7,0.4,1,0.2l6.3-2.1
		C55.4,19.7,53.1,20.9,50.7,20.9z"/>
	<path class="st0" d="M26,25c-0.6,0-1,0.5-1,1v1c0,0.6,0.5,1,1,1s1-0.5,1-1v-1C27,25.4,26.5,25,26,25z"/>
	<path class="st0" d="M30,23.9c-0.6,0-1,0.5-1,1v1c0,0.6,0.5,1,1,1c0.6,0,1-0.5,1-1v-1C31,24.4,30.6,23.9,30,23.9z"/>
	<path class="st0" d="M34,25c-0.6,0-1,0.5-1,1v1c0,0.6,0.5,1,1,1s1-0.5,1-1v-1C35,25.4,34.6,25,34,25z"/>
</g>
<g>
	<g>
		<path class="st0" d="M47.4,54.2c0,0.7,0.5,1.2,1.2,1.2c0.7,0,1.2-0.5,1.2-1.2l0,0v-0.6l-2.4-0.1V54.2z"/>
		<rect x="47.5" y="51.1" class="st0" width="2.4" height="1.2"/>
		<path class="st0" d="M52.3,52.4c1,1,2.5,0.9,3.4,0c0.9-0.9,0.9-2.5,0-3.4c-0.8-0.8-4.3-1.9-5.9-1.5l0.1-0.6c0-0.7-0.5-1.2-1.2-1.2
			c-0.7,0-1.2,0.5-1.2,1.2v0.6c-1.6-0.3-5.1,0.7-5.9,1.5c-1,1-0.9,2.5,0,3.4c0.9,0.9,2.5,0.9,3.4,0c0.7-0.7,2.6-2.5,3-3.7h1.1
			C49.8,49.9,51.6,51.7,52.3,52.4z"/>
	</g>
	<g>
		<path class="st0" d="M47.4,40.5c0,0.7,0.5,1.2,1.2,1.2c0.7,0,1.2-0.5,1.2-1.2l0,0V40l-2.4-0.1V40.5z"/>
		<rect x="47.5" y="37.4" class="st0" width="2.4" height="1.2"/>
		<path class="st0" d="M52.3,38.8c1,1,2.5,0.9,3.4,0c0.9-0.9,0.9-2.5,0-3.4c-0.8-0.8-4.3-1.9-5.9-1.5l0.1-0.6c0-0.7-0.5-1.2-1.2-1.2
			c-0.7,0-1.2,0.5-1.2,1.2v0.6c-1.6-0.3-5.1,0.7-5.9,1.5c-1,1-0.9,2.5,0,3.4c0.9,0.9,2.5,0.9,3.4,0c0.7-0.7,2.6-2.5,3-3.7h1.1
			C49.8,36.2,51.6,38,52.3,38.8z"/>
	</g>
</g>
<g>
	<g>
		<path class="st0" d="M9,54.2c0,0.7,0.5,1.2,1.2,1.2s1.2-0.5,1.2-1.2l0,0v-0.6L9,53.5V54.2z"/>
		<rect x="9" y="51.1" class="st0" width="2.4" height="1.2"/>
		<path class="st0" d="M13.8,52.4c1,1,2.5,0.9,3.4,0c0.9-0.9,0.9-2.5,0-3.4c-0.8-0.8-4.3-1.9-5.9-1.5l0.1-0.6c0-0.7-0.5-1.2-1.2-1.2
			S9,46.1,9,46.8v0.6C7.4,47,4,48.1,3.2,48.9c-1,1-0.9,2.5,0,3.4s2.5,0.9,3.4,0c0.7-0.7,2.6-2.5,3-3.7h1.1
			C11.3,49.9,13.1,51.7,13.8,52.4z"/>
	</g>
	<g>
		<path class="st0" d="M9,40.5c0,0.7,0.5,1.2,1.2,1.2s1.2-0.5,1.2-1.2l0,0V40L9,39.8V40.5z"/>
		<rect x="9" y="37.4" class="st0" width="2.4" height="1.2"/>
		<path class="st0" d="M13.8,38.8c1,1,2.5,0.9,3.4,0s0.9-2.5,0-3.4c-0.8-0.8-4.3-1.9-5.9-1.5l0.1-0.6c0-0.7-0.5-1.2-1.2-1.2
			S9,32.5,9,33.1v0.6c-1.6-0.3-5.1,0.7-5.9,1.5c-1,1-0.9,2.5,0,3.4c0.9,0.9,2.5,0.9,3.4,0c0.7-0.7,2.6-2.5,3-3.7h1.1
			C11.3,36.2,13.1,38,13.8,38.8z"/>
	</g>
</g>
</svg>
