<?xml version="1.0" encoding="utf-8"?>
<!-- Generator: Adobe Illustrator 25.2.1, SVG Export Plug-In . SVG Version: 6.00 Build 0)  -->
<svg version="1.1" id="圖層_1" xmlns="http://www.w3.org/2000/svg" xmlns:xlink="http://www.w3.org/1999/xlink" x="0px" y="0px"
	 viewBox="0 0 60 60" style="enable-background:new 0 0 60 60;" xml:space="preserve">
<style type="text/css">
	.st0{fill:#25AF8F;}
</style>
<g>
	<path class="st0" d="M31,11.6c0.5,0,1-0.4,1-1V6.8h-3.9v3.9c0,0.5,0.4,1,1,1H31z"/>
	<path class="st0" d="M48.4,11.6c0.5,0,1-0.4,1-1V6.8h-3.9v3.9c0,0.5,0.4,1,1,1H48.4z"/>
	<path class="st0" d="M11.6,11.6h1.9c0.5,0,1-0.4,1-1V6.8h-3.9v3.9C10.6,11.2,11.1,11.6,11.6,11.6z"/>
	<path class="st0" d="M8.7,44.5h1v8.7H5.8v1.9h9.7v-1.9h-3.9v-4.8h1c7.7,0,7.7-7.7,7.7-7.7c-4.9,0-7.5,2-8.7,4.1v-8h1
		c1.6,0,3.1-0.7,4.2-1.8c-0.6-1.2-0.9-2.6-1.1-3.9c-1.7,0.2-3.1,1.2-4,2.6V29c0-3.2-2.6-5.8-5.8-5.8H3.9c0,3.2,2.6,5.8,5.8,5.8v11.9
		c-1.2-2.2-3.8-4.1-8.7-4.1C1,36.8,1,44.5,8.7,44.5z"/>
	<rect y="57.1" class="st0" width="60" height="1.9"/>
	<path class="st0" d="M51.3,44.5c7.7,0,7.7-7.7,7.7-7.7c-4.9,0-7.5,2-8.7,4.1V29c3.2,0,5.8-2.6,5.8-5.8h-1.9c-3.2,0-5.8,2.6-5.8,5.8
		v4.6c-0.9-1.4-2.3-2.3-4-2.6c-0.2,1.4-0.6,2.7-1.1,3.9c1.1,1.1,2.5,1.8,4.2,1.8h1v8c-1.2-2.2-3.8-4.1-8.7-4.1c0,0,0,7.7,7.7,7.7h1
		v4.8h-3.9v1.9h9.7v-1.9h-3.9v-8.7H51.3z"/>
	<rect y="49.4" class="st0" width="7.7" height="1.9"/>
	<rect x="17.4" y="49.4" class="st0" width="25.2" height="1.9"/>
	<rect x="52.3" y="49.4" class="st0" width="7.7" height="1.9"/>
	<rect x="1.9" y="1" class="st0" width="56.1" height="3.9"/>
	<path class="st0" d="M32.2,22.5l-0.5-0.2h-3.4l-0.5,0.2c-0.7,0.3-1.2,0.7-1.8,1.2l2.4,2.4h7.4C35.1,24.6,33.8,23.3,32.2,22.5z"/>
	<path class="st0" d="M24.2,26.1h1.6l-1-1C24.5,25.5,24.3,25.8,24.2,26.1z"/>
	<path class="st0" d="M30,41.6c3.1,0,6-1.1,8.2-3l-1.9-1.9c-0.2,0.2-0.4,0.5-0.6,0.7c-1.5,1.5-3.5,2.3-5.6,2.3s-4.1-0.8-5.6-2.3
		c-1-1-1.8-2.2-2.3-3.5h-2.7v-1.9h2.1c-0.1-0.6-0.2-1.3-0.2-1.9h-1.9v-1.9h2.1c0.1-0.7,0.3-1.3,0.6-1.9h-2.7v-1.9h3.7
		c0.1-0.1,0.2-0.3,0.3-0.4l-3-3c-1.9,2.3-3,5.2-3,8.2C17.4,36,23.1,41.6,30,41.6z"/>
	<path class="st0" d="M23.2,29.9c0,2.3,0.9,4.4,2.5,6c0.9,0.9,2.1,1.5,3.3,1.7v-8.2l-1.4-1.4h-4.2C23.3,28.7,23.2,29.3,23.2,29.9z"
		/>
	<path class="st0" d="M34.9,35.3L31,31.4v6.3c1.2-0.2,2.4-0.8,3.3-1.7C34.5,35.8,34.7,35.5,34.9,35.3z"/>
	<path class="st0" d="M21.7,19.4l2.9,2.9c0.7-0.6,1.4-1.1,2.3-1.6l0.1-0.1v-1.3c0-1.6,1.3-2.9,2.9-2.9s2.9,1.3,2.9,2.9v1.3l0.1,0.1
		c1.6,0.8,2.9,2,3.9,3.4h3.7v1.9H38c0.2,0.6,0.4,1.3,0.6,1.9h2.1V30h-1.9c0,0.7-0.1,1.3-0.2,1.9h2.1v1.9h-2.7
		c-0.2,0.4-0.4,0.8-0.6,1.2l2.2,2.2c1.9-2.2,3-5.1,3-8.2c0-4-1.8-7.7-5-10.2l-7.6-6l-7.6,6C22.2,19,21.9,19.2,21.7,19.4z"/>
	<path class="st0" d="M36.8,29.9c0-0.6-0.1-1.3-0.2-1.9H31v0.6l5,5C36.5,32.5,36.8,31.2,36.8,29.9z"/>
	<path class="st0" d="M30,18.4c-0.5,0-1,0.4-1,1v1H31v-1C31,18.8,30.5,18.4,30,18.4z"/>
	<rect x="1.9" y="15.5" transform="matrix(0.6 -0.8 0.8 0.6 -10.4516 12)" class="st0" width="9.7" height="1.9"/>
	<rect x="16" y="12.1" transform="matrix(0.7999 -0.6002 0.6002 0.7999 -5.3224 13.0699)" class="st0" width="1.9" height="4.8"/>
	<rect x="52.3" y="11.6" transform="matrix(0.8 -0.6 0.6 0.8 0.7742 35.2258)" class="st0" width="1.9" height="9.7"/>
	<rect x="40.6" y="13.5" transform="matrix(0.6 -0.8 0.8 0.6 5.6129 40.2581)" class="st0" width="4.8" height="1.9"/>
</g>
</svg>
