<?xml version="1.0" encoding="utf-8"?>
<!-- Generator: Adobe Illustrator 25.2.3, SVG Export Plug-In . SVG Version: 6.00 Build 0)  -->
<svg version="1.1" id="圖層_1" xmlns="http://www.w3.org/2000/svg" xmlns:xlink="http://www.w3.org/1999/xlink" x="0px" y="0px"
	 viewBox="0 0 60 60" style="enable-background:new 0 0 60 60;" xml:space="preserve">
<style type="text/css">
	.st0{fill:#25AF8F;}
</style>
<g>
	<path class="st0" d="M48.3,38.9l2.9-20.8c1.5-0.3,2.6-1.7,2.6-3.3c0-1.8-1.5-3.3-3.3-3.3h-5.8C41.9,6,35.4,0.1,30,0
		c-5.4,0.1-11.9,6-14.7,11.5H9.5c-1.8,0-3.3,1.5-3.3,3.3c0,1.5,1,2.8,2.5,3.2l2.9,20.9c0.2,1.4,0.9,2.7,1.9,3.7
		c-1.2,1.8-1.9,4-1.9,6.2v8.7c0,1.3,1.1,2.4,2.4,2.4h6.6h18.9H46c1.3,0,2.4-1.1,2.4-2.4v-8.7c0-2.3-0.7-4.5-2-6.3
		C47.4,41.5,48.1,40.3,48.3,38.9z M46.3,38.6c-0.1,0.9-0.5,1.7-1.1,2.3c-1.4-1.4-3.2-2.4-5.2-2.7c-0.9-0.1-1.9-0.5-3-1l-0.9-0.4
		c-0.1-0.1-0.3-0.1-0.5-0.1l-0.1-1.6c2.3-1.6,4.1-4.3,4.8-7.5c1.6-0.4,2.8-2.1,2.8-4.1c0-1.6-0.8-3-1.9-3.7c0.1-0.4,0.1-0.9,0.2-1.3
		c0-0.1,0-0.2,0-0.3h7.6L46.3,38.6z M21.4,26.6C21.4,26.6,21.4,26.6,21.4,26.6C21.4,26.5,21.4,26.5,21.4,26.6c0-0.1,0-0.1,0-0.1
		c0-0.1-0.1-0.2-0.1-0.3c0,0,0,0,0,0c-0.1-0.1-0.1-0.2-0.2-0.2c0,0,0,0,0,0c-0.1-0.1-0.2-0.1-0.3-0.1c0,0,0,0,0,0
		c-0.1,0-0.2,0-0.3,0c0,0,0,0,0,0c-0.9,0-1.6-1-1.6-2.2c0-1,0.5-1.9,1.3-2.2c0.1,0,0.1-0.1,0.2-0.1c0.3,0,0.7,0,1,0
		c0.1,0,0.2,0,0.4,0c3.2-0.1,6.2-1.1,8.9-3.1h3.9l0.5,0.4c1.3,1.1,2.8,2,4.4,2.5l0.6,0.2c0,0,0,0,0,0c0.7,0.2,1.3,1.1,1.3,2.2
		c0,1.2-0.7,2.2-1.6,2.2c0,0,0,0,0,0c-0.1,0-0.2,0-0.3,0c0,0,0,0,0,0c-0.1,0-0.2,0.1-0.3,0.1c0,0,0,0,0,0c-0.1,0.1-0.2,0.1-0.2,0.2
		c0,0,0,0,0,0c-0.1,0.1-0.1,0.2-0.1,0.3c0,0,0,0,0,0c0,0,0,0,0,0c0,0,0,0,0,0c-0.8,4.8-4.4,8.4-8.6,8.4
		C25.9,34.9,22.2,31.4,21.4,26.6z M20.6,19.3l-0.1-1.1h6.1c-1.6,0.7-3.2,1.1-5,1.1C21.2,19.3,20.9,19.3,20.6,19.3z M39.5,18.3
		c0,0.3-0.1,0.5-0.1,0.8c-0.6-0.2-1.2-0.5-1.8-0.9L39.5,18.3C39.5,18.2,39.5,18.2,39.5,18.3z M26.3,36.2c1.2,0.5,2.4,0.8,3.7,0.8
		c1.3,0,2.6-0.3,3.7-0.8l0.1,1.2c-1,0.4-2.4,0.8-3.8,0.8c-1.4,0-2.8-0.4-3.8-0.8L26.3,36.2z M9.5,13.5h6.3c0,0,0,0,0,0h4.7
		c0.6,0,1-0.4,1-1s-0.4-1-1-1h-3c2.9-5,8.6-9.4,12.4-9.5c1.6,0,3.6,0.8,5.6,2.2c-0.1,0.1-0.1,0.3-0.1,0.5c0,0.6,0.4,1,1,1h1.1
		c0.5,0.5,1.1,0.9,1.6,1.5h-0.6c-0.6,0-1,0.4-1,1s0.4,1,1,1h2.3c0,0,0,0,0.1,0c0.6,0.8,1.2,1.6,1.6,2.4H24.8c-0.6,0-1,0.4-1,1
		s0.4,1,1,1h19.3c0,0,0,0,0,0c0,0,0,0,0,0h6.4c0.7,0,1.3,0.6,1.3,1.3c0,0.7-0.6,1.3-1.3,1.3h-0.1h-9.6c0,0-0.1,0-0.1,0
		c0,0-0.1,0-0.1,0h-31c-0.7,0-1.3-0.6-1.3-1.3C8.2,14.1,8.8,13.5,9.5,13.5z M10.7,18.2h7.8l0.2,1.6c-1.1,0.7-1.9,2.1-1.9,3.7
		c0,2,1.2,3.7,2.8,4.1c0.7,3.1,2.4,5.8,4.8,7.4l-0.1,1.6c-0.2,0-0.3,0-0.5,0.1l-0.9,0.4c-1.1,0.5-2.1,0.9-3,1
		c-2,0.3-3.8,1.4-5.2,2.8c-0.6-0.6-1-1.5-1.2-2.4L10.7,18.2z M36.1,58v-0.7c0-0.6-0.4-1-1-1s-1,0.4-1,1V58h-1.5
		c-0.1-0.5-0.5-0.8-1-0.8s-0.9,0.4-1,0.8h-9.2v-2.2c0-0.6-0.4-1-1-1c-0.6,0-1,0.4-1,1V58h-0.8v-3.4c0-0.6-0.4-1-1-1
		c-0.6,0-1,0.4-1,1V58H14c-0.2,0-0.4-0.2-0.4-0.4v-8.7c0-1.8,0.6-3.6,1.6-5.1c0.8,0.4,1.6,0.6,2.5,0.6h3.4c0.6,0,1-0.4,1-1
		s-0.4-1-1-1h-3.4c-0.4,0-0.8-0.1-1.1-0.2c1.1-1,2.4-1.7,3.8-2c0.7-0.1,1.4-0.3,2.1-0.6v7.9c-1.6,0.4-2.8,1.9-2.8,3.7v1.7
		c0,0.6,0.4,1,1,1c0.6,0,1-0.4,1-1v-1.7c0-1,0.8-1.8,1.8-1.8h13.3c1,0,1.8,0.8,1.8,1.8V58H36.1z M46.5,48.8v8.7
		c0,0.2-0.2,0.4-0.4,0.4h-2.8v-3.4c0-0.6-0.4-1-1-1s-1,0.4-1,1V58h-0.8v-6.8c0-1.8-1.2-3.3-2.8-3.7v-1.8c0-0.6-0.4-1-1-1s-1,0.4-1,1
		v1.7H24.4v-8.5c1.1,0.5,3.3,1.4,5.6,1.4c2.3,0,4.6-0.9,5.6-1.4V41c0,0.6,0.4,1,1,1c0.6,0,1-0.4,1-1v-1.4c0.7,0.3,1.4,0.5,2.1,0.6
		c1.4,0.2,2.7,0.9,3.8,1.9c-0.4,0.1-0.8,0.2-1.2,0.2H26.3c-0.6,0-1,0.4-1,1s0.4,1,1,1h15.9c0.9,0,1.8-0.2,2.6-0.6
		C45.9,45.2,46.5,47,46.5,48.8z"/>
</g>
<g>
	<path class="st0" d="M49.6,8.3c0,0.6,0.5,1.1,1.1,1.1s1.1-0.5,1.1-1.1l0,0V7.8l-2.1-0.1V8.3z"/>
	<rect x="49.7" y="5.5" class="st0" width="2.1" height="1.1"/>
	<path class="st0" d="M53.9,6.7c0.9,0.9,2.2,0.8,3,0s0.8-2.2,0-3C56.3,3,53.2,2,51.8,2.3l0.1-0.6c0-0.6-0.5-1.1-1.1-1.1
		c-0.6,0-1.1,0.5-1.1,1.1v0.5c-1.4-0.3-4.5,0.7-5.2,1.4c-0.9,0.9-0.8,2.2,0,3c0.8,0.8,2.2,0.8,3,0c0.6-0.6,2.3-2.2,2.7-3.3h1
		C51.7,4.5,53.3,6,53.9,6.7z"/>
</g>
<g>
	<path class="st0" d="M7.4,46.2c0,0.6,0.5,1.1,1.1,1.1s1.1-0.5,1.1-1.1l0,0v-0.5l-2.1-0.1V46.2z"/>
	<rect x="7.4" y="43.5" class="st0" width="2.1" height="1.1"/>
	<path class="st0" d="M11.7,44.6c0.9,0.9,2.2,0.8,3,0c0.8-0.8,0.8-2.2,0-3c-0.7-0.7-3.8-1.7-5.2-1.4l0.1-0.6c0-0.6-0.5-1.1-1.1-1.1
		s-1.1,0.5-1.1,1.1v0.5c-1.4-0.3-4.5,0.7-5.2,1.4c-0.9,0.9-0.8,2.2,0,3c0.8,0.8,2.2,0.8,3,0C5.9,44,7.6,42.4,8,41.3h1
		C9.5,42.4,11,44,11.7,44.6z"/>
</g>
<g>
	<path class="st0" d="M50.8,55c0,0.6,0.5,1.1,1.1,1.1s1.1-0.5,1.1-1.1l0,0v-0.5l-2.1-0.1V55z"/>
	<rect x="50.8" y="52.3" class="st0" width="2.1" height="1.1"/>
	<path class="st0" d="M55.1,53.4c0.9,0.9,2.2,0.8,3,0c0.8-0.8,0.8-2.2,0-3c-0.7-0.7-3.8-1.7-5.2-1.4l0.1-0.6c0-0.6-0.5-1.1-1.1-1.1
		c-0.6,0-1.1,0.5-1.1,1.1V49c-1.4-0.3-4.5,0.7-5.2,1.4c-0.9,0.9-0.8,2.2,0,3c0.8,0.8,2.2,0.8,3,0c0.6-0.6,2.3-2.2,2.7-3.3h1
		C52.8,51.2,54.4,52.8,55.1,53.4z"/>
</g>
</svg>
