<?xml version="1.0" encoding="utf-8"?>
<!-- Generator: Adobe Illustrator 25.2.3, SVG Export Plug-In . SVG Version: 6.00 Build 0)  -->
<svg version="1.1" id="圖層_1" xmlns="http://www.w3.org/2000/svg" xmlns:xlink="http://www.w3.org/1999/xlink" x="0px" y="0px"
	 viewBox="0 0 60 60" style="enable-background:new 0 0 60 60;" xml:space="preserve">
<style type="text/css">
	.st0{fill:#25AF8F;}
</style>
<g>
	<path class="st0" d="M15.5,24.9h3.5c0.4,0,0.8-0.4,0.8-0.8v-4c0-0.4-0.4-0.8-0.8-0.8h-3.5c-0.4,0-0.8,0.4-0.8,0.8v4
		C14.7,24.5,15,24.9,15.5,24.9z"/>
	<path class="st0" d="M31.8,42.9h5.6c-0.2-0.6-0.3-1.3-0.4-2h-4.2V26.4h10.8H44v2.9c0.6-0.3,1.3-0.4,2-0.6v-2.4v0h0l0,0h2.1
		c0.3,0,0.5-0.3,0.3-0.6l-1.2-2.1l-3.5-6.2c-1.5-2.8-4-4.9-6.9-6.2c-1.7-0.7-3.6-1.1-5.5-1.1H17.2c0,0-0.1,0-0.1,0
		c-1.8,0-3.6,0.3-5.3,1l-0.2,0.1c-3,1.2-5.5,3.4-7,6.2l-3.3,6l-0.1,0.1c0,0,0,0,0,0l-1.1,2.1c-0.1,0.3,0,0.6,0.4,0.6h2.1l0,0
		c0,0,0,0,0,0v0v15.5c0,0.6,0.4,1,1,1h27.9L31.8,42.9L31.8,42.9z M4.5,25.1l0.3-0.5l2.9-5.3c1.2-2.1,3-3.7,5.2-4.6l0.2-0.1
		c2.6-1.1,5.5-1,8.1,0c2.2,0.9,4,2.5,5.1,4.6l3,5.3l0.5,0.9c0,0,0,0.1,0.1,0.1s0,0.1,0.1,0.1c0.1,0.1,0.1,0.2,0.2,0.2
		c0.1,0.1,0.2,0.1,0.2,0.2c0,0,0,0,0.1,0c0.1,0,0.2,0.1,0.2,0.1c0,0,0,0,0,0c0,0,0.1,0,0.1,0v14.6h-7.2v-9.8c0-0.6-0.4-1-1-1h-11
		c-0.6,0-1,0.4-1,1v9.8h-6V25.1z M21.6,39.5l-7.3-7.4h7.3C21.6,32.2,21.6,39.5,21.6,39.5z M20.2,40.9h-7.6v-7.6L20.2,40.9z"/>
	<path class="st0" d="M48.1,41.8c1.2,0,2.2-1,2.2-2.1c0-1.2-1-2.1-2.2-2.1c-1.2,0-2.2,1-2.2,2.1C45.9,40.8,46.9,41.8,48.1,41.8z"/>
	<path class="st0" d="M59,47.8h-5.6c2.6-1.7,4.4-4.7,4.4-8.1c0-5.3-4.4-9.7-9.8-9.7s-9.8,4.3-9.8,9.7c0,3.4,1.8,6.4,4.4,8.1H31.6
		c-0.6,0-1,0.4-1,1c0,0.6,0.4,1,1,1H59c0.6,0,1-0.4,1-1S59.6,47.8,59,47.8z M41.1,39.7c0-3.8,3.1-6.9,7-6.9c3.8,0,7,3.1,7,6.9
		c0,3.8-3.1,6.9-7,6.9C44.2,46.6,41.1,43.5,41.1,39.7z"/>
	<path class="st0" d="M27.4,47.8h-2.2c-0.6,0-1,0.4-1,1c0,0.6,0.4,1,1,1h2.2c0.6,0,1-0.4,1-1S27.9,47.8,27.4,47.8z"/>
</g>
</svg>
