<?xml version="1.0" encoding="utf-8"?>
<!-- Generator: Adobe Illustrator 25.2.1, SVG Export Plug-In . SVG Version: 6.00 Build 0)  -->
<svg version="1.1" id="圖層_1" xmlns="http://www.w3.org/2000/svg" xmlns:xlink="http://www.w3.org/1999/xlink" x="0px" y="0px"
	 viewBox="0 0 60 60" style="enable-background:new 0 0 60 60;" xml:space="preserve">
<style type="text/css">
	.st0{fill:#25AF8F;}
</style>
<g>
	<path class="st0" d="M50,18.9c2.5,0,4.5-2,4.5-4.5L54.2,3.6c0-0.3-0.3-0.6-0.6-0.6h0c-0.3,0-0.6,0.3-0.6,0.6l-0.4,10.8
		c0,1.4-1.1,2.5-2.5,2.5c-0.3,0-0.5-0.1-0.7-0.3c-0.2-0.2-0.3-0.4-0.3-0.7L48.6,3.6C48.6,3.3,48.3,3,48,3c-0.3,0-0.6,0.3-0.6,0.6
		L47,15.9c0,0.6-0.5,1-1,1c-0.7,0-1.3-0.3-1.8-0.7c-0.5-0.4-0.7-1.1-0.7-1.8L43.1,3.6c0-0.3-0.3-0.6-0.6-0.6h0
		c-0.3,0-0.6,0.3-0.6,0.6l-0.4,10.8c0,2.5,2,4.5,4.5,4.5h0.6v16.7h-0.5c-0.1-0.1-0.1-0.1-0.2-0.1c0,0,0,0-0.1,0c0,0-0.1,0-0.1-0.1
		c0,0,0,0-0.1,0s0,0-0.1,0c0,0-0.1,0-0.1,0c0,0-0.1,0-0.1,0h0c-0.1,0-0.2,0-0.3,0H42L40,26c0,0,0,0,0-0.1c-0.8-2.9-2.9-5.2-5.6-6.4
		c0,0-0.1,0-0.1,0c0,0-0.1,0-0.1,0c0,0-0.1,0-0.1,0c-0.6-0.2-1.2-0.4-1.8-0.5v39.7c0,0.8,0.7,1.4,1.5,1.4c0.8,0,1.3-0.7,1.3-1.5
		V40.8c1.3,1.6,3.3,2.7,5.5,2.7h4.5c0.4,0,0.7-0.2,1-0.4h0.5v15.5c0,0.7,0.5,1.3,1.1,1.4c0.9,0.2,1.7-0.5,1.7-1.4V43
		c1.8-0.3,3.1-1.8,3.1-3.7s-1.3-3.3-3.1-3.7V18.9H50z M50.5,39.3c0,1-0.8,1.7-1.8,1.7h-2.2v-3.5h2.2C49.7,37.6,50.5,38.3,50.5,39.3z
		"/>
	<path class="st0" d="M23.2,53.4c-0.8,0-1.4,0.6-1.4,1.4v3.8c0,0.8,0.6,1.4,1.4,1.4c0.8,0,1.4-0.6,1.4-1.4v-3.8
		C24.6,54,24,53.4,23.2,53.4z"/>
	<path class="st0" d="M31.8,8.5V5.8c0-0.8-0.1-1.6-0.2-2.4l0-0.1c-0.2-1.1-0.8-2-1.8-2.6c-0.9-0.6-2.1-0.8-3.2-0.5l-2.5,0.6
		c-0.6,0.2-1.2,0.2-1.8,0l-2.5-0.6c-1.1-0.3-2.2-0.1-3.2,0.5c-0.9,0.6-1.6,1.6-1.8,2.6c-0.2,0.8-0.2,1.6-0.2,2.5v2.7c0,0,0,0,0,0.1
		c-3.1,0.7-5.3,1.4-5.3,3.1c0,1.8,2.3,2.4,5.6,3.2c0.1,0,0.1,0,0.2,0c0.1,0.8,0.7,1.4,1.5,1.5c0.1,0.2,0.1,0.5,0.2,0.9
		c0.4,1.5,1.4,2.7,2.7,3.4l0.9,0.5c0.8,0.4,1.7,0.6,2.6,0.6s1.8-0.2,2.6-0.6l0.9-0.5c1.3-0.7,2.3-2,2.7-3.4c0.1-0.4,0.2-0.7,0.2-0.9
		c0.8-0.1,1.4-0.7,1.5-1.5c0.1,0,0.1,0,0.2,0c3.3-0.8,5.6-1.4,5.6-3.2C37,9.9,34.9,9.2,31.8,8.5z M17.4,5.7c0-0.6,0.1-1.3,0.2-1.9
		c0.1-0.3,0.3-0.6,0.5-0.8c0.3-0.2,0.6-0.2,1-0.2l2.5,0.6c1,0.3,2.2,0.3,3.2,0l2.5-0.6c0.3-0.1,0.7,0,1,0.2c0.3,0.2,0.5,0.5,0.5,0.8
		l0,0.1C28.9,4.5,29,5.1,29,5.8V8c-1.7-0.2-3.7-0.4-5.8-0.4c-2.1,0-4,0.1-5.8,0.4L17.4,5.7L17.4,5.7z M29.3,14.4h-0.3
		c-0.5,0-0.9,0.3-1,0.8c0,0-0.1,0.3-0.4,1.6c-0.2,0.9-0.9,1.7-1.7,2.2l-0.9,0.5c-1,0.6-2.3,0.6-3.3,0l-0.9-0.5
		c-0.9-0.5-1.5-1.2-1.7-2.2c-0.3-1.3-0.4-1.5-0.4-1.6c-0.1-0.5-0.5-0.8-1-0.8h-0.3l-0.3-2c0,0,0,0,0.1,0c0.3,0,0.6-0.2,0.8-0.4
		c0.2-0.3,0.2-0.6,0.1-0.9l-0.1-0.2c1.4-0.2,3-0.3,4.6-0.3l0.3,0.3l1.6,1.8l1.3-1.8l0.1-0.2l0.1,0.2l0.8,1.2l0.4-0.9l0.2-0.4
		c0.4,0,0.9,0.1,1.3,0.2l-0.1,0.2c-0.1,0.3-0.1,0.7,0.1,0.9c0.2,0.3,0.5,0.4,0.8,0.4c0,0,0.1,0,0.1,0.1L29.3,14.4z"/>
	<path class="st0" d="M12,19.3c0,0-0.1,0-0.1,0c0,0,0,0,0,0c0,0,0,0,0,0c-3.7,1.3-6.4,4.9-6.4,9v18.1c0,0.3,0.1,0.6,0.3,0.9
		c0,0,0.1,0.1,0.1,0.1V50c0,2.1,1.7,3.7,3.8,3.7c0.5,0,0.9-0.1,1.4-0.3v5.1c0,0.8,0.6,1.4,1.4,1.4c0.8,0,1.4-0.6,1.4-1.4V18.8
		C13.2,18.9,12.6,19.1,12,19.3z M11,51.1c-0.3,0.4-0.8,0.7-1.4,0.7c-1,0-1.8-0.8-1.8-1.7v-2.1H11V51.1z"/>
	<path class="st0" d="M30.2,19.1c-0.5,1-1.3,1.8-2.2,2.4c-0.2,0.1-0.4,0.3-0.6,0.4l-0.7,0.4l-0.2,0.1c-0.1,0.1-0.2,0.1-0.3,0.2
		c-0.9,0.4-1.9,0.6-2.9,0.6c-1.1,0-2.3-0.3-3.3-0.8l-0.1,0l-0.5-0.3L19,21.9c-0.2-0.1-0.4-0.2-0.6-0.4c-1-0.7-1.9-1.7-2.4-2.8h-0.1
		v2.8V28c0,1,0.8,1.8,1.8,1.8h10.8c1,0,1.8-0.8,1.8-1.8v-6.4C30.2,21.6,30.2,19.1,30.2,19.1z"/>
</g>
</svg>
