<?xml version="1.0" encoding="utf-8"?>
<!-- Generator: Adobe Illustrator 25.2.3, SVG Export Plug-In . SVG Version: 6.00 Build 0)  -->
<svg version="1.1" id="圖層_1" xmlns="http://www.w3.org/2000/svg" xmlns:xlink="http://www.w3.org/1999/xlink" x="0px" y="0px"
	 viewBox="0 0 60 60" style="enable-background:new 0 0 60 60;" xml:space="preserve">
<style type="text/css">
	.st0{fill:#25AF8F;}
</style>
<g>
	<circle class="st0" cx="29.3" cy="25.3" r="0.7"/>
	<circle class="st0" cx="32.1" cy="32.1" r="0.7"/>
	<circle class="st0" cx="27.3" cy="30.1" r="0.7"/>
	<circle class="st0" cx="34.1" cy="27.3" r="0.7"/>
	<circle class="st0" cx="27.3" cy="27.3" r="0.7"/>
	<circle class="st0" cx="34.1" cy="30.1" r="0.7"/>
	<circle class="st0" cx="29.3" cy="32.1" r="0.7"/>
	<circle class="st0" cx="32.1" cy="25.3" r="0.7"/>
	<circle class="st0" cx="30.7" cy="22.9" r="0.7"/>
	<circle class="st0" cx="30.7" cy="34.6" r="0.7"/>
	<circle class="st0" cx="24.8" cy="28.7" r="0.7"/>
	<circle class="st0" cx="36.6" cy="28.7" r="0.7"/>
	<circle class="st0" cx="26.6" cy="24.6" r="0.7"/>
	<circle class="st0" cx="34.8" cy="32.9" r="0.7"/>
	<circle class="st0" cx="26.6" cy="32.9" r="0.7"/>
	<circle class="st0" cx="34.8" cy="24.6" r="0.7"/>
	<path class="st0" d="M11.2,31.6c0,0.3,0,0.6,0,0.9l0,0c0.1,0.3,0.1,0.6,0.3,0.9c-1.4,0.7-2.2,1.4-2.6,2.2c-0.3,0.7-0.3,1.4,0,2
		c0.2,0.7,0.7,1.2,1.4,1.5c0.4,0.1,0.7,0.2,1.1,0.2c0.8,0,1.6-0.2,2.3-0.4c0.2,0.6,0.5,1.1,1,1.5c-1,1.1-1.5,2.1-1.6,3
		c0,0.7,0.3,1.4,0.8,1.9l0,0c0.5,0.5,1.1,0.8,1.8,0.8H16c0.9,0,1.9-0.5,3-1.6c0.4,0.5,0.9,0.8,1.5,1C20,47,19.9,48.1,20.2,49
		c0.3,0.7,0.8,1.2,1.5,1.4l0,0c0.3,0.2,0.7,0.2,1.1,0.3c0.3,0,0.6-0.1,0.9-0.2c0.8-0.4,1.5-1.2,2.2-2.6c0.3,0.1,0.6,0.2,0.9,0.3
		c0.2,0,0.4,0.1,0.7,0.1c0.1,0,0.2,0,0.2,0c0.1,1.5,0.4,2.6,1.1,3.2c0.5,0.5,1.2,0.8,1.9,0.7c0.7,0,1.4-0.2,1.9-0.7
		c0.6-0.6,1-1.7,1.1-3.2c0.1,0,0.2,0,0.2,0c0.2,0,0.5,0,0.7-0.1c0.3-0.1,0.6-0.1,0.9-0.3c0.7,1.4,1.4,2.2,2.2,2.6
		c0.3,0.1,0.6,0.2,0.9,0.2c0.4,0,0.8-0.1,1.1-0.3l0,0c0.7-0.2,1.2-0.7,1.5-1.4c0.3-0.8,0.2-2-0.3-3.4c0.6-0.2,1.1-0.5,1.5-1
		c1.1,1,2.1,1.5,3,1.6h0.1c0.7,0,1.3-0.3,1.8-0.8l0,0c0.5-0.5,0.8-1.2,0.8-1.9c0-0.9-0.5-1.9-1.6-3c0.5-0.4,0.8-0.9,1-1.5
		c0.7,0.3,1.5,0.4,2.3,0.5c0.4,0,0.7-0.1,1.1-0.2c1.3-0.6,2-2.1,1.5-3.5c-0.4-0.8-1.2-1.5-2.6-2.2c0.1-0.3,0.2-0.6,0.3-0.9l0,0
		c0.1-0.3,0.1-0.6,0.1-0.9c1.5-0.1,2.6-0.4,3.2-1c0.5-0.5,0.8-1.2,0.7-1.9c0-0.7-0.2-1.4-0.7-1.9c-0.6-0.6-1.7-1-3.2-1.1
		c0-0.3,0-0.6-0.1-0.9l0,0c-0.1-0.3-0.1-0.6-0.3-0.9c1.4-0.7,2.2-1.4,2.6-2.2c0.3-0.7,0.3-1.4,0-2c-0.2-0.7-0.7-1.2-1.4-1.5
		c-0.8-0.3-2-0.2-3.4,0.3c-0.2-0.6-0.5-1.1-1-1.5c1-1.1,1.5-2.1,1.6-3c0-0.7-0.3-1.4-0.8-1.9l0,0c-0.5-0.5-1.2-0.8-1.9-0.8
		c-0.9,0-1.9,0.5-3,1.6c-0.4-0.5-0.9-0.8-1.5-1c0.5-1.4,0.6-2.6,0.3-3.4C41,8,40.5,7.5,39.8,7.3l0,0c-0.6-0.3-1.4-0.3-2,0
		c-0.8,0.4-1.5,1.2-2.2,2.6c-0.6-0.3-1.2-0.4-1.8-0.4c-0.1-1.5-0.5-2.6-1.1-3.2c-0.5-0.5-1.2-0.8-1.9-0.7c-0.7,0-1.4,0.2-1.9,0.7
		c-0.6,0.6-1,1.7-1.1,3.2c-0.6,0-1.2,0.1-1.8,0.4c-0.7-1.4-1.4-2.2-2.2-2.6c-0.7-0.3-1.4-0.3-2,0l0,0c-0.7,0.2-1.2,0.7-1.5,1.4
		c-0.3,0.8-0.2,2,0.3,3.4c-0.6,0.2-1.1,0.5-1.5,1c-1.2-1-2.2-1.5-3.1-1.6c-0.7,0-1.4,0.3-1.9,0.8l0,0c-0.5,0.5-0.8,1.2-0.8,1.9
		c0,0.9,0.5,1.9,1.6,3c-0.5,0.4-0.8,0.9-1,1.5c-1.4-0.5-2.6-0.6-3.4-0.3c-0.7,0.3-1.2,0.8-1.4,1.5c-0.3,0.6-0.3,1.4,0,2
		c0.4,0.8,1.2,1.5,2.6,2.2c-0.1,0.3-0.2,0.6-0.3,0.9l0,0c-0.1,0.3-0.1,0.6-0.1,0.9C9.8,26,8.7,26.3,8.1,27c-0.5,0.5-0.8,1.2-0.7,1.9
		c0,0.7,0.2,1.4,0.7,1.9C8.6,31.2,9.7,31.6,11.2,31.6z M12.8,26c-0.2-0.3-0.2-0.6-0.1-0.9c0-0.3,0.2-0.6,0.4-0.8
		c0.4-0.3,1.5-0.6,4.5,0.2c2,0.5,3.1,1.1,3.7,1.6c-0.1,0.4-0.2,0.9-0.3,1.3c-0.7,0.2-2,0.3-4,0C14,27.1,13.1,26.4,12.8,26L12.8,26z
		 M15.5,18.5c0.1-0.3,0.4-0.5,0.7-0.5c0.1,0,0.1,0,0.2,0c0.6,0,1.7,0.3,3.8,2c1.6,1.3,2.4,2.2,2.8,2.9c-0.3,0.3-0.5,0.7-0.7,1.1
		c-0.7-0.1-1.9-0.5-3.7-1.5c-2.7-1.5-3.2-2.5-3.3-3C15.2,19.1,15.3,18.8,15.5,18.5L15.5,18.5z M30.7,20.5c4.6,0,8.2,3.7,8.2,8.2
		S35.3,37,30.7,37s-8.2-3.7-8.2-8.2l0,0C22.5,24.2,26.1,20.5,30.7,20.5z M45.2,18c0.3,0.1,0.6,0.3,0.7,0.5l0,0
		c0.2,0.2,0.3,0.5,0.2,0.8c-0.1,0.5-0.7,1.5-3.3,3c-1.8,1-3,1.4-3.7,1.5c-0.2-0.4-0.5-0.8-0.7-1.1c0.4-0.6,1.2-1.6,2.8-2.9
		C43.6,18.1,44.8,17.9,45.2,18z M48.2,24.4c0.3,0.2,0.4,0.5,0.4,0.8c0.1,0.3,0.1,0.6-0.1,0.9c-0.3,0.4-1.2,1.1-4.2,1.5
		c-2,0.3-3.3,0.2-4,0c-0.1-0.4-0.1-0.9-0.3-1.3c0.6-0.5,1.7-1,3.7-1.6C46.7,23.8,47.8,24.1,48.2,24.4z M48.6,31.4
		c0.3,0.6,0.1,1.2-0.3,1.6c-0.4,0.3-1.5,0.6-4.5-0.2c-2-0.5-3.1-1.1-3.7-1.6c0.1-0.4,0.2-0.9,0.3-1.3c0.7-0.2,2-0.3,4,0
		C47.4,30.3,48.3,31,48.6,31.4L48.6,31.4z M45.9,38.9c-0.1,0.3-0.4,0.5-0.7,0.5c-0.5,0.1-1.6-0.1-4-1.9c-1.6-1.3-2.4-2.2-2.8-2.9
		c0.3-0.3,0.5-0.7,0.7-1.1c0.7,0.1,1.9,0.5,3.7,1.5c2.7,1.5,3.2,2.5,3.3,3C46.2,38.3,46.2,38.7,45.9,38.9L45.9,38.9z M16.1,39.4
		c-0.3-0.1-0.6-0.3-0.7-0.5l0,0c-0.2-0.2-0.3-0.5-0.2-0.8c0.1-0.5,0.7-1.5,3.3-3c1.8-1,3-1.4,3.7-1.5c0.2,0.4,0.5,0.8,0.7,1.1
		c-0.4,0.6-1.2,1.6-2.8,2.9C17.8,39.3,16.6,39.5,16.1,39.4z M21.1,30c0.1,0.4,0.1,0.9,0.3,1.3c-0.6,0.5-1.7,1-3.7,1.6
		c-3,0.8-4.1,0.5-4.5,0.2c-0.5-0.4-0.6-1.1-0.3-1.6c0.3-0.4,1.2-1.1,4.2-1.5C19.1,29.7,20.3,29.8,21.1,30z M11,37.8
		c-0.3-0.1-0.5-0.4-0.6-0.6l0,0c-0.2-0.3-0.2-0.6-0.1-0.9c0.2-0.4,0.7-1,2.5-1.8c0.5,0.2,1.1,0.3,1.7,0.3c0.7,0,1.4-0.1,2.1-0.2
		c-1.4,0.9-2.3,1.8-2.6,2.7C12.2,38,11.3,37.9,11,37.8z M18.5,43c-1.4,1.3-2.2,1.6-2.6,1.6c-0.3,0-0.6-0.1-0.8-0.4
		c-0.2-0.2-0.4-0.5-0.4-0.8c0-0.4,0.3-1.2,1.6-2.6c1,0,2.1-0.5,3.5-1.4C19,40.9,18.5,42.1,18.5,43z M20,43.3c-0.1-0.5,0.1-1.6,1.9-4
		c1.3-1.6,2.2-2.4,2.9-2.8c0.3,0.3,0.7,0.5,1.1,0.7c-0.1,0.7-0.5,1.9-1.5,3.7c-1.5,2.7-2.5,3.2-3,3.3c-0.3,0.1-0.6,0-0.8-0.2
		C20.2,43.8,20,43.6,20,43.3L20,43.3z M23.1,49.1c-0.3,0.1-0.6,0.1-0.9-0.1c-0.3-0.1-0.5-0.3-0.7-0.6c-0.1-0.4-0.2-1.2,0.5-3
		c0.9-0.4,1.8-1.2,2.7-2.7c-0.3,1.7-0.3,2.9,0.1,3.8C24.2,48.4,23.5,48.9,23.1,49.1L23.1,49.1z M27.1,46.7L27.1,46.7
		c-0.3,0-0.6-0.2-0.8-0.4c-0.3-0.4-0.6-1.5,0.2-4.5c0.5-2,1.1-3.1,1.6-3.7c0.4,0.1,0.9,0.2,1.3,0.3c0.2,0.7,0.3,2,0,4
		c-0.4,3-1.1,4-1.5,4.2C27.7,46.7,27.4,46.8,27.1,46.7z M30.7,50.7c-0.3,0-0.6-0.1-0.8-0.3c-0.3-0.3-0.7-1-0.7-3
		c0.7-0.7,1.2-1.8,1.5-3.5c0.3,1.7,0.8,2.8,1.5,3.5c0,1.9-0.4,2.7-0.7,3C31.3,50.6,31,50.8,30.7,50.7z M34.3,46.7L34.3,46.7
		c-0.3,0.1-0.6,0.1-0.9-0.1c-0.4-0.3-1.1-1.2-1.5-4.2c-0.3-2-0.2-3.3,0-4c0.4-0.1,0.9-0.1,1.3-0.3c0.5,0.6,1,1.7,1.6,3.7
		c0.8,3,0.5,4.1,0.2,4.5C34.9,46.5,34.6,46.7,34.3,46.7z M39.8,48.4c-0.3,0.5-0.9,0.8-1.5,0.6c-0.4-0.2-1-0.7-1.8-2.5
		c0.4-0.9,0.4-2.1,0.1-3.8c0.9,1.4,1.9,2.3,2.7,2.7C40,47.3,39.9,48.1,39.8,48.4L39.8,48.4z M41.4,43.2c-0.2,0.6-0.8,1-1.4,0.9
		c-0.5-0.1-1.5-0.7-3-3.3c-1-1.8-1.4-3-1.5-3.7c0.4-0.2,0.8-0.5,1.1-0.7c0.7,0.4,1.6,1.2,2.9,2.8C41.3,41.6,41.5,42.8,41.4,43.2
		L41.4,43.2z M46.2,44.3c-0.2,0.2-0.5,0.4-0.8,0.4c-0.4,0-1.2-0.3-2.6-1.6c0-1-0.5-2.1-1.4-3.5c1.4,0.9,2.6,1.4,3.5,1.4
		c1.3,1.4,1.6,2.2,1.6,2.6C46.7,43.8,46.5,44.1,46.2,44.3L46.2,44.3z M51.1,36.3c0.1,0.3,0.1,0.6-0.1,0.9l0,0
		c-0.1,0.3-0.3,0.5-0.6,0.7c-0.4,0.1-1.2,0.2-3-0.5c-0.4-0.9-1.2-1.8-2.6-2.7c0.7,0.1,1.4,0.2,2.1,0.2c0.6,0,1.2-0.1,1.7-0.3
		C50.4,35.3,50.9,35.9,51.1,36.3z M52.7,28.7c0,0.3-0.1,0.6-0.3,0.8c-0.3,0.3-1,0.7-3,0.7c-0.7-0.7-1.8-1.2-3.5-1.5
		c1.7-0.3,2.8-0.8,3.5-1.5c1.9,0,2.7,0.4,3,0.7C52.6,28.1,52.7,28.4,52.7,28.7z M50.4,19.6c0.3,0.1,0.5,0.4,0.6,0.7l0,0
		c0.2,0.3,0.2,0.6,0.1,0.9c-0.2,0.4-0.7,1-2.5,1.8c-0.9-0.4-2.1-0.4-3.8-0.1c1.4-0.9,2.3-1.9,2.7-2.7C49.2,19.4,50.1,19.5,50.4,19.6
		z M42.9,14.4c1.4-1.3,2.2-1.6,2.6-1.6c0.3,0,0.6,0.1,0.8,0.4c0.2,0.2,0.4,0.5,0.4,0.8c0,0.4-0.3,1.2-1.6,2.6c-1,0-2.1,0.5-3.5,1.4
		C42.4,16.5,42.9,15.3,42.9,14.4z M41.4,14.2c0.1,0.5-0.1,1.6-1.9,4c-1.3,1.6-2.2,2.4-2.9,2.8c-0.3-0.3-0.7-0.5-1.1-0.7
		c0.1-0.7,0.5-1.9,1.5-3.7c1.5-2.7,2.5-3.2,3-3.3c0.3-0.1,0.6,0,0.8,0.2C41.2,13.6,41.4,13.9,41.4,14.2L41.4,14.2z M38.2,8.3
		c0.1-0.1,0.2-0.1,0.3-0.1c0.2,0,0.4,0.1,0.5,0.1c0.3,0.1,0.5,0.3,0.7,0.6c0.1,0.4,0.2,1.2-0.5,3c-0.9,0.4-1.8,1.2-2.7,2.7
		c0.3-1.7,0.3-2.9-0.1-3.8C37.2,9,37.9,8.5,38.2,8.3z M34.3,10.8L34.3,10.8c0.3,0,0.6,0.2,0.8,0.4c0.3,0.4,0.6,1.5-0.2,4.5
		c-0.5,2-1.1,3.1-1.6,3.7c-0.4-0.1-0.9-0.2-1.3-0.3c-0.2-0.7-0.3-2,0-4c0.4-3,1.1-4,1.5-4.2c0.1-0.1,0.3-0.2,0.5-0.2
		C34,10.7,34.1,10.7,34.3,10.8z M30.7,6.7c0.3,0,0.6,0.1,0.8,0.3c0.3,0.3,0.7,1,0.7,3c-0.7,0.7-1.2,1.8-1.5,3.5
		c-0.3-1.7-0.8-2.8-1.5-3.5c0-1.9,0.4-2.7,0.7-3C30.1,6.8,30.4,6.7,30.7,6.7z M27.1,10.8L27.1,10.8c0.1,0,0.2,0,0.4,0
		c0.2,0,0.3,0.1,0.5,0.2c0.4,0.3,1.1,1.2,1.5,4.2c0.3,2,0.2,3.3,0,4c-0.4,0.1-0.9,0.1-1.3,0.3c-0.5-0.6-1-1.7-1.6-3.7
		c-0.8-3-0.5-4.1-0.2-4.5C26.5,10.9,26.8,10.8,27.1,10.8z M21.6,9c0.1-0.3,0.3-0.5,0.6-0.6c0.3-0.2,0.6-0.2,0.9-0.1
		c0.4,0.2,1,0.7,1.8,2.5c-0.4,0.9-0.4,2.1-0.1,3.8c-0.9-1.4-1.9-2.3-2.7-2.7C21.4,10.2,21.5,9.3,21.6,9L21.6,9z M20,14.2
		c0.1-0.3,0.3-0.6,0.5-0.7c0.2-0.2,0.4-0.2,0.6-0.3c0.1,0,0.1,0,0.2,0c0.5,0.1,1.5,0.7,3,3.3c1,1.8,1.4,3,1.5,3.7
		c-0.4,0.2-0.8,0.5-1.1,0.7c-0.6-0.4-1.6-1.2-2.9-2.8C20.1,15.8,19.9,14.6,20,14.2z M15.1,13.2c0.2-0.2,0.5-0.4,0.8-0.4
		c0.4,0,1.2,0.3,2.6,1.6c0,1,0.5,2.1,1.4,3.5c-1.4-0.9-2.6-1.4-3.5-1.4c-1.3-1.4-1.6-2.2-1.6-2.6C14.7,13.6,14.9,13.3,15.1,13.2z
		 M10.3,21.2c-0.1-0.3-0.1-0.6,0.1-0.9l0,0c0.1-0.3,0.3-0.5,0.6-0.7c0.2-0.1,0.4-0.1,0.6-0.1c0.8,0,1.6,0.3,2.4,0.6
		c0.4,0.9,1.2,1.8,2.7,2.7c-1.7-0.3-2.9-0.3-3.8,0.1C11,22.2,10.5,21.5,10.3,21.2z M9,27.9c0.3-0.3,1-0.7,3-0.7
		c0.7,0.7,1.8,1.2,3.5,1.5c-1.7,0.3-2.8,0.8-3.5,1.5c-1.9,0-2.7-0.4-3-0.7c-0.2-0.2-0.3-0.5-0.3-0.8S8.8,28.1,9,27.9z"/>
</g>
<g>
	<path class="st0" d="M4.5,53.4c-0.6,0.6-0.6,1.5,0,2.1s1.5,0.6,2.1,0l0,0L7.2,55l-2.1-2.1L4.5,53.4z"/>
	<rect x="7" y="50.9" transform="matrix(0.7071 -0.7071 0.7071 0.7071 -34.7588 20.828)" class="st0" width="1.5" height="3"/>
	<path class="st0" d="M10.3,56.1c0,1.7,1.4,3,3,3s3-1.4,3-3c0-1.4-2.1-5.4-3.8-6.5l0.5-0.5c0.6-0.6,0.6-1.5,0-2.1s-1.5-0.6-2.1,0
		l-0.5,0.5c-1.1-1.7-5.1-3.8-6.5-3.8c-1.7,0-3,1.4-3,3s1.4,3,3,3c1.2,0,4.4,0.1,5.9-0.6l1,1C10.2,51.7,10.3,54.9,10.3,56.1z"/>
</g>
<g>
	<path class="st0" d="M52.6,55.6c0.6,0.6,1.5,0.6,2.1,0s0.6-1.5,0-2.1l0,0L54.2,53L52,55L52.6,55.6z"/>
	<rect x="50" y="51.6" transform="matrix(0.7071 -0.7071 0.7071 0.7071 -21.9343 51.7546)" class="st0" width="3" height="1.5"/>
	<path class="st0" d="M55.3,49.8c1.7,0,3-1.4,3-3s-1.4-3-3-3c-1.4,0-5.4,2.1-6.5,3.8L48.3,47c-0.6-0.6-1.5-0.6-2.1,0s-0.6,1.5,0,2.1
		l0.5,0.5c-1.7,1.1-3.8,5.1-3.8,6.5c0,1.7,1.4,3,3,3s3-1.4,3-3c0-1.2,0.1-4.4-0.6-5.9l1-1C50.9,49.8,54,49.8,55.3,49.8z"/>
</g>
<g>
	<path class="st0" d="M6.6,3.9C6,3.3,5.1,3.3,4.5,3.9S3.9,5.5,4.5,6l0,0L5,6.6l2.1-2.1L6.6,3.9z"/>
	<rect x="6.2" y="6.4" transform="matrix(0.7071 -0.7071 0.7071 0.7071 -2.7844 7.5515)" class="st0" width="3" height="1.5"/>
	<path class="st0" d="M3.9,9.7c-1.7,0-3,1.4-3,3s1.4,3,3,3c1.4,0,5.4-2.1,6.5-3.8l0.5,0.5c0.6,0.6,1.5,0.6,2.1,0s0.6-1.5,0-2.1
		l-0.5-0.5c1.7-1.1,3.8-5.1,3.8-6.5c0-1.7-1.4-3-3-3s-3,1.4-3,3c0,1.2-0.1,4.4,0.6,5.9l-1,1C8.4,9.6,5.2,9.7,3.9,9.7z"/>
</g>
</svg>
