<?xml version="1.0" encoding="utf-8"?>
<!-- Generator: Adobe Illustrator 25.2.3, SVG Export Plug-In . SVG Version: 6.00 Build 0)  -->
<svg version="1.1" id="圖層_1" xmlns="http://www.w3.org/2000/svg" xmlns:xlink="http://www.w3.org/1999/xlink" x="0px" y="0px"
	 viewBox="0 0 60 60" style="enable-background:new 0 0 60 60;" xml:space="preserve">
<style type="text/css">
	.st0{fill:#25AF8F;}
</style>
<g>
	<path class="st0" d="M4.5,18.9c0.9,0.1,1.8,0,2.7-0.2c0.2,0.4,0.4,0.8,0.7,1.1c2.1,2.4,6.4,2.8,9,2.8c0.4,0,0.7,0,1,0
		c0,0.3-0.1,0.6-0.1,0.9c-2.4,0.3-4.4,1.9-5.3,4.2c-2,0.1-3.6,1.8-3.6,3.9c-2.1,0-3.9,1.7-3.9,3.9c0,0.7,0.2,1.3,0.5,1.9h0
		c-2.1,0-3.9,1.7-3.9,3.9c0,2.1,1.7,3.9,3.9,3.9h0c-1.1,1.8-0.4,4.2,1.4,5.3c0.6,0.3,1.2,0.5,1.9,0.5c0,2.1,1.6,3.7,3.7,3.9
		c0.8,2.5,3.5,4.3,6.5,4.3s5.6-1.8,6.5-4.3c2.1-0.1,3.7-1.8,3.7-3.9c0.9,0,1.7-0.3,2.4-0.9c0.3,0.1,0.7,0.2,1,0.3
		c0.3,3.3,3.3,5.7,6.6,5.4c3.3-0.3,5.7-3.3,5.4-6.6c-0.2-1.6-0.9-3-2.2-4c0.5-1.1,0.7-2.3,0.7-3.5c0-1.7-0.5-3.3-1.4-4.8l2.5-2.5
		l1.4,1.4c0.3,0.3,0.8,0.4,1.2,0.2l12.7-7.3c0.5-0.3,0.6-0.9,0.4-1.3c-0.3-0.5-0.9-0.6-1.3-0.4l-12,6.9l-3.3-3.3L59.8,6.1
		c0.3-0.4,0.2-1-0.2-1.3s-1-0.2-1.3,0.2c0,0,0,0,0,0l-2.8,4l-4.8-2c-1.5-0.6-3.2,0.1-3.8,1.6c0,0,0,0,0,0l-0.7,1.8
		c-0.6,1.5,0.1,3.2,1.6,3.8c0,0,0,0,0,0l3.3,1.4L41.2,30c-0.3,0.4-0.2,0.9,0.1,1.2l1.1,1.1l-3.2,1.7c-0.4-0.3-0.9-0.5-1.3-0.7
		c0,0,0,0,0,0c0-3.9-3.1-7-7-7c-1.6,0-3.2,0.6-4.5,1.6c-0.3-0.1-0.6-0.1-0.9-0.2c-0.8-2.3-2.8-3.9-5.2-4.2C20.1,22.7,20,21.8,20,21
		c0-1,0.5-1.9,1.4-2.5c1.8,0.6,2.5,1.3,4.8,1.4c3.2,0.1,5.6-1,7.7-1.9c2.7-1.3,6.1-3.5,5.8-4.8c-0.2-0.5-0.6-1-1-1.4
		c-0.3-0.4-0.6-0.7-1-1c-1.3-0.9-5.2,4.7-10.1,6.3c-4.2,1.3-5.4-1.4-10.7-1.9c-0.7-0.8-1.6-1.5-2.6-1.9c-0.9-0.3-1.8-0.5-2.7-0.4
		c0.2-0.4,0.5-0.8,0.9-1.1c0.9-0.7,1.4-0.5,4.1-1c0.3,0.9,1.1,2.6,2.9,3.4c0.6,0.2,1.2,0.4,1.8,0.4c1.4,0,2.9-0.5,4.6-1.6
		c0.4-0.3,0.6-0.9,0.3-1.3c0,0,0-0.1-0.1-0.1c-0.9-1.1-1.9-2-3-2.8c0.5-0.3,1-0.7,1.4-1.1L23.5,6c-0.5,0.3-1.6,0.9-2.7,1.5
		c-0.5-0.1-0.9-0.2-1.4-0.2c-1.2,0.1-2.2,0.8-2.8,1.8c-2,0.4-3.3,0-4.9,1c-0.1-0.4-0.2-0.9-0.4-1.3C15,8.2,16.7,4.4,17,2.3
		c0.1-0.5-0.3-1-0.8-1.1c-0.1,0-0.3,0-0.4,0c-3.4,1-5.5,2.3-6.4,3.9L9.3,4.9c0-0.6-0.2-1.1-0.5-1.6C8.7,3.2,8.6,3.1,8.5,3
		c-0.3-1-0.5-1.7-1.1-2c-0.3-0.1-0.8-0.2-1,0C6.2,1.2,6.1,1.5,6.8,3C3.2,3.6,1.6,7.3,1.2,9.4c-0.1,0.5,0.2,1,0.8,1.1
		c0.2,0,0.3,0,0.5,0C6,9.5,8.1,8.1,8.9,6.4L9,6.5c-0.1,0.7,0.1,1.4,0.4,2C9.6,8.6,9.8,8.8,10,8.8c0.1,0.8,0.1,1.7,0,2.5
		c-0.3,0.3-0.7,0.7-1.1,1c-1.5,1.1-3.4,1.4-5,2.7l-3.3-1c0,0-0.9,1.9-0.5,2.9C0.3,17.3,0.8,18.7,4.5,18.9z M48.5,12.4
		c-0.5-0.2-0.7-0.8-0.5-1.3l0.7-1.8c0.2-0.5,0.8-0.7,1.3-0.5l4.4,1.8L52.1,14L48.5,12.4z M19.6,9.2c1.3-0.1,3.1,1.4,4.1,2.5
		c-1.4,0.7-2.7,0.9-3.6,0.5c-1.1-0.4-1.6-1.6-1.8-2.2C18.6,9.6,19.1,9.3,19.6,9.2z M12.8,29.7h12.1c-0.4,0.6-0.6,1.2-0.8,1.9H10.8
		C10.8,30.5,11.7,29.7,12.8,29.7z M7,35.5c0-1.1,0.9-1.9,1.9-1.9h14.9c0,0.7,0.1,1.3,0.3,2c-0.8,0.5-1.5,1.1-2,1.9H8.9
		C7.8,37.4,7,36.5,7,35.5z M3.6,41.2c0-1.1,0.9-1.9,1.9-1.9h15.7c-0.4,1.3-0.4,2.6,0,3.9H5.5C4.5,43.2,3.6,42.3,3.6,41.2z M19,57.1
		c-1.8,0-3.5-0.9-4.4-2.4h8.8C22.5,56.3,20.8,57.2,19,57.1z M25.3,52.8H12.8c-1.1,0-1.9-0.9-1.9-1.9h16.4
		C27.2,51.9,26.4,52.8,25.3,52.8z M29.1,49H8.9C7.8,49,7,48.1,7,47s0.9-1.9,1.9-1.9h13.3c1.3,1.8,3.3,2.9,5.5,2.9c0.1,0,0.2,0,0.4,0
		c0.4,0.4,0.8,0.7,1.2,1H29.1z M39.8,43.8c-0.5-0.1-1,0.2-1.1,0.8c-0.1,0.5,0.2,1,0.8,1.1l0,0c2.2,0.5,3.6,2.6,3.2,4.8
		c-0.5,2.2-2.6,3.6-4.8,3.2c-1.9-0.4-3.3-2.1-3.3-4c0-0.6,0.1-1.2,0.4-1.7c0.2-0.5,0-1.1-0.5-1.3s-1.1,0-1.3,0.5l0,0
		c-0.2,0.4-0.3,0.8-0.4,1.2c-0.8-0.2-1.5-0.5-2.2-0.9c0.8-0.3,1.4-0.8,2-1.4c0.4-0.4,0.4-1,0-1.4c-0.4-0.4-1-0.4-1.4,0
		c-1.9,1.9-4.9,1.9-6.8,0c-1.9-1.9-1.9-4.9,0-6.8c1.9-1.9,4.9-1.9,6.8,0c0.1,0.1,0.2,0.2,0.2,0.2c0.3,0.4,0.9,0.5,1.4,0.2
		c0.4-0.3,0.5-0.9,0.2-1.4c0,0-0.1-0.1-0.1-0.1c-0.5-0.6-1.2-1.1-1.9-1.5c3.4-1.8,7.6-0.6,9.4,2.8c0.6,1,0.8,2.2,0.8,3.3
		c0,0.9-0.2,1.7-0.5,2.6C40.4,43.9,40.1,43.8,39.8,43.8z M30.8,28.2c2.6,0,4.7,1.9,5,4.5c-2.6-0.5-5.2,0.2-7.3,1.8
		c-0.9-0.1-1.8-0.1-2.6,0.2c-0.8-2.7,0.7-5.5,3.4-6.3C29.9,28.3,30.3,28.2,30.8,28.2z M23.4,27.7h-8.8c0.9-1.5,2.6-2.5,4.4-2.4
		C20.8,25.3,22.5,26.2,23.4,27.7z M13.5,14.9c1.8,0.7,3.2,2.7,4.1,5.8c-2.4,0.1-6.6-0.2-8.3-2.1c-0.7-0.8-0.9-1.8-0.7-3.1
		C9.5,15.1,11.5,14.1,13.5,14.9z M11,6.4c0.2-0.6,1-1.6,3.6-2.7c-0.6,1.3-1.7,3-3.7,3.2C10.9,6.7,10.9,6.5,11,6.4z M7.3,5.4
		C7.1,6,6.3,7,3.7,8.1c0.6-1.3,1.7-3,3.7-3.2C7.4,5,7.3,5.2,7.3,5.4L7.3,5.4z"/>
	<path class="st0" d="M8.7,29.5c0.4-0.4,0.4-1,0-1.4c0,0,0,0,0,0l-0.3-0.3L7,29.2l0.3,0.3C7.8,29.9,8.4,29.9,8.7,29.5
		C8.7,29.5,8.7,29.5,8.7,29.5z"/>
	<rect x="5.7" y="27" transform="matrix(0.7071 -0.7071 0.7071 0.7071 -17.4578 12.7738)" class="st0" width="1.9" height="1"/>
	<path class="st0" d="M1.2,29.9c0,1.1,0.9,1.9,1.9,1.9S5,30.9,5,29.9c0-0.8,0.1-2.8-0.4-3.8l0.6-0.6c1,0.4,3,0.4,3.8,0.4
		c1.1,0,1.9-0.9,1.9-1.9c0-1.1-0.9-1.9-1.9-1.9c-0.9,0-3.4,1.3-4.1,2.4l-0.3-0.3c-0.4-0.4-1-0.4-1.4,0c-0.4,0.4-0.4,1,0,1.4l0,0
		l0.3,0.3C2.5,26.4,1.2,28.9,1.2,29.9z"/>
	<g>
		<path class="st0" d="M48.1,48.9c-0.4,0.4-0.4,1,0,1.4s1,0.4,1.4,0l0,0l0.3-0.3l-1.4-1.4L48.1,48.9z"/>
		<rect x="49.7" y="47.2" transform="matrix(0.7071 -0.7071 0.7071 0.7071 -19.3812 49.5781)" class="st0" width="1" height="1.9"/>
		<path class="st0" d="M51.8,50.6c0,1.1,0.9,1.9,1.9,1.9c1.1,0,1.9-0.9,1.9-1.9c0-0.9-1.3-3.4-2.4-4.1l0.3-0.3c0.4-0.4,0.4-1,0-1.4
			c-0.4-0.4-1-0.4-1.4,0l-0.3,0.3c-0.7-1.1-3.2-2.4-4.1-2.4c-1.1,0-1.9,0.9-1.9,1.9c0,1.1,0.9,1.9,1.9,1.9c0.8,0,2.8,0.1,3.8-0.4
			l0.6,0.6C51.8,47.8,51.8,49.8,51.8,50.6z"/>
	</g>
</g>
</svg>
