<?xml version="1.0" encoding="utf-8"?>
<!-- Generator: Adobe Illustrator 25.2.3, SVG Export Plug-In . SVG Version: 6.00 Build 0)  -->
<svg version="1.1" id="圖層_1" xmlns="http://www.w3.org/2000/svg" xmlns:xlink="http://www.w3.org/1999/xlink" x="0px" y="0px"
	 viewBox="0 0 60 60" style="enable-background:new 0 0 60 60;" xml:space="preserve">
<style type="text/css">
	.st0{fill:#25AF8F;}
</style>
<g>
	<path class="st0" d="M11.2,28.8l0.1,0.9l0.9-0.2c6.2-1.3,7.1-7.9,7.1-7.9l0.2-1.3l-1.3,0.4C10.4,23,11.2,28.8,11.2,28.8z"/>
	<path class="st0" d="M18.2,28.7c-7.8,2.4-7,8.1-7,8.2l0.1,0.9l0.9-0.2c6.2-1.3,7.1-7.9,7.1-7.9l0.2-1.3L18.2,28.7z"/>
	<path class="st0" d="M18.2,36.7c-7.8,2.4-7,8.1-7,8.2l0.1,0.9l0.9-0.2c6.2-1.3,7.1-7.9,7.1-7.9l0.2-1.3L18.2,36.7z"/>
	<path class="st0" d="M11.2,52.9l0.1,0.9l0.9-0.2c6.2-1.3,7.1-7.9,7.1-7.9l0.2-1.3l-1.3,0.4C10.4,47.1,11.2,52.9,11.2,52.9z"/>
	<path class="st0" d="M7.6,29.5l0.9,0.2l0.1-0.9c0-0.1,0.8-5.8-7-8.2l-1.3-0.4l0.2,1.3C0.5,21.6,1.4,28.2,7.6,29.5z"/>
	<path class="st0" d="M7.6,37.6l0.9,0.2l0.1-0.9c0-0.1,0.8-5.8-7-8.2l-1.3-0.4l0.2,1.3C0.5,29.7,1.4,36.3,7.6,37.6z"/>
	<path class="st0" d="M7.6,45.6l0.9,0.2l0.1-0.9c0-0.1,0.8-5.8-7-8.2l-1.3-0.4l0.2,1.3C0.5,37.7,1.4,44.3,7.6,45.6z"/>
	<path class="st0" d="M7.6,53.6l0.9,0.2l0.1-0.9c0-0.1,0.8-5.8-7-8.2l-1.3-0.4l0.2,1.3C0.5,45.8,1.4,52.3,7.6,53.6z"/>
	<path class="st0" d="M31.3,28.8l0.1,0.9l0.9-0.2c6.2-1.3,7.1-7.9,7.1-7.9l0.2-1.3l-1.3,0.4C30.5,23,31.3,28.8,31.3,28.8z"/>
	<path class="st0" d="M38.3,28.7c-7.8,2.4-7,8.1-7,8.2l0.1,0.9l0.9-0.2c6.2-1.3,7.1-7.9,7.1-7.9l0.2-1.3L38.3,28.7z"/>
	<path class="st0" d="M38.3,36.7c-7.8,2.4-7,8.1-7,8.2l0.1,0.9l0.9-0.2c6.2-1.3,7.1-7.9,7.1-7.9l0.2-1.3L38.3,36.7z"/>
	<path class="st0" d="M31.3,52.9l0.1,0.9l0.9-0.2c6.2-1.3,7.1-7.9,7.1-7.9l0.2-1.3l-1.3,0.4C30.5,47.1,31.3,52.9,31.3,52.9z"/>
	<path class="st0" d="M27.6,29.5l0.9,0.2l0.1-0.9c0-0.1,0.8-5.8-7-8.2l-1.3-0.4l0.2,1.3C20.6,21.6,21.4,28.2,27.6,29.5z"/>
	<path class="st0" d="M27.6,37.6l0.9,0.2l0.1-0.9c0-0.1,0.8-5.8-7-8.2l-1.3-0.4l0.2,1.3C20.6,29.7,21.4,36.3,27.6,37.6z"/>
	<path class="st0" d="M27.6,45.6l0.9,0.2l0.1-0.9c0-0.1,0.8-5.8-7-8.2l-1.3-0.4l0.2,1.3C20.6,37.7,21.4,44.3,27.6,45.6z"/>
	<path class="st0" d="M27.6,53.6l0.9,0.2l0.1-0.9c0-0.1,0.8-5.8-7-8.2l-1.3-0.4l0.2,1.3C20.6,45.8,21.4,52.3,27.6,53.6z"/>
	<path class="st0" d="M51,57h3.8v-1.7H51V21c1.3-1.2,2-2.6,2.1-4.2c0.3-3.4-2.2-6.4-2.3-6.5l-0.7-0.8l-0.7,0.8
		c-1.8,2.2-2.6,4.4-2.4,6.6c0.3,2.2,1.6,3.6,2.2,4.2v34.3H30.9V21c1.3-1.2,2-2.6,2.1-4.2c0.3-3.4-2.2-6.4-2.3-6.5L30,9.5l-0.7,0.8
		c-1.8,2.2-2.6,4.4-2.4,6.6c0.3,2.2,1.6,3.6,2.2,4.2v34.3H10.8V21c1.3-1.2,2-2.6,2.1-4.2c0.3-3.4-2.2-6.4-2.3-6.5L9.9,9.5l-0.7,0.8
		c-1.8,2.2-2.6,4.4-2.4,6.6C7.2,19,8.4,20.4,9.1,21v34.3H5.3V57h3.8v1.3h-7V60h55.6v-1.7H51L51,57L51,57z M49.2,57v1.3H30.9V57H49.2
		z M10.8,57h18.4v1.3H10.8V57z"/>
	<path class="st0" d="M51.4,28.8l0.1,0.9l0.9-0.2c6.2-1.3,7.1-7.9,7.1-7.9l0.2-1.3l-1.3,0.4C50.6,23,51.4,28.8,51.4,28.8z"/>
	<path class="st0" d="M51.4,36.9l0.1,0.9l0.9-0.2c6.2-1.3,7.1-7.9,7.1-7.9l0.2-1.3l-1.3,0.4C50.6,31.1,51.4,36.8,51.4,36.9z"/>
	<path class="st0" d="M51.4,44.9l0.1,0.9l0.9-0.2c6.2-1.3,7.1-7.9,7.1-7.9l0.2-1.3l-1.3,0.4C50.6,39.1,51.4,44.8,51.4,44.9z"/>
	<path class="st0" d="M51.4,52.9l0.1,0.9l0.9-0.2c6.2-1.3,7.1-7.9,7.1-7.9l0.2-1.3l-1.3,0.4C50.6,47.1,51.4,52.9,51.4,52.9z"/>
	<path class="st0" d="M47.7,29.5l0.9,0.2l0.1-0.9c0-0.1,0.8-5.8-7-8.2l-1.3-0.4l0.2,1.3C40.7,21.6,41.5,28.2,47.7,29.5z"/>
	<path class="st0" d="M47.7,37.6l0.9,0.2l0.1-0.9c0-0.1,0.8-5.8-7-8.2l-1.3-0.4l0.2,1.3C40.7,29.7,41.5,36.3,47.7,37.6z"/>
	<path class="st0" d="M47.7,45.6l0.9,0.2l0.1-0.9c0-0.1,0.8-5.8-7-8.2l-1.3-0.4l0.2,1.3C40.7,37.7,41.5,44.3,47.7,45.6z"/>
	<path class="st0" d="M47.7,53.6l0.9,0.2l0.1-0.9c0-0.1,0.8-5.8-7-8.2l-1.3-0.4l0.2,1.3C40.7,45.8,41.5,52.3,47.7,53.6z"/>
	<rect x="9" class="st0" width="1.7" height="7.7"/>
	<rect x="0.5" y="9.5" class="st0" width="1.7" height="9.2"/>
	<rect x="4.4" y="3.4" class="st0" width="1.7" height="8.7"/>
	<rect x="17.6" y="9.5" class="st0" width="1.7" height="9.2"/>
	<rect x="13.7" y="3.4" class="st0" width="1.7" height="8.7"/>
	<rect x="29.1" class="st0" width="1.7" height="7.7"/>
	<rect x="20.6" y="9.5" class="st0" width="1.7" height="9.2"/>
	<rect x="24.5" y="3.4" class="st0" width="1.7" height="8.7"/>
	<rect x="37.7" y="9.5" class="st0" width="1.7" height="9.2"/>
	<rect x="33.8" y="3.4" class="st0" width="1.7" height="8.7"/>
	<rect x="49.2" class="st0" width="1.7" height="7.7"/>
	<rect x="40.7" y="9.5" class="st0" width="1.7" height="9.2"/>
	<rect x="44.6" y="3.4" class="st0" width="1.7" height="8.7"/>
	<rect x="57.8" y="9.5" class="st0" width="1.7" height="9.2"/>
	<rect x="53.8" y="3.4" class="st0" width="1.7" height="8.7"/>
</g>
</svg>
