<?xml version="1.0" encoding="utf-8"?>
<!-- Generator: Adobe Illustrator 25.2.1, SVG Export Plug-In . SVG Version: 6.00 Build 0)  -->
<svg version="1.1" id="圖層_1" xmlns="http://www.w3.org/2000/svg" xmlns:xlink="http://www.w3.org/1999/xlink" x="0px" y="0px"
	 viewBox="0 0 60 60" style="enable-background:new 0 0 60 60;" xml:space="preserve">
<style type="text/css">
	.st0{fill:#25AF8F;}
</style>
<path class="st0" d="M56.8,0.6h-7.7c-3.7,0-6.7,3-6.7,6.7v17.9c-1.1-1.6-2.8-2.9-4.7-3.5l0.2-1.4c0.4-3.3,1.3-6.6,2.5-9.7l0.7-1.7
	l-1.8,0.5c-0.2,0.1-0.4,0.1-0.6,0.2c0.2-2.6,0.8-5.1,1.7-7.5L41.2,0l-2.8,0.9c-2.7,0.9-5,2.7-6.5,5.2c-0.8-1.2-1.9-2.2-3.3-2.9
	l-3.4-1.7l0.9,2.3c0.8,1.9,1.3,4,1.6,6c-1-0.4-2-0.6-3.1-0.6h-1.4l1.5-3.1c0.2-0.3,0.3-0.7,0.3-1.1c0-1.4-1.1-2.5-2.5-2.5h-0.5
	c-0.7,0-1.3,0.3-1.7,0.7c-0.1-1.5-1.3-2.6-2.8-2.6h-0.2c-1.5,0-2.7,1.2-2.8,2.6c-0.5-0.5-1.1-0.7-1.7-0.7h-0.5C11,2.5,9.9,3.6,9.9,5
	c0,0.4,0.1,0.8,0.3,1.1l3,6c-0.8,1-1.3,2.2-1.3,3.6c0,0.1,0,0.2,0,0.4l0,0.2c-0.7-0.3-1.4-0.4-2.1-0.4c-0.3,0-0.6,0-1,0.1l-0.6-5.1
	C8,9.4,6.7,8.3,5.2,8.3c-1.6,0-3,1.3-3,3l0,1c-1.1,0.3-1.9,1.4-1.9,2.6V15c0,0.9,0.4,1.7,1,2.2l3.1,2.5c-0.2,0.5-0.3,1.1-0.3,1.7
	c0,1.6,0.7,3.1,1.9,4.2l4.2,3.7H6c-1.1,0-1.9,0.9-1.9,1.9v3.8C4.1,36.1,5,37,6,37v1.9c-1.1,0-1.9,0.9-1.9,1.9v15.3
	c0,1.1,0.9,1.9,1.9,1.9h33.2c1.7,1.2,3.8,1.9,6,1.9c5.8,0,10.5-4.7,10.5-10.5c0-4.8-3.2-8.9-7.7-10.1v-32c0-0.5,0.4-1,1-1h7.7
	c1.6,0,2.9-1.3,2.9-2.9S58.4,0.6,56.8,0.6z M42.1,28.8l0.1,0.5h-5.5v-1.1c0-1.8-0.5-3.6-1.4-5.2C38.6,23.4,41.3,25.7,42.1,28.8z
	 M14.6,29.3L13.7,16c0-0.1,0-0.2,0-0.2c0-2,1.6-3.7,3.7-3.7h0.3c2,0,3.7,1.6,3.7,3.7c0,0.1,0,0.2,0,0.2L21,22.2
	c-2.4,1.2-4.2,3.5-4.9,6.2l-0.3,1H14.6z M17.9,28.8c0.8-3.1,3.5-5.5,6.7-5.8c-0.9,1.6-1.4,3.4-1.4,5.2v1.1h-5.5L17.9,28.8z
	 M25.2,28.2c0-1.6,0.4-3.2,1.3-4.5c0.7-1.2,2.1-2,3.5-2s2.8,0.8,3.5,2c0.8,1.4,1.3,2.9,1.3,4.5v1.1h-9.6V28.2z M29.1,18.1
	c0.5-0.4,1.2-0.4,1.7,0l-0.4,1.6c-0.1,0-0.3,0-0.4,0s-0.3,0-0.4,0L29.1,18.1z M30.1,14.4l1.7-0.9c-0.5-1-1.1-1.8-1.9-2.5
	c-0.2-1.9-0.5-3.8-1-5.6c1,0.8,1.7,1.8,2.2,3l0.8,2.5l1-2.4c1-2.4,2.8-4.4,5.2-5.5c-0.7,2.3-1.1,4.7-1.2,7.2
	c-1.5,0.9-2.8,2.3-3.6,3.9L33,14.5l1.7,0.9l0.2-0.3c0.7-1.4,1.8-2.5,3.1-3.2c-0.9,2.6-1.5,5.4-1.9,8.1l-0.2,1.2
	c-0.1,0-0.3,0-0.4-0.1L33.6,21c-0.4-0.3-0.8-0.5-1.3-0.7l0.7-2.7l-0.7-0.7c-1-1-2.5-1.2-3.7-0.6c-0.6-1.7-1.3-3.4-2.4-4.9
	C27.9,11.8,29.3,12.9,30.1,14.4z M24,11.4c1.5,2,2.6,4.2,3.2,6.6l0,0l0.5,2.1c-0.5,0.2-0.9,0.4-1.3,0.7l-1.9,0.2
	c-0.5,0-1.1,0.1-1.6,0.3l0.4-5.3c0-0.1,0-0.2,0-0.4c0-1.4-0.5-2.7-1.3-3.6l1-2.1L24,11.4z M21.7,4.7c0.1-0.1,0.3-0.2,0.5-0.2h0.5
	c0.3,0,0.6,0.3,0.6,0.6c0,0.1,0,0.2-0.1,0.3l-2.8,5.6c-0.3-0.1-0.5-0.3-0.8-0.4l0.4-3.7L21.7,4.7z M17.4,2.5h0.2
	c0.5,0,0.9,0.4,0.9,1l-0.7,6.7c0,0,0,0-0.1,0h-0.3c0,0,0,0-0.1,0l-0.8-6.8C16.6,2.9,17,2.5,17.4,2.5z M11.8,5c0-0.3,0.3-0.6,0.6-0.6
	h0.5c0.2,0,0.4,0.1,0.5,0.2L15,6.8l0.4,3.7c-0.3,0.1-0.5,0.2-0.8,0.4l-2.8-5.6C11.8,5.2,11.8,5.1,11.8,5z M5.2,10.2
	c0.5,0,1,0.4,1,0.9l0.6,5.6c0,0-0.1,0-0.1,0.1l-1.3-3c-0.3-0.6-0.8-1.1-1.3-1.4l0-1.1C4.1,10.7,4.6,10.2,5.2,10.2z M2.2,15v-0.2
	C2.2,14.4,2.6,14,3,14c0.3,0,0.6,0.2,0.7,0.5L5.2,18l-2.6-2.2C2.3,15.6,2.2,15.3,2.2,15z M6,21.5c0-2,1.6-3.6,3.6-3.6
	c0.8,0,1.6,0.3,2.3,0.8l0,0.5l-3.8,3.8l1.4,1.4l2.6-2.6l0.5,7.3l-5.4-4.7C6.5,23.6,6,22.6,6,21.5z M6,31.3h36.4v3.8H6V31.3z M8,37
	h34.5v1.9H8V37z M39.3,40.8c-2.7,1.9-4.5,5.1-4.5,8.6c0,0.3,0,0.6,0,1H6v-9.6H39.3z M6,52.3h29.1c0.4,1.4,1.1,2.7,2,3.8H6V52.3z
	 M54,49.5c0,4.8-3.9,8.6-8.6,8.6s-8.6-3.9-8.6-8.6s3.9-8.6,8.6-8.6S54,44.7,54,49.5z M46.3,7.3V39c-0.3,0-0.6,0-1,0s-0.6,0-1,0V7.3
	c0-2.6,2.1-4.8,4.8-4.8h1v1.9h-1C47.6,4.4,46.3,5.7,46.3,7.3z M56.8,4.4H52V2.5h4.8c0.5,0,1,0.4,1,1S57.4,4.4,56.8,4.4z"/>
<rect x="15.6" y="15.9" class="st0" width="3.8" height="1.9"/>
<rect x="15.6" y="19.8" class="st0" width="3.8" height="1.9"/>
<path class="st0" d="M45.3,48.5c-0.5,0-1,0.4-1,1c0,0.5,0.4,1,1,1c0.5,0,1-0.4,1-1C46.3,48.9,45.9,48.5,45.3,48.5z"/>
<path class="st0" d="M45.3,42.8c-3.7,0-6.7,3-6.7,6.7c0,3.7,3,6.7,6.7,6.7c3.7,0,6.7-3,6.7-6.7C52,45.8,49,42.8,45.3,42.8z
	 M45.3,52.3c-1.6,0-2.9-1.3-2.9-2.9c0-1.6,1.3-2.9,2.9-2.9c1.6,0,2.9,1.3,2.9,2.9C48.2,51,46.9,52.3,45.3,52.3z"/>
<rect x="6.8" y="35.5" class="st0" width="36.3" height="4.9"/>
</svg>
