<?xml version="1.0" encoding="utf-8"?>
<!-- Generator: Adobe Illustrator 25.0.1, SVG Export Plug-In . SVG Version: 6.00 Build 0)  -->
<svg version="1.1" id="圖層_1" xmlns="http://www.w3.org/2000/svg" xmlns:xlink="http://www.w3.org/1999/xlink" x="0px" y="0px"
	 viewBox="0 0 400 64" style="enable-background:new 0 0 400 64;" xml:space="preserve">
<style type="text/css">
	.st0{fill:#009844;}
	.st1{fill:#F29600;}
	.st2{fill:#00A73C;}
	.st3{fill:#B7D100;}
	.st4{fill:#FF6600;}
	.st5{fill:#222222;}
	.st6{fill:#FFFFFF;}
</style>
<g>
	<path class="st0" d="M65.2,14.9c-0.2,0.4-0.3,0.9-0.6,1.3V18c0.6-0.7,1.1-1.6,1.6-2.8L65.2,14.9L65.2,14.9z M64.6,21.6v-1.7
		c0.4-0.6,0.7-1.2,1-1.8l1,0.5c-0.3,0.6-0.6,1.2-0.9,1.7v6.2h-1.1V21.6C64.6,21.6,64.6,21.6,64.6,21.6L64.6,21.6z M67.5,15.4v1.1
		h6.7v-1.1H67.5L67.5,15.4z M71.6,19.5v5.3c0,0.1,0,0.2-0.1,0.3c-0.2,0.2-0.6,0.2-1.3,0.2c-0.6-0.1-1.2-0.2-1.8-0.4V26
		c1.8,0.5,3,0.6,3.7,0.2c0.4-0.2,0.6-0.6,0.6-1.1v-5.6h1.9v-1.1h-7.5v1.1H71.6z M64.6,16.1c-0.5,0.7-1,1.4-1.6,2l0.9,0.6
		c0.2-0.2,0.5-0.4,0.7-0.7V16.1L64.6,16.1z M64.6,19.9v1.7c-0.3,0.3-0.6,0.5-0.8,0.7l-0.9-0.7C63.6,21.1,64.2,20.5,64.6,19.9z"/>
	<path class="st0" d="M84.7,24.3v-2.4c0.3-0.6,0.6-1.3,0.8-2.1c0.1-0.6,0.2-1.5,0.2-2.5h-1v-1.1h2.8v1.1h-0.7
		c-0.1,2.3-0.6,4.2-1.6,5.8c0.7,1.1,1.5,2,2.4,2.8l-1,0.7C85.8,25.8,85.2,25,84.7,24.3z M81.3,24.5l0.6-0.2l-0.3-1l-0.2,0.1V24.5
		L81.3,24.5z M81.3,16.4h0.6v-1.1h-0.6V16.4L81.3,16.4z M84.7,16.2v1.1h-1c0.1,2.2,0.3,3.9,0.8,4.9c0.1-0.1,0.1-0.2,0.2-0.3v2.4
		c-0.1-0.1-0.1-0.2-0.2-0.3c-0.7,0.8-1.7,1.7-3,2.6l-0.2-0.2v-1c1-0.7,1.7-1.3,2.2-1.7c0.1-0.2,0.3-0.4,0.5-0.5
		c-0.6-1.1-1-2.4-1.1-3.6c-0.5,1-0.8,1.7-1,1.9l-0.6-0.2v-0.7c0.1-0.1,0.1-0.2,0.2-0.3c0.7-1.4,1.1-3.2,1.1-5.2h1c0,0.5,0,1,0,1.3
		H84.7z M76.5,24.9l-0.6,0.2l0.3,1l5.1-1.6v-1.2l-1.7,0.6v-3.4h1.5v-1.1h-1.5v-3h1.7v-1.1h-5.1v1.1h2.3v7.8l-1,0.3v-6.1h-1V24.9
		L76.5,24.9z M81.3,20.4v0.7L80.9,21C81,20.8,81.2,20.6,81.3,20.4L81.3,20.4z M81.3,25.4v1l-0.6-0.6C80.9,25.6,81.1,25.5,81.3,25.4z
		"/>
	<path class="st0" d="M96.4,21.3v-1h3.6v1h-2v3.3c0,0.2,0.1,0.3,0.2,0.4c0.1,0.2,0.3,0.2,0.4,0.2h0.3c0.1,0,0.2-0.1,0.3-0.2
		c0.1,0,0.1-0.5,0.2-1.4l1.1,0.2c-0.1,1.1-0.2,1.8-0.3,1.9c-0.3,0.3-0.5,0.4-0.7,0.4H98c-0.3,0-0.6-0.1-0.8-0.3
		c-0.2-0.2-0.3-0.5-0.3-0.7v-3.9H96.4L96.4,21.3z M96.4,19.1v-1h2.2v1H96.4L96.4,19.1z M96.4,16.8h2.7c0.1,0,0.1,0.1,0.1,0.1
		c0,0.3-0.1,0.9-0.3,1.7l0.9,0.3c0.3-1,0.5-1.9,0.5-2.7l-0.9-0.4h-2.6v-0.9h-0.5V16.8z M92.8,22.8c0.1-0.3,0.1-0.7,0-1.2V22.8
		L92.8,22.8z M96.4,14.9v1.9h-2.6c-0.1-0.1-0.1,0-0.1,0.1v1.8h-1v-2.9c0-0.1,0.1-0.1,0.1-0.1h2.9v-0.9H96.4L96.4,14.9z M96.4,18
		h-2.2v1h2.2V18L96.4,18z M96.4,20.3v1h-0.8v0.8c0,0.3-0.1,0.7-0.2,1.1c-0.4,1.3-1.3,2.3-2.6,3.1v-1.2c0.1-0.1,0.2-0.1,0.3-0.2
		c1-0.7,1.5-1.6,1.5-2.8v-0.8h-1.3v-1H96.4z M91,23.9c0.3,0.1,0.5,0,0.7-0.1c0.3,0,0.5-0.2,0.7-0.5c0.2-0.2,0.3-0.4,0.3-0.6v-1.2
		c-0.1-0.1-0.1-0.2-0.1-0.3c-0.2-0.6-0.5-1.2-0.9-1.8c-0.1-0.1-0.1-0.3-0.1-0.5l0.7-3.3l-0.7-0.3H91v1h0.1c0.2-0.1,0.3,0.1,0.3,0.3
		L91,18.1v1.8c0.6,1.1,0.9,1.9,0.8,2.4c0,0.2-0.1,0.3-0.1,0.5c-0.1,0.1-0.2,0.2-0.4,0.2c-0.1,0-0.2,0-0.3,0V23.9L91,23.9z
		 M92.8,15.8v2.9h-0.1V16C92.7,15.9,92.7,15.8,92.8,15.8L92.8,15.8z M92.8,25.1v1.2c-0.1,0.1-0.2,0.1-0.2,0.1l-0.7-0.9
		C92.2,25.4,92.5,25.3,92.8,25.1z M90.2,23.8c0.3,0.1,0.6,0.2,0.8,0.2v-1c-0.3-0.1-0.5-0.2-0.8-0.3v-6.4l0,0c0,0,0,0,0.1,0H91v-1
		h-1.7c-0.1,0-0.1,0-0.1,0c0,0-0.1,0.1-0.1,0.1v11.1h1.1V23.8L90.2,23.8z M91,18.1v1.8c-0.1-0.2-0.2-0.3-0.3-0.6h0.1v-0.1L91,18.1z"
		/>
	<path class="st0" d="M110.5,19.2h1.9c0.1,0,0.2-0.1,0.2-0.2v-3.2c0-0.1-0.1-0.2-0.2-0.2h-1.9v0.9h1c0.1,0,0.1,0,0.1,0v0.5h-1v0.8h1
		v0.5c0,0.1,0,0.1-0.1,0.1h-1V19.2L110.5,19.2z M110.5,26.1V24c0.3-0.2,0.6-0.4,0.9-0.5l0.5,0.8c-0.4,0.3-0.9,0.6-1.3,0.8
		c0.6,0.2,1.5,0.4,2.7,0.4l-0.3,1c-0.6-0.1-1.1-0.1-1.6-0.2C111.1,26.2,110.8,26.2,110.5,26.1L110.5,26.1z M110.5,23.3v-0.9h2.5v0.9
		H110.5L110.5,23.3z M110.5,21.9v-0.8h1.9v0.8H110.5L110.5,21.9z M110.5,20.7v-0.9h2.4v0.9H110.5z M109.4,15.7v-0.8h-1v0.8h-1v0.9h1
		v0.5h-1v0.8h1v0.5h-1v0.9h3.2v-0.9h-1.1v-0.5h1.1v-0.8h-1.1v-0.5h1.1v-0.9H109.4L109.4,15.7z M110.5,19.7v0.9h-3.2v-0.9H110.5
		L110.5,19.7z M110.5,21.1v0.8h-3.2v-0.8H110.5L110.5,21.1z M110.5,22.4v0.9h-2.5c0.4,0.4,0.9,0.8,1.4,1.2c0.3-0.2,0.7-0.4,1-0.5
		v2.1c-1.1-0.4-2.2-1.1-3.2-2.1v-1.6H110.5L110.5,22.4z M107.4,25.9v-1l0,0l0.2,0.9C107.5,25.9,107.5,25.9,107.4,25.9z M107.4,15.7
		h-1v-0.8h-1v0.8h-1.1v0.9h1.1v0.5h-1.1v0.8h1.1v0.5h-1.1v0.9h3.1v-0.9h-1v-0.5h1v-0.8h-1v-0.5h1V15.7L107.4,15.7z M107.4,19.7v0.9
		h-3.1v-0.9H107.4L107.4,19.7z M107.4,21.1v0.8h-3.1v-0.8H107.4L107.4,21.1z M107.4,22.4V24c-0.2-0.2-0.4-0.5-0.6-0.7h-1.1v1.9
		c0.8-0.1,1.4-0.2,1.8-0.3v1c-0.9,0.2-1.9,0.3-3.1,0.5v-1c0.1,0,0.2,0,0.3,0v-2.1h-0.3v-0.9H107.4z M104.3,15.7h-1.9
		c-0.1,0-0.1,0.1-0.1,0.2v3.2c0,0.1,0.1,0.2,0.1,0.2h1.9v-0.9h-1c-0.1,0-0.1,0-0.1-0.1v-0.5h1v-0.8h-1v-0.5c0,0,0,0,0.1,0h1V15.7
		L104.3,15.7z M104.3,19.7v0.9h-0.9c-0.1,0-0.1,0.1-0.1,0.2v1.5h1v0.9h-1c-0.1,1.2-0.3,2.2-0.7,3.2l-0.9-0.3c0.4-1,0.6-2.2,0.7-3.7
		V20c0-0.2,0.1-0.3,0.2-0.3H104.3L104.3,19.7z M104.3,21.1h-0.1v0.8h0.1V21.1L104.3,21.1z M104.3,25.4c-0.3,0.1-0.6,0.1-1,0.1l0.1,1
		c0.3,0,0.6-0.1,0.9-0.1V25.4z"/>
	<path class="st0" d="M120.8,23.9c1.3,0.9,2.9,1.5,4.8,2l0.5-1c-1.8-0.3-3.3-0.9-4.7-1.8h4.4v-1h-4.9v-0.7h4.2v-0.9h-4.2v-0.7h4.6
		v-0.9h-2.9c0.1-0.4,0.3-0.8,0.5-1.1h2.8v-1h-2.1c0.4-0.5,0.7-1,0.9-1.3l-0.9-0.6c-0.2,0.5-0.6,1-1,1.6l0.3,0.3h-1.1v-1.9h-1v1.9
		h-0.7v1h1.7c-0.2,0.3-0.3,0.6-0.5,1.1h-1.2v7.6h0.6V23.9z M120.2,16.8h-0.5v-1.9h-1v1.9h-1.5l0.6-0.3c-0.3-0.6-0.6-1.1-0.9-1.5
		l-0.8,0.5c0.2,0.3,0.5,0.7,0.7,1.3h-2.2v1h2.8c0.1,0.3,0.3,0.6,0.5,1.1h-2.8v0.9h4.6v0.7h-4.2v0.9h4.2v0.7h-4.9v1h4.5
		c-1.5,0.9-3.2,1.5-4.9,1.8l0.4,1c1.4-0.2,3-0.9,4.8-1.9v2.5h0.5v-7.6h-1.3c-0.1-0.4-0.2-0.8-0.4-1.1h1.7V16.8z"/>
	<path class="st0" d="M133.6,18.7c1.4,0.9,2.9,1.6,4.6,2.1c0.1,0,0.1,0,0.2,0.1l0.5-1c-1.7-0.3-3.2-0.9-4.4-1.7h4.1v-1h-5v-0.8
		c0.1,0,0.2,0,0.5,0c1.6-0.1,2.8-0.2,3.5-0.3l-0.1-1.1c-1.2,0.2-2.7,0.3-4.4,0.4v4.9h0.5V18.7L133.6,18.7z M133.2,25.5v-1.2h0.1
		c0.7-0.4,1.4-1,2.1-1.8h-2.1v-1.1h5.4v1.1h-2c-0.5,0.7-1.2,1.4-2,2.1c1.3,0.3,2.7,0.6,4.2,1l-0.5,1c-1.6-0.5-3.2-0.8-4.8-1.1l0,0
		C133.3,25.4,133.3,25.5,133.2,25.5L133.2,25.5z M133.2,21.1v-0.4l0.2,0.2C133.3,20.9,133.2,21,133.2,21.1z M133.2,15.3
		c-1.4,0.1-2.9,0.1-4.6,0l0.1,1.1c1,0.1,2.3,0.1,3.9,0v0.7h-5v1h4.3c-1.4,0.8-3,1.4-4.5,1.7l0.4,1c1.4-0.2,3-0.9,4.8-2v1.4h0.6V15.3
		L133.2,15.3z M133.2,20.7v0.4c-0.1,0.1-0.2,0.2-0.2,0.3h0.2v1.1h-1.3c-0.4,0.5-0.7,0.8-1.1,1c-0.1,0.1-0.1,0.2,0.1,0.2
		c0.7,0.2,1.5,0.3,2.3,0.5v1.2c-1.4,0.6-3.2,0.9-5.3,1l-0.3-1.1c1.5,0.1,2.9-0.1,4.1-0.4c-0.8-0.2-1.6-0.3-2.5-0.6l-0.1-0.6
		c0.5-0.5,1.1-0.9,1.5-1.3h-3.1v-1.1h4.1c0.3-0.3,0.6-0.7,0.9-1.1L133.2,20.7z"/>
	<path class="st0" d="M150.5,17.7v-2.4c0-0.1,0-0.1-0.1-0.1h-4.5v0.9h3.5c0,0,0.1,0,0.1,0.1v0.7h-0.1h-3.5v1h4.5
		C150.5,17.9,150.5,17.8,150.5,17.7L150.5,17.7z M145.9,24.6v-1h3.9v-0.1v-0.7h-3.9v-0.9h3.9v-0.8h-3.9v-0.9h3.9v-0.7
		c0-0.1,0-0.1,0-0.1h-3.9v-1h4.9c0.1,0,0.1,0.1,0.1,0.1v6c0,0.1-0.1,0.1-0.1,0.1H145.9L145.9,24.6z M147.7,25.8
		c1.2,0.1,2.5,0.4,3.7,0.8l0.3-1c-0.9-0.2-2.2-0.5-3.9-0.8L147.7,25.8z M145.9,15.2h-4.4c-0.1,0-0.1,0-0.1,0.1v2.4
		c0,0.1,0.1,0.2,0.1,0.2h4.4v-1h-3.4l0,0v-0.7c-0.1-0.1-0.1-0.1,0-0.1h3.4V15.2L145.9,15.2z M145.9,18.4v1h-3.7c0,0,0,0,0,0.1v0.7
		h3.7v0.9h-3.7v0.8h3.7v0.9h-3.7v0.7c0,0.1,0,0.1,0,0.1h3.7v1h-4.6c-0.1,0-0.2-0.1-0.2-0.1v-6c0-0.1,0.1-0.1,0.2-0.1H145.9
		L145.9,18.4z M144.2,24.7c-1.3,0.4-2.6,0.6-3.9,0.8l0.2,1.1c1.2-0.2,2.5-0.5,4-0.9L144.2,24.7z"/>
	<path class="st0" d="M163.7,21.2v-3c0-0.1-0.1-0.1-0.2-0.1H161V19h1.6c0,0,0.1,0,0.1,0.1v1.3c0,0.1-0.1,0.1-0.1,0.1h-1.3
		c0.2-0.2,0.4-0.5,0.5-0.7l-0.9-0.5v0.1v2.1h2.5C163.6,21.3,163.7,21.2,163.7,21.2L163.7,21.2z M161,25.9V25h0.9v-0.6H161v-0.9h0.9
		v-0.6l0,0c0-0.1-0.1-0.1-0.2-0.1H161v-0.9h1.7c0.2,0,0.2,0.1,0.2,0.2v4.2h-1v-0.5H161L161,25.9z M161,16.9v-1
		c1.1,0.4,2.4,0.7,3.7,0.9l-0.4,1C163.3,17.6,162.2,17.3,161,16.9z M161,18.1h-2.2v3.2h2.2v-2.1c-0.2,0.3-0.5,0.7-0.9,1.2h-0.8V19
		h1.7V18.1L161,18.1z M161,16v1l0,0v0.6h-2.2v-0.9h1.5c-0.5-0.2-1-0.4-1.5-0.7v-1l0.7,0.3c-0.1,0-0.1,0.1-0.1,0.1
		C160,15.6,160.5,15.7,161,16L161,16z M161,21.9v0.9h-2.2v-0.9H161L161,21.9z M161,23.5v0.9h-2.2v-0.9H161L161,23.5z M161,25v0.9
		h-2.2V25H161z M158.9,18.1h-2.2V19h1.7v1.4h-1c-0.2-0.5-0.4-0.9-0.7-1.3l-0.1,0.1v2.2h2.2V18.1L158.9,18.1z M158.9,14.9v1
		c0,0,0,0-0.1-0.1c-0.2,0.2-0.7,0.5-1.4,0.7h1.5v0.9h-2.2v-0.7v0.1v-1c0.9-0.3,1.5-0.7,2-1.1L158.9,14.9L158.9,14.9z M158.9,21.9
		v0.9h-2.2v-0.9H158.9L158.9,21.9z M158.9,23.5v0.9h-2.2v-0.9H158.9L158.9,23.5z M158.9,25v0.9h-2.2V25H158.9z M156.7,18.1h-2.5
		c-0.1,0-0.1,0.1-0.1,0.1v3c0,0.1,0,0.1,0.1,0.1h2.5v-2.2l-0.7,0.4c0.1,0.2,0.3,0.5,0.5,0.9H155c0,0,0,0,0-0.1v-1.3
		C155,19,155,19,155,19h1.7V18.1L156.7,18.1z M156.7,16v1c-0.9,0.3-2,0.6-3.3,0.9l-0.3-1C154.5,16.6,155.7,16.3,156.7,16L156.7,16z
		 M156.7,21.9v0.9H156c-0.1,0-0.2,0.1-0.2,0.1v0.6h0.9v0.9h-0.9V25h0.9v0.9h-0.9v0.5h-1v-4.2c0-0.1,0.1-0.2,0.2-0.2H156.7z"/>
	<path class="st0" d="M174.8,19.2h1.9c0.1,0,0.2-0.1,0.2-0.2v-3.2c0-0.1-0.1-0.2-0.2-0.2h-1.9v0.9h1c0.1,0,0.1,0,0.1,0v0.5h-1v0.8h1
		v0.5c0,0.1,0,0.1-0.1,0.1h-1V19.2L174.8,19.2z M174.8,26.1V24c0.3-0.2,0.6-0.4,0.9-0.5l0.5,0.8c-0.4,0.3-0.9,0.6-1.3,0.8
		c0.6,0.2,1.5,0.4,2.7,0.4l-0.3,1c-0.6-0.1-1.1-0.1-1.6-0.2C175.4,26.2,175.1,26.2,174.8,26.1L174.8,26.1z M174.8,23.3v-0.9h2.5v0.9
		H174.8L174.8,23.3z M174.8,21.9v-0.8h1.9v0.8H174.8L174.8,21.9z M174.8,20.7v-0.9h2.4v0.9H174.8z M173.7,15.7v-0.8h-1v0.8h-1v0.9h1
		v0.5h-1v0.8h1v0.5h-1v0.9h3.2v-0.9h-1.1v-0.5h1.1v-0.8h-1.1v-0.5h1.1v-0.9H173.7L173.7,15.7z M174.8,19.7v0.9h-3.2v-0.9H174.8
		L174.8,19.7z M174.8,21.1v0.8h-3.2v-0.8H174.8L174.8,21.1z M174.8,22.4v0.9h-2.5c0.4,0.4,0.9,0.8,1.4,1.2c0.3-0.2,0.7-0.4,1-0.5
		v2.1c-1.1-0.4-2.2-1.1-3.2-2.1v-1.6H174.8L174.8,22.4z M171.6,25.9v-1l0,0l0.2,0.9C171.8,25.9,171.8,25.9,171.6,25.9z M171.6,15.7
		h-1v-0.8h-1v0.8h-1.1v0.9h1.1v0.5h-1.1v0.8h1.1v0.5h-1.1v0.9h3.1v-0.9h-1v-0.5h1v-0.8h-1v-0.5h1V15.7L171.6,15.7z M171.6,19.7v0.9
		h-3.1v-0.9H171.6L171.6,19.7z M171.6,21.1v0.8h-3.1v-0.8H171.6L171.6,21.1z M171.6,22.4V24c-0.2-0.2-0.4-0.5-0.6-0.7h-1.1v1.9
		c0.8-0.1,1.4-0.2,1.8-0.3v1c-0.8,0.2-1.9,0.3-3.1,0.5v-1c0.1,0,0.2,0,0.3,0v-2.1h-0.3v-0.9H171.6z M168.5,15.7h-1.9
		c-0.1,0-0.1,0.1-0.1,0.2v3.2c0,0.1,0.1,0.2,0.1,0.2h1.9v-0.9h-1c-0.1,0-0.1,0-0.1-0.1v-0.5h1v-0.8h-1v-0.5c0,0,0,0,0.1,0h1V15.7
		L168.5,15.7z M168.5,19.7v0.9h-0.9c-0.1,0-0.1,0.1-0.1,0.2v1.5h1v0.9h-1c-0.1,1.2-0.3,2.2-0.7,3.2l-0.9-0.3c0.4-1,0.6-2.2,0.7-3.7
		V20c0-0.2,0.1-0.3,0.2-0.3H168.5L168.5,19.7z M168.5,21.1h-0.1v0.8h0.1V21.1L168.5,21.1z M168.5,25.4c-0.3,0.1-0.6,0.1-1,0.1l0.1,1
		c0.3,0,0.6-0.1,0.9-0.1V25.4z"/>
	<path class="st0" d="M188,26.3v-0.9h2.5v0.9H188L188,26.3z M188,24.9v-0.8h1.9v0.8H188L188,24.9z M188,23.6v-0.7h0.9
		c0-0.1,0.1-0.1,0.1-0.1v-0.5H188v-0.7h0.9v-0.6h-0.1H188v-0.7h1.7c0.1,0,0.2,0.1,0.2,0.1v3.3c0,0.1-0.1,0.1-0.2,0.1H188L188,23.6z
		 M188,19.8v-0.9h2.3v0.9H188L188,19.8z M188,18.5v-0.7h0.7c0.1-0.1,0.1-0.1,0.1-0.1v-0.5H188v-0.7h0.7V16c0,0,0,0-0.1,0H188v-0.7
		h1.6c0.1,0,0.1,0.1,0.1,0.1v3.2c0,0.1-0.1,0.1-0.1,0.1H188z M188,15.2V16h-1.4v-0.7H188L188,15.2z M188,16.5v0.7h-1.4v-0.7H188
		L188,16.5z M188,17.8v0.7h-1.4v-0.7H188L188,17.8z M188,18.9v0.9h-1.4v-0.9H188L188,18.9z M188,20.1v0.7h-0.9v0.6h0.9v0.7h-0.9v0.6
		h0.9v0.7h-0.9v0.5h0.9v0.8h-0.9v0.6h0.9v0.9h-1.4v-6.2H188z M186.5,15.2V16h-1.3v-0.7H186.5L186.5,15.2z M186.5,16.5v0.7h-1.3v-0.7
		H186.5L186.5,16.5z M186.5,17.8v0.7h-1.3v-0.7H186.5L186.5,17.8z M186.5,18.9v0.9h-1.3v-0.9H186.5L186.5,18.9z M186.5,20.1v6.2
		h-1.3v-0.9h0.9v-0.6h-0.9v-0.8h0.9v-0.5h-0.9v-0.7h0.9v-0.6h-0.9v-0.7h0.9v-0.6h-0.9v-0.7H186.5z M185.2,15.2V16h-0.8
		c-0.1,0-0.1,0,0,0v0.6h0.8v0.7h-0.8v0.5v0.1h0.8v0.7h-1.7c-0.1,0-0.1,0-0.1-0.1v-3.2c0-0.1,0.1-0.1,0.1-0.1H185.2L185.2,15.2z
		 M185.2,18.9v0.9H183v-0.9H185.2L185.2,18.9z M185.2,20.1v0.7h-0.9c-0.1,0-0.1,0,0,0v0.6h0.9v0.7h-0.9v0.5v0.1h0.9v0.7h-1.7
		c-0.1,0-0.1-0.1-0.1-0.1v-3.3c0.1-0.1,0.1-0.1,0.1-0.1H185.2L185.2,20.1z M185.2,24.1v0.8h-2v-0.8H185.2L185.2,24.1z M185.2,25.5
		v0.9H183v-0.9H185.2L185.2,25.5z M183,22.4L183,22.4C183,22.4,183,22.4,183,22.4L183,22.4L183,22.4z M183,16.4v-0.6l0.1,0.1
		C183,16,183,16.2,183,16.4z M183,15.8v0.6c-0.2,0.8-0.3,1.5-0.5,2.2l-0.1-0.1v-2.9L183,15.8L183,15.8z M183,18.9v0.9h-0.1L183,18.9
		L183,18.9L183,18.9z M183,22.3L183,22.3l-0.6,0.6v-1.4C182.5,21.8,182.8,22,183,22.3L183,22.3z M183,25.5v0.9h-0.3v-0.9H183
		L183,25.5z M182.4,20.3v-1h0.5v1H182.4z M179.5,18.6l0.7-0.1c-0.1-1-0.2-1.9-0.5-2.9l-0.2,0.1V18.6L179.5,18.6z M182.4,15.7v2.9
		l-0.7-0.2c0.3-1,0.5-1.8,0.6-2.8L182.4,15.7L182.4,15.7z M182.4,19.3v1h-0.9v0.1c0.3,0.3,0.6,0.7,0.9,1.1v1.4l-0.1,0.1
		c-0.2-0.4-0.5-0.8-0.8-1.2v4.6h-1v-4.1c-0.3,0.7-0.6,1.2-0.9,1.6h-0.1v-1.7c0.3-0.6,0.5-1.3,0.7-1.9h-0.7v-1h1v-4.5h1v4.5H182.4z
		 M178.8,15.8c0.2,1,0.4,1.9,0.5,2.8h0.2v-2.9L178.8,15.8L178.8,15.8z M179.5,19.3v1h-0.6v-1H179.5L179.5,19.3z M179.5,22.2v1.7
		l-0.9-0.3C179,23.2,179.3,22.7,179.5,22.2z"/>
	<path class="st0" d="M200.5,26h0.5v0.5h1v-4.1c0-0.2-0.1-0.3-0.3-0.3h-1.1v0.9h0.3c0.1,0,0.2,0.1,0.2,0.1l0,0v0.6h-0.5v0.9h0.5v0.6
		h-0.5V26L200.5,26z M200.5,21.3h2.5v-1h-2.5V21.3L200.5,21.3z M200.5,20.1c0.6-0.3,1.3-0.7,1.9-1.2l-0.6-0.8
		c-0.5,0.3-0.9,0.6-1.4,0.9V20.1L200.5,20.1z M200.5,17.9h1.9c0.1,0,0.1,0,0.1-0.1v-2.4c0-0.1-0.1-0.1-0.1-0.1h-1.9v0.9h1
		c0.1,0,0.1,0,0.1,0v0.9c0,0,0,0.1-0.1,0.1h-1V17.9z M197.9,26h2.6v-0.9h-2.6V26L197.9,26z M200.5,22h-2.6v0.9h2.6V22L200.5,22z
		 M197.9,21.5c0.2-0.1,0.3-0.1,0.5-0.2h2.1v-1h-0.3c0.1-0.1,0.2-0.1,0.3-0.2v-1.1c-0.1,0-0.1,0.1-0.1,0.1v-0.6h-2.5v1h1.8
		c-0.5,0.2-1,0.5-1.5,0.7h-0.3V21.5L197.9,21.5z M197.9,17.9h2.6V17h-1v-0.9h1v-0.9h-2.6v0.9h0.6V17h-0.6V17.9L197.9,17.9z
		 M200.5,23.6v0.9h-2.6v-0.9H200.5z M194.8,26h3.1v-0.9h-3.1v-0.6h3.1v-0.9h-3.1V23c0,0,0-0.1,0.1-0.1h3V22h-1.3
		c0.1-0.1,0.1-0.1,0.2-0.1c0.3-0.1,0.7-0.3,1.1-0.5v-1.2h-0.3v-0.7h0.3v-1h-0.3v-0.7h0.3V17h-1.6v-0.9h1.6v-0.9h-3.7v0.9h1V17h-1
		v0.9h2.3v0.7h-2.3v1h2.3v0.7h-2.3v1h1.5c-0.5,0.2-1,0.3-1.5,0.5v4.8h0.6V26z M194.2,15.2h-1.9c-0.1,0-0.2,0-0.2,0.1v2.4
		c0,0.1,0.1,0.1,0.2,0.1h1.9V17h-1c0,0-0.1,0-0.1-0.1v-0.9h0.1h1V15.2L194.2,15.2z M194.2,18.6h-1.1v1h1.1V18.6L194.2,18.6z
		 M194.2,20.3h-2.5v1h2.5V20.3L194.2,20.3z M194.2,21.8c-0.9,0.2-1.7,0.4-2.6,0.5l0.3,1c0.6,0,1.2-0.1,1.8-0.3v3.6h0.5V21.8z"/>
</g>
<g>
	<path class="st1" d="M29.3,10.2c3.5-0.1,6.5,2.6,6.7,6.1c0.1,3.5-2.6,6.5-6.1,6.6c-3.5,0.2-6.5-2.6-6.6-6
		C23.1,13.4,25.9,10.4,29.3,10.2z"/>
	<path class="st2" d="M52.2,30.9v-1.4c0,0,0.1,0,0.1-0.1v-0.2c-0.1,0-0.1,0-0.1,0v-1.5c0.2,0.1,0.3,0.2,0.5,0.3
		c0.3-0.1,0.3,0.3,0.4,0.3c0.2,0.3,0.5,0.5,0.8,0.4c0.2-0.3,0.3,0.3,0.5,0.3c0.3,0.3,0.3,0.7,0.7,0.8c0.7,0.8,0.8,0.3,1.3,1.4
		c-0.3,0,0,0-0.3-0.2c-0.2,0.1-0.3-0.6-0.3-0.3c0,0.2,0.2,0.3,0,0.3c-0.4-0.2-0.8-0.4-1.3-0.7c-0.3-0.1-0.5-0.1-0.7-0.3
		c0,0,0.1-0.1,0-0.1c-0.3-0.2-1-0.5-1.3-0.5c-0.1,0.1,0.1,0.3,0.2,0.3c0.1,0,0.1,0.1,0.2,0.3h-0.1c0,0.2,0.7,0.4,0.7,0.6
		c0.1,0.2,0.2,0.3,0.3,0.2c0.1-0.3,0.3,0.1,0.5,0.1s0.4,0,0.6,0.1c0.1,0.2,0.2,0.3,0.3,0.3c0.1-0.3,0.3,0,0.4,0
		c0,0.3,0.3,0.6,0.4,0.6c0.2,0.2,0.3,0.1,0.4,0.3c0.1,0,0.2-0.1,0.2-0.2c-0.1-0.3-0.3-0.1-0.3-0.3c0.2,0,1.3,1.3,0.9,1.3
		C55.6,31.9,53.9,31.3,52.2,30.9L52.2,30.9z M52.2,27.3v-0.4c0.2,0.1,0.3,0.3,0.4,0.4C52.6,27.3,52.4,27.3,52.2,27.3L52.2,27.3z
		 M52.2,26.3V26c0.3,0.3,0.3,0.3,0.3,0.4C52.4,26.3,52.3,26.3,52.2,26.3z M52.2,26v0.3c-0.3-0.3-0.8-0.3-1.2-0.5v-0.4
		C51.6,25.6,52,25.8,52.2,26L52.2,26z M52.2,26.8v0.4c-0.1-0.1-0.3-0.2-0.3-0.3c0-0.1-0.2-0.2-0.1-0.3C52,26.7,52.1,26.8,52.2,26.8
		L52.2,26.8z M52.2,27.8c-0.1-0.1-0.2-0.3-0.3-0.3c-0.3,0.1-0.6-0.1-0.9-0.3v1.7c0.4,0.2,0.8,0.3,1.2,0.4V27.8L52.2,27.8z
		 M52.2,29.5v1.4c-0.4,0-0.8-0.1-1.2-0.2v-1.7c0.1,0.1,0.2,0.1,0.3,0.1c0.3,0,0.3,0.5,0.6,0.5C51.8,29.4,52.1,29.5,52.2,29.5
		L52.2,29.5z M51.1,26.6L51.1,26.6c0.2,0,0.3,0,0.5,0.1c0,0.1-0.2,0.2-0.3,0.2C51.2,26.7,51.1,26.7,51.1,26.6z M51.1,25.3v0.4
		c0,0-0.1-0.1-0.2-0.1c-0.3,0,0.1,0.4-0.2,0.2c0-0.2-0.2-0.3-0.2-0.3c-0.2,0-0.3,0-0.5,0v-0.8C50.4,24.9,50.7,25,51.1,25.3
		L51.1,25.3L51.1,25.3z M51.1,26.5L51.1,26.5c-0.1,0.1-0.3,0.2-0.4-0.1c0.1-0.1,0.2-0.1,0.2-0.1C50.9,26.4,51,26.5,51.1,26.5
		L51.1,26.5z M51.1,27.2v1.7c-0.2-0.1-0.4-0.2-0.7-0.3c-0.1,0-0.3,0-0.3,0v-1.8c0.2,0.1,0.3,0.3,0.5,0.2
		C50.7,27.1,51,26.8,51.1,27.2L51.1,27.2L51.1,27.2z M51.1,29.1v1.7c-0.3,0-0.7-0.1-1-0.1v-1.8C50.4,28.9,50.7,29,51.1,29.1
		L51.1,29.1z M50.1,26.3C50.1,26.3,50.1,26.3,50.1,26.3c0.1-0.1,0-0.1,0-0.2V26.3L50.1,26.3z M50.1,24.3v-0.4
		c0.3,0.2,0.4,0.4,0.7,0.6v0.1C50.5,24.6,50.2,24.5,50.1,24.3z M50.1,23.9v0.4c-0.3-0.1-0.5-0.3-0.8-0.4c0.1-0.2,0.3-0.2,0.5-0.1
		C49.9,23.8,50,23.9,50.1,23.9L50.1,23.9z M50.1,24.7c-0.1,0-0.2-0.1-0.3-0.1c-0.2-0.1-0.4,0-0.6-0.2c-0.3-0.3-0.5-0.1-0.8-0.1v0.4
		c0.3,0.1,0.7,0.2,1,0.3c0.2,0.3,0.3,0.3,0.6,0.3V24.7L50.1,24.7z M50.1,26.1v0.2c-0.3,0-0.9-0.3-1-0.3l-0.2-0.3
		C49,25.7,49.7,25.9,50.1,26.1L50.1,26.1z M50.1,26.8v1.8c-0.1-0.1-0.3-0.1-0.3-0.2c-0.2,0-0.4,0.1-0.4,0.3c0.3,0.1,0.5,0.2,0.8,0.3
		v1.8c-0.6,0-1.1-0.1-1.6,0v-4.3c0.4,0.1,0.8,0.2,1.3,0.4C49.8,26.8,49.9,26.8,50.1,26.8L50.1,26.8z M48.5,54.2v-0.4
		c0.3,0.2,0.5,0.3,0.8,0.4C49,54.2,48.7,54.2,48.5,54.2L48.5,54.2z M48.5,23.7v-0.3c0,0.1,0.1,0.1,0.1,0.1c0.1-0.1,0.3-0.1,0.3,0.1
		v0.1C48.8,23.8,48.6,23.7,48.5,23.7z M48.5,23.5v0.3c-0.2-0.1-0.3-0.2-0.4-0.2c0-0.2,0.2-0.1,0.2-0.3
		C48.3,23.3,48.4,23.4,48.5,23.5L48.5,23.5z M48.5,24.4v0.4c-0.3-0.1-0.6-0.2-0.9-0.1c-0.1,0-0.1,0.2-0.2,0.2V24
		c0.1,0,0.2,0.1,0.3,0.2c0.3-0.1,0.4,0.2,0.6,0.1C48.3,24.4,48.4,24.4,48.5,24.4L48.5,24.4z M48.5,26.3v4.3c-0.3,0-0.8,0-1.1,0V26
		c0.1,0,0.1-0.2,0.1-0.2c0.4-0.3,0.2,0.5,0.6,0.4C48.1,26.3,48.3,26.3,48.5,26.3L48.5,26.3z M48.5,53.8v0.4c-0.3,0-0.8,0-1.1-0.1v-1
		C47.7,53.4,48.1,53.5,48.5,53.8L48.5,53.8z M47.4,25.5c0.3,0.1,0.8,0.2,0.8,0.2c0-0.1-0.3-0.3-0.3-0.3c-0.1,0-0.3-0.1-0.5-0.1V25.5
		L47.4,25.5z M47.4,23.5v-0.3c0.1,0,0.1,0,0.2,0c0.2,0,0.3-0.1,0.2,0.3C47.6,23.5,47.5,23.6,47.4,23.5z M47.4,23.2v0.3
		c-0.1,0-0.2,0-0.2-0.1c-0.1-0.1-0.3-0.2-0.3-0.3C47.1,23,47.3,23.1,47.4,23.2L47.4,23.2z M47.4,24v0.9h-0.1
		c-0.2-0.2-0.3-0.4-0.4-0.3c-0.1,0.1,0,0.3-0.1,0.3c-0.3,0.1-0.5-0.1-0.8,0v-1.1c0.2,0,0.3,0,0.4,0C46.7,24.2,47,23.9,47.4,24
		L47.4,24z M47.4,25.2v0.3c-0.3-0.1-0.4-0.2-0.3-0.3C47,25.2,47.2,25.2,47.4,25.2L47.4,25.2z M47.4,26v4.7c-0.4,0.1-0.8,0.2-1.3,0.3
		v-5.2c0.6,0,1,0,1.2,0C47.2,25.8,47.3,25.9,47.4,26L47.4,26L47.4,26z M47.4,53.1v1c-0.4,0-0.8,0-1.3,0v-1.8
		C46.5,52.5,47,52.9,47.4,53.1L47.4,53.1z M46,23.3v-0.4c0.2,0.1,0.3,0.1,0.4,0.2h0.2c0.1,0.1,0.2,0.1,0.2,0.3
		C46.7,23.3,46.4,23.3,46,23.3z M44.1,22.9c0.3,0.2,0.6,0.3,0.9,0.3c-0.4,0-0.8,0.1-1.3,0.2v-0.3C43.9,23.1,44,23,44.1,22.9
		L44.1,22.9z M46,22.9v0.4c-0.3-0.1-0.6-0.1-0.7-0.2c0-0.1,0.3-0.2,0.3-0.3C45.7,22.8,45.9,22.9,46,22.9L46,22.9z M46,23.8v1.1H46
		c0.1,0.3-1.5,0.6-1.3,0.6c0.2,0.2,0.8,0.3,1.4,0.3v5.2c-0.8,0.1-1.6,0.3-2.3,0.6v-6.3c0.2,0,0.3,0.1,0.5,0c0.3,0,0.8,0.1,1-0.3
		l-0.1-0.1c-0.5-0.2-0.9-0.1-1.4,0.1v-1.1c0.2,0,0.3,0,0.4-0.1c0.3,0.1,0.5,0.3,0.8,0.1C45.3,23.7,45.7,23.8,46,23.8L46,23.8z
		 M46,52.3v1.8c-0.8-0.1-1.6-0.2-2.3-0.3v-3.3C44.4,51.1,45.2,51.7,46,52.3z M43.7,23.3c-0.4,0.1-0.8,0.2-1.3,0
		c0.2-0.3,0.4,0,0.5-0.4c0.3,0,0.5,0.1,0.8,0.2V23.3L43.7,23.3z M43.7,23.8v1.1c-0.1,0.1-0.3,0.2-0.3,0.3c0.1,0,0.3,0,0.3,0.1v6.3
		c-0.6,0.3-1.1,0.5-1.6,0.8v-6.9h0.3c0.3-0.3,0.4-0.2,0.6-0.5c-0.1,0-0.6-0.1-0.9-0.1v-0.7c0.3,0.1,0.5,0,0.8-0.3
		C43.1,23.7,43.4,23.7,43.7,23.8L43.7,23.8z M43.7,50.6v3.3c-0.5-0.1-1.1-0.2-1.6-0.3v-4.4C42.6,49.6,43.1,50.1,43.7,50.6L43.7,50.6
		z M42.1,23.4v-0.2V23.4C42.1,23.4,42.1,23.4,42.1,23.4z M42.1,23.2v0.2c-0.2,0.1-0.4,0.1-0.5,0.2c-1.3,0.3-1.3,0.1-2.3,0.8
		c-0.7,0.5-1.6,0.5-2.1,1.3v0.1c0.6,0.1,1.1-0.5,1.6-0.8c1.1-0.4,1-0.7,2.3-0.8c0.3-0.2,0.7-0.1,1-0.1v0.7c-0.3,0-0.5,0.1-0.6,0.1
		c0,0.2,0.3,0.2,0.3,0.2c0,0.7-0.6,0.1-0.8,0.5l1-0.2v6.9c-5.7,3-7.7,9.8,0,16.9v4.4c-10.1-1.8-15-7.2-15.6-13v-2.4
		c0.7-6.3,5.9-12.5,14.5-14.9C41.4,23.2,41.8,23.2,42.1,23.2L42.1,23.2z"/>
	<path class="st3" d="M25.5,35c2.7-10.4-5.9-16.7-16.6-19.5C25,29.9,4.8,50,36.6,53.9C34.8,53.4,21.9,48.5,25.5,35z"/>
</g>
<rect x="143" y="30.7" class="st4" width="145" height="25"/>
<g>
	<path class="st5" d="M65.6,44.3c0,1.2-0.1,2.4-0.3,3.5c1-1.5,1.7-3.4,2.1-5.4l2.3,0.7c-0.2,0.6-0.4,1.1-0.7,1.6h2v-2.2h2.5v2.2h5
		v1.2h-5v1.8h4.5v1.2h-4.5v2.1h6V52H65.1v-1.2h6v-2.1h-4v-1.2h4v-1.8h-2.7c-0.7,1.1-1.6,2.1-2.6,3l-0.5-0.6
		c-0.4,1.9-1.2,3.5-2.4,4.6L62,52.2c0.9-2,1.2-3.9,1.2-7.9v-3.6h3L66,40.1c1.6-0.3,2.9-0.6,4.1-1c-1.2-0.4-2.4-0.7-3.4-0.9l0.2-0.9
		c1.4,0.2,3.3,0.5,5.2,0.9c0.6-0.3,1.2-0.6,1.7-1H63.5V36h7.5c-0.9-0.5-2-0.9-2.7-1.3l0.2-0.9c1.2,0.1,3.2,0.5,4.8,1L72.6,36h6.6
		v1.2H76l0.5,0.3c-0.6,0.4-1.3,0.9-2,1.3c1,0.3,2,0.6,2.8,0.9l-0.5,1h3v1.2H65.6V44.3z M68.3,40.7h6.4c-0.8-0.3-1.7-0.7-2.6-1
		C71,40.1,69.7,40.5,68.3,40.7z"/>
	<path class="st5" d="M89.2,48.7l0.3,1c-1.6,1-5.2,2.2-7.1,2.6L81.8,50c0.8-0.1,1.8-0.2,2.8-0.4v-1L82.9,49
		c-0.1-1.2-0.4-2.9-0.6-4.2l0.9-0.2c0.7,1.2,1.2,2.7,1.5,3.9V44h-2.4v-1.2h2.4v-2.1h-1.6v-0.3c-0.3,0.2-0.6,0.5-0.9,0.7l-0.6-0.8
		c1.7-1.8,2.7-4,3.5-6.6l2.3,0.8c-0.1,0.3-0.2,0.5-0.3,0.8c1,0.6,2.2,1.6,3,2.5l-1.7,1.4c-0.6-1-1.3-2-2-2.8
		c-0.6,1.2-1.4,2.2-2.3,3.1h4.5v1.2h-1.7v2.1h2.3V44h-2.3v4.2c0.3-1.1,0.6-2.5,0.7-3.7l1.8,0.5c-0.4,1.2-0.9,2.5-1.8,3.7l-0.7-0.3
		v0.9C87.8,49.1,88.6,48.9,89.2,48.7z M93.3,38.8l-2.1,1c-0.4-1.3-1.1-3.1-1.7-4.5l0.9-0.5C91.5,35.9,92.6,37.4,93.3,38.8z
		 M95.7,40.1H99v10.4c0,2.4-2.3,2.8-5.1,1.2l0.2-1c2.2,0.4,2.4,0.1,2.4-0.8v-2.4h-4.3v5.1h-2.4V40.1h3.4v-5.9h2.4V40.1z M96.6,41.3
		h-4.3v1.8h4.3V41.3z M96.6,46.3v-2h-4.3v2H96.6z M96.6,39.7l-0.8-0.5c0.6-1.4,1.3-3.1,1.7-4.5l2.2,1C98.9,37.1,97.7,38.7,96.6,39.7
		z"/>
	<path class="st5" d="M118.9,52.8c-1.6-0.2-3.1-0.7-4.4-1.5c-1.6,0.9-3.4,1.3-5.3,1.5l-0.2-0.9c1.8-0.3,3.2-0.9,4.2-1.6
		c-0.5-0.5-1-1.1-1.3-1.7c-0.7,0.7-1.5,1.3-2.3,1.7l-0.5-0.7c1.4-1.2,2.2-2.5,2.7-3.8h-1v-2.5c-0.3,0.4-0.7,0.7-1,1l-0.6-0.6
		c-0.1,0.2-0.3,0.4-0.5,0.6v8.5h-2.2v-6.2c-0.4,0.4-0.8,0.6-1.1,0.9l-0.4-0.5c-0.4,2.8-1.2,4.8-2.3,6l-0.9-0.5
		c1.1-2.5,1.2-5.6,1.2-11.5v-6h15.5v3.7h-6.6l1.4,0.4c-0.1,0.2-0.2,0.5-0.3,0.8h5.8v1.2h-6.4l-0.4,0.7h6v4.2h-5.2l1,0.4
		c-0.1,0.2-0.2,0.4-0.4,0.7h2.3l0.5-0.4l2,1c-0.6,1.1-1.3,2-2.1,2.7c1,0.3,2.2,0.4,3.5,0.5L118.9,52.8z M108.5,40.7l1.7,0.8
		c0.4-0.9,0.7-1.9,0.9-3h-2.9l1.1,0.4c-0.7,1.4-2.1,3.1-3.5,4.1l-0.4-0.5c-0.1,1.4-0.2,2.6-0.3,3.8C106.3,45,107.6,42.9,108.5,40.7z
		 M105.4,40.1c0,0.7,0,1.4,0,2.1c0.8-1,1.4-2.2,2-3.6h-1.9V40.1z M105.4,37.4h10.7V36h-10.7V37.4z M114.3,49.4
		c0.5-0.5,0.9-1,1.3-1.6h-3c0,0,0,0.1-0.1,0.1C113.1,48.5,113.7,49,114.3,49.4z M112.9,43.2h3v-0.7h-3V43.2z M112.9,44.8h3V44h-3
		V44.8z"/>
	<path class="st5" d="M125.1,44.9c-0.3,3.7-1,6-2.3,7.7l-0.9-0.5c1-2.7,1-4.5,1-11.8v-5.5H139v1.2h-2l1.4,1.6
		c-0.6,0.2-1.3,0.4-2.2,0.6v1.4h2.3v1.1h-2c0.7,1.2,1.8,2.2,2.9,2.8l-1.3,1.7c-0.8-0.7-1.4-1.7-1.9-3v3.5h-2.1v-3.2
		c-0.7,1-1.6,1.9-2.9,2.7l-0.5-0.7c1.3-1.2,2.1-2.4,2.8-3.8h-1.3v-1.1h1.9v-1c-0.7,0.1-1.4,0.2-2.1,0.2l-0.2-0.9
		c1.9-0.4,3.5-1,5-1.8h-11.6v3.7C125.2,41.7,125.2,43.4,125.1,44.9c0.9-1.2,1.6-2.4,2.3-4.2h-1.7v-1.1h2.2v-1.1
		c-0.7,0.1-1.4,0.1-2,0.1l-0.1-0.9c1.9-0.4,3.7-1,5-1.7l1.4,1.6c-0.7,0.2-1.4,0.4-2.1,0.5v1.4h1.9v1.1H130V41
		c0.8,0.4,1.4,0.9,2.2,1.5l-1.2,1.3c-0.3-0.5-0.6-1-0.9-1.4v3.4h-2.1v-2.7c-0.6,1-1.2,1.7-2.2,2.5L125.1,44.9z M133.5,50.8h5.7V52
		h-14.9v-1.2h2.7v-4.3h2.2v4.3h1.9v-5.4h2.4v2.1h4.2v1.2h-4.2V50.8z"/>
	<path class="st6" d="M148.2,46.3c0.1,1.4,0.1,3.3-0.1,4.5l-1.6-0.5c0.5-1.1,0.9-2.7,1-4L148.2,46.3z M154,50.5
		c-0.3,2.1-2.4,2.3-4.5,0.7l0.3-0.9c1.8,0.5,2.3,0.5,2.4-0.6c0.1-0.4,0.1-0.9,0.1-1.6l-0.3,0.2c-0.4-1-0.7-1.8-1.1-2.7l0.6-0.3
		c0.3,0.4,0.6,0.7,0.9,1.1c0-0.4,0-0.9,0-1.4h-3v0.5h-2V35.1h7.5v1.2h-2.4V38h1.7v1.2h-1.7v1.7h1.4l-0.3-0.5c2-1.6,3.2-3.7,4.3-6.4
		l2.4,0.8c-0.1,0.2-0.2,0.5-0.3,0.7c1.5,1.7,2.7,2.5,4.7,3.3l-1.3,2.2c-0.6-0.3-1.1-0.7-1.6-1.2v0.5h-5.5v-0.4
		c-0.7,0.5-1.4,1-2.1,1.4l-0.1-0.1V42h-1.6v1.9h2C154.4,47.2,154.3,49.1,154,50.5z M148.7,50.1c0-1.1,0-2.4-0.1-3.7l0.7-0.1
		c0.4,1.2,0.7,2.4,0.9,3.6L148.7,50.1z M149.4,38h1.1v-1.7h-1.1V38z M149.4,40.9h1.1v-1.7h-1.1V40.9z M149.4,43.9h1.1V42h-1.1V43.9z
		 M150.5,49.3c-0.2-1.1-0.5-2.1-0.8-3.3l0.7-0.2c0.6,1,1,2,1.4,3L150.5,49.3z M163.1,52.5c-0.5-0.8-1-1.9-1.6-2.8
		c-0.7,1.2-1.7,2.3-2.9,3.1l-0.6-0.7c0.6-0.7,1.1-1.3,1.4-2l-1.4,1.2c-0.3-0.6-0.6-1.2-1-1.7c-0.7,1.3-1.7,2.5-2.8,3.1l-0.6-0.7
		c1.2-1.3,2-3.3,2.3-5.6l2.2,0.3c-0.1,0.6-0.2,1.1-0.5,1.7c0.7,0.5,1.4,1.1,1.8,1.6c0.5-1,0.8-2.1,1-3.6l2.2,0.3
		c-0.1,0.6-0.3,1.3-0.6,1.9c0.9,0.7,2,1.7,2.7,2.5L163.1,52.5z M154.9,41.4h4v4.7h-4V41.4z M156.4,44.9h1v-2.3h-1V44.9z M157.2,39.1
		h3.9c-0.7-0.8-1.3-1.7-1.8-2.6C158.8,37.5,158.1,38.3,157.2,39.1z M159.5,41.4h4v4.7h-4V41.4z M161,44.9h1v-2.3h-1V44.9z"/>
	<path class="st6" d="M173.4,38.7h-6.7v-1.2h2.8c-0.5-1.2-1.1-2.3-1.6-3.1l0.8-0.6c1,0.8,2,1.9,2.8,3l-1.2,0.7h3.2V38.7z
		 M167.2,45.6h5.6v6.7h-2v-1.2h-1.5v1.4h-2V45.6z M172.8,40.3v1.2h-5.6v-1.2H172.8z M167.3,42.9h5.6v1.2h-5.6V42.9z M169.3,49.9h1.5
		v-3.1h-1.5V49.9z M176.5,36.4h-3.1v-1.1h2.9l0.5-0.5l2,0.8c-0.1-0.5-0.2-0.9-0.2-1.4l1-0.2c0.2,0.8,0.4,1.5,0.7,2.2
		c0.4-0.5,0.8-1,1.1-1.7l1.5,1.2c-0.6,0.5-1.4,1-2.1,1.4c0.3,0.4,0.5,0.8,0.8,1.2c0.5-0.5,1-1.2,1.4-1.7l1.5,1.3
		c-0.6,0.4-1.4,0.9-2.2,1.2c0.8,0.8,1.7,1.4,2.7,2l-1.4,2.1c-0.7-0.4-1.4-1-2.1-1.8h-6.1c-0.7,0.6-1.4,1.2-2.3,1.6l-0.6-0.8
		c1.1-0.9,1.9-1.9,2.5-2.9c-0.6-0.7-1.3-1.4-1.7-1.8L174,37c0.5,0.2,1.3,0.6,2,1C176.2,37.5,176.3,36.9,176.5,36.4z M180.8,50.9h3.5
		v1.2h-11v-1.2h2.8c-0.4-1-0.9-2.1-1.3-2.9l0.8-0.6c1,0.8,1.9,1.8,2.7,2.8l-1.1,0.7h2.2c0.5-1.1,0.9-2.5,1.2-3.6h-6v-4.4h8.4v4.4
		h-2.3l2.1,1C182.3,49.1,181.5,50.1,180.8,50.9z M178.8,36c-0.4,1.6-1.1,3.1-2.1,4.4h4.1C179.9,39.2,179.3,37.7,178.8,36z
		 M176.8,46.1h3.9V44h-3.9V46.1z"/>
	<path class="st6" d="M193.5,49.3l1.3,1c-1.9,1.1-4.7,2-7.6,2.3l-0.2-1c2.3-0.7,3.8-1.4,5.2-2.3h-3.1v-5.6c-0.7,0.3-1.4,0.5-2.3,0.7
		l-0.3-0.9c2.2-0.7,3.6-1.8,4.5-3.3h-1.3l-0.5,1.3l-2-0.4c0.5-1.4,0.8-2.6,1.2-4.1l1.7,0.3h1.9c0-0.3,0.1-0.6,0.1-0.9h-4.8v-1.1h4.9
		c0-0.4,0-0.7,0-1.1h2.4c0,0.4,0,0.7,0,1.1h1.7v-1.1h2.4v1.1h4.2v3.1h-4.2v0.8h5.4c-0.1,1-0.2,1.8-0.4,2.2c-0.3,1-1,1.3-1.8,1.3v6.7
		H193.5z M191.5,39.2c0.1-0.3,0.2-0.5,0.3-0.8h-1.5l-0.2,0.8H191.5z M199.4,43.4h-7.8v0.8h7.8V43.4z M199.4,45.4h-7.8v0.8h7.8V45.4z
		 M191.6,48.2h7.8v-1h-7.8V48.2z M191.8,42.3h8.7c-0.3-0.1-0.6-0.3-0.9-0.5l0.3-0.9c1.3,0.3,1.5,0.3,1.6,0c0.1-0.2,0.1-0.4,0.2-0.7
		h-3v1.7h-2.4v-1.7h-2.8C193.1,41,192.5,41.7,191.8,42.3z M196.3,38.3h-2.1c-0.1,0.3-0.1,0.6-0.2,0.8h2.3V38.3z M194.4,37.3h1.9
		v-0.9h-1.8C194.4,36.6,194.4,37,194.4,37.3z M204.1,50.5l-0.9,2.2c-1.8-0.8-4.5-1.8-6.6-2.4l0.2-1C199,49.5,202.1,49.9,204.1,50.5z
		 M198.7,36.3v0.9h1.9v-0.9H198.7z"/>
	<path class="st6" d="M219.7,38.3v1.6h3.8v10.9c0,1.8-1.3,2.3-3.7,1.3l0.1-1c1.2,0.1,1.3-0.1,1.3-0.8v-2.5h-1.6v4.4h-2.2v-4.4h-1.5
		v4.7h-2.3v-6.4l-1.2,1c-0.4-0.7-0.8-1.6-1.3-2.3v7.9h-2.3v-7.4c-0.6,0.5-1.3,1-2.1,1.5l-0.6-0.8c2.4-2.1,3.7-4.3,4.5-6.5h-4v-1.2
		h4.2l0.5-0.4l1.9,1c-0.7,1.5-1.4,2.8-2.2,3.9V43l0.4,0.3c0.4-0.7,0.8-1.4,1.2-2.1l0.9,0.7v-2h3.7v-1.6h-4.4V37h4.4v-2.9h2.4V37h2.4
		c-0.6-0.7-1.4-1.5-2-2.1l0.5-0.7c0.9,0.3,2.3,0.9,3.3,1.7l-1,1.2h1.2v1.2H219.7z M211.5,36.8l-1.9,1.4c-0.5-1.2-1.3-2.6-1.9-3.7
		l0.7-0.6C209.4,34.7,210.7,35.8,211.5,36.8z M213.6,45.3v-2.3c-0.4,0.4-0.9,0.7-1.3,1C212.7,44.4,213.1,44.8,213.6,45.3z
		 M217.4,41.1h-1.5v2.2h1.5V41.1z M217.4,44.5h-1.5v2.3h1.5V44.5z M219.6,41.1v2.2h1.6v-2.2H219.6z M221.2,44.5h-1.6v2.3h1.6V44.5z"
		/>
	<path class="st6" d="M243.5,38.7c-0.2,5.6-0.4,9.6-0.7,11.4c-0.4,2.4-2.7,3.2-6.1,0.9l0.4-1c2.7,0.6,3.1,0.5,3.3-0.8
		c0.2-1.5,0.5-5.3,0.6-9.4h-1.6c-0.3,6.7-1.7,10.2-6.7,12.9l-0.5-0.9c1.6-1.2,2.7-2.5,3.4-4c-2.1,1.5-5.8,3.2-8.4,4.1l-0.8-2.6
		c0.5-0.1,1-0.2,1.5-0.3V35.5h6.8v11.4l0.8-0.3l0.3,0.7c0.7-1.9,1-4.2,1.1-7.4h-1.9v-1.2h1.9c0-1.4,0-2.9,0-4.5h2.5
		c0,1.6,0,3.1-0.1,4.5H243.5z M230.1,39.6h2.1v-2.9h-2.1V39.6z M230.1,43.8h2.1v-3.1h-2.1V43.8z M230.1,48.4
		c0.7-0.2,1.4-0.4,2.1-0.6V45h-2.1V48.4z"/>
	<path class="st6" d="M253.8,46.7h-3.5v1.7h-2.6V37.3h6.1v-3.2h2.7v3.2h6.1v10.9H260v-1.5h-3.5v6.1h-2.7V46.7z M253.8,41.3v-2.7
		h-3.5v2.7H253.8z M253.8,45.4v-2.9h-3.5v2.9H253.8z M260,41.3v-2.7h-3.5v2.7H260z M260,45.4v-2.9h-3.5v2.9H260z"/>
	<path class="st6" d="M273.4,38.7h-7.1v-1.2h3.1c-0.6-1.1-1.3-2.2-1.9-3l0.7-0.7c1.1,0.6,2.4,1.8,3.3,2.9l-1.1,0.8h3V38.7z
		 M272.8,41.5h-5.9v-1.2h5.9V41.5z M266.9,43h5.9v1.2h-5.9V43z M266.9,45.7h6v6.8h-2.2v-1.4h-1.6v1.4h-2.2V45.7z M269.1,50h1.6v-3.1
		h-1.6V50z M283.8,40.7v1.2h-10.4v-1.2h4v-1.2h-3v-1.1h3v-1.2h-3.7V36h3.7v-1.9h2.4V36h3.8v1.2h-3.8v1.2h3.1v1.1h-3.1v1.2H283.8z
		 M274.1,42.9h8.8v7.8c0,2.1-2.1,2.4-5,1.1l0.2-1c2.2,0.3,2.4,0.2,2.4-0.7v-1.1h-4.2v3.7h-2.3V42.9z M276.4,44.1v1.3h4.2v-1.3H276.4
		z M280.6,47.8v-1.3h-4.2v1.3H280.6z"/>
	<path class="st5" d="M307.7,52.8c-2-0.6-4-1.6-5.7-3.1c-2.1,1.6-4.6,2.7-7.7,3.2l-0.3-1c2.9-1,5-2.2,6.6-3.7
		c-1.4-1.6-2.4-3.6-3-6.2c-0.8,4.5-2.6,8.2-5.8,10.7l-0.7-0.8c3.2-3.9,4.1-8.7,4.2-15.5h-3.1v-1.3h12.4c-0.4,2.1-1,4.1-1.4,5.5h1
		l0.6-0.6l2.6,1.1c-0.8,2.8-2,5.1-3.7,6.9c1.6,0.9,3.4,1.5,5.4,2L307.7,52.8z M298,36.4c-0.1,1.4-0.2,2.8-0.3,4.1h2.9
		c0.4-1.2,0.7-2.7,1-4.1H298z M304.1,41.8h-5.6c0.8,2.1,1.9,3.7,3.3,4.8C302.9,45.2,303.6,43.6,304.1,41.8z"/>
	<path class="st5" d="M328.3,47.4c-0.7-0.2-1.5-0.4-2.4-0.8v6h-2.4v-0.8h-7.1v0.8H314v-6c-0.9,0.4-1.9,0.7-2.8,0.9l-0.4-0.9
		c2.4-0.9,4.8-2.3,6.2-4h-5.6v-1.2h4.7c-0.5-0.6-1-1.2-1.4-1.6l0.3-0.4c-0.2,0-0.4,0-0.6,0l-0.1-0.9c3.4-0.3,6.2-0.7,8.1-1.2H314
		v2.7h-2.3v-3.9h8.3c-1-0.4-2.1-0.9-3-1.2l0.2-0.9c1.1,0.1,3.1,0.3,4.7,0.8l-0.6,1.4h7v3.9h-2.3v-2.7h-2l1.3,1.3
		c-0.4,0.1-0.8,0.2-1.3,0.2l1.5,0.8c-0.6,0.7-1.2,1.3-1.8,1.8h4.8v1.2h-6.5c2.2,1.5,4.7,2.1,7.4,2.4L328.3,47.4z M324.1,45.8
		c-1.1-0.6-2.2-1.4-3-2.3v1.9h-2.5v-1.5c-0.8,0.8-1.8,1.4-2.8,2H324.1z M318.1,40.8l-0.6,0.6h1.2v-2.1c-0.9,0.1-1.8,0.1-2.7,0.1
		C316.7,39.7,317.4,40.2,318.1,40.8z M318.7,46.9h-2.3v1.3h2.3V46.9z M318.7,49.2h-2.3v1.4h2.3V49.2z M323.4,38.9
		c-0.7,0.1-1.5,0.2-2.2,0.3v2.3h0.9C322.6,40.6,323.1,39.7,323.4,38.9z M323.5,46.9h-2.3v1.3h2.3V46.9z M323.5,49.2h-2.3v1.4h2.3
		V49.2z"/>
	<path class="st5" d="M336.7,37.9h-5.1v-1.2h7v-2.6h2.6v2.6h7v1.2H342c1.9,1.9,4.2,2.9,6.8,3.6l-1.4,2.5c-2.8-1.2-5.2-3.2-6.3-5.4
		v3.7h-2.6v-3.2c-1.5,2.3-4.5,4.2-7.2,5.2l-0.4-0.9C333.3,42,335.6,40,336.7,37.9z M331.1,50.9h17.5v1.2h-17.5V50.9z M334.3,42.9
		h11.1v6.7h-11.1V42.9z M336.9,45.6h6v-1.5h-6V45.6z M336.9,48.5h6v-1.7h-6V48.5z"/>
	<path class="st5" d="M351.1,52.1l-0.5-0.9c2.1-1.3,3.9-3,5.4-5.1l2.2,1.4C356.7,49.1,354.1,51,351.1,52.1z M361.5,45.3v5.1
		c0,2.2-2.1,3.1-5.6,1.1l0.3-1c2.4,0.4,2.7,0.2,2.7-0.9v-4c-2.4,0.3-4.7,0.4-6.3,0.5l-0.6-2.4c1.2,0.1,2.4,0.1,3.6,0.1
		c1.5-0.8,3-1.7,4.4-2.8c-2.2,0.5-4.4,0.7-6.1,0.9l-0.6-2.3c0.8,0.1,1.7,0.1,2.5,0.1c0.8-0.8,1.5-1.7,2.1-2.6c-2,0.1-4,0.2-5.5,0.2
		l-0.2-1c4.7-0.4,9.2-1.1,12.8-2.4l2.2,1.9c-1.8,0.4-3.8,0.7-5.9,1c-1.1,1-2.6,2.1-3.9,3c1.3,0,2.7,0,4-0.1c0.8-0.7,1.5-1.5,2.2-2.3
		l2.4,1.5c-2.4,2.2-5.1,3.9-7.8,5.1c2.2-0.1,4.4-0.2,6.4-0.4c-0.4-0.6-0.8-1.1-1.1-1.6l0.8-0.6c1.4,0.9,3.3,2.5,4.2,3.9l-2,1.5
		c-0.4-0.7-0.8-1.4-1.2-2.1C364.3,44.9,363,45.1,361.5,45.3z M368.9,49.7l-1.8,2.1c-1.1-1.3-3.5-3.5-5.2-4.8l0.5-0.9
		C364.5,46.8,367.4,48.4,368.9,49.7z"/>
	<path class="st5" d="M373.3,46.8c0,2.2-0.2,4.2-0.5,5.7l-2.3-0.9c0.8-1.3,1.5-2.9,1.9-5L373.3,46.8z M372.2,44.2
		c0.9-1.1,1.6-2.2,2.3-3.5c-1.1,0.4-2.2,0.7-3.2,0.9l-0.4-2.2c0.4,0,0.8,0,1.1,0c0.7-1.7,1.2-3.7,1.6-5.5l2.5,0.7
		c-0.7,1.7-1.8,3.5-2.8,4.9c0.7,0,1.3,0,1.9-0.1c0.3-0.6,0.6-1.3,0.9-2l2.2,1.1c-1.4,2.3-3,4.2-4.5,5.5c0.8-0.1,1.7-0.2,2.5-0.3
		l-0.5-1.4l0.9-0.4c0.8,0.9,1.5,2.2,2.1,3.5l-1.8,0.7c-0.1-0.4-0.2-0.9-0.3-1.3c-1.7,0.7-3.7,1.4-5.3,1.6l-0.5-2.1L372.2,44.2z
		 M376.4,51.1l-2.1,0.4c0-1.4-0.2-3.4-0.4-4.9l0.9-0.2C375.4,47.9,376.1,49.8,376.4,51.1z M376.4,45.9c0.9,1,1.8,2.3,2.4,3.4l-1.8,1
		c-0.4-1.3-0.8-2.7-1.3-3.9L376.4,45.9z M386.2,52.3c-2.7,0-3.1-0.3-3.1-2.5v-6.5c-0.4,0.1-0.7,0.2-1.1,0.2v0.8c0,3.7-0.7,7-5.4,8.5
		l-0.4-0.9c3.3-2,3.5-4,3.5-7.7v-0.3c-0.5,0.1-1,0.1-1.4,0.2l-0.5-2.3c0.6,0,1.1,0,1.7,0c0.5-1.1,1-2.5,1.3-3.8h-3v-1.2h5
		c-0.8-0.8-1.7-1.5-2.5-2.1l0.5-0.9c1.3,0.3,3,1.1,4.3,1.9l-0.9,1.2h4.3v1.2h-4.7c-0.8,1.3-1.8,2.7-2.7,3.7c1.5,0,3-0.1,4.5-0.3
		c-0.3-0.7-0.7-1.4-1-1.9l0.8-0.5c1.3,1.2,2.8,3.2,3.5,4.5l-2,1.2c-0.2-0.6-0.5-1.3-0.8-2.1c-0.1,0.1-0.3,0.1-0.5,0.1v6.4
		c0,0.8,0.1,1,0.9,1c0.8,0,0.9-0.2,0.9-3.5h1C389.4,51.7,388.5,52.3,386.2,52.3z"/>
</g>
</svg>
