<?xml version="1.0" encoding="utf-8"?>
<!-- Generator: Adobe Illustrator 27.9.0, SVG Export Plug-In . SVG Version: 6.00 Build 0)  -->
<svg version="1.1" id="home" xmlns="http://www.w3.org/2000/svg" xmlns:xlink="http://www.w3.org/1999/xlink" x="0px" y="0px"
	 viewBox="0 0 32 32" style="enable-background:new 0 0 32 32;" xml:space="preserve">
<style type="text/css">
	.st0{fill-rule:evenodd;clip-rule:evenodd;fill:#3D2D19;}
</style>
<g>
	<ellipse class="st0" cx="15.7" cy="6.3" rx="3.4" ry="1.1"/>
	<path class="st0" d="M24,10.9V6.3c0-5.8-16.5-6.1-16.5,0v6.6l-0.8-0.8c-0.3-2.3-1.8-3.3-4-3.3C2.3,8.8,2,9.1,2,9.5
		c0,2.4,1,3.8,3.4,4l2.1,1.9v10.2c0,6,16.5,6,16.5,0V22l5.5-6.1C31.8,13.4,26.3,8.4,24,10.9z M9.3,6.3c0-3.4,12.8-3.4,12.8,0
		S9.3,9.7,9.3,6.3z M28.1,14.7c-0.6,0.6-3.4-1.7-2.8-2.5C26,11.5,28.7,14,28.1,14.7z"/>
</g>
</svg>
