<?xml version="1.0" encoding="utf-8"?>
<!-- Generator: Adobe Illustrator 27.9.0, SVG Export Plug-In . SVG Version: 6.00 Build 0)  -->
<svg version="1.1" id="home" xmlns="http://www.w3.org/2000/svg" xmlns:xlink="http://www.w3.org/1999/xlink" x="0px" y="0px"
	 viewBox="0 0 32 32" style="enable-background:new 0 0 32 32;" xml:space="preserve">
<style type="text/css">
	.st0{fill:#3D2D19;}
</style>
<path class="st0" d="M3.3,24.4l12.3,5.1l0,0l0,0h0.1h0.1l0,0c0.1,0,0.1,0,0.2,0s0.1,0,0.2,0l0,0h0.1h0.1l12.3-5
	c0.3-0.1,0.5-0.5,0.5-0.8V8.3l0,0V8.2V8.1V8l0,0V7.9c0,0,0-0.1-0.1-0.1L29,7.7l0,0l-0.1-0.1l0,0h-0.1h-0.1l0,0l-4.4-1.8l-4-1.6l0,0
	l-4-1.6c-0.2-0.1-0.5-0.1-0.7,0l-12.3,5l0,0H3.2H3.1c0,0.1-0.1,0.2-0.2,0.3c0,0,0,0.1-0.1,0.1v0.1v0.1v0.1v0.1l0,0v15.3
	C2.8,24,3,24.3,3.3,24.4z M24,7.5l2,0.8l-10,4.1l-2.1-0.9L24,7.5z M16,4.3L17.7,5L8.3,8.8L7.8,9H7.7l0,0L6,8.4L16,4.3z M4.5,9.7
	l2.7,1.1v6c0,0.4,0.2,0.7,0.5,0.8l3.2,1.3c0.1,0,0.2,0.1,0.3,0.1h0.1c0.1,0,0.2,0,0.2-0.1c0,0,0.1,0,0.1-0.1
	c0.2-0.2,0.4-0.4,0.4-0.7v-5.3l2.9,1.2v13.4L4.5,23V9.7z"/>
</svg>
