<?xml version="1.0" encoding="utf-8"?>
<!-- Generator: Adobe Illustrator 27.9.0, SVG Export Plug-In . SVG Version: 6.00 Build 0)  -->
<svg version="1.1" id="home" xmlns="http://www.w3.org/2000/svg" xmlns:xlink="http://www.w3.org/1999/xlink" x="0px" y="0px"
	 viewBox="0 0 32 32" style="enable-background:new 0 0 32 32;" xml:space="preserve">
<style type="text/css">
	.st0{fill:#3D2D19;}
</style>
<g>
	<path class="st0" d="M4.7,7.3L2.9,5.6C2.7,5.4,2.4,5.5,2.3,5.8c-0.5,1.7,0,3.6,1.3,4.9c1.4,1.4,3.5,1.8,5.3,1.2
		c0.2,0,0.3,0,0.4,0.1L20,22.7c0.1,0.1,0.1,0.3,0.1,0.4c-0.6,1.8-0.3,3.8,1.2,5.3c1.3,1.4,3.2,1.8,4.9,1.3c0.3-0.1,0.4-0.4,0.2-0.6
		l-1.7-1.7c-0.7-0.7-0.7-2,0-2.7l0,0c0.7-0.7,2-0.7,2.7,0l1.7,1.7c0.2,0.2,0.5,0.1,0.6-0.2c0.5-1.7,0.1-3.6-1.3-5s-3.5-1.8-5.3-1.2
		c-0.2,0-0.3,0-0.4-0.1L12,9.3c-0.1-0.1-0.1-0.3-0.1-0.4c0.6-1.8,0.3-3.8-1.2-5.3C9.4,2.3,7.5,1.8,5.8,2.3C5.5,2.4,5.4,2.7,5.6,2.9
		l1.7,1.7c0.7,0.7,0.7,2,0,2.7l0,0C6.6,8.1,5.4,8.1,4.7,7.3z"/>
	<g>
		<path class="st0" d="M20.9,15.2L29.1,7c1.1-1.1,1.1-3-0.1-4.1C27.9,1.8,26,2,24.9,3l-8.1,8.1c-0.2,0.2-0.2,0.5,0,0.7l3.3,3.3
			C20.3,15.4,20.7,15.4,20.9,15.2z"/>
		<path class="st0" d="M2.3,28.1c-0.2,0.2-0.1,0.6,0.1,0.8l0.9,0.9C3.5,30,3.8,30,4.1,29.9L6,28.6c0.1-0.1,0.2-0.2,0.2-0.2L6.9,27
			c0,0,0.1-0.1,0.1-0.2l7-7c0.2-0.2,0.2-0.5,0-0.7L13.2,18c-0.2-0.2-0.5-0.2-0.7,0l-7,7c0,0-0.1,0.1-0.2,0.1l-1.4,0.7
			c-0.1,0-0.2,0.1-0.2,0.2L2.3,28.1z"/>
	</g>
</g>
</svg>
