<?xml version="1.0" encoding="utf-8"?>
<!-- Generator: Adobe Illustrator 27.9.0, SVG Export Plug-In . SVG Version: 6.00 Build 0)  -->
<svg version="1.1" id="home" xmlns="http://www.w3.org/2000/svg" xmlns:xlink="http://www.w3.org/1999/xlink" x="0px" y="0px"
	 viewBox="0 0 32 32" style="enable-background:new 0 0 32 32;" xml:space="preserve">
<style type="text/css">
	.st0{fill:#3D2D19;}
	.st1{fill:#FFFFFF;}
	.st2{fill:#3D2D19;stroke:#3D2D19;stroke-width:1.5;stroke-miterlimit:10;}
	.st3{fill:#3D2D19;stroke:#FFFFFF;stroke-miterlimit:10;}
</style>
<g>
	<path class="st0" d="M13.3,25c-0.1,0.3-0.4,0.6-0.7,0.6c-0.1,0-0.4-0.1-0.6-0.3l-1-1.6L9.2,24l0,0c-0.7,0-1-0.4-0.7-1.2l1.7-3.8
		c0.3,0.3,0.6,0.4,0.9,0.4c0,0.1,0.1,0.1,0.1,0.3L10,22.5l0.7-0.1h0.1c0.4,0,0.9,0.3,1,0.6l0.4,0.7l1.3-2.7c0.3,0,0.6,0,0.9,0
		c0.1,0.1,0.3,0.1,0.4,0.1L13.3,25z"/>
	<path class="st0" d="M15.6,19.8c-0.1,0-0.4-0.1-0.4-0.3L14.9,19l-0.4,0.3c-0.1,0.1-0.3,0.1-0.6,0.1c-0.1,0-0.3-0.1-0.4-0.3
		l-0.1-0.4L13,18.8c-0.1,0.1-0.4,0-0.6,0c-0.1-0.1-0.3-0.3-0.3-0.4V18h-0.4c-0.1,0-0.4,0-0.6-0.1C11,17.8,11,17.6,11,17.3v-0.4h-0.4
		c-0.1,0-0.4-0.1-0.4-0.3c-0.1-0.1-0.1-0.4,0-0.6l0.1-0.4l-0.4-0.1c-0.1-0.1-0.3-0.3-0.4-0.4c0-0.1,0-0.4,0.1-0.6L9.7,14l-0.4-0.3
		C9.2,13.6,9,13.4,9,13.3c0-0.1,0.1-0.4,0.3-0.4l0.4-0.3l-0.3-0.4c-0.1-0.1-0.1-0.3-0.1-0.6c0-0.1,0.1-0.3,0.3-0.4L10,11l-0.1-0.4
		c-0.1-0.1,0-0.4,0-0.6c0.1-0.1,0.3-0.3,0.4-0.3h0.4V9.2c0-0.1,0-0.4,0.1-0.6c0.1-0.1,0.3-0.1,0.6-0.1h0.4V8.1
		c0-0.1,0.1-0.4,0.3-0.4c0.1-0.1,0.4-0.1,0.6,0l0.4,0.1l0.1-0.4c0.1-0.1,0.3-0.3,0.4-0.4c0.1,0,0.4,0,0.6,0.1l0.4,0.3L15,6.9
		c0.1-0.1,0.3-0.3,0.4-0.3c0.1,0,0.4,0,0.4,0.1l0.3,0.4l0.3-0.3c0.1-0.1,0.3-0.1,0.6-0.1c0.1,0,0.3,0.1,0.4,0.3l0.1,0.4H18
		c0.1-0.1,0.4,0,0.6,0c0.1,0.1,0.3,0.3,0.3,0.4v0.4h0.4c0.1,0,0.4,0,0.6,0.1C20,8.4,20,8.6,20,8.9v0.4h0.4c0.1,0,0.4,0.1,0.4,0.3
		c0.1,0.1,0.1,0.4,0,0.6l-0.1,0.4l0.4,0.1c0.1,0.1,0.3,0.3,0.4,0.4c0,0.1,0,0.4-0.1,0.6l-0.3,0.4l0.4,0.3c0.1,0.1,0.3,0.3,0.3,0.4
		c0,0.1-0.1,0.4-0.3,0.4l-0.4,0.3l0.3,0.4c0.1,0.1,0.1,0.3,0.1,0.6c0,0.1-0.1,0.3-0.3,0.4L20.8,15l0.1,0.4c0.1,0.1,0,0.4,0,0.6
		c-0.1,0.1-0.3,0.3-0.4,0.3h-0.4V17c0,0.1,0,0.4-0.1,0.6c-0.1,0.1-0.3,0.1-0.6,0.1H19v0.4c0,0.1-0.1,0.4-0.3,0.4
		c-0.1,0.1-0.4,0.1-0.6,0l-0.4-0.1l-0.1,0.4c-0.1,0.1-0.3,0.3-0.4,0.4c-0.1,0-0.4,0-0.6-0.1l-0.4-0.3l-0.3,0.4
		C15.9,19.8,15.7,19.8,15.6,19.8L15.6,19.8z"/>
	<path class="st0" d="M21.6,23.8L21.6,23.8l-1.9-0.3l-1,1.6c-0.1,0.3-0.4,0.3-0.6,0.3c-0.3,0-0.6-0.1-0.7-0.6l-1.7-3.9
		c0.3,0,0.6-0.1,0.9-0.3c0.1,0,0.3,0,0.4,0.1l1.3,2.7l0.4-0.7c0.3-0.4,0.6-0.6,1-0.6h0.1l0.7,0.1l-1.2-2.6c0.3-0.1,0.4-0.4,0.6-0.6
		c0.1,0,0.3-0.1,0.4-0.1l1.6,3.6C22.7,23.4,22.4,23.8,21.6,23.8z"/>
	<circle class="st1" cx="15.6" cy="13.3" r="2.2"/>
	<path class="st1" d="M16.6,17.9l0.3,0.1l0.1-0.3c0.1-0.3,0.4-0.4,0.9-0.3l0.3,0.1v-0.3c0-0.3,0.3-0.6,0.7-0.6h0.3v-0.3
		c0-0.1,0-0.3,0.1-0.4s0.3-0.3,0.4-0.3H20l-0.1-0.3c-0.1-0.3,0-0.7,0.3-0.9l0.3-0.1l-0.1-0.1c-0.1-0.3-0.1-0.7,0.1-0.9l0.3-0.1
		l-0.3-0.1c-0.3-0.1-0.3-0.6-0.1-0.9l0.1-0.3l-0.3-0.1c-0.3-0.1-0.4-0.4-0.3-0.9l0.1-0.3h-0.3c-0.3,0-0.6-0.3-0.6-0.7V9.7h-0.3
		c-0.1,0-0.3,0-0.4-0.1s-0.3-0.3-0.3-0.4V8.8l-0.3,0.1c-0.3,0.1-0.7,0-0.9-0.3l-0.1-0.3l-0.1,0.1c-0.3,0.1-0.6,0.1-0.9-0.1L15.5,8
		l-0.1,0.3c-0.1,0.3-0.6,0.3-0.9,0.1l-0.3-0.1l-0.1,0.3C14,8.9,13.7,9,13.2,8.9L13,8.8v0.3c0,0.3-0.3,0.6-0.7,0.6H12V10
		c0,0.1,0,0.3-0.1,0.4c-0.1,0.1-0.3,0.3-0.4,0.3h-0.3l0.1,0.3c0.1,0.3,0,0.7-0.3,0.9L10.7,12l0.1,0.1c0.1,0.3,0.1,0.7-0.1,0.9
		l-0.3,0.1l0.3,0.1c0.3,0.1,0.3,0.6,0.1,0.9l-0.1,0.3l0.3,0.1c0.3,0.1,0.4,0.4,0.3,0.9l-0.1,0.3h0.3c0.3,0,0.6,0.3,0.6,0.7v0.3h0.3
		c0.1,0,0.3,0,0.4,0.1c0.1,0.1,0.3,0.3,0.3,0.4v0.3l0.3-0.1c0.3-0.1,0.7,0,0.9,0.3l0.1,0.3l0.1-0.1c0.1-0.1,0.3-0.1,0.4-0.1
		c0.1,0,0.4,0.1,0.4,0.3l0.1,0.3l0.3-0.4C15.9,17.6,16.3,17.6,16.6,17.9z M15.6,16.6c-1.9,0-3.3-1.4-3.3-3.3s1.4-3.3,3.3-3.3
		s3.3,1.4,3.3,3.3S17.3,16.6,15.6,16.6z"/>
</g>
<path class="st2" d="M5,3.6c0,8.3,0,16.5,0,24.8h20.5v-0.6H5.6V4.3h19.5v24.1h0.6V3.6H5z"/>
<g>
	<path class="st3" d="M24.2,12.6c-3.3,0-6.1,2.7-6.1,6.1c0,3.3,2.7,6.1,6.1,6.1c3.3,0,6.1-2.7,6.1-6.1
		C30.3,15.3,27.5,12.6,24.2,12.6z"/>
	<polygon class="st1" points="24.6,20.6 23.3,22 21.9,20.6 20,18.6 21.2,17.3 23.3,19.2 27.2,15.3 28.5,16.7 	"/>
</g>
</svg>
