<?xml version="1.0" encoding="utf-8"?>
<!-- Generator: Adobe Illustrator 27.9.0, SVG Export Plug-In . SVG Version: 6.00 Build 0)  -->
<svg version="1.1" id="home" xmlns="http://www.w3.org/2000/svg" xmlns:xlink="http://www.w3.org/1999/xlink" x="0px" y="0px"
	 viewBox="0 0 32 32" style="enable-background:new 0 0 32 32;" xml:space="preserve">
<style type="text/css">
	.st0{fill:#3D2D19;}
</style>
<g>
	<path class="st0" d="M29.8,13.9c0-0.3-0.3-0.5-0.6-0.5h-1.3c-0.4-0.1-0.8-0.4-0.9-0.9c-0.2-0.8-0.6-1.5-1-2.2
		c-0.1-0.3-0.1-0.6,0.1-0.8l1.1-1.1c0.2-0.2,0.3-0.6,0.1-0.8c-0.8-1.1-1.8-2-2.9-2.9c-0.3-0.2-0.6-0.2-0.8,0.1l-1.1,1.1
		C22.3,6.1,22,6.2,21.7,6c-1-0.6-2-1-3.2-1.2l0,0v-2c0-0.3-0.2-0.6-0.5-0.6C17.4,2.1,16.7,2,16,2c-0.7,0-1.4,0.1-2,0.2
		c-0.3,0-0.5,0.3-0.5,0.6v2l0,0C12.3,5,11.3,5.5,10.3,6C10,6.2,9.7,6.1,9.5,5.9l-1-1C8.2,4.6,7.9,4.6,7.6,4.8
		c-1.1,0.8-2,1.8-2.9,2.9C4.6,7.9,4.6,8.3,4.8,8.5l1.1,1.1c0.2,0.2,0.2,0.5,0.1,0.8c-0.4,0.7-0.7,1.4-1,2.2
		c-0.1,0.4-0.5,0.8-0.9,0.9H2.8c-0.3,0-0.6,0.2-0.6,0.5C2.1,14.6,2,15.3,2,16c0,0.7,0.1,1.4,0.2,2.1c0,0.3,0.3,0.5,0.6,0.5h1.3
		C4.5,18.7,4.9,19,5,19.5c0.2,0.8,0.6,1.5,1,2.2c0.1,0.3,0.1,0.6-0.1,0.8l-1.1,1.1c-0.2,0.2-0.3,0.6-0.1,0.8c0.8,1.1,1.8,2,2.9,2.9
		c0.3,0.2,0.6,0.2,0.8-0.1l1.1-1.1c0.2-0.2,0.5-0.2,0.8-0.1c1,0.6,2,1,3.2,1.2l0,0v2c0,0.3,0.2,0.6,0.5,0.6c0.7,0.1,1.3,0.2,2,0.2
		c0.7,0,1.4-0.1,2-0.2c0.3,0,0.5-0.3,0.5-0.6v-2l0,0c1.1-0.3,2.2-0.7,3.2-1.2c0.3-0.1,0.6-0.1,0.8,0.1l1.1,1.1
		c0.2,0.2,0.6,0.3,0.8,0.1c1.1-0.8,2-1.8,2.9-2.9c0.2-0.3,0.2-0.6-0.1-0.8l-1.1-1.1c-0.2-0.2-0.2-0.5-0.1-0.8c0.4-0.7,0.7-1.4,1-2.2
		c0.1-0.4,0.5-0.8,0.9-0.9h1.3c0.3,0,0.6-0.2,0.6-0.5c0.1-0.7,0.2-1.4,0.2-2.1C30,15.3,29.9,14.6,29.8,13.9z M23.5,17.2
		c-0.5,3.2-3.1,5.8-6.3,6.3c-5.1,0.8-9.5-3.6-8.7-8.7C9,11.6,11.6,9,14.8,8.5C19.9,7.7,24.3,12.1,23.5,17.2z"/>
</g>
</svg>
