<?xml version="1.0" encoding="utf-8"?>
<!-- Generator: Adobe Illustrator 27.9.0, SVG Export Plug-In . SVG Version: 6.00 Build 0)  -->
<svg version="1.1" id="home" xmlns="http://www.w3.org/2000/svg" xmlns:xlink="http://www.w3.org/1999/xlink" x="0px" y="0px"
	 viewBox="0 0 32 32" style="enable-background:new 0 0 32 32;" xml:space="preserve">
<style type="text/css">
	.st0{fill:#3D2D19;}
</style>
<g>
	<g>
		<g>
			<path class="st0" d="M20.5,12.9h-2.9c-0.4,0-0.7,0.3-0.7,0.7v7.9h4.3v-7.9C21.2,13.3,20.9,12.9,20.5,12.9z"/>
			<path class="st0" d="M27.3,7.2c0-0.4-0.3-0.7-0.7-0.7h-2.9c-0.4,0-0.7,0.3-0.7,0.7v14.4h4.3V7.2z M15.1,10.1
				c0-0.4-0.3-0.7-0.7-0.7h-2.9c-0.4,0-0.7,0.3-0.7,0.7v11.5h4.3V10.1z M28.9,23.4H3.1c-0.6,0-1.1,0.5-1.1,1.1s0.5,1.1,1.1,1.1h25.8
				c0.6,0,1.1-0.5,1.1-1.1C30,23.8,29.5,23.4,28.9,23.4z M9,15.1c0-0.4-0.3-0.7-0.7-0.7H5.4c-0.4,0-0.7,0.3-0.7,0.7v6.5H9V15.1z"/>
		</g>
	</g>
</g>
</svg>
