<?xml version="1.0" encoding="utf-8"?>
<!-- Generator: Adobe Illustrator 25.1.0, SVG Export Plug-In . SVG Version: 6.00 Build 0)  -->
<svg version="1.1" id="Layer_1" xmlns="http://www.w3.org/2000/svg" xmlns:xlink="http://www.w3.org/1999/xlink" x="0px" y="0px"
	 viewBox="0 0 800 800" style="enable-background:new 0 0 800 800;" xml:space="preserve">
<g>
	<g>
		<path d="M399.8,36.4c-87.9,0-183.5,92.9-159.2,201.6c23.7,105.8,71.3,201.6,159.2,201.6c87.9,0,133.1-91.2,159.2-201.6
			C584.6,129.6,487.7,36.4,399.8,36.4L399.8,36.4z"/>
	</g>
	<path d="M609.2,444.5l-100.8-41.6c-6.2,7.8-12.8,14.5-19.6,20.6l11.9,12.8c-28.5,26.5-62.5,40-100.9,40
		c-37.7,0-71.4-13.5-100.4-40.2l11.6-12.6c-6.9-6.1-13.5-12.8-19.8-20.4l-100.3,41.4c-65.4,27-108,90.7-108,161.4v157.7h634.4V605.9
		C717.2,535.2,674.5,471.5,609.2,444.5z"/>
</g>
</svg>
