<?xml version="1.0" encoding="utf-8"?>
<!-- Generator: Adobe Illustrator 25.1.0, SVG Export Plug-In . SVG Version: 6.00 Build 0)  -->
<svg version="1.1" id="Layer_1" xmlns="http://www.w3.org/2000/svg" xmlns:xlink="http://www.w3.org/1999/xlink" x="0px" y="0px"
	 viewBox="0 0 800 800" style="enable-background:new 0 0 800 800;" xml:space="preserve">
<g>
	<path d="M400,37.2c200,0,362.8,162.8,362.8,362.8c0,200-162.8,362.8-362.8,362.8S37.2,600,37.2,400C37.2,199.9,200,37.2,400,37.2z
		 M500.8,116c59,68.8,94.7,158.2,101.1,253.7h98.9C689.1,251.3,609,154.4,500.8,116z M299.4,116C191.1,154.3,110.9,251.3,99.2,369.8
		h98.9C204.5,274.3,240.3,184.9,299.4,116L299.4,116z M430.2,130v239.8h111.3C534.2,275.9,493.6,189.9,430.2,130z M369.8,130
		c-63.4,59.9-104,145.9-111.3,239.8h111.3V130z M700.8,430.2h-98.9c-6.4,95.5-42.1,184.9-101.3,253.7
		C608.9,645.7,689.1,548.7,700.8,430.2z M541.5,430.2H430.2v239.7C493.6,610.1,534.2,524.1,541.5,430.2z M369.8,430.2H258.5
		c7.3,93.8,47.9,179.8,111.3,239.7V430.2z M198.1,430.2H99.2c11.7,118.6,92,215.6,200.4,253.8C240.4,615.2,204.5,525.8,198.1,430.2z
		"/>
</g>
</svg>
