<?xml version="1.0" encoding="utf-8"?>
<!-- Generator: Adobe Illustrator 25.2.3, SVG Export Plug-In . SVG Version: 6.00 Build 0)  -->
<svg version="1.1" id="home" xmlns="http://www.w3.org/2000/svg" xmlns:xlink="http://www.w3.org/1999/xlink" x="0px" y="0px"
	 viewBox="0 0 32 32" style="enable-background:new 0 0 32 32;" xml:space="preserve">
<style type="text/css">
	.st0{fill:#fff;}
	.st1{fill:#3b6e16;}
	.st2{fill:#fff;stroke:#fff;stroke-width:1.5;stroke-miterlimit:10;}
	.st3{fill:#fff;stroke:#3b6e16;stroke-miterlimit:10;}
</style>
<g>
	<path class="st0" d="M-35.4-38.1c-4.7-0.6-9.3-4.1-11.2-5.8c-0.5-0.5-1.3-0.5-1.9,0c-1.8,1.7-6.4,5.2-11.1,5.8
		c-0.8,0.1-1.3,0.8-1.3,1.5c0.6,14.4,10,20.7,12.7,22.2c0.4,0.2,1,0.2,1.4,0c2.7-1.5,12.1-7.8,12.7-22.2
		C-34.1-37.3-34.6-38-35.4-38.1z M-47.5-22.1c-3.9,0-7.1-3.2-7.1-7.1s3.2-7.1,7.1-7.1s7.1,3.2,7.1,7.1S-43.6-22.1-47.5-22.1z"/>
	<polygon class="st0" points="-44.3,-32.8 -48.6,-28.6 -50.7,-30.6 -52.1,-29.2 -50.1,-27.1 -48.6,-25.6 -47.1,-27.1 -42.9,-31.3 	
		"/>
</g>
<g>
	<path class="st0" d="M28-27.4h-1.7v-9.5H1.2v17.3h15.3c0.2,0.7,0.6,1.3,1,1.9L16.2-12l2.5-1l1.2,2.9l1.4-4.4
		c0.2,0.1,0.5,0.1,0.7,0.1s0.5,0,0.7-0.1l1.4,4.4l1.2-2.9l2.5,1l-1.3-5.7c1-1.5,1.5-3.2,1.5-5.1C28-22.8,28-27.4,28-27.4z"/>
	<path class="st1" d="M2.1-20.5v-15.6h23.3v8.6c-0.3,0-0.6-0.1-0.9-0.2v-5.8h-0.4c-0.7,0-1.3-0.6-1.3-1.3v-0.4H4.7v0.4
		c0,0.7-0.6,1.3-1.3,1.3H2.9v10.4h0.4c0.7,0,1.3,0.6,1.3,1.3v0.4H16c0,0.3,0.1,0.6,0.2,0.9C16.2-20.5,2.1-20.5,2.1-20.5z"/>
	<path class="st1" d="M21.1-33.5H6.4v3.5h14.7V-33.5z M20.2-30.9h-13v-1.7h13V-30.9z"/>
	<g>
		<rect x="6.4" y="-29.1" class="st1" width="0.9" height="0.9"/>
		<rect x="8.1" y="-29.1" class="st1" width="6.9" height="0.9"/>
		<rect x="6.4" y="-27.4" class="st1" width="8.6" height="0.9"/>
		<rect x="6.4" y="-25.7" class="st1" width="8.6" height="0.9"/>
		<rect x="6.4" y="-24" class="st1" width="8.2" height="0.9"/>
	</g>
	<path class="st0" d="M19.7-12.7l-0.6-1.4l-1.8,0.7l0.8-3.4c0.7,0.7,1.4,1.4,2.3,1.9L19.7-12.7z"/>
	<path class="st0" d="M26.5-13.4l-1.8-0.7l-0.6,1.4L23.5-15c0.9-0.5,1.7-1.2,2.3-1.9L26.5-13.4z"/>
	<path class="st1" d="M27.1-22.8c0,3.1-1.7,6-4.6,7.4c-0.4,0.2-0.9,0.2-1.3,0c-2.8-1.4-4.6-4.2-4.6-7.4v-3.7h1c1.6,0,3-0.6,4.2-1.6
		c1.2,1,2.6,1.6,4.2,1.6h1v3.7H27.1z"/>
	<path class="st0" d="M22.2-26.9L21.9-27l-0.2,0.2c-1.1,0.7-2.4,1.1-3.7,1.2h-0.4v2.8c0,2.8,1.6,5.3,4.1,6.6c0.1,0,0.2,0.1,0.2,0.1
		c0.1,0,0.2,0,0.2-0.1c2.5-1.3,4.1-3.8,4.1-6.6v-2.8h-0.4C24.5-25.7,23.3-26.1,22.2-26.9z"/>
	<path class="st0" d="M25.4-22.8c0,2.4-1.3,4.6-3.5,5.8c-2.1-1.1-3.5-3.3-3.5-5.8v-2c1.2-0.1,2.4-0.5,3.5-1.1c1,0.6,2.2,1,3.5,1.1
		V-22.8z"/>
	<path class="st1" d="M20.2-23.1v2.6c0,1,0.8,1.7,1.7,1.7s1.7-0.8,1.7-1.7v-2.6c0-1-0.8-1.7-1.7-1.7S20.2-24,20.2-23.1z M21.9-19.6
		c-0.5,0-0.9-0.4-0.9-0.9v-0.9h1.7v0.9C22.8-20,22.4-19.6,21.9-19.6z M22.8-23.1v0.9h-1.7v-0.9c0-0.5,0.4-0.9,0.9-0.9
		C22.4-24,22.8-23.6,22.8-23.1z"/>
</g>
<g>
	<path class="st0" d="M-22.4-17.5h12.3c0.2-0.7,0.8-1.8,2.4-2.3v-17.3c-1.6-0.5-2.2-1.6-2.4-2.3h-12.3c-0.4,1.2-1.3,2-2.4,2.3v17.3
		C-23.7-19.5-22.8-18.7-22.4-17.5z"/>
	<g>
		<path class="st1" d="M-20.8-36.8h9.2c0.2,0,0.4,0.2,0.4,0.4s-0.2,0.4-0.4,0.4h-9.2c-0.2,0-0.4-0.2-0.4-0.4
			C-21.3-36.6-21.1-36.8-20.8-36.8z"/>
		<path class="st1" d="M-20.8-34h9.2c0.2,0,0.4,0.2,0.4,0.4s-0.2,0.4-0.4,0.4h-9.2c-0.2,0-0.4-0.2-0.4-0.4
			C-21.3-33.9-21.1-34-20.8-34z"/>
	</g>
	<path class="st0" d="M-26.1-14.5h19.7c1,0,1.8-0.8,1.8-1.7v-24.5c0-1-0.8-1.8-1.8-1.8h-19.7c-1,0-1.8,0.8-1.8,1.8v24.5
		C-27.8-15.3-27.1-14.5-26.1-14.5z M-25.7-37.5c0-0.2,0.2-0.4,0.4-0.5c0.6-0.1,1.7-0.5,2.1-2c0.1-0.2,0.3-0.4,0.5-0.4h12.9
		c0.2,0,0.4,0.2,0.5,0.4c0.1,0.6,0.5,1.6,2.1,2c0.2,0.1,0.4,0.3,0.4,0.5v17.9c0,0.2-0.2,0.4-0.4,0.5c-1.5,0.3-2,1.4-2.1,2
		c0,0.2-0.2,0.4-0.5,0.4h-12.9c-0.2,0-0.4-0.2-0.5-0.4c-0.4-1.4-1.5-1.9-2.1-2c-0.2,0-0.4-0.2-0.4-0.5V-37.5z"/>
	<g>
		<path class="st1" d="M-17.7-19.1c-0.1,0.2-0.3,0.4-0.5,0.4c-0.1,0-0.3-0.1-0.4-0.2l-0.7-1.1l-1.2,0.2l0,0c-0.5,0-0.7-0.3-0.5-0.8
			l1.2-2.6c0.2,0.2,0.4,0.3,0.6,0.3c0,0.1,0.1,0.1,0.1,0.2l-0.9,1.9l0.5-0.1h0.1c0.3,0,0.6,0.2,0.7,0.4l0.3,0.5l0.9-1.9
			c0.2,0,0.4,0,0.6,0c0.1,0.1,0.2,0.1,0.3,0.1L-17.7-19.1z"/>
		<path class="st1" d="M-16.1-22.7c-0.1,0-0.3-0.1-0.3-0.2l-0.2-0.3l-0.3,0.2c-0.1,0.1-0.2,0.1-0.4,0.1c-0.1,0-0.2-0.1-0.3-0.2
			l-0.1-0.3l-0.3,0.1c-0.1,0.1-0.3,0-0.4,0c-0.1-0.1-0.2-0.2-0.2-0.3v-0.3h-0.3c-0.1,0-0.3,0-0.4-0.1s-0.1-0.2-0.1-0.4v-0.3h-0.3
			c-0.1,0-0.3-0.1-0.3-0.2c-0.1-0.1-0.1-0.3,0-0.4l0.1-0.3l-0.3-0.1c-0.1-0.1-0.2-0.2-0.3-0.3c0-0.1,0-0.3,0.1-0.4l0.2-0.3l-0.3-0.2
			c-0.1-0.1-0.2-0.2-0.2-0.3c0-0.1,0.1-0.3,0.2-0.3l0.3-0.2l-0.2-0.3c-0.1-0.1-0.1-0.2-0.1-0.4c0-0.1,0.1-0.2,0.2-0.3l0.3-0.1
			l-0.1-0.3c-0.1-0.1,0-0.3,0-0.4c0.1-0.1,0.2-0.2,0.3-0.2h0.3V-30c0-0.1,0-0.3,0.1-0.4s0.2-0.1,0.4-0.1h0.3v-0.3
			c0-0.1,0.1-0.3,0.2-0.3c0.1-0.1,0.3-0.1,0.4,0l0.3,0.1l0.1-0.3c0.1-0.1,0.2-0.2,0.3-0.3c0.1,0,0.3,0,0.4,0.1l0.3,0.2l0.2-0.3
			c0.1-0.1,0.2-0.2,0.3-0.2c0.1,0,0.3,0,0.3,0.1l0.2,0.3l0.2-0.2c0.1-0.1,0.2-0.1,0.4-0.1c0.1,0,0.2,0.1,0.3,0.2l0.1,0.3l0.3-0.1
			c0.1-0.1,0.3,0,0.4,0c0.1,0.1,0.2,0.2,0.2,0.3v0.3h0.3c0.1,0,0.3,0,0.4,0.1c0.1,0.1,0.1,0.2,0.1,0.4v0.3h0.3
			c0.1,0,0.3,0.1,0.3,0.2c0.1,0.1,0.1,0.3,0,0.4l-0.1,0.3l0.3,0.1c0.1,0.1,0.2,0.2,0.3,0.3c0,0.1,0,0.3-0.1,0.4l-0.2,0.3l0.3,0.2
			c0.1,0.1,0.2,0.2,0.2,0.3c0,0.1-0.1,0.3-0.2,0.3l-0.3,0.2l0.2,0.3c0.1,0.1,0.1,0.2,0.1,0.4c0,0.1-0.1,0.2-0.2,0.3l-0.3,0.1
			l0.1,0.3c0.1,0.1,0,0.3,0,0.4c-0.1,0.1-0.2,0.2-0.3,0.2h-0.3v0.3c0,0.1,0,0.3-0.1,0.4s-0.2,0.1-0.4,0.1h-0.3v0.3
			c0,0.1-0.1,0.3-0.2,0.3c-0.1,0.1-0.3,0.1-0.4,0l-0.3-0.1l-0.1,0.3c-0.1,0.1-0.2,0.2-0.3,0.3c-0.1,0-0.3,0-0.4-0.1l-0.3-0.2
			l-0.2,0.3C-15.9-22.7-16-22.7-16.1-22.7L-16.1-22.7z"/>
		<path class="st1" d="M-11.9-19.9L-11.9-19.9l-1.3-0.2l-0.7,1.1c-0.1,0.2-0.3,0.2-0.4,0.2c-0.2,0-0.4-0.1-0.5-0.4l-1.2-2.7
			c0.2,0,0.4-0.1,0.6-0.2c0.1,0,0.2,0,0.3,0.1l0.9,1.9l0.3-0.5c0.2-0.3,0.4-0.4,0.7-0.4h0.1l0.5,0.1l-0.8-1.8
			c0.2-0.1,0.3-0.3,0.4-0.4c0.1,0,0.2-0.1,0.3-0.1l1.1,2.5C-11.2-20.2-11.4-19.9-11.9-19.9z"/>
		<circle class="st0" cx="-16.1" cy="-27.2" r="1.5"/>
		<path class="st0" d="M-15.4-24l0.2,0.1l0.1-0.2c0.1-0.2,0.3-0.3,0.6-0.2l0.2,0.1v-0.2c0-0.2,0.2-0.4,0.5-0.4h0.2V-25
			c0-0.1,0-0.2,0.1-0.3c0.1-0.1,0.2-0.2,0.3-0.2h0.2l-0.1-0.2c-0.1-0.2,0-0.5,0.2-0.6l0.2-0.1l-0.1-0.1c-0.1-0.2-0.1-0.5,0.1-0.6
			l0.2-0.1l-0.2-0.1c-0.2-0.1-0.2-0.4-0.1-0.6l0.1-0.2l-0.2-0.1c-0.2-0.1-0.3-0.3-0.2-0.6L-13-29h-0.2c-0.2,0-0.4-0.2-0.4-0.5v-0.2
			h-0.2c-0.1,0-0.2,0-0.3-0.1s-0.2-0.2-0.2-0.3v-0.2l-0.2,0.1c-0.2,0.1-0.5,0-0.6-0.2l-0.1-0.2l-0.1,0.1c-0.2,0.1-0.4,0.1-0.6-0.1
			l-0.2-0.2l-0.1,0.2c-0.1,0.2-0.4,0.2-0.6,0.1l-0.2-0.1l-0.1,0.2c-0.1,0.2-0.3,0.3-0.6,0.2l-0.2-0.1v0.2c0,0.2-0.2,0.4-0.5,0.4
			h-0.2v0.2c0,0.1,0,0.2-0.1,0.3c-0.1,0.1-0.2,0.2-0.3,0.2h-0.2l0.1,0.2c0.1,0.2,0,0.5-0.2,0.6l-0.2,0.1l0.1,0.1
			c0.1,0.2,0.1,0.5-0.1,0.6l-0.2,0.1l0.2,0.1c0.2,0.1,0.2,0.4,0.1,0.6l-0.1,0.2l0.2,0.1c0.2,0.1,0.3,0.3,0.2,0.6l-0.1,0.2h0.2
			c0.2,0,0.4,0.2,0.4,0.5v0.2h0.2c0.1,0,0.2,0,0.3,0.1c0.1,0.1,0.2,0.2,0.2,0.3v0.2l0.2-0.1c0.2-0.1,0.5,0,0.6,0.2l0.1,0.2l0.1-0.1
			c0.1-0.1,0.2-0.1,0.3-0.1c0.1,0,0.3,0.1,0.3,0.2l0.1,0.2L-16-24C-15.9-24.2-15.6-24.2-15.4-24z M-16.1-24.9c-1.3,0-2.3-1-2.3-2.3
			s1-2.3,2.3-2.3s2.3,1,2.3,2.3S-14.9-24.9-16.1-24.9z"/>
	</g>
</g>
<g>
	<path class="st0" d="M13.3,25c-0.1,0.3-0.4,0.6-0.7,0.6c-0.1,0-0.4-0.1-0.6-0.3l-1-1.6L9.2,24l0,0c-0.7,0-1-0.4-0.7-1.2l1.7-3.8
		c0.3,0.3,0.6,0.4,0.9,0.4c0,0.1,0.1,0.1,0.1,0.3L10,22.5l0.7-0.1h0.1c0.4,0,0.9,0.3,1,0.6l0.4,0.7l1.3-2.7c0.3,0,0.6,0,0.9,0
		c0.1,0.1,0.3,0.1,0.4,0.1L13.3,25z"/>
	<path class="st0" d="M15.6,19.8c-0.1,0-0.4-0.1-0.4-0.3L14.9,19l-0.4,0.3c-0.1,0.1-0.3,0.1-0.6,0.1c-0.1,0-0.3-0.1-0.4-0.3
		l-0.1-0.4l-0.4,0.1c-0.1,0.1-0.4,0-0.6,0c-0.1-0.1-0.3-0.3-0.3-0.4V18h-0.4c-0.1,0-0.4,0-0.6-0.1c-0.1-0.1-0.1-0.3-0.1-0.6v-0.4
		h-0.4c-0.1,0-0.4-0.1-0.4-0.3c-0.1-0.1-0.1-0.4,0-0.6l0.1-0.4l-0.4-0.1c-0.1-0.1-0.3-0.3-0.4-0.4c0-0.1,0-0.4,0.1-0.6L9.7,14
		l-0.4-0.3c-0.1-0.1-0.3-0.3-0.3-0.4c0-0.1,0.1-0.4,0.3-0.4l0.4-0.3l-0.3-0.4c-0.1-0.1-0.1-0.3-0.1-0.6c0-0.1,0.1-0.3,0.3-0.4L10,11
		l-0.1-0.4c-0.1-0.1,0-0.4,0-0.6c0.1-0.1,0.3-0.3,0.4-0.3h0.4V9.2c0-0.1,0-0.4,0.1-0.6c0.1-0.1,0.3-0.1,0.6-0.1h0.4V8.1
		c0-0.1,0.1-0.4,0.3-0.4c0.1-0.1,0.4-0.1,0.6,0l0.4,0.1l0.1-0.4c0.1-0.1,0.3-0.3,0.4-0.4c0.1,0,0.4,0,0.6,0.1l0.4,0.3L15,6.9
		c0.1-0.1,0.3-0.3,0.4-0.3c0.1,0,0.4,0,0.4,0.1l0.3,0.4l0.3-0.3c0.1-0.1,0.3-0.1,0.6-0.1c0.1,0,0.3,0.1,0.4,0.3l0.1,0.4L18,7.4
		c0.1-0.1,0.4,0,0.6,0c0.1,0.1,0.3,0.3,0.3,0.4v0.4h0.4c0.1,0,0.4,0,0.6,0.1c0.1,0.1,0.1,0.3,0.1,0.6v0.4h0.4c0.1,0,0.4,0.1,0.4,0.3
		c0.1,0.1,0.1,0.4,0,0.6l-0.1,0.4l0.4,0.1c0.1,0.1,0.3,0.3,0.4,0.4c0,0.1,0,0.4-0.1,0.6l-0.3,0.4l0.4,0.3c0.1,0.1,0.3,0.3,0.3,0.4
		c0,0.1-0.1,0.4-0.3,0.4l-0.4,0.3l0.3,0.4c0.1,0.1,0.1,0.3,0.1,0.6c0,0.1-0.1,0.3-0.3,0.4l-0.4,0.1l0.1,0.4c0.1,0.1,0,0.4,0,0.6
		c-0.1,0.1-0.3,0.3-0.4,0.3h-0.4V17c0,0.1,0,0.4-0.1,0.6c-0.1,0.1-0.3,0.1-0.6,0.1H19v0.4c0,0.1-0.1,0.4-0.3,0.4
		c-0.1,0.1-0.4,0.1-0.6,0l-0.4-0.1l-0.1,0.4c-0.1,0.1-0.3,0.3-0.4,0.4c-0.1,0-0.4,0-0.6-0.1l-0.4-0.3l-0.3,0.4
		C15.9,19.8,15.7,19.8,15.6,19.8L15.6,19.8z"/>
	<path class="st0" d="M21.6,23.8L21.6,23.8l-1.9-0.3l-1,1.6c-0.1,0.3-0.4,0.3-0.6,0.3c-0.3,0-0.6-0.1-0.7-0.6l-1.7-3.9
		c0.3,0,0.6-0.1,0.9-0.3c0.1,0,0.3,0,0.4,0.1l1.3,2.7l0.4-0.7c0.3-0.4,0.6-0.6,1-0.6h0.1l0.7,0.1l-1.2-2.6c0.3-0.1,0.4-0.4,0.6-0.6
		c0.1,0,0.3-0.1,0.4-0.1l1.6,3.6C22.7,23.4,22.4,23.8,21.6,23.8z"/>
	<circle class="st1" cx="15.6" cy="13.3" r="2.2"/>
	<path class="st1" d="M16.6,17.9l0.3,0.1l0.1-0.3c0.1-0.3,0.4-0.4,0.9-0.3l0.3,0.1v-0.3c0-0.3,0.3-0.6,0.7-0.6h0.3v-0.3
		c0-0.1,0-0.3,0.1-0.4c0.1-0.1,0.3-0.3,0.4-0.3h0.3l-0.1-0.3c-0.1-0.3,0-0.7,0.3-0.9l0.3-0.1l-0.1-0.1c-0.1-0.3-0.1-0.7,0.1-0.9
		l0.3-0.1l-0.3-0.1c-0.3-0.1-0.3-0.6-0.1-0.9l0.1-0.3l-0.3-0.1c-0.3-0.1-0.4-0.4-0.3-0.9l0.1-0.3h-0.3c-0.3,0-0.6-0.3-0.6-0.7V9.7
		h-0.3c-0.1,0-0.3,0-0.4-0.1c-0.1-0.1-0.3-0.3-0.3-0.4V8.8l-0.3,0.1c-0.3,0.1-0.7,0-0.9-0.3l-0.1-0.3l-0.1,0.1
		c-0.3,0.1-0.6,0.1-0.9-0.1l-0.3-0.3l-0.1,0.3c-0.1,0.3-0.6,0.3-0.9,0.1l-0.3-0.1l-0.1,0.3c-0.1,0.3-0.4,0.4-0.9,0.3L13,8.8v0.3
		c0,0.3-0.3,0.6-0.7,0.6H12V10c0,0.1,0,0.3-0.1,0.4c-0.1,0.1-0.3,0.3-0.4,0.3h-0.3l0.1,0.3c0.1,0.3,0,0.7-0.3,0.9L10.7,12l0.1,0.1
		c0.1,0.3,0.1,0.7-0.1,0.9l-0.3,0.1l0.3,0.1c0.3,0.1,0.3,0.6,0.1,0.9l-0.1,0.3l0.3,0.1c0.3,0.1,0.4,0.4,0.3,0.9l-0.1,0.3h0.3
		c0.3,0,0.6,0.3,0.6,0.7v0.3h0.3c0.1,0,0.3,0,0.4,0.1c0.1,0.1,0.3,0.3,0.3,0.4v0.3l0.3-0.1c0.3-0.1,0.7,0,0.9,0.3l0.1,0.3l0.1-0.1
		c0.1-0.1,0.3-0.1,0.4-0.1c0.1,0,0.4,0.1,0.4,0.3l0.1,0.3l0.3-0.4C15.9,17.6,16.3,17.6,16.6,17.9z M15.6,16.6
		c-1.9,0-3.3-1.4-3.3-3.3s1.4-3.3,3.3-3.3s3.3,1.4,3.3,3.3S17.3,16.6,15.6,16.6z"/>
</g>
<path class="st2" d="M5,3.6c0,8.3,0,16.5,0,24.8h20.5v-0.6H5.6V4.3h19.5v24.1h0.6V3.6H5z"/>
<g>
	<path class="st3" d="M24.2,12.6c-3.3,0-6.1,2.7-6.1,6.1c0,3.3,2.7,6.1,6.1,6.1c3.3,0,6.1-2.7,6.1-6.1
		C30.3,15.3,27.5,12.6,24.2,12.6z"/>
	<polygon class="st1" points="24.6,20.6 23.3,22 21.9,20.6 20,18.6 21.2,17.3 23.3,19.2 27.2,15.3 28.5,16.7 	"/>
</g>
</svg>
