<?xml version="1.0" encoding="utf-8"?>
<!-- Generator: Adobe Illustrator 25.2.3, SVG Export Plug-In . SVG Version: 6.00 Build 0)  -->
<svg version="1.1" id="home" xmlns="http://www.w3.org/2000/svg" xmlns:xlink="http://www.w3.org/1999/xlink" x="0px" y="0px"
	 viewBox="0 0 32 32" style="enable-background:new 0 0 32 32;" xml:space="preserve">
<style type="text/css">
	.st0{fill:#fff;}
</style>
<g>
	<g>
		<g>
			<g>
				<g>
					<path class="st0" d="M24.5,17.8c0-0.5-0.4-0.8-0.8-0.8h-7.9c-0.5,0-0.8,0.4-0.8,0.8s0.4,0.8,0.8,0.8h7.9
						C24.1,18.6,24.5,18.3,24.5,17.8z M7.4,24c-0.4,0-0.7-0.3-0.7-0.7V12.1c0-0.4,0.3-0.7,0.7-0.7h17.3c0.4,0,0.7,0.3,0.7,0.7v6.3
						l2.6-2.6V7.4c0-1.5-1.2-2.6-2.6-2.6H6.6C5.2,4.8,4,6,4,7.4V24c0,1.5,1.2,2.6,2.6,2.6h10.8c0.1-0.5,0.3-0.8,0.6-1.1
						s0.9-0.9,0.9-0.9l0.6-0.6C19.5,24,7.4,24,7.4,24z M11.9,7.1h2.6c0.6,0,1,0.5,1,1s-0.5,1-1,1h-2.6c-0.6,0-1-0.5-1-1
						C11,7.6,11.4,7.1,11.9,7.1z M8,6.8c0.7,0,1.3,0.6,1.3,1.3S8.8,9.4,8,9.4S6.6,8.8,6.6,8.2C6.6,7.4,7.3,6.8,8,6.8z M29.3,21
						l-1.9-1.9c-0.1-0.1-0.4-0.1-0.5,0l-5.3,5.3c-0.1,0.1-0.1,0.4,0,0.5l1.9,1.9c0.1,0.1,0.4,0.1,0.5,0l5.3-5.3
						C29.4,21.3,29.4,21.1,29.3,21z M20.3,26.1c-0.1-0.1-0.4-0.1-0.5,0c-0.2,0.2-0.6,0.6-0.7,0.7c-0.1,0.1-0.1,0.1-0.1,0.2l-0.2,2.1
						c0,0.2,0.2,0.4,0.4,0.4l2.1-0.3c0.1,0,0.2,0,0.2-0.1l0.7-0.7c0.1-0.1,0.1-0.4,0-0.5L20.3,26.1z M9,20.2c-0.5,0-0.8,0.4-0.8,0.8
						s0.4,0.8,0.8,0.8h12c0.5,0,0.8-0.4,0.8-0.8s-0.4-0.8-0.8-0.8H9z M23.6,13.6h-7.9c-0.5,0-0.8,0.4-0.8,0.8c0,0.5,0.4,0.8,0.8,0.8
						h7.9c0.5,0,0.8-0.4,0.8-0.8S24.1,13.6,23.6,13.6z"/>
					<path class="st0" d="M11.9,13.4H9.3c-0.4,0-0.7,0.4-0.7,0.7v3.4c0,0.3,0.3,0.6,0.7,0.6h2.6c0.4,0,0.7-0.3,0.7-0.7V14
						C12.6,13.8,12.3,13.4,11.9,13.4z M31.9,18.3l-1.9-1.9c-0.1-0.1-0.4-0.1-0.5,0l-1,1c-0.1,0.1-0.1,0.4,0,0.5l1.9,1.9
						c0.1,0.1,0.4,0.1,0.5,0l1-1C32,18.7,32,18.4,31.9,18.3z"/>
				</g>
			</g>
		</g>
	</g>
</g>
</svg>
