<?xml version="1.0" encoding="utf-8"?>
<!-- Generator: Adobe Illustrator 25.2.0, SVG Export Plug-In . SVG Version: 6.00 Build 0)  -->
<svg version="1.1" id="home" xmlns="http://www.w3.org/2000/svg" xmlns:xlink="http://www.w3.org/1999/xlink" x="0px" y="0px"
	 viewBox="0 0 32 32" style="enable-background:new 0 0 32 32;" xml:space="preserve">
<style type="text/css">
	.st0{fill:#fff;}
</style>
<g>
	<g>
		<path class="st0" d="M29.2,17l-0.9-4.9c-0.2-1.1-1.2-1.9-2.3-1.9h-2c-1.1,0-2.1,0.8-2.3,1.9c0.1,0.2,0.1,0.4,0.2,0.6l1.1,5.9
			c0.1,0.7,0,1.4-0.3,2l0,0l0.4,4.5c0,0.6,0.6,1.1,1.2,1.1h1.6c0.6,0,1.1-0.5,1.2-1.1l0.4-4.5c0-0.2,0.1-0.4,0.2-0.6l1.5-2.2
			C29.2,17.6,29.2,17.3,29.2,17z M7.2,8.5c1.5,0,2.8-1.3,2.8-2.8S8.7,2.9,7.2,2.9S4.4,4.2,4.4,5.7C4.4,7.2,5.6,8.5,7.2,8.5z M25,8.5
			c1.5,0,2.8-1.3,2.8-2.8S26.5,2.9,25,2.9s-2.8,1.3-2.8,2.8S23.4,8.5,25,8.5z M8.1,10.2h-2C5,10.2,4,11,3.8,12.1l-1,4.9
			c-0.1,0.3,0,0.6,0.2,0.9l1.5,2.2c0.1,0.2,0.2,0.4,0.2,0.6l0.4,4.5c0,0.6,0.6,1.1,1.2,1.1h1.6c0.6,0,1.1-0.5,1.2-1.1l0.4-4.5l0,0
			c-0.3-0.6-0.4-1.3-0.3-2l1.1-5.9c0-0.2,0.1-0.4,0.2-0.6C10.2,11,9.2,10.2,8.1,10.2z"/>
		<path class="st0" d="M16.1,8.7c1.9,0,3.4-1.5,3.4-3.4C19.5,3.5,18,2,16.1,2s-3.4,1.5-3.4,3.4C12.7,7.2,14.2,8.7,16.1,8.7z
			 M21.1,18.9L20,13.1c-0.3-1.4-1.4-2.3-2.8-2.3h-2.4c-1.4,0-2.6,1-2.8,2.3L10.9,19c-0.1,0.4,0,0.8,0.2,1.1l1.8,2.6
			c0.1,0.2,0.2,0.4,0.2,0.7l0.4,5.4c0.1,0.7,0.7,1.3,1.4,1.3H17c0.7,0,1.4-0.6,1.4-1.3l0.4-5.4c0-0.2,0.1-0.5,0.2-0.7l1.8-2.6
			C21.1,19.7,21.2,19.3,21.1,18.9z"/>
	</g>
</g>
</svg>
