<?xml version="1.0" encoding="utf-8"?>
<!-- Generator: Adobe Illustrator 25.2.3, SVG Export Plug-In . SVG Version: 6.00 Build 0)  -->
<svg version="1.1" id="home" xmlns="http://www.w3.org/2000/svg" xmlns:xlink="http://www.w3.org/1999/xlink" x="0px" y="0px"
	 viewBox="0 0 32 32" style="enable-background:new 0 0 32 32;" xml:space="preserve">
<style type="text/css">
	.st0{fill:#fff;}
	.st1{fill:#3b6e16;}
</style>
<g>
	<path class="st0" d="M-3.1-29.3c0.3,0,0.6-0.3,0.6-0.6v-0.7c0.9,0.5,1.8,0.7,2.8,0.7h3.3l7.1,8.3l0,0c0.7,0.7,1.6,1,2.6,1
		c0.2,0,0.4-0.1,0.5-0.3c0.1-0.2,0.1-0.4,0-0.6l-3.1-8.4h8.8c0.5,0,0.9-0.4,1.1-0.8c0.2-0.5,0-1.1-0.4-1.4l-0.4-0.4l2.2-3.2
		c0.1-0.2,0.1-0.5,0-0.7s-0.3-0.3-0.5-0.3h-0.9c-1.1,0-2.2,0.4-3,1.2l-1.8,0.7h-4.6l1.7-4.8c0-0.2,0-0.4-0.2-0.6
		c-0.2-0.2-0.4-0.2-0.5-0.3c-1,0-1.9,0.4-2.6,1l-3.1,3.3c-0.6-0.4-1.3-0.6-2-0.6c-1.4-0.1-2.6,0.7-3.1,1.9h-1
		c-1.1,0-2.1,0.5-2.8,1.3v-1.3c0-0.3-0.3-0.6-0.6-0.6c-0.4,0-0.7,0.3-0.7,0.6l0,0v5C-3.7-29.6-3.4-29.3-3.1-29.3"/>
	<path class="st0" d="M0.4-33.6h1.3c0.8,0.5,1.8,0.8,2.8,0.6c0.9,0,2.2,0,2.8-0.6h8.8h0.2l2-0.8l0.1-0.1c0.5-0.5,1.3-0.9,2-0.9
		l-2,2.7c-0.1,0.2,0,0.6,0.2,0.8l1,0.7h-9.3v-0.2c-0.1-0.3-0.5-0.5-0.8-0.4l0,0c-0.2,0.1-0.4,0.3-0.4,0.6c0,0.1,0,0.1,0,0.2l0.2,0.5
		l0.2,0.6l2.9,7.9c-0.3-0.1-0.5-0.3-0.7-0.5l-6.4-7.4l-0.5-0.6l-0.5-0.6l-0.4-0.5c-0.2-0.2-0.6-0.2-0.8,0c-0.1,0.1-0.2,0.3-0.2,0.5
		H0.4C-0.5-31-1.4-31.3-2-31.9C-1.7-32.9-0.7-33.6,0.4-33.6"/>
	<path class="st0" d="M4.5-35.5c0.4,0,0.8,0.1,1.2,0.3c0.2,0.1,0.4,0.2,0.5,0.3l0,0c0.1,0.1,0.1,0.2,0.1,0.3s-0.2,0.2-0.7,0.3H4.9
		H4.5c-1.2,0-1.9-0.1-1.9-0.3c0-0.1,0.1-0.2,0.1-0.3C3.2-35.4,3.8-35.6,4.5-35.5"/>
	<path class="st0" d="M11.2-39l-1.5,4.2H7.4c0-0.1-0.1-0.3-0.1-0.4l3.2-3.2C10.7-38.7,11-38.9,11.2-39"/>
	<path class="st0" d="M22.4-27.4c0-0.3,0.3-0.6,0.6-0.6l0,0c0.3,0.1,0.6,0.4,0.5,0.7c0,0.3-0.2,0.5-0.5,0.5
		C22.7-26.8,22.4-27.1,22.4-27.4"/>
	<path class="st0" d="M22.4-20c0-0.3,0.3-0.6,0.6-0.6l0,0c0.3,0,0.6,0.2,0.6,0.6l0,0c0,0.3-0.3,0.6-0.6,0.6l0,0
		C22.7-19.3,22.4-19.6,22.4-20L22.4-20"/>
	<path class="st0" d="M22.4-22.4c0-0.3,0.3-0.6,0.6-0.6l0,0c0.3,0,0.6,0.2,0.6,0.6l0,0c0,0.3-0.3,0.6-0.6,0.6l0,0
		C22.7-21.8,22.4-22.1,22.4-22.4L22.4-22.4"/>
	<path class="st0" d="M22.4-24.9c0-0.3,0.3-0.6,0.6-0.6l0,0c0.3,0,0.6,0.3,0.6,0.6l0,0c0,0.3-0.2,0.6-0.6,0.6l0,0
		C22.7-24.3,22.4-24.6,22.4-24.9L22.4-24.9"/>
	<path class="st0" d="M26.2-18.1c0,0.3-0.3,0.6-0.6,0.6l0,0c-0.3,0-0.6-0.3-0.6-0.6c0-0.3,0.3-0.6,0.6-0.6S26.2-18.4,26.2-18.1
		L26.2-18.1"/>
	<path class="st0" d="M26.2-23c0,0.3-0.3,0.6-0.6,0.6c-0.3-0.1-0.6-0.4-0.5-0.7c0-0.3,0.2-0.5,0.5-0.5C25.9-23.7,26.2-23.4,26.2-23
		L26.2-23"/>
	<path class="st0" d="M26.2-20.6c0,0.3-0.3,0.6-0.6,0.6l0,0c-0.3,0-0.6-0.2-0.6-0.6l0,0c0-0.3,0.3-0.6,0.6-0.6l0,0
		C25.9-21.2,26.2-20.9,26.2-20.6L26.2-20.6"/>
	<path class="st0" d="M24.9-25.6c0-0.3,0.3-0.6,0.6-0.6l0,0c0.3-0.1,0.7,0.2,0.7,0.5c0,0.3-0.2,0.7-0.5,0.7c-0.1,0-0.2,0-0.2,0
		C25.2-24.9,24.9-25.2,24.9-25.6C24.9-25.5,24.9-25.5,24.9-25.6"/>
	<path class="st0" d="M21.2-20.6c-0.1,0.3-0.4,0.6-0.7,0.5c-0.3,0-0.5-0.2-0.5-0.5c-0.1-0.3,0.2-0.7,0.5-0.7
		c0.3-0.1,0.7,0.2,0.7,0.5C21.2-20.7,21.2-20.6,21.2-20.6"/>
	<path class="st0" d="M21.2-28c0.1,0.3-0.2,0.7-0.5,0.7S20-27.5,20-27.8c0-0.1,0-0.2,0-0.2c0.1-0.3,0.4-0.6,0.7-0.5
		C20.9-28.5,21.1-28.3,21.2-28"/>
	<path class="st0" d="M21.2-25.6c0,0.3-0.3,0.6-0.6,0.7s-0.6-0.3-0.7-0.6c0-0.3,0.3-0.6,0.6-0.7l0,0C20.9-26.2,21.2-25.9,21.2-25.6"
		/>
	<path class="st0" d="M21.2-23c-0.1,0.3-0.4,0.6-0.7,0.5c-0.3,0-0.5-0.2-0.5-0.5c-0.1-0.3,0.2-0.7,0.5-0.7c0.3-0.1,0.7,0.2,0.7,0.5
		C21.2-23.2,21.2-23.1,21.2-23"/>
	<path class="st0" d="M18.7-20c0.1,0.3-0.2,0.7-0.5,0.7s-0.7-0.2-0.7-0.5c0-0.1,0-0.2,0-0.2c0.1-0.3,0.4-0.6,0.7-0.5
		S18.7-20.2,18.7-20"/>
	<path class="st0" d="M18.7-24.9c-0.1,0.3-0.4,0.6-0.7,0.5c-0.3,0-0.5-0.2-0.5-0.5c-0.1-0.3,0.2-0.7,0.5-0.7
		c0.3-0.1,0.7,0.2,0.7,0.5C18.7-25.1,18.7-25,18.7-24.9"/>
	<path class="st0" d="M18.7-22.4c0.1,0.3-0.2,0.7-0.5,0.7s-0.7-0.2-0.7-0.5c0-0.1,0-0.2,0-0.2c0.1-0.3,0.4-0.6,0.7-0.5
		C18.5-22.9,18.7-22.7,18.7-22.4"/>
	<path class="st0" d="M18.7-27.4c0,0.3-0.3,0.6-0.6,0.6s-0.6-0.3-0.6-0.6c0-0.3,0.3-0.6,0.6-0.6S18.7-27.8,18.7-27.4L18.7-27.4"/>
	<path class="st0" d="M16.2-25.6c0,0.3-0.3,0.6-0.6,0.6l0,0c-0.3-0.1-0.6-0.4-0.5-0.7c0-0.3,0.2-0.5,0.5-0.5
		C15.9-26.2,16.2-25.9,16.2-25.6"/>
	<path class="st0" d="M16.2-23c0,0.3-0.3,0.6-0.6,0.6c-0.3-0.1-0.6-0.4-0.5-0.7c0-0.3,0.2-0.5,0.5-0.5C15.9-23.7,16.2-23.4,16.2-23
		L16.2-23"/>
	<path class="st0" d="M16.2-20.6c0,0.3-0.3,0.6-0.6,0.6l0,0c-0.3,0-0.6-0.2-0.6-0.6l0,0c0-0.3,0.3-0.6,0.6-0.6l0,0
		C15.9-21.2,16.2-20.9,16.2-20.6L16.2-20.6"/>
	<path class="st0" d="M16.2-28c0,0.3-0.3,0.6-0.6,0.6l0,0c-0.3,0-0.6-0.3-0.6-0.6l0,0c0-0.3,0.2-0.6,0.6-0.6l0,0
		C15.9-28.7,16.2-28.4,16.2-28L16.2-28"/>
	<path class="st0" d="M13.7-27.4c0.3,0,0.6,0.3,0.6,0.6l0,0c0.1,0.3-0.2,0.7-0.5,0.7s-0.7-0.2-0.7-0.5c0-0.1,0-0.2,0-0.2
		C13.1-27.1,13.4-27.4,13.7-27.4L13.7-27.4"/>
	<path class="st0" d="M25.5-11.9h-4.4v-0.8c0.8-0.3,1.3-1.2,1.2-2c-0.2-1-0.7-1.9-1.4-2.7c-0.3-0.3-0.7-0.3-1,0l0,0
		c-0.7,0.8-1.2,1.7-1.4,2.8c-0.1,0.9,0.4,1.7,1.2,2v0.8h-5v-0.7c0.8-0.3,1.3-1.2,1.2-2c-0.2-1-0.7-1.9-1.4-2.7
		c-0.3-0.3-0.7-0.3-0.9,0l0,0c-0.7,0.8-1.2,1.7-1.4,2.7c-0.1,0.9,0.4,1.7,1.3,2v0.8h-5v-0.8c0.8-0.3,1.3-1.2,1.2-2
		c-0.2-1-0.7-1.9-1.5-2.7c-0.3-0.3-0.7-0.3-1,0l0,0c-0.7,0.8-1.2,1.7-1.4,2.7c-0.1,0.9,0.4,1.7,1.2,2v0.8H2.5v-0.8
		c0.8-0.3,1.3-1.2,1.2-2c-0.2-1-0.7-1.9-1.4-2.7c-0.3-0.3-0.7-0.3-0.9,0l0,0c-0.6,0.7-1.1,1.6-1.3,2.6c-0.1,0.9,0.4,1.7,1.2,2v0.8
		h-4.4c-0.3,0-0.6,0.3-0.6,0.6l0,0c0,0.4,0.3,0.7,0.6,0.7l0,0h28.6c0.3,0,0.6-0.3,0.6-0.6l0,0C26.2-11.5,25.9-11.8,25.5-11.9
		C25.6-11.8,25.6-11.8,25.5-11.9"/>
	<path class="st0" d="M21.2-14.6c0,0.4-0.3,0.8-0.6,0.8S20-14.2,20-14.6c0.1-0.5,0.3-0.9,0.6-1.3C20.9-15.4,21.1-15,21.2-14.6"/>
	<path class="st0" d="M15-14.6c0,0.4-0.3,0.8-0.6,0.8c-0.3,0-0.6-0.4-0.6-0.8c0.1-0.5,0.3-0.9,0.6-1.3C14.6-15.4,14.9-15,15-14.6"/>
	<path class="st0" d="M8.7-14.6c0,0.4-0.3,0.8-0.6,0.8c-0.3,0-0.6-0.3-0.6-0.8c0.1-0.5,0.3-0.9,0.6-1.3C8.4-15.4,8.6-15,8.7-14.6"/>
	<path class="st0" d="M2.5-14.6c0,0.4-0.3,0.8-0.6,0.8c-0.3,0-0.6-0.4-0.6-0.8c0.1-0.5,0.3-0.9,0.6-1.3C2.2-15.4,2.4-15,2.5-14.6"/>
</g>
<path class="st0" d="M24.6,24.7h-0.7c-0.4,0-0.7,0.3-0.7,0.7c0,0.4,0.3,0.7,0.7,0.7h0.7c0.4,0,0.7-0.3,0.7-0.7
	C25.3,25,25,24.7,24.6,24.7z"/>
<path class="st0" d="M20.4,25c-0.3,0.3-0.3,0.7,0,1c0.3,0.3,0.7,0.3,1,0c0.3-0.3,0.3-0.7,0-1C21.1,24.7,20.7,24.7,20.4,25z"/>
<path class="st0" d="M26.9,24.8c-0.3,0.3-0.3,0.7,0,1c0.3,0.3,0.7,0.3,1,0c0.3-0.3,0.3-0.7,0-1C27.6,24.5,27.2,24.5,26.9,24.8z"/>
<g>
	<rect x="8.7" y="7.6" class="st1" width="8.3" height="15.1"/>
	<path class="st0" d="M14.8,6.4V3h-1.3H12h-1.3v3.4c-1.9,0-3.4,1.5-3.4,3.4v16.8c0,1.4,1.1,2.5,2.5,2.5H12h1.5h2.2
		c1.4,0,2.5-1.1,2.5-2.5V9.7C18.2,7.9,16.7,6.4,14.8,6.4z M16.5,20.6h-3H12H9v-5h3h1.5h3V20.6z M16.5,10.5h-3H12H9V9.7
		C9,8.8,9.8,8,10.7,8H12h1.5h1.3c0.9,0,1.7,0.8,1.7,1.7V10.5z"/>
</g>
<path class="st0" d="M34,22c-0.2,0-0.3,0-0.5,0c-1.3-1.4-3.4-1.8-5.1-1c0.2-0.8,0.4-1.7,0.4-2.6c0-2.1-1.5-3.9-3.6-4.3v-0.8H26
	c0.4,0,0.7-0.3,0.7-0.7V7.6c0-0.4-0.3-0.7-0.7-0.7h-2.9c-0.4,0-0.7,0.3-0.7,0.7v5.1c0,0.4,0.3,0.7,0.7,0.7h0.7v0.8
	c-2.1,0.4-3.6,2.2-3.6,4.3c0,0.9,0.2,1.8,0.4,2.6c-1.7-0.8-3.8-0.4-5.1,1c-0.2,0-0.3,0-0.5,0c-2.1,0-3.8,1.5-4.2,3.5h1.5
	c0.4-1.2,1.4-2,2.7-2c0.2,0,0.4,0,0.6,0.1c0.3,0.1,0.6,0,0.7-0.3c1-1.3,2.8-1.6,4.1-0.6c0.1,0.1,0.2,0.2,0.4,0.3
	c0.3,0.3,0.7,0.3,1,0c0.1,0,0.1-0.1,0.1-0.2c0.1-0.1,0.1-0.2,0.2-0.3l0,0c0.1-0.2,0.3-0.3,0.4-0.4c0,0,0,0,0.1,0
	c0.1-0.1,0.3-0.2,0.5-0.3c0,0,0.1,0,0.1-0.1c0.2-0.1,0.3-0.1,0.5-0.2c0,0,0.1,0,0.1,0c0.4-0.1,0.8-0.1,1.2,0c0,0,0.1,0,0.1,0
	c0.2,0,0.3,0.1,0.5,0.2c0,0,0.1,0,0.1,0.1c0.2,0.1,0.3,0.2,0.5,0.3c0,0,0,0,0.1,0.1c0.2,0.1,0.3,0.3,0.4,0.4
	c0.1,0.1,0.2,0.2,0.2,0.3c0.2,0.3,0.6,0.5,1,0.3c0.1,0,0.1-0.1,0.2-0.1c1.1-1.2,3-1.2,4.2-0.1c0.1,0.1,0.2,0.2,0.3,0.4
	c0.2,0.2,0.5,0.3,0.7,0.3c0.2,0,0.4-0.1,0.6-0.1c1.3,0,2.3,0.8,2.7,2h1.5C37.8,23.5,36.1,22,34,22z M23.8,8.3h1.5v3.6h-1.5V8.3z
	 M27,20.7c0,0-0.1,0-0.1-0.1c-0.1-0.1-0.2-0.1-0.3-0.2c-0.1,0-0.1-0.1-0.2-0.1c-0.2-0.1-0.3-0.1-0.5-0.2c-0.1,0-0.1,0-0.2-0.1
	c-0.1,0-0.3-0.1-0.4-0.1c-0.1,0-0.1,0-0.2,0c-0.4-0.1-0.8-0.1-1.2,0c-0.1,0-0.1,0-0.2,0c-0.1,0-0.3,0.1-0.4,0.1
	c-0.1,0-0.1,0-0.2,0.1c-0.2,0.1-0.3,0.1-0.5,0.2c-0.1,0-0.1,0.1-0.2,0.1c-0.1,0.1-0.2,0.1-0.3,0.2c0,0-0.1,0-0.1,0.1
	c-0.2-0.7-0.3-1.5-0.4-2.3c0-1.3,0.9-2.5,2.2-2.8v2.1c0,0.4,0.3,0.7,0.7,0.7s0.7-0.3,0.7-0.7v-2.1c1.3,0.3,2.2,1.5,2.2,2.8
	C27.4,19.2,27.2,20,27,20.7z"/>
</svg>
